<svg width="18" height="18" viewBox="0 0 36 36" xmlns="http://www.w3.org/2000/svg">
    <defs>
        <radialGradient cx="73.698%" cy="50%" fx="73.698%" fy="50%" r="26.302%" id="hlsnjf5usa">
            <stop stop-color="#FFC640" offset="0%"/>
            <stop stop-color="#F2AF13" offset="100%"/>
        </radialGradient>
    </defs>
    <g fill-rule="nonzero" fill="none">
        <path d="M30.857 0H5.143A5.143 5.143 0 0 0 0 5.143v25.714A5.143 5.143 0 0 0 5.143 36h25.714A5.143 5.143 0 0 0 36 30.857V5.143A5.143 5.143 0 0 0 30.857 0z" fill="url(#hlsnjf5usa)"/>
        <path d="M16.286 9.429H7.714A2.571 2.571 0 0 0 5.143 12v12a2.571 2.571 0 0 0 4.663 1.491l8.571-12a2.571 2.571 0 0 0-2.091-4.062zm-6.857 6a1.714 1.714 0 1 1 0-3.43 1.714 1.714 0 0 1 0 3.43zM22.714 25.714a2.143 2.143 0 1 0 0-4.285 2.143 2.143 0 0 0 0 4.285z" fill="#0D0A03"/>
        <path d="M30.857 12v12a2.571 2.571 0 1 1-5.143 0v-1.954a2.571 2.571 0 0 0-4.663-1.475l-1.337 1.878-2.151 3.017a2.571 2.571 0 0 1-4.166-3.009l8.572-12A2.572 2.572 0 0 1 24 9.43h4.286A2.571 2.571 0 0 1 30.857 12z" fill="#FFFDFA"/>
    </g>
</svg>
