<svg xmlns="http://www.w3.org/2000/svg" width="18" height="18" viewBox="0 0 36 36">
    <g fill="none" fill-rule="evenodd">
        <g>
            <g>
                <g>
                    <path fill="#E74141" fill-rule="nonzero" d="M15.808.131c3.249-.39 6.619.087 9.594 1.468 3.733 1.677 6.86 4.674 8.683 8.34 1.75 3.402 2.3 7.384 1.651 11.146-.78 4.589-3.452 8.813-7.236 11.516-2.85 2.069-6.32 3.272-9.846 3.383-5.168.227-10.363-1.954-13.85-5.767-1.384-1.473-2.489-3.196-3.309-5.04C-.125 21.514-.428 17.3.584 13.43 1.764 8.929 4.762 4.928 8.772 2.56 10.908 1.262 13.324.427 15.808.13" transform="translate(-2013 -404) translate(99 84) translate(1914 320)"/>
                    <path fill="#FFF" d="M12.814 18.606c.146.09.263.303.526.727l1.256 2.243c.233.424.38.666.35.848 0 .182-.117.364-.263.485-.117.091-.35.091-.847.091h-2.54c-.497 0-.731 0-.877-.09-.146-.092-.263-.274-.263-.486 0-.182.117-.394.35-.848l1.256-2.243c.234-.424.351-.636.526-.727.175-.09.35-.09.526 0zm18.05 0c.146.09.263.303.526.727l1.256 2.243c.233.424.38.666.35.848 0 .182-.117.364-.263.485-.116.091-.35.091-.847.091h-2.54c-.497 0-.73 0-.877-.09-.146-.092-.263-.274-.263-.486 0-.182.117-.394.35-.848l1.257-2.243c.233-.424.35-.636.525-.727.176-.09.35-.09.526 0zM9.046 12.394c.146.09.263.303.526.757l.847 1.546c.263.485.409.727.467.97.058.272.058.575 0 .848-.058.242-.204.485-.467.97l-2.278 4.12c-.263.486-.41.728-.585.91-.204.212-.438.333-.7.424-.205.053-.454.06-.866.06H4.14c-.497 0-.731 0-.877-.09-.146-.121-.263-.273-.263-.485 0-.182.117-.394.35-.818l4.645-8.455c.233-.454.35-.666.525-.757.175-.091.38-.091.526 0zm18.08 0c.145.09.262.303.525.757l.847 1.546c.263.485.409.727.467.97.059.272.059.575 0 .848-.058.242-.204.485-.467.97l-2.278 4.12c-.263.486-.409.728-.584.91-.205.212-.438.333-.701.424-.23.053-.483.06-.894.06h-1.852c-.496 0-.73 0-.876-.09-.146-.091-.263-.273-.263-.485 0-.182.117-.394.35-.818l4.645-8.455c.233-.454.35-.666.525-.757.176-.091.38-.091.555 0zM15.245 12c.343.003.547.013.751.06.263.091.497.243.701.425.176.181.322.424.585.909l2.22 4c.262.485.408.727.467.97.058.272.058.545 0 .818-.059.242-.176.485-.438.97l-.906 1.696c-.263.455-.38.667-.526.758-.146.09-.35.09-.525 0-.146-.09-.292-.303-.526-.758l-4.644-8.454c-.234-.424-.35-.637-.35-.818 0-.213.116-.394.262-.485.114-.071.28-.087.583-.09zm7.84 0c.364.001.578.011.68.09.147.122.264.304.264.486.029.181-.117.424-.351.848l-1.256 2.273c-.263.424-.38.636-.526.727-.175.091-.35.091-.525 0-.176-.09-.292-.303-.526-.727l-1.256-2.273c-.234-.454-.35-.667-.35-.848 0-.213.116-.394.262-.485.114-.071.28-.087.583-.09z" transform="translate(-2013 -404) translate(99 84) translate(1914 320)"/>
                </g>
            </g>
        </g>
    </g>
</svg>
