<svg width="19" height="15" viewBox="0 0 38 30" xmlns="http://www.w3.org/2000/svg">
    <path d="m0 0 5.89 2.06v6.182l-.888 3.873 1.049 4.203v2.06a6.208 6.208 0 0 0 2.803 4.961 5.94 5.94 0 0 0 5.337.58l.25-.1.218-.112c1.853-1.005 3.055-2.93 3.163-5.07l.008-.258v-2.143l2.178-2.967.646-2.885.807-.906h.161c.808-.78 1.734-1.42 2.743-1.896 1.435-.59 2.957-.92 4.5-.98l.422-.009h.806a11.336 11.336 0 0 1 7.25 3.13l.254.25h.161l-4.034 4.12h-.08a6.412 6.412 0 0 0-3.097-1.673l-.292-.058h-.807a5.823 5.823 0 0 0-3.996 1.615l-.2.199-.322.412h-.08a5.679 5.679 0 0 0-1.214 3.44l.003.268v1.814l-2.259 2.72-.645 3.378-.807.907-.254.23a10.603 10.603 0 0 1-6.749 2.652l-.339.003h-.484c-2.553 0-5.04-.814-7.115-2.324l-.308-.231-.265-.215C2.062 25.26.592 22.398.345 19.3l-.022-.344H.242a1.09 1.09 0 0 1-.082-.368l.001-.127V13.6L0 0zm24.123 21.181v.165a5.55 5.55 0 0 0 1.935 2.002l.243.14h.243a5.786 5.786 0 0 0 3.065.66 4.59 4.59 0 0 0 1.848-.307l.25-.105h.08c.663-.27 1.26-.68 1.756-1.2l.181-.201h.161L38 26.538h-.08a12.674 12.674 0 0 1-2.187 1.595l-.395.218-.344.188a11.267 11.267 0 0 1-4.834 1.289l-.39.007h-.322a10.303 10.303 0 0 1-7.61-3.304l-.216-.24h-.08c.154-.946.53-2.872.562-3.038l.002-.012 2.017-2.06zM12.586 6.758c.905.045 1.8.211 2.662.495 1.591.523 3.05 1.395 4.276 2.555l.242.164-.564 2.885-1.856 2.72-.161-.165a8.52 8.52 0 0 0-2.582-2.225l-.274-.146a5.954 5.954 0 0 0-2.066-.596 5.375 5.375 0 0 0-1.613.165h-.081a5.402 5.402 0 0 0-3.63 2.472l-.162.247-.807-3.049-.08-.33.806-3.626.36-.195a12.056 12.056 0 0 1 5.45-1.37z" fill="#52B489" fill-rule="nonzero"/>
</svg>
