<?xml version="1.0" encoding="UTF-8"?>
<svg width="18px" height="18px" viewBox="0 0 36 33" version="1.1" xmlns="http://www.w3.org/2000/svg" xmlns:xlink="http://www.w3.org/1999/xlink">
    <title>cardano</title>
    <g id="Cardano" stroke="none" stroke-width="1" fill="none" fill-rule="evenodd">
        <path d="M17.5583494,0.0976389255 C18.3430076,-0.308210772 19.3007542,0.633343383 18.883153,1.4110434 C18.6410884,2.04488892 17.7230858,2.21345725 17.2542206,1.73032326 C16.7579952,1.26647462 16.9199956,0.349920011 17.5583494,0.0976389255 M9.11891814,0.999908087 C9.59555945,0.805197373 10.1989211,1.23847514 10.150249,1.75389425 C10.2007931,2.31331256 9.51131922,2.725305 9.02546188,2.45930988 C8.38178011,2.21202871 8.45536431,1.17533344 9.11891814,1.00005094 M26.4037178,2.47502388 C25.6588037,2.3857398 25.5410114,1.22404683 26.2581334,0.989336852 C26.8144069,0.720198932 27.3246003,1.22490396 27.4059605,1.74789436 C27.2893202,2.1944576 26.9123272,2.6034501 26.4037178,2.47430961 M11.0388754,4.56269987 C11.8357736,4.06270904 12.9728008,4.80726681 12.8502564,5.72553567 C12.8089283,6.65266152 11.5675009,7.18979453 10.867227,6.56294888 C10.1904251,6.0706722 10.2926654,4.94112149 11.0388754,4.56298557 M23.203453,5.09354727 C23.5592779,4.18556393 24.9998579,4.15699302 25.404499,5.04269106 C25.8043881,5.73124986 25.3124828,6.5839485 24.5999688,6.8179442 C23.6560462,6.99279814 22.7594997,5.980531 23.203885,5.09426154 M16.5419946,6.76608801 C16.5342186,5.98481663 17.2514845,5.40268446 17.9999986,5.34954257 C18.496368,5.44825505 19.0375215,5.65810834 19.2504981,6.15509922 C19.6473632,6.84080093 19.2949942,7.7844979 18.5778722,8.09920641 C18.2499833,8.28148878 17.8621902,8.21349003 17.5050692,8.191919 C16.9591637,7.92606673 16.4993705,7.40464773 16.5421386,6.76623087 M3.99149601,7.90435284 C4.71941801,7.46036099 5.70150072,8.27063184 5.42588396,9.05504602 C5.27410754,9.733605 4.35466501,10.0095999 3.82906356,9.57646502 C3.26746201,9.17061533 3.35688626,8.19463323 3.99149601,7.90435284 M30.9420343,7.9029243 C31.559652,7.42721874 32.5787428,7.97292302 32.5051586,8.74576598 C32.5466307,9.45118161 31.6654923,9.98302899 31.0523386,9.6198928 C30.3771207,9.31889832 30.3082885,8.2883458 30.9420343,7.90221003 M20.0714443,9.30661283 C21.0905351,8.94347664 22.3011465,9.37804009 22.8820441,10.2794521 C23.6482702,11.3814319 23.2406051,13.059544 22.0514498,13.6918181 C20.8193824,14.4396615 19.0202414,13.8061017 18.5652002,12.440841 C18.0485267,11.2188635 18.8012168,9.68960581 20.0714443,9.30661283 M14.0918278,9.42761061 C15.221367,8.89904888 16.7414351,9.3418979 17.2870526,10.4885911 C17.9291504,11.604285 17.432637,13.1578279 16.2848099,13.7338173 C15.1355427,14.3813769 13.5140982,13.8909573 12.9584007,12.6925507 C12.334159,11.5342862 12.8879845,9.9610294 14.0918278,9.42761061 M8.10443534,11.4582876 C8.19083558,10.7363009 8.87685347,10.2665952 9.56949538,10.2178818 C10.3158494,10.3071659 10.9120111,10.8821554 10.9930833,11.6321416 C10.9441232,12.3738423 10.3662496,13.0989718 9.57395939,13.0944005 C8.70218099,13.1688277 7.93797088,12.3087006 8.10443534,11.4588591 M25.7891241,10.3754504 C26.6840865,9.85860271 27.92681,10.6110175 27.8870659,11.6309988 C27.94841,12.7116932 26.5730622,13.4738221 25.6818438,12.8394052 C24.7560652,12.3115577 24.8282094,10.8251564 25.7891241,10.3755932 M11.6583651,14.1838091 C12.705104,13.8981 13.9018913,14.3875196 14.4152527,15.3419307 C14.9768543,16.3026273 14.7477496,17.6371743 13.8743872,18.3418756 C12.7542082,19.3754281 10.6883785,18.9604357 10.0922168,17.5498902 C9.40720693,16.2569139 10.2392412,14.5240885 11.6583651,14.1836662 M22.9999804,14.1783806 C24.0174872,13.8896716 25.2128345,14.2783788 25.759892,15.1983619 C26.483206,16.2501997 26.137893,17.8188852 25.0612021,18.4968728 C23.933247,19.2841441 22.1862341,18.8707231 21.5655924,17.6397457 C20.8131904,16.3663405 21.5703445,14.566802 22.9999804,14.1783806 M4.92605858,15.3783586 C5.83023708,15.0390791 6.83247984,16.0289181 6.46614283,16.9181875 C6.24251021,17.7281726 5.09165904,18.0281671 4.4970814,17.4304638 C3.80141548,16.8696169 4.05903219,15.6216398 4.92620258,15.3783586 M29.4336301,16.6689063 C29.407566,15.9260628 29.9556316,15.2675035 30.7238737,15.2260757 C31.3430754,15.3233596 31.945141,15.8189219 31.8961809,16.4876239 C31.9529171,17.3708935 30.8801141,17.9711682 30.12152,17.5561758 C29.765983,17.3768933 29.5836785,17.0151857 29.4336301,16.6684778 M0.480622334,15.813922 C1.02451183,15.5783549 1.69742569,16.0460606 1.57329734,16.6453353 C1.54449727,17.3238943 0.534334482,17.5847467 0.16338946,17.0177571 C-0.164499444,16.6247643 0.0316290966,16.0176326 0.480622334,15.813922 Z M34.7784928,15.7996366 C35.1615339,15.5290701 35.7761276,15.7234951 35.92776,16.167487 C36.1852327,16.6523352 35.7131994,17.3166087 35.1631179,17.2346102 C34.3908438,17.3044661 34.1407151,16.1369161 34.7784928,15.7996366 M14.6131093,19.0567197 C16.0444732,18.6874407 17.5831175,19.8709904 17.5921895,21.3336779 C17.6856457,22.8110794 16.1701856,24.121341 14.7049815,23.7800616 C13.5724184,23.5992078 12.683792,22.5169419 12.7205121,21.3815342 C12.7174881,20.2958398 13.5434743,19.2864297 14.6132533,19.0567197 M20.2818289,19.0537197 C21.7346489,18.65087 23.3190853,19.8561336 23.2960452,21.3521061 C23.3727974,22.8022224 21.9045694,24.068342 20.4700374,23.780633 C19.1200337,23.6074933 18.123983,22.1360917 18.500832,20.8364013 C18.6910565,19.9704172 19.4204185,19.2661444 20.2818289,19.0537197 M9.35219878,19.9537032 C10.3574656,19.7835635 11.2999481,20.8965431 10.892283,21.8430971 C10.5949222,22.8522215 9.11459813,23.1259307 8.46011632,22.3016601 C7.69245021,21.5101032 8.26557179,20.0629869 9.35219878,19.9537032 M25.9760366,19.9995595 C26.8724391,19.6271378 27.9727461,20.3962665 27.9037699,21.3615345 C27.93977,22.4240865 26.5812703,23.1566445 25.7047398,22.536513 C24.7111371,21.9793803 24.8925776,20.3412675 25.9760366,19.9995595 M30.6226414,24.6230461 C30.2717124,23.9739152 30.9092022,23.1136452 31.6356842,23.2337859 C31.9972692,23.227786 32.2502779,23.5103522 32.4816865,23.7480622 C32.5292066,24.1327694 32.6089829,24.5909039 32.287142,24.8880413 C31.8501008,25.4367455 30.860098,25.2801769 30.6226414,24.6236175 M3.98876,23.4146397 C4.66772187,22.9662194 5.64476456,23.6349214 5.49212414,24.4224784 C5.41090792,25.1188942 4.52732149,25.5168869 3.94411988,25.1224655 C3.31901416,24.7637578 3.34205422,23.742348 3.98876,23.415354 M17.402397,24.8731844 C18.2913114,24.4840487 19.4235865,25.2517489 19.3393463,26.2230168 C19.4052985,27.2961399 18.0046066,28.039412 17.1361402,27.3944238 C16.1713376,26.8410054 16.331754,25.2130353 17.402973,24.8727558 M11.1887798,26.3103009 C11.9457899,25.9151653 12.9618567,26.5975813 12.8928805,27.4388516 C12.9159206,28.1289818 12.2369587,28.7172567 11.5503648,28.6152586 C10.9817073,28.603116 10.6109062,28.0974109 10.4286017,27.6165626 C10.4379618,27.0924294 10.6554024,26.5087258 11.1887798,26.3110152 M23.7734065,26.3231578 C24.5518727,25.8458808 25.6583717,26.5314397 25.5847875,27.4302803 C25.6048036,28.3696917 24.3543041,28.9715378 23.6294061,28.3544062 C22.9275482,27.8707008 23.0132284,26.707865 23.7734065,26.3231578 M25.9622126,31.690345 C25.6166116,31.1704974 26.0235567,30.5442232 26.5858783,30.4257968 C27.0380395,30.5170808 27.5161208,30.8543604 27.4210806,31.3743508 C27.3551284,32.0780522 26.3176055,32.2940482 25.9622126,31.690345 M8.59014868,31.2389247 C8.72810106,30.8269323 9.06218198,30.4175112 9.55106333,30.5246521 C10.2637213,30.5747941 10.4752579,31.640346 9.85144816,31.9687685 C9.29056661,32.3439045 8.63982882,31.8301996 8.59014868,31.2389247 M16.9709718,31.7116304 C17.1074842,31.102213 17.9026543,30.8057898 18.4268158,31.1294982 C18.7724167,31.2770669 18.874225,31.6614884 18.9632173,31.9881967 C18.9156971,32.1583364 18.873217,32.3287619 18.8314569,32.4989016 C18.6168963,32.7511827 18.3418556,33.0036067 17.9840146,32.994464 C17.3203167,33.0716054 16.7217071,32.3273333 16.9709718,31.7116304" id="cardano" fill="#0033AD" fill-rule="nonzero"></path>
    </g>
</svg>