<svg width="18" height="18" viewBox="0 0 36 36" xmlns="http://www.w3.org/2000/svg">
    <g fill="none" fill-rule="evenodd">
        <g transform="translate(.077)">
            <path d="M14.983.284c3.735-.675 7.693-.141 11.089 1.54a17.15 17.15 0 0 1 2.283 1.335c-2.098.81-3.878 2.304-5.184 4.097-1.265-.5-2.598-.847-3.959-.957-2.3-.204-4.657.19-6.748 1.159-.098.04-.2.073-.3.103-1.227-1.674-2.872-3.08-4.805-3.903A17.758 17.758 0 0 1 14.983.284zM25.03 8.23c2.248-2.07 5.132-3.436 8.154-3.98.136-.014.289-.038.414.03.137.085.148.261.158.404-.055 2.618-.37 5.255-1.214 7.749-.362 1.061-.866 2.083-1.556 2.977-.186.233-.348.484-.538.715-.064-.295-.12-.591-.192-.884.72-.954 1.184-2.071 1.51-3.21.557-1.91.773-3.9.807-5.883-.002-.154-.026-.37-.21-.412-.29-.047-.577.053-.86.104-2.18.461-4.277 1.347-6.07 2.66-.136-.088-.27-.177-.404-.27zM2.645 4.517c.119-.132.318-.1.476-.085 2.917.541 5.69 1.852 7.898 3.808-.155.11-.314.215-.473.318-1.829-1.228-3.933-2.036-6.107-2.43-.156-.02-.338-.051-.471.054-.154.224-.086.51-.086.763.053 1.56.204 3.124.58 4.644.293 1.23.695 2.455 1.38 3.533-.08.31-.15.622-.207.937-.187-.137-.287-.353-.433-.526-1.137-1.513-1.706-3.35-2.087-5.173-.39-1.784-.523-3.611-.566-5.431.005-.14.007-.296.096-.412z" fill="#F6D355" fill-rule="nonzero"/>
            <path d="M30.725 17.583c1.717-1.844 3.202-3.944 4.047-6.319 1.52 3.944 1.575 8.466-.083 12.376-.361.986-.777 1.955-1.306 2.865-1.196 2.092-2.832 3.927-4.735 5.425-1.842 1.449-3.933 2.6-6.173 3.334-1.53.493-3.139.792-4.753.727-2.589-.105-5.116-.878-7.42-2.02-3.487-1.747-6.54-4.45-8.39-7.866a15.663 15.663 0 0 1-1.884-6.63 16.835 16.835 0 0 1 1.012-6.788c1.028 2.28 2.596 4.293 4.398 6.032.073.066.06.17.074.258.194 2.372 1.212 4.655 2.792 6.45 1.851 2.12 4.463 3.566 7.252 4.074a5.324 5.324 0 0 0 2.572 1.186c1.42.234 2.889.002 4.227-.497.976-.37 1.737-1.182 2.118-2.13.725-.37 1.384-.856 2.007-1.373.94-.805 1.77-1.741 2.416-2.791a4.552 4.552 0 0 1-3.098.285 4.43 4.43 0 0 1-2.385-1.568 4.296 4.296 0 0 1-.916-2.654 4.299 4.299 0 0 1 .743-2.453 4.446 4.446 0 0 1 2.188-1.69 4.545 4.545 0 0 1 3.258.08 4.49 4.49 0 0 1 2.039 1.687M24.3 17.45a3.448 3.448 0 0 0 .091 4.465c-.154.247-.14.602.086.803.244.233.66.21.895-.026.53.273 1.127.428 1.727.414a3.553 3.553 0 0 0 2.68-1.246 3.45 3.45 0 0 0-.184-4.663 3.537 3.537 0 0 0-2.56-1.045A3.54 3.54 0 0 0 24.3 17.45z" fill="#F6D355" fill-rule="nonzero"/>
            <ellipse fill="#EA8664" cx="19.614" cy="29.633" rx="2.731" ry="2.204"/>
            <path d="M10.64 15.81c.816-.086 1.66.027 2.406.375a4.404 4.404 0 0 1 2.17 2.135 4.333 4.333 0 0 1 .11 3.446c-.596 1.57-2.185 2.7-3.883 2.784-1.244.08-2.514-.382-3.398-1.249a4.364 4.364 0 0 1-1.256-2.305c-.21-1.058 0-2.184.565-3.105.693-1.142 1.943-1.93 3.286-2.082m.123.604a3.553 3.553 0 0 0-2.437 1.52 3.454 3.454 0 0 0-.543 2.452c.124.828.57 1.6 1.218 2.14.016.43.508.719.9.534a3.58 3.58 0 0 0 2.444.115 3.518 3.518 0 0 0 2.068-1.705c.329-.61.46-1.32.38-2.007-.1-.9-.575-1.758-1.297-2.321a3.598 3.598 0 0 0-2.733-.728z" fill="#F6D355" fill-rule="nonzero"/>
        </g>
        <g fill="#373636" fill-rule="nonzero">
            <path d="M32.277 2.21c.527-.09 1.06-.186 1.598-.167.316.018.658.071.902.288.198.172.262.445.246.695-.042.767.1 1.528.264 2.274.156.72.263 1.455.256 2.193a11.913 11.913 0 0 1-.693 3.771c-.846 2.375-2.33 4.475-4.048 6.319a4.49 4.49 0 0 0-2.039-1.687 4.545 4.545 0 0 0-3.258-.08 4.446 4.446 0 0 0-2.188 1.69 4.299 4.299 0 0 0-.742 2.453c-.007.951.325 1.9.915 2.654a4.43 4.43 0 0 0 2.385 1.568 4.552 4.552 0 0 0 3.098-.285 11.934 11.934 0 0 1-2.416 2.79c-.622.518-1.281 1.005-2.007 1.374.283-.73.36-1.548.139-2.302-.14-.486-.413-.92-.688-1.34a6.154 6.154 0 0 0-1.082-1.257c-.435-.387-.923-.722-1.29-1.178-.452-.565-.709-1.256-.858-1.953-.23-1.088-.235-2.205-.277-3.31-.03-.69-.058-1.388-.248-2.056-.127-.456-.39-.893-.798-1.154a.727.727 0 0 0-.773-.02c-.361.22-.61.592-.737.985-.174.568-.166 1.168-.155 1.754.048 1.386.25 2.786.015 4.165-.126.73-.417 1.458-.953 1.992-.408.423-.942.695-1.379 1.084-.426.373-.737.854-.988 1.352-.344.664-.53 1.426-.404 2.17.156 1 .794 1.863 1.56 2.51-2.79-.509-5.401-1.956-7.253-4.075-1.58-1.795-2.597-4.078-2.791-6.45-.015-.087-.002-.192-.075-.258-1.801-1.74-3.37-3.753-4.398-6.032C.331 10.95-.106 9.034.022 7.127c.076-1.172.522-2.297.494-3.48.004-.26-.036-.542.104-.778.143-.26.445-.383.729-.43.651-.1 1.306.033 1.948.14 1.409.23 2.825.513 4.14 1.08 1.932.822 3.577 2.228 4.804 3.902a2.96 2.96 0 0 0 .3-.103 13.333 13.333 0 0 1 6.748-1.159c1.362.11 2.694.456 3.959.957 1.307-1.793 3.087-3.286 5.184-4.097 1.233-.483 2.541-.735 3.845-.95m-7.17 6.021c.133.093.267.182.403.27 2.35 1.591 4.127 4.01 4.823 6.741.073.293.128.59.192.884.19-.23.352-.482.538-.715.69-.894 1.194-1.916 1.557-2.977.843-2.494 1.158-5.131 1.213-7.75-.01-.142-.02-.318-.158-.402-.125-.07-.277-.045-.413-.032-3.023.545-5.906 1.911-8.155 3.981M2.722 4.517c-.09.116-.09.272-.096.412.043 1.82.177 3.647.567 5.43.38 1.824.95 3.66 2.086 5.174.146.173.246.39.433.526.057-.315.127-.627.207-.937.704-2.65 2.433-4.994 4.704-6.564.16-.103.318-.209.474-.318-2.209-1.956-4.982-3.267-7.898-3.808-.159-.014-.358-.047-.477.085m7.995 11.292c-1.343.152-2.593.94-3.285 2.082a4.358 4.358 0 0 0-.566 3.105c.17.87.61 1.688 1.256 2.305.884.867 2.155 1.328 3.399 1.249 1.698-.083 3.286-1.215 3.883-2.784a4.333 4.333 0 0 0-.11-3.446 4.404 4.404 0 0 0-2.171-2.135c-.745-.348-1.59-.461-2.406-.376z"/>
            <path d="M24.378 17.45a3.54 3.54 0 0 1 2.734-1.298c.95-.018 1.9.372 2.56 1.045a3.448 3.448 0 0 1 .185 4.663 3.553 3.553 0 0 1-2.68 1.246 3.618 3.618 0 0 1-1.727-.414c.253-.279.19-.772-.153-.95-.273-.167-.64-.071-.829.173a3.448 3.448 0 0 1-.09-4.465M27.76 17c-.55.145-.888.778-.708 1.308.137.49.676.82 1.184.73.575-.066 1.003-.659.887-1.216-.083-.605-.777-1.022-1.363-.822zM10.84 16.413a3.598 3.598 0 0 1 2.733.728 3.464 3.464 0 0 1 1.297 2.32c.08.687-.05 1.397-.38 2.008a3.518 3.518 0 0 1-2.068 1.705 3.58 3.58 0 0 1-2.443-.115c.445-.196.467-.888.026-1.1-.405-.239-.961.108-.927.567a3.498 3.498 0 0 1-1.218-2.141 3.454 3.454 0 0 1 .544-2.452 3.553 3.553 0 0 1 2.437-1.52m1.126.815c-.443.126-.76.564-.74 1.016-.016.546.488 1.045 1.044 1.027.398.023.79-.211.966-.561a1.041 1.041 0 0 0-.224-1.254 1.077 1.077 0 0 0-1.046-.228zM19.075 24.893a6.954 6.954 0 0 1 2.691.257.467.467 0 0 1 .285.641c-.235.475-.618.866-1.048 1.174-.406.292-.942.332-1.422.24-.634-.124-1.203-.46-1.694-.863-.158-.139-.31-.307-.35-.517-.054-.31.176-.614.47-.708a4.794 4.794 0 0 1 1.068-.224z"/>
        </g>
        <g fill="#FFFFFE" fill-rule="nonzero">
            <path d="M31.581 5.84c.282-.051.57-.151.86-.104.184.041.208.258.21.412-.035 1.982-.25 3.972-.808 5.883-.326 1.139-.79 2.256-1.51 3.21-.696-2.73-2.473-5.15-4.823-6.741 1.793-1.313 3.89-2.199 6.071-2.66zM4.045 6.182c.134-.105.315-.075.472-.054 2.173.394 4.277 1.202 6.106 2.43-2.271 1.57-4 3.913-4.704 6.564-.685-1.078-1.086-2.303-1.379-3.533-.376-1.52-.528-3.083-.581-4.644 0-.253-.068-.54.086-.763zM18.675 13.49a.727.727 0 0 1 .773.02c.408.261.67.698.798 1.154.19.668.217 1.366.248 2.055.042 1.106.046 2.223.277 3.311.15.697.406 1.388.859 1.953.366.456.854.791 1.29 1.178.417.367.778.795 1.08 1.258.276.42.549.853.689 1.339.22.754.144 1.573-.139 2.302-.381.948-1.142 1.76-2.118 2.13-1.338.5-2.806.731-4.227.497a5.324 5.324 0 0 1-2.572-1.186c-.765-.646-1.403-1.51-1.56-2.51-.125-.743.061-1.505.405-2.169.251-.498.562-.98.988-1.352.437-.39.97-.661 1.379-1.084.536-.534.827-1.261.953-1.992.234-1.38.033-2.779-.015-4.165-.01-.586-.019-1.186.155-1.754.127-.393.376-.766.737-.985m.4 11.403c-.364.033-.723.11-1.069.224-.293.094-.523.399-.47.708.041.21.193.378.351.517.49.403 1.06.739 1.694.863.48.092 1.016.052 1.422-.24.43-.308.813-.7 1.048-1.174a.467.467 0 0 0-.285-.641 6.954 6.954 0 0 0-2.691-.257zM27.76 16.999c.586-.2 1.28.217 1.363.822.116.557-.312 1.15-.887 1.217-.508.09-1.047-.241-1.184-.731-.18-.53.158-1.163.708-1.308zM11.967 17.228a1.077 1.077 0 0 1 1.046.228c.349.306.446.85.224 1.254-.175.35-.568.584-.966.561-.556.018-1.06-.48-1.043-1.027-.02-.452.296-.89.74-1.016zM24.468 21.915c.19-.244.556-.34.829-.174.343.179.406.672.153.951-.236.235-.651.259-.896.026-.226-.2-.24-.556-.086-.803zM9.078 22.526c-.034-.46.522-.806.927-.566.44.211.419.903-.026 1.099-.393.185-.885-.104-.9-.533z"/>
        </g>
    </g>
</svg>
