<svg width="18" height="17" viewBox="0 0 36 34" xmlns="http://www.w3.org/2000/svg">
    <path d="M34.247 23.668H11.528v-12.26H8.016v13.963c0 .919.788 1.681 1.756 1.681h19.927l-4.12 3.586H3.49V10.355h22.741c.45 0 .856-.157 1.171-.426l8.016-6.97c.54-.471.72-1.233.473-1.86A1.761 1.761 0 0 0 34.247 0H9.772c-.968 0-1.756.762-1.756 1.68v4.215h3.49v-2.51h18.17l-4.12 3.585H1.756C.788 6.97 0 7.732 0 8.651V32.32C0 33.238.788 34 1.756 34h24.475c.45 0 .856-.157 1.171-.426l8.016-6.97c.54-.47.72-1.233.473-1.86a1.811 1.811 0 0 0-1.644-1.076z" fill="#FE4350" fill-rule="nonzero"/>
</svg>
