<svg xmlns="http://www.w3.org/2000/svg" width="18" height="18" viewBox="0 0 36 36">
    <g fill="none">
        <circle cx="18" cy="18" r="18" fill="#2E3148"/>
        <circle cx="18" cy="18" r="10.444" fill="#1B1E36"/>
        <path fill="#747998" stroke="#747998" stroke-width="1.2" d="M18.037 2.296c-1.943 0-3.518 7.048-3.518 15.741s1.575 15.74 3.518 15.74c1.943 0 3.519-7.047 3.519-15.74 0-8.693-1.576-15.74-3.519-15.74zm.243 30.593c-.222.296-.444.074-.444.074C16.94 31.926 16.493 30 16.493 30c-1.565-5.037-1.192-15.852-1.192-15.852.735-8.586 2.074-10.614 2.529-11.064.096-.095.246-.107.356-.028.66.468 1.215 2.425 1.215 2.425 1.636 6.075 1.488 11.778 1.488 11.778.148 4.963-.82 10.519-.82 10.519-.745 4.222-1.789 5.11-1.789 5.11z"/>
        <path fill="#747998" stroke="#747998" stroke-width="1.2" d="M31.69 10.204c-.967-1.686-7.863.455-15.407 4.781-7.544 4.327-12.866 9.2-11.9 10.885.967 1.686 7.864-.454 15.408-4.781s12.866-9.2 11.9-10.885zM5.276 25.639c-.37-.047-.287-.352-.287-.352.454-1.291 1.9-2.638 1.9-2.638 3.592-3.865 13.158-8.923 13.158-8.923 7.813-3.635 10.24-3.482 10.855-3.313.13.036.216.162.202.297-.074.806-1.5 2.26-1.5 2.26-4.451 4.445-9.473 7.155-9.473 7.155-4.231 2.6-9.532 4.523-9.532 4.523-4.033 1.453-5.323.99-5.323.99h0z"/>
        <path fill="#747998" stroke="#747998" stroke-width="1.2" d="M31.656 25.926c.975-1.682-4.333-6.578-11.852-10.936-7.518-4.359-14.412-6.526-15.386-4.842-.974 1.685 4.333 6.578 11.855 10.936 7.523 4.359 14.41 6.526 15.383 4.842zM5.064 10.798c-.145-.342.16-.424.16-.424 1.346-.254 3.236.325 3.236.325 5.143 1.17 14.313 6.915 14.313 6.915 7.061 4.94 8.144 7.117 8.306 7.735.034.13-.03.267-.154.323-.736.337-2.708-.165-2.708-.165-6.078-1.63-10.938-4.616-10.938-4.616-4.368-2.355-8.686-5.98-8.686-5.98-3.282-2.763-3.528-4.11-3.528-4.11l-.001-.003z"/>
        <circle cx="18" cy="18" r="1.852" fill="#B7B9C8"/>
        <ellipse cx="25.593" cy="10.93" fill="#B7B9C8" rx="2.274" ry="2.352"/>
        <ellipse cx="7.963" cy="14.708" fill="#B7B9C8" rx="2.274" ry="2.352"/>
        <ellipse cx="15.815" cy="28.338" fill="#B7B9C8" rx="2.274" ry="2.352"/>
    </g>
</svg>
