<svg xmlns="http://www.w3.org/2000/svg" width="20" height="10.5" viewBox="0 0 40 21">
    <path fill="#0C1429" fill-rule="nonzero" stroke="#0C1429" d="M20.041 0c.335.492.779.965.934 1.531-1.71 3.148-4.413 5.957-7.908 7.476-2.565 1.147-5.547.657-8.136-.163 2.34 3.469 4.71 6.92 7.045 10.393-.431.258-.864.514-1.303.763C7.451 15.242 4.21 10.494 1 5.728c2.69 1.15 5.461 2.434 8.483 2.518 1.896.116 3.664-.721 5.14-1.735A16.489 16.489 0 0 0 20.041 0zm2.699 5.932c.225-.49.46-.977.717-1.454 1.382 1.777 3.372 3.283 5.79 3.593 3.46.56 6.718-.974 9.753-2.284-3.132 4.719-6.226 9.457-9.334 14.186-4.217-2.255-9.346-2.432-14.053-1.72a54.237 54.237 0 0 1-.714-1.337c4.707-.773 9.777-.731 14.18 1.164 2.04-3.062 4.019-6.159 6.102-9.199-2.487.751-5.26 1.09-7.769.224-1.864-.588-3.434-1.784-4.672-3.173z"/>
</svg>
