<?xml version="1.0" encoding="UTF-8"?>
<svg width="17px" height="13.5px" viewBox="0 0 34 27" version="1.1" xmlns="http://www.w3.org/2000/svg"
>
  <!-- Generator: Sketch 51.3 (57544) - http://www.bohemiancoding.com/sketch -->
  <title>dash</title>
  <desc>Created with Sketch.</desc>
  <defs></defs>
  <g id="Page-3" stroke="none" stroke-width="1" fill="none" fill-rule="evenodd">
    <g id="Logos" transform="translate(-151.000000, -167.000000)" fill="#008DE4" fill-rule="nonzero">
      <g id="Group-2" transform="translate(99.000000, 100.000000)">
        <g id="Group-4">
          <g id="dash" transform="translate(52.000000, 67.000000)">
            <path
              d="M22.2702945,0 C33.153986,0 35.0773228,5.80679014 33.5326663,13.969683 C32.4961599,19.4513925 29.9075132,23.6518155 25.5571798,25.6169428 C23.596424,26.5043252 21.7419381,27 17.3848693,27 L5.03210767,27 L6.0603819,21.3872332 L16.9201253,21.3916262 C23.4504898,21.4026087 25.1919703,18.6321013 26.0398849,16.2042465 C26.3579465,15.2934349 27.0943525,12.4841229 27.1183006,10.8221113 C27.1647002,7.57789408 25.5377219,5.62374922 20.0356315,5.62374922 L8.86381368,5.61057027 L9.88984277,0 L22.2702945,0 Z M4.54790575,10.6815359 L17.2239676,10.6815359 C17.2239676,10.6815359 17.0922527,11.344144 16.6903726,12.9805299 C16.3835367,14.2296011 15.9187927,16.2972313 12.6760618,16.2972313 L0,16.2972313 C0,16.2972313 0.131714894,15.6346232 0.533594998,13.9982374 C0.840430831,12.7491661 1.30517486,10.6815359 4.54790575,10.6815359 Z"
              id="Combined-Shape"></path>
          </g>
        </g>
      </g>
    </g>
  </g>
</svg>
