<svg xmlns="http://www.w3.org/2000/svg" width="18" height="18" viewBox="0 0 36 36">
  <g fill="none" fill-rule="evenodd">
    <g fill="#EA33AB">
      <g>
        <g>
          <path d="M21.99 31.418V4.582c5.777 1.726 10 7.088 10 13.418 0 6.33-4.223 11.693-10 13.418M17.99 0v15.171l-2.285-2.285-.292-5.703L17.796.01c-1.528.016-3.004.234-4.417.609l-1.153 3.467-3.268-1.639C7.665 3.2 6.47 4.101 5.406 5.142l6.053 3.033.177 3.471-3.47-.178-3.034-6.052C4.092 6.479 3.19 7.674 2.437 8.968l1.64 3.269-3.469 1.152C.234 14.802.016 16.278 0 17.806l7.174-2.383 5.703.291L15.162 18l-2.285 2.286-5.703.291L0 18.194c.016 1.528.234 3.004.608 4.417l3.47 1.152-1.64 3.269c.752 1.294 1.654 2.489 2.694 3.552l3.034-6.052 3.47-.178-.177 3.47-6.053 3.034c1.063 1.04 2.26 1.941 3.552 2.695l3.268-1.639 1.153 3.467c1.413.374 2.89.593 4.417.609l-2.383-7.173.292-5.703 2.285-2.285V36c9.941 0 18-8.059 18-18s-8.059-18-18-18" transform="translate(-2453.000000, -404.000000) translate(100.000000, 84.000000) translate(2353.000000, 320.000000)"/>
        </g>
      </g>
    </g>
  </g>
</svg>
