<?xml version="1.0" encoding="UTF-8"?>
<svg width="18px" height="18px" viewBox="0 0 36 36" version="1.1" xmlns="http://www.w3.org/2000/svg" xmlns:xlink="http://www.w3.org/1999/xlink">
    <title>xdn</title>
    <defs>
        <linearGradient x1="50%" y1="0%" x2="50%" y2="100%" id="linearGradient-1">
            <stop stop-color="#50AAEC" offset="0%"></stop>
            <stop stop-color="#7670FB" offset="100%"></stop>
        </linearGradient>
    </defs>
    <g id="Page-3" stroke="none" stroke-width="1" fill="none" fill-rule="evenodd">
        <g id="Logos" transform="translate(-2013.000000, -486.000000)">
            <g id="Group-2" transform="translate(99.000000, 84.000000)">
                <g id="xdn" transform="translate(1914.000000, 402.000000)">
                    <path d="M15.8079698,0.130981943 C19.0567649,-0.258509218 22.4266738,0.217717369 25.4021447,1.59893812 C29.1353949,3.27636854 32.2614396,6.27283205 34.0846929,9.93863121 C35.8359326,13.3409511 36.3858546,17.3225981 35.7360956,21.0849518 C34.9554027,25.6737468 32.284353,29.8975984 28.5003659,32.6011253 C25.6492822,34.6696834 22.1795363,35.8725237 18.6541434,35.9838069 C13.4855313,36.2112829 8.29073241,34.0298051 4.80461972,30.2167193 C3.41999469,28.7438536 2.31524067,27.0206007 1.49526768,25.1762455 C-0.125038212,21.5153559 -0.427822647,17.3013234 0.583641033,13.4309595 C1.76368199,8.92889992 4.76206623,4.92761468 8.77191416,2.55957389 C10.9077719,1.26181552 13.3235007,0.427191607 15.8079698,0.130981943" id="Path" fill="url(#linearGradient-1)"></path>
                    <path d="M17.8882504,21 L17.8882504,24 L14.9161878,24 L14.9161878,21 L17.8882504,21 Z M24.0416089,12.072 L24.4023058,12.07935 C25.2311893,12.11365 25.9708738,12.268 26.6213592,12.5424 C27.3647712,12.856 27.9861304,13.2816 28.4854369,13.8192 C28.9847434,14.3568 29.3619972,14.9868 29.6171983,15.7092 C29.8723994,16.4316 30,17.2016 30,18.0192 C30,18.9264 29.8585298,19.7468 29.5755895,20.4804 C29.2926491,21.214 28.89043,21.8412 28.368932,22.362 C27.8474341,22.8828 27.220527,23.286 26.4882108,23.5716 C25.7558946,23.8572 24.9403606,24 24.0416089,24 L19.4979196,24 L19.4979196,12.072 L24.0416089,12.072 Z M22.7434119,14.928 L22.7434119,21.144 L24.0416089,21.144 C24.4632455,21.144 24.8404993,21.0656 25.1733703,20.9088 C25.5062413,20.752 25.7864078,20.5336 26.0138696,20.2536 C26.2413315,19.9736 26.4133148,19.6432 26.5298197,19.2624 C26.6463245,18.8816 26.704577,18.4672 26.704577,18.0192 C26.704577,17.56 26.6435506,17.14 26.5214979,16.7592 C26.3994452,16.3784 26.2246879,16.0536 25.9972261,15.7848 C25.7697642,15.516 25.4895978,15.306 25.1567268,15.1548 C24.8238558,15.0036 24.4521498,14.928 24.0416089,14.928 L22.7434119,14.928 Z M17.8882504,16.5 L17.8882504,19.5 L14.9161878,19.5 L14.9161878,16.5 L17.8882504,16.5 Z M13.4301565,16.5 L13.4301565,19.5 L10.4580939,19.5 L10.4580939,16.5 L13.4301565,16.5 Z M17.8882504,12 L17.8882504,15 L14.9161878,15 L14.9161878,12 L17.8882504,12 Z M13.4301565,12 L13.4301565,15 L10.4580939,15 L10.4580939,12 L13.4301565,12 Z M8.97206261,12 L8.97206261,15 L6,15 L6,12 L8.97206261,12 Z" id="Combined-Shape-Copy-2" fill="#FFFFFF"></path>
                </g>
            </g>
        </g>
    </g>
</svg>