<svg xmlns="http://www.w3.org/2000/svg" width="18" height="18" viewBox="0 0 36 36">
    <g fill="none">
        <path fill="#EC1F35" d="M15.808.131c3.249-.39 6.619.087 9.594 1.468 3.733 1.677 6.86 4.674 8.683 8.34 1.75 3.402 2.3 7.384 1.651 11.146-.78 4.589-3.452 8.813-7.236 11.516-2.85 2.069-6.32 3.272-9.846 3.383-5.168.227-10.363-1.954-13.85-5.767-1.384-1.473-2.489-3.196-3.309-5.04C-.125 21.514-.428 17.3.584 13.43 1.764 8.929 4.762 4.928 8.772 2.56 10.908 1.262 13.324.427 15.808.13"/>
        <path fill="#FFF" d="M8.181 8.505c.516 1.11 1.128 2.2 1.997 3.073.846.871 2.01 1.462 3.239 1.477 1.743.032 3.486-.002 5.229.016.989.011 1.917.5 2.622 1.168.99.918 1.687 2.218 1.704 3.588.021 1.386-.666 2.711-1.657 3.652-.712.69-1.654 1.198-2.662 1.213-1.025.013-2.048.002-3.073.005l-.001-5.572c-1.529-.004-3.06 0-4.59-.002v10.135c2.616-.002 5.23.002 7.845-.003 1.719.003 3.445-.459 4.899-1.383 2.014-1.252 3.366-3.417 3.79-5.733.452-2.505.208-5.224-1.093-7.451-1.164-2.02-3.23-3.456-5.496-3.95-1.069-.258-2.173-.238-3.263-.233-3.163 0-6.326-.002-9.49 0z"/>
    </g>
</svg>
