<svg xmlns="http://www.w3.org/2000/svg" width="19" height="19" viewBox="0 0 38 38">
    <g fill="none" fill-rule="evenodd">
        <g fill-rule="nonzero">
            <g>
                <g fill="#891F99">
                    <path d="M11.008 1.11C17.397-.267 24.35-.26 30.453 2.286c4.216 1.876 6.342 6.4 6.935 10.759.855 6.044.79 12.605-1.995 18.168-3.23 5.706-10.503 6.609-16.423 6.65-5.634-.1-12.415-.837-15.847-5.943C.445 27.568.137 22.224.25 17.242c.273-4.079.826-8.472 3.409-11.81C5.45 3.106 8.206 1.77 11.008 1.11M7.214 12.202c.006 4.548.012 9.096-.012 13.65 3.93 2.304 7.891 4.554 11.828 6.846 3.966-2.363 8.069-4.5 11.94-7.012-.243-4.448-.018-8.895-.018-13.336-3.889-2.464-7.968-4.62-11.916-6.982-3.931 2.291-7.88 4.56-11.822 6.834z" transform="translate(-2012 -723) translate(2012 723)"/>
                    <path d="M8.704 13.068c2.94-1.704 5.89-3.39 8.823-5.106-2.92 5.106-5.901 10.171-8.799 15.29-.065-3.391-.018-6.787-.024-10.184zM20.562 7.962c2.927 1.728 5.89 3.396 8.81 5.124-.029 3.379.042 6.763-.035 10.141-2.91-5.1-5.878-10.159-8.775-15.265zM9.785 24.403c3.07-5.361 6.199-10.687 9.245-16.06 3.07 5.36 6.187 10.699 9.256 16.06-6.169.012-12.338.018-18.501 0zM10.218 25.876c5.873-.012 11.75-.042 17.623.017-2.927 1.699-5.872 3.367-8.805 5.047-2.94-1.686-5.89-3.354-8.818-5.064z" transform="translate(-2012 -723) translate(2012 723)"/>
                </g>
                <g fill="#FDFAFD">
                    <path d="M.09 6.858C4.031 4.584 7.98 2.316 11.91.024c3.95 2.363 8.028 4.518 11.917 6.982 0 4.441-.225 8.889.018 13.336-3.871 2.511-7.974 4.649-11.94 7.012-3.937-2.292-7.897-4.542-11.828-6.846.024-4.554.018-9.102.012-13.65m1.49.867c.006 3.396-.041 6.792.024 10.182 2.898-5.118 5.878-10.182 8.8-15.289-2.934 1.716-5.885 3.403-8.824 5.107m11.858-5.107c2.897 5.107 5.866 10.165 8.775 15.266.077-3.379.006-6.763.036-10.142-2.921-1.727-5.884-3.396-8.811-5.124M2.66 19.06c6.163.018 12.332.012 18.501 0C18.091 13.698 14.974 8.36 11.905 3 8.859 8.371 5.73 13.697 2.66 19.058m.433 1.473c2.928 1.71 5.879 3.378 8.818 5.065 2.933-1.68 5.878-3.35 8.805-5.047-5.872-.06-11.75-.03-17.623-.018z" transform="translate(-2012 -723) translate(2012 723) translate(7.125 5.344)"/>
                </g>
            </g>
        </g>
    </g>
</svg>
