<svg xmlns="http://www.w3.org/2000/svg" width="21" height="21" viewBox="0 0 42 42">
    <path fill="#0AC98D" fill-rule="nonzero" d="M20.62.123c.066-.054.167-.183.254-.09.176.134.312.31.472.462l11.624 11.64c.113.118.231.23.354.336a1.351 1.351 0 0 1-.2.238c-.95.9-1.845 1.855-2.782 2.767a4549.844 4549.844 0 0 0-6.687 6.667c-1.016 1.045-2.085 2.039-3.082 3.102-1.276-1.257-2.53-2.537-3.796-3.807-.224-.227-.468-.435-.667-.687 2.62-2.646 5.279-5.253 7.892-7.904-1.145-1.202-2.332-2.367-3.51-3.536-.945.875-1.839 1.805-2.754 2.711-3.056 3.045-6.12 6.083-9.162 9.142 3.385 3.417 6.797 6.807 10.18 10.225.537.51 1.035 1.061 1.58 1.563 2.44-2.38 4.835-4.809 7.255-7.209 3.155-3.152 6.313-6.3 9.475-9.445.12.062.222.153.316.25 1.393 1.409 2.808 2.796 4.194 4.213-.12.179-.266.336-.425.48a472.14 472.14 0 0 1-3.125 3.096c-2.195 2.229-4.442 4.405-6.639 6.632-3.202 3.18-6.388 6.38-9.586 9.564-.352.322-.646.71-1.035.989C13.848 34.588 6.916 27.666 0 20.73c.41-.504.916-.921 1.357-1.396C7.786 12.938 14.207 6.533 20.62.123z"/>
</svg>
