<?xml version="1.0" encoding="UTF-8"?>
<svg width="13px" height="21.5px" viewBox="0 0 26 43" version="1.1" xmlns="http://www.w3.org/2000/svg" xmlns:xlink="http://www.w3.org/1999/xlink">
  <title>eth</title>
  <g id="Page-3" stroke="none" stroke-width="1" fill="none" fill-rule="evenodd">
    <g id="Logos" transform="translate(-1565.000000, -482.000000)" fill-rule="nonzero">
      <g id="Group-2" transform="translate(99.000000, 84.000000)">
        <g id="eth" transform="translate(1466.000000, 398.000000)">
          <g id="#ff9c92ff" transform="translate(12.648734, 0.000000)" fill="#FF9C92">
            <path d="M0.0270500044,0 L0.0331457801,0 C4.26399506,7.26578358 8.49255843,14.5330911 12.7226457,21.7996367 C8.49217744,24.4642526 4.26361408,27.1322974 0.0327647941,29.7965323 C0.0240021166,21.1972978 0.0350507099,12.5976823 0.0320028221,3.99844783 C0.0281929623,2.67147367 0.0403845136,1.34411853 0.0259070465,0.017144369 L0.0270500044,0 M1.91635947,15.7232913 C1.91331158,16.436497 1.91750243,17.1500838 1.91445454,17.8632895 C1.91521651,20.7081118 1.91445454,23.5529341 1.91483552,26.3981374 C4.30056972,24.8955287 6.68477996,23.3910151 9.07051415,21.8884064 C9.44464238,21.655243 9.81686568,21.4194126 10.189089,21.1835823 C9.95402064,20.7816421 9.72581004,20.3743681 9.48312197,19.9773807 C8.64,18.5105847 7.78201958,17.0521704 6.93318282,15.5888032 C5.26103536,12.715026 3.58774495,9.84201076 1.91597848,6.96785254 C1.91293059,9.88620513 1.91140665,12.8049387 1.91635947,15.7232913 Z" id="Shape"></path>
          </g>
          <g id="#ffe94dff" fill="#FFD31B">
            <path d="M12.6746415,0.017144369 C12.689119,1.34411853 12.6769274,2.67147367 12.6807373,3.99844783 C12.6837852,12.5976823 12.6727366,21.1972978 12.6814993,29.7965323 C8.45484081,27.1307734 4.22437252,24.4703484 0.000380985978,21.8007796 C0.184016227,21.4537014 0.393177529,21.1207196 0.586718406,20.7793562 C4.61678808,13.8591269 8.64114296,6.93546874 12.6746415,0.017144369 M3.23266602,19.9754758 C2.98959697,20.3724632 2.76367228,20.7820231 2.52555605,21.1828204 C2.89701737,21.4197936 3.27038363,21.654481 3.64451186,21.8876444 C6.0291031,23.3910151 8.41407532,24.8936238 10.7982856,26.3969944 C10.7994285,23.5536961 10.7998095,20.7103977 10.7982856,17.8670994 L10.8036194,17.8640515 C10.7986665,17.1497028 10.8032384,16.4353541 10.8005715,15.7213864 C10.8040004,12.8037957 10.8009525,9.88582415 10.8020954,6.96823353 C8.27730135,11.303092 5.75098333,15.6368075 3.23266602,19.9754758 Z" id="Shape"></path>
          </g>
          <g id="#65a135bf" transform="translate(2.514507, 15.696622)" fill="#65A135" opacity="0.75">
            <path d="M0.718158568,4.27885351 C3.24104771,2.86082371 5.76203193,1.440127 8.28606403,0.0247640885 C8.28873093,0.738731811 8.2841591,1.45308052 8.28911191,2.16742923 L8.28377811,2.17047711 C5.89842491,3.50964283 3.51611959,4.85338037 1.13000441,6.19102214 C0.75587618,5.95785872 0.382509922,5.72317136 0.0110485934,5.48619808 C0.249164829,5.08540083 0.475089514,4.6758409 0.718158568,4.27885351 Z" id="Path"></path>
          </g>
          <g id="#985492bf" transform="translate(14.553664, 15.696622)" fill="#985492" opacity="0.75">
            <path d="M0.0114295793,0.0266690184 C2.53584267,1.44088897 5.05682688,2.86120469 7.57819208,4.28075844 C7.82088015,4.67774583 8.04909075,5.08501984 8.2841591,5.48696005 C7.9119358,5.72279037 7.5397125,5.95862069 7.16558427,6.19178411 C4.78061205,4.84957051 2.3937349,3.5104048 0.00952464944,2.16666725 C0.0125725373,1.4534615 0.00838169151,0.739874768 0.0114295793,0.0266690184 Z" id="Path"></path>
          </g>
          <g id="#5a9dedff" transform="translate(12.648734, 23.964018)" fill="#5A9DED">
            <path d="M11.2981392,0.937225505 C11.7850392,0.624436017 12.2833689,0.329552871 12.7630302,0.00609577564 L12.7630302,0.0628626863 C12.6418767,0.153156363 12.5717753,0.288787371 12.4860534,0.40917894 C8.48112885,6.19597495 4.47696622,11.983152 0.472422612,17.769948 C0.345173296,17.9379628 0.248021871,18.1299797 0.0986753682,18.2800882 C0.084578887,18.3193297 0.0735302937,18.3597143 0.0662915601,18.4016227 L0.051814093,18.4016227 C0.0388605697,18.366953 0.0236211306,18.3341882 0.00609577564,18.3033283 C0.0838169151,18.1715072 0.0449563454,18.013398 0.0525760649,17.8690043 C0.0525760649,14.5795714 0.050290149,11.2901385 0.0541000088,8.00108652 C3.80300203,5.64773613 7.54961813,3.29133786 11.2981392,0.937225505 M1.93617074,9.0259388 C1.93655172,10.1327031 1.93426581,11.2390863 1.93769468,12.3458506 C2.57965605,11.4352941 3.20752095,10.5125461 3.8445295,9.59741776 C4.55849722,8.55732604 5.28770438,7.52675897 5.99252844,6.48057148 C4.63888526,7.32636035 3.2901949,8.18053091 1.93617074,9.0259388 Z" id="Shape"></path>
          </g>
          <g id="#53d3e0ff" transform="translate(0.000000, 24.002117)" fill="#53D3E0">
            <path d="M0,0.00761971955 C0.124201429,0.0480042332 0.230496516,0.124963401 0.33907752,0.194683835 C4.46096481,2.78386454 8.58132816,5.37380721 12.7028345,7.96298792 C12.6990246,11.2520399 12.7013105,14.5414728 12.7013105,17.8309057 C12.6936908,17.9752994 12.7325514,18.1334086 12.6548302,18.2652297 C8.50665491,12.2719393 4.36000353,6.27788694 0.21220919,0.284596525 C0.147822559,0.191254961 0.0918176206,0.0891507188 0,0.0190492989 L0,0.00761971955 M6.74802364,6.43066232 C8.10661963,8.38969221 9.45950084,10.352151 10.8192398,12.3104189 C10.8280025,11.2036546 10.8207637,10.0968904 10.8230497,8.99012611 C9.46445366,8.1374795 8.10661963,7.28292795 6.74802364,6.43066232 Z" id="Shape"></path>
          </g>
        </g>
      </g>
    </g>
  </g>
</svg>
