<svg width="18px" height="18px" viewBox="0 0 36 36" version="1.1" xmlns="http://www.w3.org/2000/svg" xmlns:xlink="http://www.w3.org/1999/xlink">
    <title>C3A8B682-D307-4983-8FC9-45B0221B9055</title>
    <g id="Page-1" stroke="none" stroke-width="1" fill="none" fill-rule="evenodd">
        <g id="Logos" transform="translate(-2919.000000, -805.000000)">
            <g id="ag3UJYHJ_400x400" transform="translate(2919.000000, 805.000000)">
                <g id="#2d2925ff">
                    <circle id="Oval" fill="#E9575B" cx="18" cy="18" r="18"></circle>
                    <path d="M16.404,9.471 C14.521,9.845 12.755,10.849 11.544,12.349 C10.526,13.574 9.896,15.054 9.32,16.523 C8.948,17.444 8.601,18.398 7.978,19.186 C7.056,20.37 5.757,21.163 4.658,22.161 C4.351,22.469 3.954,22.894 4.155,23.364 C4.35,23.734 4.828,23.794 5.203,23.821 C6.644,23.857 8.088,23.58 9.525,23.788 C10.64,23.925 11.647,24.458 12.636,24.956 C14.034,25.64 15.474,26.308 17.029,26.531 C19.231,26.883 21.534,26.236 23.316,24.919 C24.694,23.882 25.787,22.439 26.324,20.795 C26.414,20.437 25.903,20.174 25.66,20.44 C25.447,20.741 25.304,21.087 25.08,21.382 C24.002,22.957 22.233,24.023 20.344,24.273 C18.68,24.507 16.939,24.089 15.549,23.148 C14.245,22.265 13.266,20.925 12.814,19.417 C16.962,17.506 21.265,15.913 25.686,14.757 C25.852,14.726 26.109,14.607 26.205,14.818 C26.469,15.376 26.566,15.994 26.721,16.587 C26.783,16.792 27.041,16.815 27.197,16.702 C28.391,16.06 29.565,15.371 30.653,14.559 C31.174,14.145 31.729,13.724 32.042,13.12 C32.198,12.865 32.131,12.481 31.849,12.347 C31.282,12.06 30.62,12.103 30.003,12.12 C28.102,12.254 26.241,12.704 24.403,13.189 C20.338,14.303 16.381,15.788 12.533,17.505 C12.522,16.082 12.973,14.662 13.798,13.504 C14.66,12.267 15.954,11.347 17.393,10.907 C18.814,10.462 20.379,10.503 21.775,11.019 C21.924,11.062 22.096,11.154 22.245,11.057 C22.536,10.944 22.542,10.483 22.264,10.352 C20.494,9.386 18.38,9.067 16.404,9.471 Z" id="Path" fill="#2D2925" fill-rule="nonzero"></path>
                </g>
                <g id="#faf1e4ff" transform="translate(4.100471, 9.299994)" fill="#FFFFFF" fill-rule="nonzero">
                    <path d="M12.3035287,0.17100632 C14.2795287,-0.23299368 16.3935287,0.0860063202 18.1635287,1.05200632 C18.4415287,1.18300632 18.4355287,1.64400632 18.1445287,1.75700632 C17.9955287,1.85400632 17.8235287,1.76200632 17.6745287,1.71900632 C16.2785287,1.20300632 14.7135287,1.16200632 13.2925287,1.60700632 C11.8535287,2.04700632 10.5595287,2.96700632 9.69752875,4.20400632 C8.87252875,5.36200632 8.42152875,6.78200632 8.43252875,8.20500632 C12.2805287,6.48800632 16.2375287,5.00300632 20.3025287,3.88900632 C22.1405287,3.40400632 24.0015287,2.95400632 25.9025287,2.82000632 C26.5195287,2.80300632 27.1815287,2.76000632 27.7485287,3.04700632 C28.0305287,3.18100632 28.0975287,3.56500632 27.9415287,3.82000632 C27.6285287,4.42400632 27.0735287,4.84500632 26.5525287,5.25900632 C25.4645287,6.07100632 24.2905287,6.76000632 23.0965287,7.40200632 C22.9405287,7.51500632 22.6825287,7.49200632 22.6205287,7.28700632 C22.4655287,6.69400632 22.3685287,6.07600632 22.1045287,5.51800632 C22.0085287,5.30700632 21.7515287,5.42600632 21.5855287,5.45700632 C17.1645287,6.61300632 12.8615287,8.20600632 8.71352875,10.1170063 C9.16552875,11.6250063 10.1445287,12.9650063 11.4485287,13.8480063 C12.8385287,14.7890063 14.5795287,15.2070063 16.2435287,14.9730063 C18.1325287,14.7230063 19.9015287,13.6570063 20.9795287,12.0820063 C21.2035287,11.7870063 21.3465287,11.4410063 21.5595287,11.1400063 C21.8025287,10.8740063 22.3135287,11.1370063 22.2235287,11.4950063 C21.6865287,13.1390063 20.5935287,14.5820063 19.2155287,15.6190063 C17.4335287,16.9360063 15.1305287,17.5830063 12.9285287,17.2310063 C11.3735287,17.0080063 9.93352875,16.3400063 8.53552875,15.6560063 C7.54652875,15.1580063 6.53952875,14.6250063 5.42452875,14.4880063 C3.98752875,14.2800063 2.54352875,14.5570063 1.10252875,14.5210063 C0.72752875,14.4940063 0.24952875,14.4340063 0.0545287499,14.0640063 C-0.14647125,13.5940063 0.25052875,13.1690063 0.55752875,12.8610063 C1.65652875,11.8630063 2.95552875,11.0700063 3.87752875,9.88600632 C4.50052875,9.09800632 4.84752875,8.14400632 5.21952875,7.22300632 C5.79552875,5.75400632 6.42552875,4.27400632 7.44352875,3.04900632 C8.65452875,1.54900632 10.4205287,0.54500632 12.3035287,0.17100632 Z" id="Path"></path>
                </g>
            </g>
        </g>
    </g>
</svg>
