<svg width="18px" height="18px" viewBox="0 0 36 36" xmlns="http://www.w3.org/2000/svg">
    <g fill="none" fill-rule="evenodd">
        <circle fill="#3367F6" cx="18" cy="18" r="18"/>
        <path d="M16.902 5.24c.616-.32 1.553-.32 2.17 0l6.286 3.258c.37.192.574.479.611.774h.006V25.65c-.008.323-.214.643-.617.852l-6.286 3.258c-.617.32-1.554.32-2.17 0l-6.286-3.258c-.402-.208-.595-.53-.604-.852a1.145 1.145 0 0 1 0-.08V9.272h.003c.028-.299.222-.578.601-.774l6.286-3.259zm8.083 13.17-5.913 3.065c-.617.319-1.554.319-2.17 0l-5.9-3.059v7.202l5.9 3.042c.333.175.68.345 1.017.367l.068.002c.352.001.694-.175 1.041-.34l5.957-3.098V18.41zM8.99 25.293c0 .627.075 1.04.222 1.33.123.241.306.425.641.65l.02.012c.073.049.154.1.252.16l.117.07.357.21-.512.832-.4-.237-.067-.04a8.898 8.898 0 0 1-.3-.19c-.956-.632-1.312-1.32-1.319-2.754v-.043h.99zm8.503-11.274a.91.91 0 0 0-.128.053l-6.286 3.258a.69.69 0 0 0-.019.01l-.005.004.01.005.014.008 6.286 3.258a.91.91 0 0 0 .128.054v-6.65zm.99 0v6.65a.908.908 0 0 0 .127-.054l6.287-3.258a.69.69 0 0 0 .018-.01l.006-.003-.01-.006-.014-.008-6.287-3.258a.908.908 0 0 0-.127-.053zm6.503-3.586-5.639 2.923 5.64 2.923v-5.846zm-13.984.007v5.832l5.626-2.916-5.626-2.916zm7.608-4.343c-.326-.17-.918-.17-1.245 0l-6.286 3.258a.69.69 0 0 0-.019.01l-.005.003.01.006.014.008 6.286 3.258c.327.17.919.17 1.245 0l6.287-3.258a.64.64 0 0 0 .018-.01l.006-.004-.01-.005-.014-.008-6.287-3.258zm7.305.357.4.237.067.04c.116.07.211.13.3.19.956.632 1.312 1.32 1.319 2.753v.044h-.99c0-.627-.074-1.04-.221-1.33-.123-.241-.306-.425-.641-.65l-.02-.012a7.72 7.72 0 0 0-.252-.16l-.117-.07-.357-.21.512-.832z" fill="#FFF" fill-rule="nonzero"/>
    </g>
</svg>
