<svg width="18" height="18" viewBox="0 0 36 36" xmlns="http://www.w3.org/2000/svg">
    <defs>
        <linearGradient x1="0%" y1="0%" x2="100%" y2="100%" id="eabxekbr5a">
            <stop stop-color="#33548A" offset="0%"/>
            <stop stop-color="#191919" offset="100%"/>
        </linearGradient>
    </defs>
    <g fill="none" fill-rule="evenodd">
        <rect fill="url(#eabxekbr5a)" width="36" height="36" rx="8"/>
        <path d="M10.107 7v3.107H7V7h3.107zm6.515 0v3.107h-3.107V7h3.107zm6.515 0v3.107H20.03V7h3.107zm-13.03 6.515v3.107H7v-3.107h3.107zm6.515 0v3.107h-3.107v-3.107h3.107zm-6.515 6.515v3.107H7V20.03h3.107zM28.097 7.65c.497 0 .903.406.903.903a.905.905 0 0 1-.902.902.905.905 0 0 1-.902-.902c0-.497.406-.903.902-.903zm0 6.515c.497 0 .903.406.903.902a.905.905 0 0 1-.902.902.905.905 0 0 1-.902-.902c0-.496.406-.902.902-.902zm0 6.515c.497 0 .903.406.903.902a.905.905 0 0 1-.902.902.905.905 0 0 1-.902-.902c0-.496.406-.902.902-.902zm0 6.515c.497 0 .903.406.903.902a.905.905 0 0 1-.902.902.905.905 0 0 1-.902-.902c0-.496.406-.902.902-.902zm-6.514-13.03c.496 0 .902.406.902.902a.905.905 0 0 1-.902.902.905.905 0 0 1-.902-.902c0-.496.406-.902.902-.902zm0 6.515c.496 0 .902.406.902.902a.905.905 0 0 1-.902.902.905.905 0 0 1-.902-.902c0-.496.406-.902.902-.902zm0 6.515c.496 0 .902.406.902.902a.905.905 0 0 1-.902.902.905.905 0 0 1-.902-.902c0-.496.406-.902.902-.902zm-6.515-6.515c.496 0 .902.406.902.902a.905.905 0 0 1-.902.902.905.905 0 0 1-.902-.902c0-.496.406-.902.902-.902zm0 6.515c.496 0 .902.406.902.902a.905.905 0 0 1-.902.902.905.905 0 0 1-.902-.902c0-.496.406-.902.902-.902zm-6.514 0c.496 0 .902.406.902.902a.905.905 0 0 1-.902.902.905.905 0 0 1-.903-.902c0-.496.406-.902.903-.902z" fill="#FFF" fill-rule="nonzero"/>
    </g>
</svg>
