<svg width="16" height="16" viewBox="0 0 32 32" xmlns="http://www.w3.org/2000/svg">
    <g fill-rule="nonzero" fill="none">
        <circle fill="#FEFEFE" cx="16" cy="16" r="15.781"/>
        <path d="M30.387 9A15.927 15.927 0 0 1 32 16c0 8.835-7.165 16-16 16a15.922 15.922 0 0 1-11.611-5.009h7.507a.993.993 0 0 0 .885-.53l4.465-8.469h5.748c.55 0 1-.449 1-1v-1.998c0-.55-.45-.999-1-.999h-3.636l2.359-4.465a1 1 0 0 1 .885-.53zM16 0c4.572 0 8.696 1.923 11.617 5.009h-7.513a.993.993 0 0 0-.885.53l-4.465 8.469H9.006c-.55 0-1 .449-1 1v1.998c0 .55.45.999 1 .999h3.636l-2.359 4.465a1 1 0 0 1-.885.53H1.613A15.927 15.927 0 0 1 0 16C0 7.165 7.165 0 16 0z" fill="#9B1C2E"/>
    </g>
</svg>
