<?xml version="1.0" encoding="UTF-8"?>
<svg width="18px" height="18px" viewBox="0 0 36 36" version="1.1" xmlns="http://www.w3.org/2000/svg" xmlns:xlink="http://www.w3.org/1999/xlink">
    <title>gnosis</title>
    <defs>
        <linearGradient x1="-93.2372804%" y1="146.066234%" x2="246.85042%" y2="-86.6253629%" id="linearGradient-1">
            <stop stop-color="#009BB3" offset="18.61%"></stop>
            <stop stop-color="#008B73" offset="44.63%"></stop>
            <stop stop-color="#008B73" offset="54.01%"></stop>
            <stop stop-color="#E8663D" offset="100%"></stop>
        </linearGradient>
        <linearGradient x1="-235.778457%" y1="260.592103%" x2="104.309244%" y2="28.076739%" id="linearGradient-2">
            <stop stop-color="#009BB3" offset="18.61%"></stop>
            <stop stop-color="#008B73" offset="44.63%"></stop>
            <stop stop-color="#008B73" offset="54.01%"></stop>
            <stop stop-color="#E8663D" offset="100%"></stop>
        </linearGradient>
        <linearGradient x1="7.35539028%" y1="65.0750981%" x2="78.5605886%" y2="28.0836118%" id="linearGradient-3">
            <stop stop-color="#009BB3" offset="18.61%"></stop>
            <stop stop-color="#008B73" offset="44.63%"></stop>
            <stop stop-color="#008B73" offset="54.01%"></stop>
            <stop stop-color="#E8663D" offset="100%"></stop>
        </linearGradient>
        <linearGradient x1="-20.3976613%" y1="81.0127135%" x2="69.3553427%" y2="35.1285934%" id="linearGradient-4">
            <stop stop-color="#009BB3" offset="18.61%"></stop>
            <stop stop-color="#008B73" offset="44.63%"></stop>
            <stop stop-color="#008B73" offset="54.01%"></stop>
            <stop stop-color="#E8663D" offset="100%"></stop>
        </linearGradient>
    </defs>
    <g id="Page-1" stroke="none" stroke-width="1" fill="none" fill-rule="evenodd">
        <g id="Logos" transform="translate(-2919.000000, -884.000000)" fill-rule="nonzero">
            <g id="gnosis" transform="translate(2919.000000, 884.000000)">
                <path d="M10.5777351,20.4932821 C11.6545106,20.4932821 12.6449136,20.1305182 13.4395393,19.5201536 L6.87523992,12.9558541 C6.25911708,13.7447217 5.90211132,14.7408829 5.90211132,15.8176583 C5.90211132,18.3915547 7.99808061,20.4932821 10.5777351,20.4932821 Z" id="Path" fill="url(#linearGradient-1)"></path>
                <path d="M30.0921305,15.8119002 C30.0921305,14.7351248 29.7293666,13.7447217 29.1190019,12.950096 L22.5547025,19.5086372 C23.3435701,20.1247601 24.3397313,20.4818129 25.4165067,20.4818129 C27.9961612,20.4932821 30.0921305,18.3915547 30.0921305,15.8119002 Z" id="Path" fill="url(#linearGradient-2)"></path>
                <path d="M33.3973129,8.66602687 L30.4952015,11.5681382 C31.4568138,12.7197697 32.0326296,14.193858 32.0326296,15.806142 C32.0326296,19.4568138 29.0614203,22.428023 25.4107486,22.428023 C23.8042226,22.428023 22.3243762,21.8464491 21.1727447,20.890595 L17.9942418,24.0690979 L14.815739,20.890595 C13.6641075,21.8522073 12.1900192,22.428023 10.5777351,22.428023 C6.92706334,22.428023 3.95585413,19.4568138 3.95585413,15.806142 C3.95585413,14.1996161 4.53742802,12.7197697 5.49328215,11.5681382 L4.00767754,10.0825336 L2.59692898,8.67178503 C0.950095969,11.3953935 0,14.5854127 0,18 C0,27.9385797 8.05566219,36 18,36 C27.9443378,36 36,27.9443378 36,18 C35.9942418,14.5796545 35.0441459,11.3953935 33.3973129,8.66602687 Z" id="Path" fill="url(#linearGradient-3)"></path>
                <path d="M31.0134357,5.57389635 C27.7428023,2.14203455 23.1132438,0 17.9942418,0 C12.8752399,0 8.24568138,2.14203455 4.97504798,5.57389635 C4.53166987,6.04606526 4.11132438,6.53550864 3.71401152,7.04798464 L17.9942418,21.3397313 L32.2744722,7.04798464 C31.8886756,6.52975048 31.462572,6.04606526 31.0134357,5.57389635 Z M17.9942418,2.35508637 C22.2092131,2.35508637 26.1190019,3.97888676 29.0614203,6.93857965 L17.9942418,18.0057582 L6.92706334,6.93857965 C9.86948177,3.9731286 13.7850288,2.35508637 17.9942418,2.35508637 Z" id="Shape" fill="url(#linearGradient-4)"></path>
            </g>
        </g>
    </g>
</svg>