<svg xmlns="http://www.w3.org/2000/svg" width="18" height="18" viewBox="0 0 36 36">
  <g fill="none" fill-rule="evenodd">
    <g fill-rule="nonzero">
      <g>
        <g>
          <path fill="#484DF5" d="M18 0c9.941 0 18 8.059 18 18s-8.059 18-18 18S0 27.941 0 18 8.059 0 18 0z" transform="translate(-2453.000000, -164.000000) translate(100.000000, 84.000000) translate(2353.000000, 80.000000)"/>
          <path fill="#FFF" d="M27.281 9.138c1.54 1.54 1.54 4.035 0 5.575-.575.575-1.284.935-2.026 1.08 1.035 2.785.364 5.97-1.76 8.094-1.466 1.466-3.438 2.242-5.435 2.242-.9 0-1.803-.16-2.667-.482-.144.746-.505 1.46-1.083 2.037-1.54 1.54-4.036 1.54-5.575 0-1.54-1.54-1.54-4.035 0-5.574.575-.575 1.283-.935 2.025-1.08-1.055-2.794-.388-5.999 1.745-8.132 2.132-2.132 5.333-2.8 8.124-1.749.148-.737.506-1.44 1.078-2.01 1.539-1.54 4.035-1.54 5.574 0zm-4.65.924c-.594.593-.865 1.441-.728 2.27.048.27.02.55-.101.81-.156.336-.433.577-.755.696-.322.118-.69.114-1.027-.042-1.888-.874-4.145-.473-5.617 1-1.472 1.471-1.874 3.728-1 5.616.158.342.16.715.036 1.04-.12.317-.359.588-.69.742-.182.084-.374.124-.563.124-.09 0-.178-.012-.265-.03-.861-.118-1.667.15-2.252.735-.492.492-.762 1.145-.762 1.84 0 .696.27 1.35.762 1.842 1.015 1.014 2.667 1.014 3.682 0 .592-.594.864-1.442.727-2.27-.008-.046-.006-.09 0-.133-.016-.22.021-.445.12-.659.155-.335.43-.575.751-.694.324-.12.693-.116 1.03.04 1.889.875 4.146.473 5.618-1 1.472-1.47 1.874-3.728 1-5.616-.154-.333-.16-.697-.045-1.017.118-.326.36-.607.699-.764.238-.11.492-.144.735-.112.037-.005.076-.006.115 0 .82.116 1.626-.152 2.21-.737 1.016-1.015 1.016-2.666 0-3.681-1.014-1.015-2.666-1.015-3.68 0zm-6.651 6.31c1.126-1.126 2.952-1.126 4.078 0 1.126 1.127 1.126 2.952 0 4.079-1.126 1.126-2.952 1.126-4.078 0-1.126-1.127-1.126-2.952 0-4.079z" transform="translate(-2453.000000, -164.000000) translate(100.000000, 84.000000) translate(2353.000000, 80.000000)"/>
        </g>
      </g>
    </g>
  </g>
</svg>
