<?xml version="1.0" encoding="UTF-8"?>
<svg width="18px" height="17px" viewBox="0 0 18 17" version="1.1" xmlns="http://www.w3.org/2000/svg"
>
  <!-- Generator: sketchtool 49.2 (51160) - http://www.bohemiancoding.com/sketch -->
  <title>1B2C53D2-782D-43A9-B7AD-D6D7754638BB</title>
  <desc>Created with sketchtool.</desc>
  <defs></defs>
  <g id="Page-3" stroke="none" stroke-width="1" fill="none" fill-rule="evenodd">
    <g id="Logos" transform="translate(-75.000000, -202.000000)" fill="#26A9E0" fill-rule="nonzero">
      <g id="Group-2" transform="translate(50.000000, 50.000000)">
        <g id="Group-4">
          <g id="ion" transform="translate(25.000000, 152.000000)">
            <ellipse id="Oval" opacity="0.75" cx="9.56325809" cy="8.39506173" rx="2.38228605" ry="2.34502058"></ellipse>
            <path
              d="M12.2506109,0.632656653 C12.6658063,0.244072345 13.2273571,0.00559670782 13.845492,0.00559670782 C15.1240312,0.00559670782 16.160492,1.02584445 16.160492,2.28438383 C16.160492,2.60111968 16.0948452,2.90276273 15.9762141,3.17684853 C17.1661237,4.59550218 17.8813595,6.41383961 17.8813595,8.39506173 C17.8813595,10.3757675 17.1675845,12.1936734 15.9789807,13.6121656 C16.0958654,13.8845391 16.160492,14.1839459 16.160492,14.498211 C16.160492,15.7567504 15.1240312,16.7769981 13.845492,16.7769981 C13.2305844,16.7769981 12.6716716,16.5410061 12.257126,16.1560122 C11.4073345,16.4436467 10.4953639,16.5998354 9.54620115,16.5998354 C6.01871714,16.5998354 3.00492289,14.4458797 1.78739717,11.4004839 C0.771670303,11.1593766 0.0170569407,10.2589968 0.0170569407,9.18512457 C0.0170569407,8.28863096 0.542969664,7.51304939 1.30767024,7.14101332 C1.92046371,3.2035155 5.37402512,0.190288066 9.54620115,0.190288066 C10.4925929,0.190288066 11.4023992,0.34595024 12.2506109,0.632656653 Z M11.5766063,2.73919936 C10.9458023,2.52252474 10.2676244,2.40477366 9.56119948,2.40477366 C6.58808061,2.40477366 4.11530347,4.49050013 3.56873579,7.25838982 C4.21679226,7.66228003 4.64705706,8.37424143 4.64705706,9.18512457 C4.64705706,9.81951779 4.38370522,10.3933641 3.95874462,10.8065119 C4.89822438,12.9362274 7.05399245,14.4237759 9.56119948,14.4237759 C10.263802,14.4237759 10.9388059,14.3069578 11.5671783,14.0919258 C11.7618322,13.0272293 12.7078264,12.2194239 13.845492,12.2194239 C13.985966,12.2194239 14.1235177,12.2317399 14.2570935,12.2553347 C15.1368998,11.2143056 15.6661995,9.87569614 15.6661995,8.41427477 C15.6661995,6.93387986 15.1240367,5.57950644 14.2242623,4.53281884 C14.1010135,4.5527859 13.9744848,4.56317095 13.845492,4.56317095 C12.7251764,4.56317095 11.7907306,3.77981657 11.5766063,2.73919936 Z"
              id="Shape"></path>
          </g>
        </g>
      </g>
    </g>
  </g>
</svg>
