<svg width="18px" height="18px" viewBox="0 0 36 36" xmlns="http://www.w3.org/2000/svg">
    <defs>
        <linearGradient x1="14.776%" y1="90.575%" x2="82.798%" y2="11.948%" id="a">
            <stop stop-color="#009DDE" offset="0%"/>
            <stop stop-color="#694D9F" offset="50%"/>
            <stop stop-color="#ED3554" offset="100%"/>
        </linearGradient>
        <linearGradient x1="24.49%" y1="65.787%" x2="242.3%" y2="-64.376%" id="b">
            <stop stop-color="#009DDE" offset="0%"/>
            <stop stop-color="#694D9F" offset="50%"/>
            <stop stop-color="#ED3554" offset="100%"/>
        </linearGradient>
        <linearGradient x1="-40.652%" y1="100.997%" x2="177.463%" y2="-25.688%" id="c">
            <stop stop-color="#009DDE" offset="0%"/>
            <stop stop-color="#694D9F" offset="50%"/>
            <stop stop-color="#ED3554" offset="100%"/>
        </linearGradient>
        <linearGradient x1="20.825%" y1="202.043%" x2="56.603%" y2="14.096%" id="d">
            <stop stop-color="#009DDE" offset="0%"/>
            <stop stop-color="#694D9F" offset="50%"/>
            <stop stop-color="#ED3554" offset="100%"/>
        </linearGradient>
        <linearGradient x1="42.18%" y1="92.181%" x2="77.895%" y2="-94.775%" id="e">
            <stop stop-color="#009DDE" offset="0%"/>
            <stop stop-color="#694D9F" offset="50%"/>
            <stop stop-color="#ED3554" offset="100%"/>
        </linearGradient>
        <linearGradient x1="-85.92%" y1="129.899%" x2="133.36%" y2="3.768%" id="f">
            <stop stop-color="#009DDE" offset="0%"/>
            <stop stop-color="#694D9F" offset="50%"/>
            <stop stop-color="#ED3554" offset="100%"/>
        </linearGradient>
        <linearGradient x1="-149.931%" y1="169.068%" x2="68.123%" y2="38.614%" id="g">
            <stop stop-color="#009DDE" offset="0%"/>
            <stop stop-color="#694D9F" offset="50%"/>
            <stop stop-color="#ED3554" offset="100%"/>
        </linearGradient>
    </defs>
    <g fill-rule="nonzero" fill="none">
        <path d="m10.926 26.09-8.258.928 4.849-11.189-4.965-6.768 12.071-1.375 3.28-7.542 7.185 9.767 8.259-.929-4.828 11.135 4.929 6.721-12.01 1.368-3.33 7.65-7.182-9.767zm3.43-.742a5.9 5.9 0 0 1-1.004.381l-.316.087 4.654 6.328 1.653-3.801-.299-.04a5.95 5.95 0 0 1-4.06-2.401l-.465-.64-.162.086zm-1.62-5.739 3.756 5.195a4.086 4.086 0 0 0 3.75 1.66l9.8-1.116-3.902-5.325a4.148 4.148 0 0 0-.666-.709l-.23-.19-2.794 6.31-4.86-6.433-4.853.608zm.163-6.325a4.08 4.08 0 0 0-3.305 2.434L5.659 24.8l6.538-.734c.324-.036.64-.112.947-.223l.28-.105-4.046-5.587 7.978-1.011 1.897-4.533-6.354.677zm6.174 4.583 2.955 3.913 1.804-4.072.792-1.792a4.103 4.103 0 0 0-.446-4.09l-5.858-7.97-2.635 6.055c-.13.299-.223.612-.28.936l-.051.295 6.836-.724-3.117 7.449zm7.182-6.207.115.278a6.016 6.016 0 0 1-.043 4.737l-.32.72.154.105c.295.198.573.428.828.684l.234.23 3.129-7.218-4.097.464zM5.958 10.552l2.491 3.398.184-.238a5.969 5.969 0 0 1 4.071-2.29l.782-.082.014-.19c.025-.393.094-.786.198-1.167l.09-.324-7.83.893z" fill="url(#a)"/>
        <path d="M16.258 36c-5.184-.5-9.843-3.197-12.892-7.47l2.088-.234c.346.425.713.832 1.09 1.213a16.075 16.075 0 0 0 8.205 4.443L16.258 36z" fill="url(#b)"/>
        <path d="M20.606 34.067c3.363-.544 6.42-2.117 8.85-4.558.215-.22.435-.453.654-.698l2.531-.288c-3.038 4.27-7.69 6.97-12.873 7.477l.838-1.933z" fill="url(#c)"/>
        <path d="M33.156 23.77A16.346 16.346 0 0 0 34.2 18a16.37 16.37 0 0 0-.82-5.134l1.014-2.34A17.972 17.972 0 0 1 36 18c0 2.606-.54 5.116-1.602 7.466l-1.242-1.695z" fill="url(#d)"/>
        <path d="M1.613 25.492A18.005 18.005 0 0 1 0 18c0-2.632.547-5.162 1.63-7.528l1.24 1.692A16.293 16.293 0 0 0 1.8 18c0 1.764.277 3.496.824 5.152l-1.011 2.34z" fill="url(#e)"/>
        <path d="M3.442 7.366C6.487 3.16 11.11.496 16.247 0l-.839 1.93c-3.366.54-6.43 2.116-8.863 4.56-.184.184-.367.382-.551.584l-2.552.292z" fill="url(#f)"/>
        <path d="M30.55 7.704a15.996 15.996 0 0 0-1.095-1.213 16.068 16.068 0 0 0-8.19-4.439L19.757 0c5.18.504 9.831 3.2 12.877 7.47l-2.084.234z" fill="url(#g)"/>
    </g>
</svg>
