<svg width="18" height="18" viewBox="0 0 36 36" xmlns="http://www.w3.org/2000/svg">
    <g fill="none" fill-rule="evenodd">
        <g fill-rule="nonzero">
            <circle stroke="#F0827D" stroke-width="2" fill="#000" fill-rule="evenodd" cx="18" cy="18" r="16.7"/>
            <circle stroke="#000" cx="18" cy="18" r="17.2"/>
        </g>
        <circle cx="18" cy="18" r="18"/>
        <path d="m18.02 8 .099.007c.385.051.684.403.684.83v3.8c1.178-1.268 2.237-2.405 2.85-3.063a.746.746 0 0 1 1.105-.002.88.88 0 0 1 .002 1.184l-2.854 3.067h1.141l1.25.002 1.076.001H24.22c.432.001.781.376.781.839 0 .462-.35.837-.782.836h-1.182l-.359-.001h-.78l-.418-.001h-.88l-.707-.001 2.878 3.075a.88.88 0 0 1 .001 1.184.746.746 0 0 1-1.105.002l-2.863-3.06v8.068h.458l.748.001h.322c.431 0 .78.376.78.838l-.006.106c-.048.412-.377.731-.776.73h-1.52l-.006 1.72c0 .463-.35.838-.782.838l-.099-.007c-.385-.051-.683-.403-.683-.83l-.003-1.723-1.592-.001c-.432 0-.781-.376-.78-.838l.005-.106c.049-.412.378-.731.776-.73H17.232l.006-8.075-2.866 3.08a.745.745 0 0 1-1.105.001l-.076-.093a.882.882 0 0 1 .074-1.09l2.878-3.093-.286-.001h-.904l-.433-.001-.818-.001h-.38l-.695-.001H11.78c-.432-.001-.781-.376-.781-.838l.006-.106c.049-.413.378-.732.776-.731h1.182l.359.001h.78l.418.001h.88l.707.002-2.854-3.05a.88.88 0 0 1-.001-1.183l.08-.076a.744.744 0 0 1 1.026.074l2.88 3.077V8.837c0-.462.35-.837.781-.837z" fill="#FFF"/>
    </g>
</svg>
