<svg width="18px" height="18px" viewBox="0 0 36 36" xmlns="http://www.w3.org/2000/svg">
    <g fill-rule="nonzero" fill="none">
        <path d="M16.986 0h2.04c4.11.233 8.12 1.908 11.144 4.704C33.62 7.83 35.75 12.34 36 16.986v2.04c-.233 4.108-1.908 8.12-4.705 11.144-3.125 3.45-7.635 5.58-12.281 5.83h-2.04c-4.11-.233-8.122-1.91-11.146-4.707C2.378 28.167.25 23.657 0 19.011v-2.038C.256 12.33 2.385 7.822 5.836 4.7 8.862 1.904 12.876.23 16.986 0M9.598 7.595v20.81c1.217.003 2.437.003 3.654 0 .002-6.937.002-13.873 0-20.81-1.217-.001-2.437-.003-3.654 0m13.515.013C20.48 11.08 17.816 14.532 15.173 18c2.646 3.468 5.306 6.923 7.946 10.395 1.538.023 3.078.011 4.618.006-2.612-3.468-5.227-6.933-7.84-10.401 2.613-3.468 5.228-6.933 7.84-10.4-1.541-.003-3.083-.022-4.624.008z" fill="#FF564F"/>
        <g fill="#FFF">
            <path d="M9.598 7.595c1.217-.003 2.437-.001 3.654 0 .002 6.937.002 13.873 0 20.81a791.58 791.58 0 0 1-3.654 0V7.595zM23.113 7.608c1.541-.03 3.083-.011 4.624-.009-2.612 3.468-5.227 6.933-7.84 10.401 2.613 3.468 5.228 6.933 7.84 10.4-1.54.006-3.08.018-4.618-.005-2.64-3.472-5.3-6.927-7.946-10.395 2.643-3.468 5.306-6.919 7.94-10.392z"/>
        </g>
    </g>
</svg>
