<svg width="18" height="18" viewBox="0 0 36 36" xmlns="http://www.w3.org/2000/svg">
    <path d="M18 0c9.941 0 18 8.059 18 18s-8.059 18-18 18S0 27.941 0 18 8.059 0 18 0zm0 2C9.163 2 2 9.163 2 18s7.163 16 16 16 16-7.163 16-16S26.837 2 18 2zm9.536 11.454v6.724h-3.78l-.001 6.768c-.004.52-.106 1.086-.482 1.475-.3.317-.743.44-1.165.47h-2.086c-.112-.528-.222-1.057-.333-1.585.567.056 1.134.125 1.705.115.185 0 .38-.061.5-.209.171-.2.193-.476.196-.728V20.18l-3.804-.001v-6.724h9.25zM8.297 23.66l1.284.165c-.13 1.623-.406 3.244-.95 4.783-.437-.134-.873-.267-1.308-.403.567-1.45.863-2.995.974-4.545zm3.234.072c.217 1.473.291 2.963.333 4.451l-1.236.142c-.042-1.486-.082-2.974-.237-4.452l1.14-.141zm7.468-1.99 1.379.663c-.695 2.022-1.561 3.994-2.71 5.801-.429-.308-.857-.615-1.285-.924 1.1-1.728 1.943-3.608 2.616-5.54zm-5.373 1.824c.479 1.37.66 2.822.783 4.262l-1.236.141c-.107-1.437-.243-2.896-.738-4.26.397-.05.793-.097 1.19-.143zm12.531-1.919c1.005 1.71 1.956 3.455 2.735 5.28l-1.26.876c-.77-1.868-1.725-3.651-2.735-5.398l1.26-.758zm-10.344 1.682c.422.967.747 1.972 1.045 2.983-.388.095-.776.19-1.165.283a30.28 30.28 0 0 0-.998-2.935l1.118-.331zM10.437 7.156c.508.158 1.015.315 1.522.475-.187.484-.384.965-.594 1.442l3.924.002c0 .319-.001.638.001.957 0 .092.004.187-.043.269-.423.91-.893 1.8-1.456 2.631l2.401.001v9.826H8.37v-9.162c-.294.3-.593.593-.903.874-.122-.56-.238-1.12-.358-1.68 1.593-1.538 2.683-3.531 3.33-5.635zm1.165 11.365H9.843v2.817h1.76v-2.817zm1.38 0v2.817h1.736v-2.816h-1.735zM25.92 14.97h-6.016v3.718h6.016v-3.718zm-12.936-.639v2.816c.578.003 1.156.002 1.735.001v-2.816c-.579-.002-1.157 0-1.735 0zm-3.14 0v2.817h1.76v-2.816c-.587 0-1.173-.002-1.76 0zm3.852-3.906H10.7a20.854 20.854 0 0 1-1.737 2.51c1.062-.002 2.124 0 3.186 0 .577-.797 1.069-1.651 1.546-2.51zm9.299-3.316c.31.88.57 1.775.809 2.676h4.874v1.539H17.026V9.783h5.16a28.867 28.867 0 0 0-.832-2.39c.544-.097 1.088-.188 1.63-.286h.011z" fill="#E53935" fill-rule="nonzero"/>
</svg>
