<svg xmlns="http://www.w3.org/2000/svg" width="18" height="18" viewBox="0 0 36 36">
    <g fill="none" fill-rule="evenodd">
        <g>
            <g>
                <g transform="translate(-2013 -888) translate(99 84) translate(1914 804)">
                    <circle cx="18" cy="18" r="18" fill="#000"/>
                    <path fill="#FFF" fill-rule="nonzero" d="M28.644 10.829c-.45-.408-.95-.714-1.55-.816-.75-.102-1.5.408-2 .765-.499.357-1.499 1.274-1.899 1.631-.4.357-1.4.56-3.049 1.58-1.65 1.02-8.048 5.2-8.048 5.2h1.65L6.3 23.114h.75L6 23.93c.6.152 1.2.05 1.75-.255v.255s8.847-3.569 10.547-2.651l-1.05.306c.1 0 1.75.102 1.75.102.1.713.5 1.376 1.1 1.733.999.662 1.049 1.07 1.049 1.07s-.5.204-.5.51c.95-.306 1.95-.306 2.85 0 0 0-.05-.306-.75-.51-.7-.306-1.3-.764-1.75-1.427-.4-.56-.55-1.274-.3-1.937.25-.663 1.1-1.02 2.85-1.937 2.049-1.07 2.549-1.886 2.799-2.549s.75-1.886.95-2.498c.2-.56.55-1.02 1-1.427.549-.306 1.149-.56 1.699-.765.1.051-1-.866-1.35-1.121z"/>
                </g>
            </g>
        </g>
    </g>
</svg>
