<svg width="18" height="18" viewBox="0 0 36 36" fill="none" xmlns="http://www.w3.org/2000/svg">
<g id="mars">
<g id="mars 1" clip-path="url(#clip0_3124_70239)">
<g id="Page-1">
<g id="Logos">
<g id="Group-4">
<g id="mars_2">
<g id="Path">
<path id="Vector" d="M18 35.5C8.35053 35.5 0.5 27.6487 0.5 18C0.5 8.3513 8.35053 0.5 18 0.5C27.6494 0.5 35.5 8.3513 35.5 18C35.5 27.6487 27.6494 35.5 18 35.5Z" fill="url(#paint0_linear_3124_70239)"/>
<path id="Vector_2" d="M18 35.5C8.35053 35.5 0.5 27.6487 0.5 18C0.5 8.3513 8.35053 0.5 18 0.5C27.6494 0.5 35.5 8.3513 35.5 18C35.5 27.6487 27.6494 35.5 18 35.5Z" fill="url(#paint1_linear_3124_70239)"/>
</g>
<path id="Combined-Shape" d="M22.5768 0.587038L22.8327 0.65615C22.8719 0.667033 22.911 0.678045 22.95 0.689186C23.2284 0.768642 23.5043 0.85471 23.7772 0.947148C23.8221 0.962338 23.8667 0.977662 23.9113 0.993156C24.0024 1.02482 24.0933 1.05723 24.1839 1.09035C24.2374 1.10992 24.2905 1.12965 24.3435 1.14962C24.5812 1.23912 24.8167 1.33365 25.0498 1.43295C25.119 1.46243 25.1882 1.49244 25.2572 1.52287C25.3313 1.55557 25.4047 1.58851 25.4778 1.62193C25.5384 1.64968 25.5991 1.67784 25.6596 1.70633C25.7675 1.75712 25.8748 1.80898 25.9815 1.86187C26.0036 1.87281 26.0255 1.88373 26.0474 1.8947C26.1554 1.94876 26.2628 2.0039 26.3696 2.06008C26.4182 2.08567 26.4666 2.11139 26.5148 2.13732C26.6169 2.19223 26.7185 2.2482 26.8196 2.30512C26.8321 2.31217 26.8444 2.31908 26.8566 2.32601C27.228 2.53627 27.5921 2.75999 27.9473 2.99599L27.9791 3.01715C28.1008 3.09837 28.2215 3.18104 28.3411 3.26513L27.9463 2.99531C28.1137 3.10648 28.2791 3.22039 28.4425 3.33696C28.5299 3.39932 28.617 3.46263 28.7035 3.52669C28.7316 3.54749 28.7591 3.56801 28.7866 3.58861L28.8326 3.62321C29.5596 4.17185 30.2436 4.77434 30.8788 5.42477C30.8967 5.44304 30.9148 5.46166 30.9328 5.48033C31.048 5.59922 31.1612 5.71947 31.2729 5.84125C31.2939 5.8642 31.3149 5.88724 31.3358 5.91032C31.6884 6.29893 32.0243 6.70329 32.3424 7.12199C32.3741 7.16374 32.4059 7.20599 32.4375 7.24838C32.6055 7.4735 32.7683 7.70282 32.9259 7.93603L32.9938 8.03727L33.0183 8.0742C33.3098 8.51429 33.5824 8.96794 33.835 9.434C33.8468 9.45563 33.8584 9.47728 33.8701 9.49895C34.0358 9.80767 34.1928 10.122 34.3408 10.4413C34.3463 10.4532 34.3519 10.4653 34.3575 10.4774C34.9351 11.7311 35.3731 13.0639 35.6509 14.4546L35.5432 13.9529C35.5911 14.1614 35.6354 14.3712 35.676 14.5824C35.8132 15.2963 35.9082 16.0251 35.9584 16.7662C35.9601 16.7919 35.9618 16.8181 35.9635 16.8442C35.9877 17.2264 36 17.6117 36 18C36 18.1412 35.9984 18.282 35.9951 18.4225L35.9949 18.4327L35.9914 18.5611C35.9826 18.8477 35.9672 19.1326 35.9452 19.4156C35.9423 19.4528 35.9393 19.4894 35.9362 19.526C35.9253 19.6563 35.9129 19.7863 35.8992 19.9159C35.897 19.9371 35.8947 19.9586 35.8923 19.9801L35.8896 20.0052C35.8737 20.1487 35.8561 20.2918 35.8368 20.4343C35.8325 20.4662 35.8281 20.4981 35.8236 20.5299C35.7806 20.8355 35.73 21.1387 35.6718 21.4392C35.6654 21.4725 35.6588 21.5061 35.6521 21.5397C35.5564 22.0196 35.4417 22.4921 35.3088 22.957L35.2841 23.0425C35.2088 23.3012 35.1278 23.5574 35.0413 23.8111L34.9972 23.9391C34.8912 24.2423 34.7774 24.5419 34.6559 24.8376L34.8373 24.378C34.7674 24.5626 34.6945 24.7457 34.6187 24.9273C34.5949 24.9844 34.5707 25.0414 34.5463 25.0983C34.4969 25.2134 34.4463 25.3277 34.3947 25.4413C34.1932 25.8845 33.9745 26.3176 33.7393 26.7403C33.7244 26.767 33.7096 26.7934 33.6948 26.8198C33.5427 27.0898 33.3838 27.3557 33.2183 27.617C33.2029 27.6414 33.1873 27.6658 33.1717 27.6902C32.6207 28.5503 32.0036 29.355 31.3244 30.1023C31.3124 30.1155 31.2997 30.1294 31.2869 30.1434C31.0531 30.399 30.813 30.647 30.5659 30.8879C30.549 30.9044 30.5318 30.9212 30.5145 30.9379C30.4203 31.029 30.3253 31.119 30.2293 31.2079C30.1953 31.2394 30.161 31.2708 30.1267 31.3022C30.0531 31.3693 29.9786 31.4361 29.9036 31.5023C29.8824 31.521 29.8609 31.5399 29.8394 31.5586C28.7894 32.4763 27.6318 33.2739 26.3881 33.9302C26.352 33.9492 26.3156 33.9682 26.2792 33.9871C26.037 34.1129 25.7917 34.2331 25.5433 34.3479C25.522 34.3578 25.5009 34.3675 25.4798 34.3771C25.4439 34.3935 25.409 34.4094 25.374 34.4251C25.2385 34.486 25.1032 34.5448 24.9671 34.602C24.2064 34.9217 23.4187 35.1906 22.6088 35.4046C22.4419 35.4485 22.2834 35.488 22.1242 35.5253L22.6077 35.4048C22.431 35.4515 22.2533 35.4955 22.0745 35.5369C21.9139 35.5741 21.7521 35.6091 21.5896 35.642C21.5796 35.6441 21.5704 35.6459 21.5612 35.6478C21.4126 35.6776 21.2626 35.7057 21.1121 35.732C21.0837 35.7369 21.0549 35.7419 21.026 35.7467C20.875 35.7723 20.7237 35.7959 20.5718 35.8177C20.5397 35.8223 20.5071 35.8268 20.4745 35.8313C20.3377 35.8501 20.2006 35.8674 20.063 35.8831C20.0236 35.8876 19.9842 35.8919 19.9447 35.8962C19.7943 35.9123 19.6434 35.9266 19.4919 35.9391C19.4738 35.9405 19.4553 35.942 19.4368 35.9435C19.2837 35.9556 19.1306 35.9657 18.977 35.9739C18.9589 35.9749 18.9407 35.9759 18.9224 35.9768C18.619 35.9921 18.3104 36 18 36C17.7657 36 17.5325 35.9955 17.3004 35.9867C17.0845 35.9784 16.8695 35.9663 16.6556 35.9506L16.5627 35.9435C16.4174 35.932 16.2726 35.9188 16.1283 35.9039L16.6577 35.9507C16.4654 35.9365 16.274 35.9193 16.0835 35.8992C15.9144 35.8813 15.7464 35.8611 15.5791 35.8386C15.5565 35.8356 15.5339 35.8325 15.5112 35.8293C15.3612 35.8086 15.2117 35.786 15.0628 35.7616C15.0231 35.755 14.9836 35.7484 14.9442 35.7417C14.7888 35.7151 14.6337 35.6865 14.4794 35.6559C14.4721 35.6544 14.4646 35.6529 14.457 35.6514C14.291 35.6183 14.1262 35.5829 13.9622 35.5453C13.9368 35.5395 13.9118 35.5337 13.8868 35.5279C13.7275 35.4907 13.5687 35.4512 13.4108 35.4097C13.3995 35.4068 13.3878 35.4037 13.3761 35.4006C13.217 35.3584 13.059 35.3142 12.902 35.2679C12.8928 35.2652 12.8839 35.2625 12.875 35.2599C12.1691 35.0506 11.4811 34.7991 10.8142 34.5084L11.2803 34.7038C11.099 34.6308 10.9192 34.5549 10.7408 34.4763C10.5877 34.4087 10.4362 34.3393 10.2859 34.2679C10.2668 34.2588 10.2476 34.2496 10.2284 34.2405C10.0811 34.1699 9.93504 34.0973 9.7901 34.0229C9.75069 34.0027 9.71113 33.9822 9.67165 33.9616C9.56229 33.9044 9.45371 33.8462 9.3458 33.7869C9.30188 33.7628 9.25837 33.7386 9.21496 33.7143C7.66024 32.8433 6.24764 31.748 5.02135 30.4722C4.99335 30.4431 4.96557 30.414 4.93788 30.3848C4.28295 29.6943 3.68216 28.9518 3.14236 28.1643C3.13014 28.1464 3.11821 28.129 3.10632 28.1115C3.03241 28.0028 2.95958 27.8932 2.88792 27.7827C2.85928 27.7386 2.83092 27.6944 2.80275 27.6502C2.57127 27.2864 2.35257 26.9139 2.14719 26.5331C2.12006 26.4828 2.09296 26.432 2.06611 26.381C2.00565 26.2663 1.94647 26.1511 1.88851 26.0351C1.87724 26.0125 1.866 25.9899 1.8548 25.9672C1.79055 25.8373 1.7279 25.7066 1.66678 25.5751C1.65055 25.5401 1.63432 25.5049 1.6182 25.4696C1.57938 25.3846 1.54121 25.2993 1.5037 25.2136C1.48666 25.1747 1.46989 25.136 1.45326 25.0973C0.876431 23.7551 0.457339 22.3242 0.221541 20.8322C0.22042 20.8251 0.219238 20.8176 0.218061 20.8101L0.221541 20.8322C0.137578 20.3009 0.0768555 19.762 0.0404475 19.2163C0.0377708 19.1762 0.0352263 19.1361 0.0328136 19.0959C0.0238295 18.9464 0.016659 18.796 0.0113449 18.6451C0.00886144 18.5747 0.00677402 18.5037 0.00509819 18.4327C0.00170632 18.2889 0 18.1447 0 18C0 17.8113 0.00290484 17.6232 0.00867226 17.4359L0 18C0 17.789 0.00362946 17.5789 0.0108293 17.3697C0.0160557 17.2177 0.0232 17.0656 0.03222 16.914C0.0363204 16.8451 0.0407954 16.7765 0.0456537 16.708C0.0827075 16.1852 0.142217 15.6678 0.223172 15.1575C0.228594 15.1233 0.23413 15.0891 0.239762 15.0548C0.266052 14.8951 0.294399 14.7363 0.324812 14.5783C0.65314 12.8722 1.22236 11.2518 1.99568 9.75396L1.78774 10.1699C1.87001 9.99984 1.95486 9.83132 2.04227 9.66434C2.25731 9.25351 2.48774 8.85203 2.73281 8.46064C2.76226 8.4136 2.79185 8.36683 2.82164 8.32021C2.8744 8.23765 2.92773 8.1557 2.98169 8.0742C3.00204 8.04347 3.02279 8.01235 3.04363 7.9813C3.11742 7.87137 3.19215 7.76263 3.26804 7.65476C3.30481 7.6025 3.34198 7.55026 3.37942 7.49822C3.43383 7.4226 3.48875 7.34752 3.54423 7.27288C3.58172 7.22244 3.61961 7.17201 3.65776 7.12178C3.93076 6.7624 4.21713 6.41339 4.51599 6.0757C4.53202 6.05758 4.5482 6.03938 4.56441 6.0212C5.39353 5.09192 6.3175 4.24929 7.3212 3.50844L6.97413 3.77114C7.13703 3.64472 7.30216 3.52104 7.46945 3.40016C7.56778 3.32912 7.6669 3.25901 7.76676 3.18988C7.77925 3.18123 7.79203 3.17241 7.80482 3.1636L7.93603 3.07412C8.39347 2.76508 8.86588 2.47651 9.35194 2.20973L9.45249 2.15497C9.7008 2.02073 9.95263 1.89217 10.2078 1.76944C10.2288 1.75933 10.2497 1.74933 10.2706 1.73937C10.3798 1.68738 10.4898 1.63638 10.6003 1.58646C10.6613 1.55893 10.722 1.53194 10.7828 1.50527C10.8902 1.4582 10.9987 1.41193 11.1078 1.3667C11.1283 1.3582 11.1485 1.34984 11.1688 1.34151C11.3069 1.28481 11.4461 1.2297 11.5861 1.17628L11.6124 1.1663C11.655 1.15013 11.6976 1.13412 11.7404 1.11826C11.8101 1.0924 11.8804 1.06682 11.9509 1.04167C11.9957 1.0257 12.0401 1.01004 12.0847 0.994549L12.1889 0.958663C12.4483 0.870223 12.7104 0.78754 12.975 0.710767C13.0145 0.699302 13.0544 0.687888 13.0943 0.676608C13.2363 0.636469 13.3787 0.598113 13.5218 0.561473C13.5386 0.557188 13.5546 0.553098 13.5707 0.549028C13.8727 0.472612 14.1782 0.403727 14.4866 0.342716C14.5156 0.336979 14.544 0.331419 14.5725 0.325926C14.719 0.297692 14.8664 0.271164 15.0145 0.246445C15.0492 0.240659 15.0841 0.23494 15.119 0.229321C15.2377 0.210233 15.3563 0.192362 15.4754 0.175655C15.4994 0.172286 15.5238 0.168906 15.5483 0.165576C16.3492 0.0564454 17.168 0 18 0C18.8505 0 19.6871 0.0589798 20.5062 0.173072L20.0217 0.112271C20.1876 0.130815 20.3528 0.151614 20.5174 0.174636C20.6651 0.195316 20.8122 0.217777 20.9588 0.242006C20.996 0.248172 21.0335 0.254485 21.0709 0.260912C21.1851 0.280552 21.299 0.301257 21.4124 0.323028C21.4571 0.3316 21.5013 0.340268 21.5455 0.349098C21.8394 0.407792 22.1308 0.473685 22.4195 0.546551C22.4268 0.548398 22.4343 0.550305 22.4419 0.552218L22.4195 0.546551C22.472 0.559816 22.5245 0.573312 22.5768 0.587038ZM18.3285 32.2633L18.3284 33.9395C19.5958 33.9139 20.8268 33.7404 22.005 33.4356L18.3285 32.2633ZM17.2999 32.2623L13.7874 33.3804C14.9136 33.6881 16.0895 33.8755 17.3004 33.9278L17.2999 32.2623ZM24.2839 28.3167L19.0605 31.4177L23.6982 32.8944C23.9102 32.8132 24.1201 32.7276 24.3276 32.6378L24.2839 28.3167ZM11.3414 28.3136L11.3 32.4709C11.5726 32.5973 11.8494 32.7163 12.1301 32.8275L16.5672 31.4167L11.3414 28.3136ZM25.3938 28.1634L25.4065 28.2679L25.3115 28.2241L25.3498 32.1513C26.7418 31.4269 28.0135 30.503 29.127 29.4177L25.3938 28.1634ZM10.2316 28.1604L6.77509 29.3215C7.81221 30.3498 8.98986 31.2366 10.2767 31.9506L10.3118 28.2221L10.2195 28.2647L10.2316 28.1604ZM18.3285 25.0222V30.6567L23.6843 27.4774L18.3285 25.0222ZM17.2999 25.0212L11.9421 27.4753L17.2999 30.6567V25.0212ZM30.3645 23.2046L25.8 27.2151L29.9121 28.5963C30.056 28.4347 30.1966 28.2701 30.3339 28.1027L30.3645 23.2046ZM5.2632 23.2046L5.2882 27.6236C5.51538 27.9232 5.7529 28.2145 6.00024 28.497L9.82221 27.213L5.2632 23.2046ZM31.3955 22.7676L31.3712 26.6859C32.0539 25.6371 32.6166 24.5029 33.0397 23.3029L31.3955 22.7676ZM23.496 20.7289L18.8274 24.1191L24.1745 26.5711L23.496 20.7289ZM12.1324 20.7279L11.4521 26.568L16.8 24.1191L12.1324 20.7279ZM11.1203 20.5294L5.75832 22.2718L10.4383 26.385L11.1203 20.5294ZM24.5082 20.5294L25.188 26.384L29.8691 22.2718L24.5082 20.5294ZM4.2309 22.7686L2.92233 23.1939C3.27018 24.2039 3.71665 25.168 4.25024 26.0747L4.2309 22.7686ZM17.2999 18.5216L12.84 19.9709L17.2999 23.2098V18.5216ZM18.3285 18.5216V23.2088L22.7874 19.9709L18.3285 18.5216ZM33.9275 18.7058L31.7143 21.7894L33.3505 22.3203C33.6755 21.1634 33.8732 19.9532 33.9275 18.7058ZM2.61903 22.2105L3.91409 21.7894L2.10723 19.2731C2.18691 20.2815 2.36042 21.2636 2.61903 22.2105ZM6.81158 15.2178L5.44255 21.2936L10.8004 19.5522L6.81158 15.2178ZM28.8158 15.2199L24.828 19.5512L30.1859 21.2926L28.8158 15.2199ZM5.82827 14.9052L2.17479 16.0534C2.11872 16.514 2.08229 16.9806 2.06637 17.4525L4.49177 20.8317L5.82827 14.9052ZM29.8012 14.9093L31.1359 20.8317L33.9099 16.9658C33.8929 16.701 33.8695 16.4379 33.8397 16.1767L29.8012 14.9093ZM14.2255 13.7511L12.5232 18.9917L16.9811 17.5434L14.2255 13.7511ZM21.4008 13.7521L18.6463 17.5434L23.1021 18.9906L21.4008 13.7521ZM13.2885 13.3119L7.52297 14.471L11.506 18.8004L13.2885 13.3119ZM22.3399 13.3129L24.1224 18.8004L28.1047 14.4741L22.3399 13.3129ZM20.5687 13.1484H15.0607L17.8142 16.9386L20.5687 13.1484ZM32.2271 10.7977L29.9966 13.8056L30.0995 13.8269L30.0295 13.9023L33.6698 15.0465C33.3887 13.5455 32.8972 12.1187 32.2271 10.7977ZM2.35463 14.9189L5.5989 13.8992L5.52963 13.8236L5.63078 13.8025L3.62477 11.0975C3.04835 12.2957 2.61735 13.5772 2.35463 14.9189ZM25.7784 7.72778L22.4654 12.2885L28.2419 13.4528L25.7784 7.72778ZM9.84895 7.72675L7.38347 13.4497L13.163 12.2874L9.84895 7.72675ZM26.82 7.5456L29.2211 13.1257L31.681 9.80964C31.5114 9.52691 31.3332 9.24987 31.1469 8.97888L26.82 7.5456ZM8.80766 7.54354L4.96658 8.81596C4.67713 9.22597 4.40655 9.65024 4.15608 10.0875L6.40529 13.1206L8.80766 7.54354ZM17.8138 6.99429L14.928 12.1208H20.7004L17.8138 6.99429ZM18.744 6.54698L21.6333 11.6816L24.9463 7.12195L18.744 6.54698ZM16.8844 6.54698L10.6821 7.12195L13.9951 11.6816L16.8844 6.54698ZM27.5771 5.25311L26.7216 6.4287L30.0131 7.51829C29.2825 6.68162 28.4659 5.92196 27.5771 5.25311ZM6.14312 7.34198L8.90472 6.42664L8.18456 5.43599C7.44963 6.01095 6.76644 6.649 6.14312 7.34198ZM21.0112 2.3411L18.7523 5.51533L24.8019 6.07577L22.269 2.63514C21.8562 2.5207 21.4367 2.42244 21.0112 2.3411ZM13.2568 2.7746L10.8298 6.07577L16.8762 5.51533L14.6625 2.40703C14.1857 2.50858 13.7168 2.63146 13.2568 2.7746ZM9.01578 4.82778L9.73787 5.82287L11.4871 3.44381C10.6195 3.83261 9.79292 4.2967 9.01578 4.82778ZM23.9729 3.21374L25.8916 5.82184L26.7353 4.66107C25.8695 4.09291 24.945 3.60679 23.9729 3.21374ZM18 2.05714C17.2487 2.05714 16.5095 2.10912 15.7858 2.20966L17.7628 4.98664L17.8144 4.89702L17.8646 4.98561L19.8726 2.16596C19.2584 2.09409 18.6335 2.05714 18 2.05714Z" fill="white"/>
</g>
</g>
</g>
</g>
</g>
</g>
<defs>
<linearGradient id="paint0_linear_3124_70239" x1="9.24856" y1="2.84568" x2="26.7478" y2="33.1553" gradientUnits="userSpaceOnUse">
<stop stop-color="#CA5453"/>
<stop offset="0.378524" stop-color="#AD3F3E"/>
<stop offset="1" stop-color="#7E1C1C"/>
</linearGradient>
<linearGradient id="paint1_linear_3124_70239" x1="-5.90628" y1="11.5953" x2="11.593" y2="41.905" gradientUnits="userSpaceOnUse">
<stop stop-color="#CA5453"/>
<stop offset="0.378524" stop-color="#AD3F3E"/>
<stop offset="1" stop-color="#7E1C1C"/>
</linearGradient>
<clipPath id="clip0_3124_70239">
<rect width="36" height="36" fill="white"/>
</clipPath>
</defs>
</svg>
