<svg width="18px" height="18px" viewBox="0 0 36 36" version="1.1" xmlns="http://www.w3.org/2000/svg" xmlns:xlink="http://www.w3.org/1999/xlink">
    <title>9FB27B67-D1B7-496A-8316-E86D3171403C</title>
    <g id="Page-1" stroke="none" stroke-width="1" fill="none" fill-rule="evenodd">
        <g id="Logos" transform="translate(-2919.000000, -646.000000)" fill-rule="nonzero">
            <g id="moonbeam" transform="translate(2919.000000, 646.000000)">
                <g id="#53cbc8ff" transform="translate(10.164603, 0.000000)" fill="#53CBC8">
                    <path d="M9.60020638,0.127796004 C11.4933227,-0.171531544 13.4504574,0.065376989 15.2457873,0.729288328 C17.9690327,1.76984168 20.259626,3.90840224 21.4787901,6.57681512 C21.551954,6.73853711 21.6230074,6.90238703 21.6898399,7.06765556 C22.019781,7.91314948 22.2913317,8.79127153 22.396153,9.69634725 C22.45384,9.88076706 22.4432875,10.0765358 22.4629855,10.2673394 C22.5368529,10.6113533 22.5037884,10.9695533 22.5199689,11.3199509 C22.5685103,11.6568718 22.2413832,11.9640017 21.9142561,11.9285363 C14.8096178,11.927827 7.70497958,11.9285363 0.600341313,11.927827 C0.27462119,11.9618738 -0.0299939566,11.6490694 0.00236700586,11.3220789 C0.00166350668,10.0382332 0.235225236,8.7579341 0.655917748,7.54643777 C0.687575212,7.45919301 0.722046672,7.37265756 0.753000636,7.28470349 C1.44454033,5.46036592 2.61868047,3.82541332 4.11572674,2.58625402 C5.67679143,1.28325708 7.5959372,0.427123552 9.60020638,0.127796004 Z" id="Path"></path>
                </g>
                <g id="#e1147bff" transform="translate(0.000000, 13.924526)" fill="#E1147B">
                    <path d="M8.14159606,0.0730586196 C8.2829994,0.0269536655 8.43214123,0.00425584192 8.58057955,0.000709306986 C17.1400541,0 25.7002322,0.00141861397 34.2597068,0 C34.4890475,0.00851168383 34.7479352,0.0333374283 34.9132575,0.214920017 C35.2016922,0.491549741 35.1756627,1.01430899 34.8555706,1.25476406 C34.6536663,1.43847457 34.3666387,1.39520684 34.1176,1.4008813 C25.5588289,1.39804407 17.0000578,1.4015906 8.44058322,1.39875338 C8.01004172,1.43421873 7.66462362,0.990192552 7.7617065,0.574538659 C7.78703247,0.354653493 7.95657578,0.175198826 8.14159606,0.0730586196 Z" id="Path"></path>
                    <path d="M5.5231721,0.187966351 C5.71522738,-0.0156047537 6.01913902,0.0276629725 6.26817773,0.0602910938 C6.53972842,0.222722394 6.73389419,0.536945388 6.65088129,0.862517295 C6.56575789,1.32569476 5.95863809,1.56614983 5.58648702,1.27675257 C5.21714995,1.05048365 5.18971348,0.457503006 5.5231721,0.187966351 Z" id="Path"></path>
                    <path d="M2.43545738,3.76925732 C2.49742211,3.45574364 2.75208881,3.13655549 3.09469291,3.15641609 C9.45080805,3.15357886 15.8062197,3.15641609 22.1616313,3.15499747 C22.454287,3.12662519 22.7195062,3.34509175 22.8102576,3.61604701 C22.9101544,3.92530486 22.7666406,4.29130727 22.4838339,4.4473548 C22.2805227,4.5693556 22.0364085,4.52608788 21.8126957,4.53389025 C15.5958734,4.53247164 9.37834763,4.53389025 3.16082184,4.53318095 C2.74646082,4.56226253 2.43058968,4.16575993 2.43545738,3.76925732 Z" id="Path"></path>
                    <path d="M0.1723573,3.3805571 C0.436169494,3.04718281 1.02007382,3.07839232 1.25082155,3.43588304 C1.50900575,3.76854802 1.35775343,4.31045855 0.972939372,4.47076193 C0.576165832,4.67291442 0.0689429201,4.38564509 0,3.95083991 L0,3.75010604 C0.0274364682,3.61533771 0.0759779119,3.48127869 0.1723573,3.3805571 Z" id="Path"></path>
                    <path d="M5.79542628,6.29793673 C6.18797883,6.17735454 6.63610781,6.48235655 6.66213728,6.89659183 C6.71701021,7.28812928 6.37581311,7.69030634 5.97692907,7.65909684 C5.54920157,7.69101565 5.19956247,7.23493126 5.30438385,6.82211459 C5.34448331,6.57031061 5.55482956,6.36390228 5.79542628,6.29793673 Z" id="Path"></path>
                    <path d="M8.32239535,6.2844599 C15.984205,6.26530861 23.6474216,6.28304128 31.3099347,6.27523891 C31.6293233,6.24119217 31.9536365,6.45256565 32.0359459,6.76891657 C32.1618722,7.18527977 31.8206751,7.68817842 31.3767671,7.65767822 C23.732545,7.65909684 16.0883229,7.65767822 8.44410071,7.65838753 C8.07265314,7.68888773 7.74552602,7.33990869 7.75256101,6.97390629 C7.73145604,6.64124131 7.99315774,6.31992525 8.32239535,6.2844599 Z" id="Path"></path>
                    <path d="M1.80377191,9.44655044 C2.25612188,9.2600027 2.80063025,9.6756566 2.72183835,10.1679156 C2.70706486,10.6963493 2.02256016,10.9708512 1.62437962,10.6537909 C1.19524511,10.3580099 1.30147349,9.60117936 1.80377191,9.44655044 Z" id="Path"></path>
                    <path d="M4.38491042,9.41675955 C7.45005636,9.40115479 10.5159058,9.41321301 13.5817553,9.41037578 C14.0312912,9.37774766 14.3661568,9.88986731 14.2205325,10.3041026 C14.1262636,10.6041394 13.81391,10.8034547 13.5050738,10.7814662 C10.5278653,10.7828848 7.55065675,10.7814662 4.5734482,10.7814662 C4.28290304,10.8020361 3.97969489,10.6452792 3.86502452,10.3679402 C3.68352173,9.98278652 3.94874092,9.44584113 4.38491042,9.41675955 Z" id="Path"></path>
                    <path d="M16.1382713,9.42314331 C17.4404483,9.3912245 18.7454393,9.41888747 20.0490233,9.40966648 C25.1388399,9.41037578 30.22936,9.40895717 35.3191766,9.41037578 C35.6631877,9.38838727 35.9678028,9.68558689 35.9959428,10.0246356 C36.0409667,10.4076614 35.7046941,10.8048733 35.3135486,10.7800476 C28.9841664,10.7843034 22.6547842,10.7814662 16.3254021,10.7814662 C15.9567685,10.8098385 15.5916524,10.4743363 15.6303449,10.0927291 C15.5930594,9.77566888 15.8392841,9.48698094 16.1382713,9.42314331 Z" id="Path"></path>
                    <path d="M19.8886254,12.5433847 C23.7860109,12.5256521 27.6840999,12.5419661 31.5821889,12.5348731 C31.7264062,12.5334544 31.8713271,12.5398382 32.0155444,12.5490592 C32.2765426,12.6611297 32.4946273,12.9143523 32.4805574,13.2143891 C32.5094008,13.6158569 32.1105168,13.9435567 31.7292202,13.9130565 C27.9746451,13.9116379 24.2200699,13.9123472 20.4647913,13.9123472 C20.2220841,13.9052542 19.9526439,13.9541963 19.7387801,13.8073698 C19.5692368,13.7101947 19.4616014,13.5399611 19.39899,13.3583785 C19.397583,13.3009246 19.3940655,13.1853076 19.3926585,13.1278537 C19.445421,12.8590263 19.6360692,12.6405598 19.8886254,12.5433847 Z" id="Path"></path>
                    <path d="M17.1168387,13.685369 C16.7650891,13.325041 16.9810633,12.6930485 17.4369308,12.546222 C17.9110892,12.4157095 18.4281611,12.8611543 18.3170083,13.3576692 C18.2389199,13.9088007 17.4587393,14.1159183 17.1168387,13.685369 Z" id="Path"></path>
                    <path d="M10.311891,15.6756844 C10.7375081,15.5572301 11.195486,15.9516048 11.1560901,16.3920844 C11.1617181,16.709854 10.9014234,16.9574021 10.6228377,17.058833 C10.2091802,17.1623918 9.74346371,16.7658892 9.79622615,16.333212 C9.77301067,16.0211169 10.0283809,15.7551268 10.311891,15.6756844 Z" id="Path"></path>
                    <path d="M12.8318251,15.6657541 C16.7636821,15.6551145 20.696946,15.6650448 24.628803,15.6607889 C24.9875875,15.6395097 25.3330056,15.963663 25.3076797,16.3325027 C25.3534071,16.726168 24.982663,17.0269142 24.628803,17.0716005 C20.7588539,17.0758564 16.8882014,17.0708912 13.0175489,17.0744378 C12.6517293,17.0808215 12.2662118,16.7935522 12.2380718,16.4091078 C12.2050074,16.0580009 12.4744475,15.6934171 12.8318251,15.6657541 Z" id="Path"></path>
                </g>
            </g>
        </g>
    </g>
</svg>
