<svg width="18" height="18" viewBox="0 0 33 42" version="1.1">
    <title>moonriver</title>
    <g id="Page-1" stroke="none" stroke-width="1" fill="none" fill-rule="evenodd">
        <g id="Logos" transform="translate(-2456.000000, -805.000000)" fill-rule="nonzero">
            <g id="Group-2" transform="translate(100.000000, 84.000000)">
                <g id="moonriver" transform="translate(2356.000000, 721.000000)">
                    <g id="#f2b705ff" transform="translate(0.415100, 0.000000)" fill="#F2B705">
                        <path d="M5.69308991,3.61136582 C8.37463281,1.35737543 11.8593933,0.130756349 15.3545312,0.114152368 C18.106641,0.145284832 20.8670528,0.84680302 23.2289691,2.28097186 C26.8631654,4.43118737 29.4845189,8.16708305 30.3520769,12.2910968 C30.6800055,14.298103 30.7318929,16.3715251 30.3375484,18.3702292 C27.7597804,20.5453507 24.0716211,21.1285655 20.8608264,20.2589321 C18.8247632,19.8064736 17.2411585,18.3681537 15.537175,17.2619135 C12.1956239,14.7671654 7.48009334,14.4184818 3.7172162,16.1266163 C2.52172958,16.6662457 1.51511325,17.5234262 0.41509952,18.2207934 C0.284343171,16.9298339 0.031132464,15.6305724 0.201323267,14.3313109 C0.452458476,10.2072972 2.49059712,6.2223418 5.69308991,3.61136582 Z" id="Path"></path>
                    </g>
                    <g id="#53cbc8ff" transform="translate(0.000000, 17.019080)" fill="#53CBC8">
                        <path d="M7.32858202,0.26773919 C9.5037035,-0.107925875 11.7493919,0.201323267 13.8290405,0.894539465 C16.5790748,1.8990803 18.552873,4.30873301 21.3547948,5.20119698 C24.0529417,6.11649142 27.1267536,5.72007138 29.5343308,4.21118463 C30.0698092,3.8853315 30.5554756,3.47645848 31.1262375,3.20871929 C31.7094523,3.17136033 32.2428552,3.76287714 32.1328538,4.33778998 C31.8671901,4.88157035 31.2964283,5.16591352 30.8294413,5.51044612 C27.9777076,7.56103775 24.162943,7.89726836 20.8442224,6.95291695 C17.710221,6.02932052 15.5807605,3.18588881 12.4280796,2.31210432 C11.0354207,2.03191215 9.59917639,1.71851201 8.17746054,1.96134523 C7.05254084,2.11078106 5.91101716,2.28512286 4.88157035,2.78946877 C3.61966781,3.33947563 2.5922965,4.28590254 1.39888538,4.95213727 C0.722273164,5.43780371 -0.300947152,4.47684832 0.205474262,3.78155662 C0.722273164,3.17343583 1.47360329,2.82475223 2.10247907,2.34323679 C3.63834729,1.22454358 5.45025669,0.533402883 7.32858202,0.26773919 Z" id="Path"></path>
                        <path d="M6.12271791,4.07212629 C6.45687303,3.9766534 6.88442553,3.95382292 7.11895676,4.26307207 C7.4344324,4.71760604 7.4344324,5.29044338 7.44273439,5.81969526 C7.4282059,8.3767083 7.43858339,10.9357968 7.43858339,13.4948854 C7.4344324,14.0137598 7.36801647,14.7049005 6.83046259,14.9456582 C6.17875635,15.2175484 5.49591764,14.5824461 5.51044612,13.9307399 C5.48761565,11.0852327 5.51459712,8.23764997 5.50006863,5.39214276 C5.47516266,4.90024983 5.59554152,4.25477008 6.12271791,4.07212629 Z" id="Path"></path>
                        <path d="M9.2442663,6.44857104 C9.27954976,5.55403157 9.03049005,4.44779135 9.86068909,3.83551956 C10.0308799,3.84589705 10.3712615,3.86457653 10.5414523,3.87287852 C10.7344736,4.05552231 10.9274949,4.2360906 11.1205161,4.41873439 C11.1557996,10.4895649 11.1267426,16.5624708 11.1371201,22.6353768 C11.1703281,23.0691558 11.0208922,23.5776527 10.5518298,23.7125601 C10.1678627,23.9408648 9.78804667,23.6440686 9.42691009,23.5278408 C9.35426767,23.0919863 9.27954976,22.6561318 9.27539876,22.2140508 C9.29822924,16.9588909 9.22351132,11.703731 9.2442663,6.44857104 Z" id="Path"></path>
                        <path d="M13.2333727,5.57686205 C13.4699794,5.48761565 13.7065861,5.39629375 13.9411174,5.30497186 C14.5243322,5.48138916 14.9394317,6.01271654 14.9207522,6.63121482 C14.9435827,8.64652299 14.9705642,10.6659822 14.9041482,12.6812903 C14.8896198,13.2416747 14.4496143,13.6256417 13.9556458,13.8041345 C13.7148881,13.7045106 13.4720549,13.6069623 13.2271462,13.5135649 C13.0569554,13.1150693 12.9075196,12.6978943 12.9407275,12.2578888 C12.9531805,10.4501304 12.9448785,8.642372 12.9448785,6.83461359 C12.9199725,6.3925326 13.0694084,5.97535758 13.2333727,5.57686205 Z" id="Path"></path>
                        <path d="M2.32455731,6.06252848 C2.97833905,5.81346877 3.73174468,6.34479616 3.68193274,7.04631434 C3.68815923,9.13011393 3.69023473,11.2139135 3.67985724,13.2977131 C3.75665065,13.9847028 2.95550858,14.6447111 2.32248181,14.2835745 C1.79945642,14.0220618 1.76417296,13.3745065 1.76002196,12.8618586 C1.75171997,11.1329691 1.78700343,9.40407962 1.76832395,7.67519012 C1.78077694,7.11065477 1.74549348,6.37177763 2.32455731,6.06252848 Z" id="Path"></path>
                        <path d="M16.7783226,8.24595196 C16.8322855,7.80387097 17.317952,7.70217159 17.6396541,7.5174523 C17.9717337,7.67519012 18.2934358,7.8599094 18.5881565,8.07991215 C18.561175,8.91426218 18.5674015,9.74861222 18.58193,10.5808868 C18.2975868,10.807116 18.0443761,11.1724036 17.6396541,11.1454221 C17.259838,11.1474976 16.9402114,10.8548524 16.7907756,10.5248483 C16.6973782,9.77144269 16.7077557,9.00143308 16.7783226,8.24595196 Z" id="Path"></path>
                        <path d="M27.9880851,9.15086891 C28.1686534,8.17953603 29.8041455,8.37255731 29.8207495,9.3272862 C29.84358,10.5020178 29.8456555,11.6809005 29.8207495,12.8556321 C29.8560329,13.4284695 29.2520631,13.6235662 28.8452656,13.843569 C28.4612986,13.6152642 27.9341222,13.397337 27.9528016,12.8618586 C27.9195937,11.6269375 27.8635553,10.3795635 27.9880851,9.15086891 Z" id="Path"></path>
                        <path d="M20.8483734,9.19237886 C21.4315882,8.65274949 22.3572601,9.25671929 22.3717886,9.97069046 C22.4132986,12.7331778 22.3634866,15.4977406 22.3925436,18.2602279 C22.3759396,18.7791023 22.465186,19.3851476 22.0749925,19.8002471 C21.6993274,20.2485546 20.8795058,20.1530817 20.5972382,19.6445848 C20.3689334,19.2959012 20.4208209,18.8600467 20.4042169,18.4657021 C20.4228964,15.7011393 20.4042169,12.938652 20.4125189,10.1740892 C20.3938394,9.79842416 20.5474262,9.42483459 20.8483734,9.19237886 Z" id="Path"></path>
                        <path d="M24.1857735,9.88144406 C24.6278545,9.30030474 25.6759808,9.16954839 25.9914564,9.94163349 C26.0724008,12.7975182 25.9852299,15.6575539 26.0329664,18.5155141 C25.7548497,18.7334413 25.50579,19.0572189 25.1238984,19.0800494 C24.7212519,19.0987289 24.4804942,18.7292903 24.192,18.5134386 C24.1940755,15.6347234 24.2065285,12.7580837 24.1857735,9.88144406 Z" id="Path"></path>
                    </g>
                </g>
            </g>
        </g>
    </g>
</svg>
