<svg width="17px" height="17px" viewBox="0 0 34 34" xmlns="http://www.w3.org/2000/svg">
    <path d="m27.245 1.738-7.094 10.54c-.49.718.453 1.586 1.132.982l6.981-6.082c.189-.151.453-.038.453.226v19.003c0 .264-.34.378-.49.188L7.093 1.285C6.415.452 5.434 0 4.34 0h-.755C1.623 0 0 1.624 0 3.627v26.746A3.626 3.626 0 0 0 3.623 34a3.638 3.638 0 0 0 3.094-1.738l7.094-10.54c.49-.717-.452-1.587-1.132-.982L5.7 26.785c-.19.15-.454.037-.454-.227V7.593c0-.264.34-.377.49-.189l21.133 25.311A3.545 3.545 0 0 0 29.623 34h.754c2 0 3.623-1.625 3.623-3.627V3.627C33.962 1.624 32.34 0 30.34 0a3.638 3.638 0 0 0-3.095 1.738z" fill="#000" fill-rule="nonzero"/>
</svg>
