<?xml version="1.0" encoding="UTF-8"?>
<svg width="18px" height="19.5px" viewBox="0 0 36 39" version="1.1" xmlns="http://www.w3.org/2000/svg" xmlns:xlink="http://www.w3.org/1999/xlink">
    <title>5E73D7C6-55CE-4E71-9D8E-5E326338B13C</title>
    <defs>
        <radialGradient cx="94.8810752%" cy="41.1205428%" fx="94.8810752%" fy="41.1205428%" r="117.878889%" gradientTransform="translate(0.948811,0.411205),scale(0.949797,1.000000),translate(-0.948811,-0.411205)" id="radialGradient-1">
            <stop stop-color="#FFEAFF" stop-opacity="0.6" offset="0%"></stop>
            <stop stop-color="#A087C9" offset="68.07%"></stop>
            <stop stop-color="#10002F" offset="100%"></stop>
        </radialGradient>
        <radialGradient cx="83.1042527%" cy="15.5291233%" fx="83.1042527%" fy="15.5291233%" r="97.8094318%" gradientTransform="translate(0.831043,0.155291),scale(1.000000,0.989949),translate(-0.831043,-0.155291)" id="radialGradient-2">
            <stop stop-color="#FFEAFF" stop-opacity="0.6" offset="0%"></stop>
            <stop stop-color="#A087C9" offset="68.07%"></stop>
            <stop stop-color="#10002F" offset="100%"></stop>
        </radialGradient>
        <linearGradient x1="42.1401089%" y1="99.2907939%" x2="58.3427765%" y2="0.714043314%" id="linearGradient-3">
            <stop stop-color="#81FFFF" offset="0%"></stop>
            <stop stop-color="#FFFFFF" stop-opacity="0" offset="62.02%"></stop>
        </linearGradient>
        <linearGradient x1="83.1152026%" y1="25.566201%" x2="34.6427145%" y2="65.0728299%" id="linearGradient-4">
            <stop stop-color="#FFFFFF" offset="28.88%"></stop>
            <stop stop-color="#FFFFFF" stop-opacity="0" offset="77.96%"></stop>
        </linearGradient>
        <linearGradient x1="0.0423170556%" y1="49.9413858%" x2="99.9757418%" y2="49.9413858%" id="linearGradient-5">
            <stop stop-color="#0002E9" offset="0%"></stop>
            <stop stop-color="#FF00C7" offset="99.52%"></stop>
        </linearGradient>
        <linearGradient x1="109.063163%" y1="11.0727601%" x2="2.63107355%" y2="106.491918%" id="linearGradient-6">
            <stop stop-color="#FFFFFF" offset="28.88%"></stop>
            <stop stop-color="#FFFFFF" stop-opacity="0" offset="77.96%"></stop>
        </linearGradient>
        <linearGradient x1="0.0791954149%" y1="49.9413858%" x2="100.135692%" y2="49.9413858%" id="linearGradient-7">
            <stop stop-color="#000292" offset="0%"></stop>
            <stop stop-color="#7D00C7" offset="99.52%"></stop>
        </linearGradient>
        <linearGradient x1="0.109507424%" y1="50.1054142%" x2="100.002698%" y2="50.1054142%" id="linearGradient-8">
            <stop stop-color="#000292" offset="0%"></stop>
            <stop stop-color="#BE00C7" offset="99.52%"></stop>
        </linearGradient>
        <linearGradient x1="68.074185%" y1="-0.895909002%" x2="24.2862988%" y2="110.791308%" id="linearGradient-9">
            <stop stop-color="#FFFFFF" offset="28.88%"></stop>
            <stop stop-color="#FFFFFF" stop-opacity="0" offset="77.96%"></stop>
        </linearGradient>
        <linearGradient x1="-0.0661185047%" y1="51.1836338%" x2="100.067814%" y2="51.1836338%" id="linearGradient-10">
            <stop stop-color="#FFFFFF" offset="28.88%"></stop>
            <stop stop-color="#FFFFFF" stop-opacity="0" offset="77.96%"></stop>
        </linearGradient>
        <linearGradient x1="-0.310248368%" y1="50.8325129%" x2="99.8304654%" y2="50.8325129%" id="linearGradient-11">
            <stop stop-color="#FFFFFF" offset="28.88%"></stop>
            <stop stop-color="#FFFFFF" stop-opacity="0" offset="77.96%"></stop>
        </linearGradient>
        <linearGradient x1="-0.411891117%" y1="49.2110648%" x2="98.8538682%" y2="49.2110648%" id="linearGradient-12">
            <stop stop-color="#FFFFFF" offset="28.88%"></stop>
            <stop stop-color="#FFFFFF" stop-opacity="0" offset="77.96%"></stop>
        </linearGradient>
        <linearGradient x1="-1.76396848%" y1="49.1151768%" x2="97.5017908%" y2="49.1151768%" id="linearGradient-13">
            <stop stop-color="#FFFFFF" offset="28.88%"></stop>
            <stop stop-color="#FFFFFF" stop-opacity="0" offset="77.96%"></stop>
        </linearGradient>
        <linearGradient x1="-0.661678313%" y1="49.8503876%" x2="98.7549729%" y2="49.8503876%" id="linearGradient-14">
            <stop stop-color="#FFFFFF" offset="28.88%"></stop>
            <stop stop-color="#FFFFFF" stop-opacity="0" offset="77.96%"></stop>
        </linearGradient>
        <linearGradient x1="-0.110276309%" y1="49.8122417%" x2="99.3074236%" y2="49.8122417%" id="linearGradient-15">
            <stop stop-color="#FFFFFF" offset="28.88%"></stop>
            <stop stop-color="#FFFFFF" stop-opacity="0" offset="77.96%"></stop>
        </linearGradient>
    </defs>
    <g id="Page-1" stroke="none" stroke-width="1" fill="none" fill-rule="evenodd">
        <g id="Logos" transform="translate(-2919.000000, -723.000000)" fill-rule="nonzero">
            <g id="osmosis" transform="translate(2919.000000, 723.000000)">
                <path d="M35.8951434,6.89424749 C35.4953794,5.36539555 34.2103418,3.83654362 31.8972578,2.1346207 C30.0411287,0.778847873 28.0707814,0 26.5001981,0 C26.1860159,0 25.9004702,0.0288448663 25.6149245,0.0865371178 C24.9009783,0.230768356 24.2727777,0.75 23.8730137,1.52885194 C23.3875042,2.45192698 23.2732859,3.69231644 23.587468,4.4423205 C23.7016863,4.67308724 23.8444592,4.96154971 24.0157866,5.22116025 C22.5023124,6.14424343 21.6455934,6.40386209 21.5313751,6.4327059 C25.4721516,7.75962679 28.7560911,10.5288844 30.812184,14.1346044 L30.8407386,13.7884787 C30.9264023,12.8365517 31.211948,11.7404057 31.611712,10.6154159 C32.0114761,10.7307911 32.4113219,10.7884787 32.8110859,10.7884787 C33.8676869,10.7884787 34.7814332,10.3558216 35.3526065,9.57695745 C35.923698,8.79809333 36.1521346,7.75963492 35.8951434,6.89424749 Z" id="Path" fill="#5E12A0"></path>
                <path d="M31.7831213,9.77878287 C34.381751,10.4998781 35.4382702,8.48064892 35.0956154,7.12489234 C34.7244059,5.76911952 33.525032,4.38450288 31.4119118,2.82680714 C29.2987098,1.26911139 27.157035,0.634494759 25.7863337,0.922953173 C24.4156324,1.21141565 24.0157866,3.31719254 24.3585233,4.12488422 C24.5012961,4.4421905 24.8153964,4.90373209 25.243715,5.4229613 C24.7011782,5.79796333 24.187114,6.08642581 23.7587954,6.34604447 C26.3859798,7.52873818 28.6705092,9.37488828 30.3838654,11.6825556 C30.5837474,10.9037727 30.8692931,10.21144 31.1262843,9.60563876 C31.3261663,9.63448257 31.5546847,9.69217019 31.7831213,9.77878287 Z" id="Path" fill="url(#radialGradient-1)"></path>
                <path d="M16.9052889,38.0478293 C25.72137,38.0478293 32.8681951,30.8284267 32.8681951,21.9228394 C32.8681951,13.0172521 25.72137,5.79780083 16.9052889,5.79780083 C8.089175,5.79780083 0.942325446,13.0172521 0.942325446,21.9228394 C0.942325446,30.8284267 8.089175,38.0478293 16.9052889,38.0478293 Z" id="Path" fill="url(#radialGradient-2)"></path>
                <path d="M33.7820232,5.79790645 C31.6117939,3.49020665 29.7842194,2.88443788 27.5853536,2.39405249 C25.8719975,1.99020665 26.3288706,1.00943585 28.4135181,1.21135877 C27.4140262,0.865200553 26.4716435,0.778663435 25.7863337,0.922896298 C24.4156324,1.21135877 24.0157866,3.31712754 24.3585233,4.12482734 C24.5012961,4.44213363 24.8153964,4.90367522 25.243715,5.42290442 C24.4727416,5.94213363 23.8159046,6.31713566 23.2733677,6.60559814 C23.5303589,6.7209815 23.8444592,6.8652168 24.2157504,7.06713972 C25.1866059,7.58636893 26.2432069,8.45172386 26.2432069,8.45172386 C24.644069,7.06713972 24.9867239,6.43251903 27.1855896,4.87482328 C27.8708994,4.38443788 29.1273824,4.44213363 30.2982017,5.04790239 C31.469021,5.65367115 32.8397223,7.18252309 32.8397223,7.18252309 L31.5261301,9.721014 C31.6117939,9.74985781 31.6974576,9.77870162 31.7831213,9.80754543 C32.6112857,10.0382959 33.2680409,9.98060829 33.7820232,9.77870162 C34.381751,9.40365084 35.9523344,8.13444195 33.7820232,5.79790645 Z" id="Path" fill="#A98698" opacity="0.6"></path>
                <path d="M27.5567991,3.7788235 C28.1279723,4.00959835 28.8703912,4.41344419 29.7842194,5.01921296 C30.869375,5.74037321 31.8116759,6.54806489 32.4114037,7.18267746 C31.4119118,8.50957398 30.7550749,10.3268965 30.3553108,11.5961867 C30.5551928,11.8846248 30.7836294,12.1730629 30.9835933,12.461501 C31.1834753,11.7404057 31.5261301,10.6731035 31.9830033,9.60572001 C32.0972216,9.63464507 32.2399945,9.63464507 32.3828491,9.63464507 C32.725504,9.63464507 33.125268,9.5768762 33.4393683,9.31728191 C33.6678049,9.14421905 33.9248779,8.82693714 33.8963233,8.24997969 C33.8963233,7.7019148 33.4679229,7.00960648 32.5827311,6.17306286 C31.9544487,5.5672941 31.0978115,4.90382959 30.2410925,4.29806083 C27.7852356,2.65382553 26.0718795,2.19228394 25.300906,2.97113181 C24.7868419,3.49036102 24.843951,4.12498172 25.0152785,4.58652331 C24.1015321,5.19229207 23.3304768,5.62498172 22.8164945,5.91344419 C23.1591494,6.02882756 23.4732497,6.17306286 23.8159864,6.31729816 C24.7297327,5.82691276 26.0433249,4.99036915 27.5567991,3.7788235 Z M32.9539406,7.90383772 C33.0396043,8.04806489 33.0681589,8.19229207 33.0681589,8.2788235 C33.0681589,8.53841779 32.9824952,8.62503047 32.925386,8.68271809 C32.8111677,8.76924952 32.5827311,8.82693714 32.3828491,8.82693714 C32.5541766,8.48073017 32.7540586,8.19229207 32.9539406,7.90383772 Z M25.900552,3.60575251 C25.9862157,3.51921296 26.2146523,3.46151721 26.5859436,3.51921296 C26.300316,3.74997969 26.0147703,3.95190261 25.7292246,4.15382553 C25.70067,3.95190261 25.7292246,3.74997969 25.900552,3.60575251 Z" id="Shape" fill="#5E12A0"></path>
                <path d="M16.9052889,4.8460526 C7.56739542,4.8460526 0,12.4902635 0,21.9230019 C0,31.3557403 7.56739542,39 16.9052889,39 C26.2432069,39 33.8105778,31.3557403 33.8105778,21.9230019 C33.8105778,12.4902635 26.2146523,4.8460526 16.9052889,4.8460526 Z M16.9052889,38.048073 C8.08141045,38.048073 0.942358173,30.8364705 0.942358173,21.9230019 C0.942358173,13.0095334 8.08141045,5.79797145 16.9052889,5.79797145 C25.7291428,5.79797145 32.8681951,13.0095334 32.8681951,21.9230019 C32.8681951,30.8364705 25.7005882,38.048073 16.9052889,38.048073 Z" id="Shape" fill="#5E12A0"></path>
                <path d="M16.9052889,38.0482355 C25.72137,38.0482355 32.8681951,30.828833 32.8681951,21.9232457 C32.8681951,13.0176584 25.72137,5.79819895 16.9052889,5.79819895 C8.089175,5.79819895 0.942325446,13.0176584 0.942325446,21.9232457 C0.942325446,30.828833 8.089175,38.0482355 16.9052889,38.0482355 Z" id="Path" fill="url(#linearGradient-3)" opacity="0.6"></path>
                <path d="M16.7910706,36.0866939 C8.08138591,34.673266 2.17024571,26.3944425 3.59805617,17.5963492 C4.22629768,13.7021098 6.16811499,10.3847466 8.90951761,7.99052352 C4.91164015,10.327059 1.94180095,14.3943612 1.14222382,19.3559028 C-0.257032064,28.1539962 5.65410813,36.4329009 14.3352137,37.8463288 C19.1897365,38.6540368 23.8730137,37.1252336 27.3282807,34.1251523 C24.2727777,35.9136311 20.5604378,36.6924952 16.7910706,36.0866939 Z" id="Path" fill="#A98698" opacity="0.6"></path>
                <path d="M19.4468095,6.02895756 C15.4203693,5.36549305 11.5082292,6.28857623 8.30987158,8.33667362 C8.25276243,8.39436124 8.19565329,8.45204886 8.19565329,8.45204886 C9.42358173,7.70203667 11.2226016,7.03858029 11.2226016,7.03858029 C6.59653176,9.75010156 5.1687213,12.836633 5.1687213,12.836633 C6.96776575,9.31744441 12.2506481,6.83664924 16.3913066,6.66357826 C20.5319651,6.49049915 23.2448131,7.73088861 26.5573072,10.4135904 C29.8698831,13.1251523 31.868785,18.6635701 31.668903,23.0482355 C31.4975756,27.4328197 29.2130461,30.9809333 29.2130461,30.9809333 C30.7836294,28.9328603 31.7260121,27.4328197 32.3256582,25.9040165 C32.4398765,25.4424343 32.5541766,24.9809333 32.6112857,24.4905073 C34.0390962,15.7212578 28.1564451,7.44242613 19.4468095,6.02895756 Z" id="Path" fill="url(#linearGradient-4)" opacity="0.6"></path>
                <path d="M32.068667,21.7788641 C32.068667,30.2308317 25.2722696,37.0962273 16.9052889,37.0962273 C8.53830816,37.0962273 1.71337255,30.2308317 1.71337255,21.7788641 L32.068667,21.7788641 Z" id="Path" fill="url(#linearGradient-5)"></path>
                <g id="Group" opacity="0.6" transform="translate(16.305643, 21.778864)" fill="url(#linearGradient-6)">
                    <path d="M14.5636503,0 C14.5636503,8.24997969 8.10998957,15 0,15.3173632 C0.199882009,15.3173632 0.399764018,15.3173632 0.599646028,15.3173632 C8.96662675,15.3173632 15.7630242,8.45196761 15.7630242,0 L14.5636503,0 Z" id="Path"></path>
                </g>
                <g id="Group" opacity="0.7" transform="translate(1.713373, 21.778864)" fill="url(#linearGradient-7)">
                    <path d="M2.14171568,0 L0,0 C0,8.45196761 6.79638104,15.3173632 15.1633618,15.3173632 C15.5345712,15.3173632 15.8772261,15.3173632 16.2199628,15.2885194 C8.36696436,14.7115619 2.14171568,8.07691683 2.14171568,0 Z" id="Path"></path>
                </g>
                <path d="M32.0401124,21.9230832 C32.0401124,20.1635295 29.0130823,19.1539149 24.9867239,18.8077079 C22.0739938,18.5769575 19.1326274,18.8653956 15.7630242,19.903854 C12.8502941,20.7692495 10.2231098,20.6250305 8.30987158,20.39428 C4.05497842,19.903854 1.71337255,19.8461663 1.71337255,21.9230832 C1.71337255,24.9230832 7.76728561,28.6731035 16.8481797,27.3750508 C21.4457114,26.7115619 23.8159046,25.3558216 26.5287526,24.4327384 C29.4700373,23.4519676 32.0401124,23.4808114 32.0401124,21.9230832 Z" id="Path" fill="url(#linearGradient-8)"></path>
                <path d="M21.8741118,14.6539555 C23.293495,14.6539555 24.444187,13.4915906 24.444187,12.0577689 C24.444187,10.6239471 23.293495,9.46158221 21.8741118,9.46158221 C20.4547286,9.46158221 19.3040366,10.6239471 19.3040366,12.0577689 C19.3040366,13.4915906 20.4547286,14.6539555 21.8741118,14.6539555 Z" id="Path" fill="#FFFFFF"></path>
                <path d="M26.0718795,16.5864096 C26.6711982,16.5864096 27.157035,16.0956585 27.157035,15.4902635 C27.157035,14.8848685 26.6711982,14.3941175 26.0718795,14.3941175 C25.4725607,14.3941175 24.9867239,14.8848685 24.9867239,15.4902635 C24.9867239,16.0956585 25.4725607,16.5864096 26.0718795,16.5864096 Z" id="Path" fill="#FFFFFF"></path>
                <g id="Group" opacity="0.6" transform="translate(29.636910, 6.811049)" fill="url(#linearGradient-9)">
                    <path d="M0.318554982,3.16980311 C0.290000409,3.16980311 0.261445836,3.16980311 0.261445836,3.16980311 C0.0900365817,3.1409593 -0.0241817093,2.96789644 0.00437286343,2.76590852 C0.261445836,1.43901201 1.3465196,0.169770611 1.40362875,0.112082991 C1.51792886,-0.0321523092 1.74636544,-0.0321523092 1.86058373,0.0832391812 C2.00335659,0.198622547 2.00335659,0.429389277 1.8891383,0.544772643 C1.86058373,0.573616453 0.861091864,1.75629392 0.632655282,2.91012757 C0.604100709,3.08327168 0.461327846,3.16980311 0.318554982,3.16980311 Z" id="Path"></path>
                </g>
                <path d="M15.8505697,33.9520082 C16.2921428,33.9520082 16.6500977,33.5903637 16.6500977,33.1443003 C16.6500977,32.6982369 16.2921428,32.3365924 15.8505697,32.3365924 C15.4089965,32.3365924 15.0509598,32.6982369 15.0509598,33.1443003 C15.0509598,33.5903637 15.4089965,33.9520082 15.8505697,33.9520082 Z" id="Path" fill="#FFFFFF" opacity="0.2"></path>
                <g id="Group" opacity="0.4" transform="translate(15.042021, 32.366330)" fill="url(#linearGradient-10)">
                    <path d="M0.349793516,1.29813395 C0.0356932159,0.980770793 0.0356932159,0.461582212 0.349793516,0.144300301 C0.406902662,0.0866126804 0.464011807,0.0577688704 0.521120953,0 C0.406902662,0.0289250603 0.321238943,0.0866126804 0.235575225,0.173144111 C-0.0785250751,0.490426022 -0.0785250751,1.0096146 0.235575225,1.32697776 C0.49256638,1.58657206 0.892330398,1.64425968 1.20651252,1.47119681 C0.920884971,1.58657206 0.578230098,1.52888444 0.349793516,1.29813395 Z" id="Path" opacity="0.6"></path>
                </g>
                <path d="M16.1343154,32.9136311 C16.2288973,32.9136311 16.3056429,32.8361997 16.3056429,32.7405682 C16.3056429,32.645018 16.2288973,32.5675053 16.1343154,32.5675053 C16.0396517,32.5675053 15.962988,32.645018 15.962988,32.7405682 C15.962988,32.8361997 16.0396517,32.9136311 16.1343154,32.9136311 Z" id="Path" fill="#FFFFFF" opacity="0.3"></path>
                <path d="M20.0197828,33.5481136 C20.4613559,33.5481136 20.8193108,33.1865504 20.8193108,32.7404057 C20.8193108,32.2943423 20.4613559,31.932779 20.0197828,31.932779 C19.5782096,31.932779 19.2201729,32.2943423 19.2201729,32.7404057 C19.2201729,33.1865504 19.5782096,33.5481136 20.0197828,33.5481136 Z" id="Path" fill="#FFFFFF" opacity="0.2"></path>
                <g id="Group" opacity="0.4" transform="translate(19.211234, 31.962110)" fill="url(#linearGradient-11)">
                    <path d="M0.349793516,1.2980527 C0.0356932159,0.980770793 0.0356932159,0.461500961 0.349793516,0.14421905 C0.406902662,0.0865314303 0.464011807,0.0576876202 0.521120953,0 C0.406902662,0.0288438101 0.321238943,0.0865314303 0.235575225,0.173062861 C-0.0785250751,0.490344772 -0.0785250751,1.0096146 0.235575225,1.32689651 C0.49256638,1.58657206 0.892330398,1.64425968 1.20651252,1.47111556 C0.920884971,1.58657206 0.578230098,1.52880319 0.349793516,1.2980527 Z" id="Path" opacity="0.6"></path>
                </g>
                <path d="M20.3035285,32.5098177 C20.3981104,32.5098177 20.4748559,32.4323051 20.4748559,32.3367549 C20.4748559,32.2411234 20.3981104,32.1636108 20.3035285,32.1636108 C20.2088648,32.1636108 20.1322011,32.2411234 20.1322011,32.3367549 C20.1322011,32.4323051 20.2088648,32.5098177 20.3035285,32.5098177 Z" id="Path" fill="#FFFFFF" opacity="0.3"></path>
                <path d="M17.9618899,35.4231238 C18.2930902,35.4231238 18.5615359,35.1519107 18.5615359,34.8173225 C18.5615359,34.4827343 18.2930902,34.2115213 17.9618899,34.2115213 C17.6306896,34.2115213 17.3622439,34.4827343 17.3622439,34.8173225 C17.3622439,35.1519107 17.6306896,35.4231238 17.9618899,35.4231238 Z" id="Path" fill="#FFFFFF" opacity="0.2"></path>
                <g id="Group" opacity="0.4" transform="translate(17.362244, 34.241340)" fill="url(#linearGradient-12)">
                    <path d="M0.28125,0.951926983 C0.03125,0.721095252 0.03125,0.317281911 0.28125,0.0865314303 C0.3125,0.0576876202 0.375,0.0288438101 0.40625,0 C0.3125,0.0288438101 0.25,0.0865314303 0.1875,0.14421905 C-0.0625,0.374969531 -0.0625,0.778782872 0.1875,1.0096146 C0.40625,1.21152127 0.71875,1.24036508 1,1.09614603 C0.75,1.18267746 0.46875,1.12498984 0.28125,0.951926983 Z" id="Path" opacity="0.6"></path>
                </g>
                <path d="M18.1617719,34.6153346 C18.2248538,34.6153346 18.2759902,34.5636595 18.2759902,34.4998781 C18.2759902,34.436178 18.2248538,34.3845029 18.1617719,34.3845029 C18.09869,34.3845029 18.0475536,34.436178 18.0475536,34.4998781 C18.0475536,34.5636595 18.09869,34.6153346 18.1617719,34.6153346 Z" id="Path" fill="#FFFFFF" opacity="0.3"></path>
                <path d="M21.6455934,34.9903041 C21.9767937,34.9903041 22.2453213,34.7190911 22.2453213,34.3845029 C22.2453213,34.0499147 21.9767937,33.7787016 21.6455934,33.7787016 C21.3143931,33.7787016 21.0459474,34.0499147 21.0459474,34.3845029 C21.0459474,34.7190911 21.3143931,34.9903041 21.6455934,34.9903041 Z" id="Path" fill="#FFFFFF" opacity="0.2"></path>
                <g id="Group" opacity="0.4" transform="translate(21.045947, 33.808520)" fill="url(#linearGradient-13)">
                    <path d="M0.28125,0.951845733 C0.03125,0.721095252 0.03125,0.317281911 0.28125,0.0865314303 C0.3125,0.0576876202 0.375,0.0288438101 0.40625,0 C0.3125,0.0288438101 0.25,0.0865314303 0.1875,0.14421905 C-0.0625,0.374969531 -0.0625,0.778782872 0.1875,1.0096146 C0.40625,1.21152127 0.71875,1.24036508 1,1.09614603 C0.75,1.18267746 0.46875,1.12498984 0.28125,0.951845733 Z" id="Path" opacity="0.6"></path>
                </g>
                <path d="M21.8454754,34.1824337 C21.9085573,34.1824337 21.9596937,34.1308399 21.9596937,34.0670585 C21.9596937,34.0033583 21.9085573,33.9516832 21.8454754,33.9516832 C21.7823935,33.9516832 21.7312571,34.0033583 21.7312571,34.0670585 C21.7312571,34.1308399 21.7823935,34.1824337 21.8454754,34.1824337 Z" id="Path" fill="#FFFFFF" opacity="0.3"></path>
                <path d="M12.4505301,33.6634076 C13.1759308,33.6634076 13.7640404,33.0693064 13.7640404,32.3365111 C13.7640404,31.6036346 13.1759308,31.0095334 12.4505301,31.0095334 C11.7250476,31.0095334 11.1369379,31.6036346 11.1369379,32.3365111 C11.1369379,33.0693064 11.7250476,33.6634076 12.4505301,33.6634076 Z" id="Path" fill="#FFFFFF" opacity="0.2"></path>
                <g id="Group" opacity="0.4" transform="translate(11.151952, 31.096065)" fill="url(#linearGradient-14)">
                    <path d="M0.556814169,2.07691683 C0.0428318591,1.557647 0.0428318591,0.721095252 0.556814169,0.201906671 C0.642477887,0.11537524 0.728141605,0.0576876202 0.842359896,0 C0.67103246,0.0576876202 0.528259596,0.173062861 0.385486732,0.288438101 C-0.128495577,0.807707933 -0.128495577,1.64417843 0.385486732,2.16344826 C0.813805323,2.59610541 1.47064231,2.68263684 1.98462462,2.36535493 C1.49919689,2.5672616 0.928023614,2.48073017 0.556814169,2.07691683 Z" id="Path" opacity="0.6"></path>
                </g>
                <path d="M12.9074851,31.9328603 C13.0651489,31.9328603 13.1930308,31.8036725 13.1930308,31.6443409 C13.1930308,31.4850093 13.0651489,31.3559028 12.9074851,31.3559028 C12.7497395,31.3559028 12.6219393,31.4850093 12.6219393,31.6443409 C12.6219393,31.8036725 12.7497395,31.9328603 12.9074851,31.9328603 Z" id="Path" fill="#FFFFFF" opacity="0.3"></path>
                <path d="M24.1878504,30.4038946 C24.9133329,30.4038946 25.5014426,29.8097934 25.5014426,29.0769168 C25.5014426,28.3441216 24.9133329,27.7500203 24.1878504,27.7500203 C23.4624497,27.7500203 22.87434,28.3441216 22.87434,29.0769168 C22.87434,29.8097934 23.4624497,30.4038946 24.1878504,30.4038946 Z" id="Path" fill="#FFFFFF" opacity="0.2"></path>
                <g id="Group" opacity="0.4" transform="translate(22.859265, 27.836552)" fill="url(#linearGradient-15)">
                    <path d="M0.556875532,2.07691683 C0.0428114046,1.557647 0.0428114046,0.721095252 0.556875532,0.201906671 C0.642539251,0.11537524 0.728202969,0.0576876202 0.84242126,0 C0.671093823,0.0576876202 0.52832096,0.173062861 0.385548096,0.288438101 C-0.128516032,0.807626683 -0.128516032,1.64417843 0.385548096,2.16344826 C0.813866687,2.59610541 1.47062186,2.68263684 1.98468599,2.36535493 C1.49917643,2.5672616 0.956639551,2.48073017 0.556875532,2.07691683 Z" id="Path" opacity="0.6"></path>
                </g>
                <path d="M24.6439872,28.673266 C24.8017328,28.673266 24.9296147,28.5441595 24.9296147,28.3848279 C24.9296147,28.2254963 24.8017328,28.0963898 24.6439872,28.0963898 C24.4863234,28.0963898 24.3584415,28.2254963 24.3584415,28.3848279 C24.3584415,28.5441595 24.4863234,28.673266 24.6439872,28.673266 Z" id="Path" fill="#FFFFFF" opacity="0.3"></path>
            </g>
        </g>
    </g>
</svg>
