<svg width="18" height="18" viewBox="0 0 36 36" xmlns="http://www.w3.org/2000/svg">
    <g fill-rule="nonzero" fill="none">
        <path d="M17.993 0A17.89 17.89 0 0 1 25 1.415C34.158 5.284 38.445 15.843 34.576 25c-3.87 9.157-14.43 13.444-23.589 9.575A18 18 0 0 1 17.993 0z" fill="#000"/>
        <path d="M17.993 3.526A14.469 14.469 0 0 0 7.76 28.228a14.474 14.474 0 0 0 24.706-10.233c0-7.991-6.48-14.47-14.472-14.47m-4.162 12.728-2.222 2.222h2.222v2.404a3.116 3.116 0 0 1-6.234 0v-5.77a3.116 3.116 0 0 1 6.234 0v1.144zm14.558 2.222v2.404a3.116 3.116 0 0 1-6.233 0v-5.77a3.116 3.116 0 0 1 6.233 0v1.144l-2.222 2.222h2.222z" fill="#FFF"/>
    </g>
</svg>
