<svg width="18" height="18" viewBox="0 0 36 36" xmlns="http://www.w3.org/2000/svg">
    <g fill-rule="nonzero" fill="none">
        <path d="M0 5.147A5.145 5.145 0 0 1 5.143 0h25.714A5.145 5.145 0 0 1 36 5.147v25.706A5.145 5.145 0 0 1 30.857 36H5.143A5.145 5.145 0 0 1 0 30.853V5.147z" fill="#000"/>
        <path d="M28.037 18.92c0 1.46-.34 2.799-1.019 4.019-.68 1.196-1.722 2.165-3.129 2.906-1.407.742-3.153 1.113-5.24 1.113h-3.856V36H8.571V10.81H18.65c2.037 0 3.76.347 5.166 1.041 1.407.694 2.462 1.65 3.166 2.87.703 1.22 1.055 2.62 1.055 4.199zm-9.86 3.158c1.188 0 2.074-.275 2.656-.826.582-.55.873-1.327.873-2.332s-.291-1.782-.873-2.332c-.582-.55-1.468-.826-2.656-.826h-3.384v6.316h3.384z" fill="#FFF"/>
        <path fill="#C33B3D" d="M28.286 5.143H8.57v4.285h19.715z"/>
    </g>
</svg>
