<?xml version="1.0" encoding="UTF-8"?>
<svg width="14px" height="17px" viewBox="0 0 14 17" version="1.1" xmlns="http://www.w3.org/2000/svg"
>
  <!-- Generator: sketchtool 49.2 (51160) - http://www.bohemiancoding.com/sketch -->
  <title>DDD739CE-EF8F-4CC2-8CFA-ED80ECF74409</title>
  <desc>Created with sketchtool.</desc>
  <defs></defs>
  <g id="Page-3" stroke="none" stroke-width="1" fill="none" fill-rule="evenodd">
    <g id="Logos" transform="translate(-79.000000, -485.000000)" fill="#00D188" fill-rule="nonzero">
      <g id="Group-2" transform="translate(50.000000, 50.000000)">
        <g id="Group-4">
          <path
            d="M29.6947427,435.305254 C30.0730076,435.044062 30.5465551,434.98919 30.9928791,435.001627 C34.993317,435.003091 38.9944714,435.003091 42.9956257,435.001627 C43.0078047,438.419073 42.9906108,441.837249 42.9913272,445.254695 C43.001357,445.741961 42.7857173,446.234348 42.4010047,446.528463 C42.1216045,446.750147 41.7863243,446.884767 41.4431635,446.963783 C38.9887401,447.568841 36.5371823,448.184143 34.0834753,448.791396 C33.6579273,448.893092 33.2359613,449.009422 32.8089805,449.104534 C32.7151306,449.631307 32.7839061,450.173445 32.7667122,450.706804 C31.5101277,451.004577 30.26214,451.347712 29.0019734,451.625 C29.0019734,446.651377 29.0019734,441.678486 29.001257,436.704863 C28.9797647,436.16053 29.2348069,435.595711 29.6947427,435.305254 Z M32.764563,439.563342 C32.7638466,441.31706 32.7652794,443.070047 32.7638466,444.823764 C32.7652794,444.94302 32.7853389,445.061544 32.8039656,445.178605 C32.8892185,445.155925 32.9751878,445.133244 33.0590078,445.104711 C33.5397195,444.992771 34.0182819,444.87132 34.4989935,444.756454 C34.5942762,444.730116 34.6895588,444.706704 34.7855579,444.683291 C35.1179725,444.614518 35.4453722,444.526723 35.7734884,444.443317 C36.0607691,444.37308 36.3494827,444.309428 36.6331813,444.224559 C37.2177726,444.109693 37.7916176,443.94215 38.3726268,443.810456 C38.6505942,443.742415 38.9271287,443.672178 39.2058125,443.607795 C39.2158423,442.02601 39.2129767,440.444225 39.2072454,438.861709 C37.0694755,438.863172 34.9309893,438.87122 32.7932194,438.858051 C32.7473691,439.089978 32.7659958,439.327757 32.764563,439.563342 Z"
            id="phore"></path>
        </g>
      </g>
    </g>
  </g>
</svg>
