<?xml version="1.0" encoding="UTF-8"?>
<svg width="15px" height="18.5px" viewBox="0 0 30 37" version="1.1" xmlns="http://www.w3.org/2000/svg" xmlns:xlink="http://www.w3.org/1999/xlink">
    <title>pivx</title>
    <defs>
        <linearGradient x1="0%" y1="50.0001313%" x2="104.76522%" y2="50.0001313%" id="linearGradient-1">
            <stop stop-color="#2A1B42" offset="0%"></stop>
            <stop stop-color="#4D3077" offset="100%"></stop>
        </linearGradient>
        <linearGradient x1="0%" y1="50%" x2="100%" y2="50%" id="linearGradient-2">
            <stop stop-color="#4D3077" offset="0%"></stop>
            <stop stop-color="#662D91" offset="100%"></stop>
        </linearGradient>
        <linearGradient x1="-1.36446037e-14%" y1="50%" x2="100%" y2="50%" id="linearGradient-3">
            <stop stop-color="#4D3077" offset="0%"></stop>
            <stop stop-color="#662D91" offset="100%"></stop>
        </linearGradient>
        <linearGradient x1="8.52378522e-16%" y1="50%" x2="100%" y2="50%" id="linearGradient-4">
            <stop stop-color="#2A1B42" offset="0%"></stop>
            <stop stop-color="#4D3077" offset="100%"></stop>
        </linearGradient>
    </defs>
    <g id="Page-1" stroke="none" stroke-width="1" fill="none" fill-rule="evenodd">
        <g id="Logos" transform="translate(-154.000000, -564.000000)" fill-rule="nonzero">
            <g id="pivx" transform="translate(154.000000, 564.000000)">
                <path d="M2.85467626,5.2028777 C2.74724221,5.34868106 2.68585132,5.52517986 2.68585132,5.70935252 L2.68585132,23.9270983 C2.68585132,28.193765 11.6258993,32.7136691 15.7083933,34.3635492 C15.9079137,34.4479616 16.1381295,34.4479616 16.3376499,34.3635492 C18.6705036,33.4273381 22.5764988,31.5549161 25.4925659,29.3294964 C25.7227818,29.1529976 25.9606715,28.9764988 26.1755396,28.7923261 C26.9429257,28.1630695 27.6182254,27.5107914 28.1477218,26.8431655 C16.0460432,25.3160671 6.16978417,16.6522782 2.85467626,5.2028777 Z" id="Path" fill="url(#linearGradient-1)"></path>
                <path d="M28.8,25.876259 C28.9381295,25.6230216 29.0609113,25.3621103 29.1453237,25.1088729 C29.2450839,24.8172662 29.3141487,24.5333333 29.3371703,24.2417266 C29.3448441,24.1419664 29.352518,24.0498801 29.352518,23.9501199 L29.352518,5.70935252 C29.352518,5.65563549 29.3448441,5.60959233 29.3371703,5.5558753 C29.3218225,5.45611511 29.2834532,5.36402878 29.2374101,5.27961631 C29.2143885,5.23357314 29.183693,5.19520384 29.1529976,5.15683453 C29.022542,5.01103118 28.8460432,4.90359712 28.6388489,4.87290168 L27.9098321,4.75779376 L16.1611511,2.87769784 C16.1151079,2.87002398 16.0690647,2.87002398 16.0306954,2.87002398 C15.9846523,2.87002398 15.9386091,2.87002398 15.9002398,2.87769784 L4.60431655,4.68105516 L3.39184652,4.87290168 C3.16930456,4.91127098 2.97745803,5.03405276 2.8470024,5.2028777 C6.16211031,16.6522782 16.0383693,25.3083933 28.140048,26.8431655 C28.1784173,26.7971223 28.2167866,26.7510791 28.2551559,26.6973621 C28.4239808,26.4901679 28.7309353,26.0143885 28.8,25.876259 L28.8,25.876259 Z" id="Path" fill="url(#linearGradient-2)"></path>
                <path d="M29.9357314,2.21007194 L16.4143885,0.0537170264 C16.2839329,0.0306954436 16.1534772,0.0230215827 16.0230216,0.0230215827 L16.0153477,0.0230215827 L16.0153477,1.56546763 L16.0230216,1.56546763 C16.0690647,1.56546763 16.1227818,1.56546763 16.1688249,1.58081535 L29.682494,3.74484412 C30.1275779,3.81390887 30.457554,4.19760192 30.457554,4.65035971 L30.457554,24.3952038 C30.457554,24.8172662 30.3808153,25.2316547 30.235012,25.653717 C30.1352518,25.929976 30.01247,26.206235 29.8589928,26.482494 C29.7745803,26.6282974 29.4446043,27.1501199 29.2681055,27.3803357 C28.6772182,28.1553957 27.9021583,28.9151079 27.0119904,29.6441247 C26.7817746,29.8359712 26.5208633,30.0278177 26.2752998,30.2196643 C23.1136691,32.6292566 18.8853717,34.6551559 16.3606715,35.6681055 C16.2532374,35.7141487 16.1381295,35.7371703 16.0230216,35.7371703 L16.0230216,37.2796163 C16.3376499,37.2796163 16.6446043,37.2182254 16.936211,37.1031175 C19.859952,35.9213429 24.0959233,33.818705 27.2115108,31.447482 C27.2191847,31.4398082 27.2268585,31.4398082 27.2268585,31.4321343 C27.3035971,31.3707434 27.3803357,31.3093525 27.4647482,31.2479616 C27.641247,31.1098321 27.8177458,30.9717026 27.9942446,30.8258993 C29.022542,29.9894484 29.8589928,29.1376499 30.4959233,28.301199 C30.7184652,28.0095923 31.0944844,27.4263789 31.2095923,27.2191847 C31.4091127,26.8661871 31.5702638,26.5055156 31.6930456,26.152518 C31.9002398,25.5616307 32,24.9707434 32,24.38753 L32,4.64268585 C32,3.42254197 31.1328537,2.40959233 29.9357314,2.21007194 L29.9357314,2.21007194 Z" id="Path" fill="url(#linearGradient-3)"></path>
                <path d="M15.9309353,35.7294964 C15.8465228,35.7218225 15.7621103,35.698801 15.6776978,35.6681055 C11.257554,33.8800959 1.57314149,28.9918465 1.57314149,24.3645084 L1.57314149,4.64268585 C1.57314149,4.18992806 1.90311751,3.80623501 2.34820144,3.73717026 L3.66043165,3.52997602 L15.8848921,1.57314149 C15.9002398,1.57314149 15.9846523,1.56546763 16.0230216,1.56546763 L16.0230216,0.0230215827 C15.9693046,0.0230215827 15.7314149,0.0383693046 15.6470024,0.0537170264 L3.41486811,2.0028777 L2.10263789,2.21007194 C0.905515588,2.40191847 0.0306954436,3.42254197 0.0306954436,4.63501199 L0.0306954436,24.3645084 C0.0306954436,25.822542 0.690647482,27.3266187 1.98752998,28.8306954 C2.97745803,29.9817746 4.358753,31.1635492 6.10071942,32.3453237 C9.79952038,34.8623501 13.9203837,36.6119904 15.0944844,37.0877698 C15.3630695,37.1952038 15.6393285,37.2565947 15.9232614,37.2642686 L16.0076739,37.2642686 L16.0076739,35.7218225 C15.9923261,35.7371703 15.9616307,35.7371703 15.9309353,35.7294964 Z" id="Path" fill="url(#linearGradient-4)"></path>
                <path d="M30.4652278,4.64268585 C30.4652278,4.18992806 30.1352518,3.80623501 29.6901679,3.73717026 L16.1764988,1.57314149 C16.1304556,1.56546763 16.0767386,1.55779376 16.0306954,1.55779376 L16.0230216,1.55779376 C15.9846523,1.55779376 15.9002398,1.56546763 15.8848921,1.56546763 L3.66043165,3.52230216 L2.34820144,3.7294964 C1.90311751,3.79856115 1.57314149,4.1822542 1.57314149,4.63501199 L1.57314149,24.3645084 C1.57314149,28.9841727 11.257554,33.8800959 15.6776978,35.6681055 C15.7621103,35.698801 15.8465228,35.7218225 15.9309353,35.7294964 C15.9616307,35.7294964 15.9923261,35.7371703 16.0153477,35.7371703 C16.1304556,35.7371703 16.2455635,35.7141487 16.3529976,35.6681055 C18.8776978,34.6551559 23.1059952,32.6292566 26.2676259,30.2196643 C26.5131894,30.0278177 26.7741007,29.8359712 27.0043165,29.6441247 C27.8944844,28.9151079 28.6695444,28.1553957 29.2604317,27.3803357 C29.4369305,27.142446 29.7669065,26.6282974 29.8513189,26.482494 C30.0047962,26.206235 30.1275779,25.929976 30.2273381,25.653717 C30.3731415,25.2393285 30.4498801,24.8172662 30.4498801,24.3952038 L30.4498801,4.64268585 L30.4652278,4.64268585 Z M29.3601918,23.942446 C29.3601918,24.0422062 29.352518,24.1342926 29.3448441,24.2340528 C29.3141487,24.5256595 29.2527578,24.8172662 29.1529976,25.101199 C29.0609113,25.3621103 28.9458034,25.6153477 28.8076739,25.8685851 C28.7309353,26.0067146 28.4239808,26.482494 28.2628297,26.6973621 C27.7179856,27.4110312 27.0043165,28.1170264 26.1755396,28.7923261 C25.9683453,28.9688249 25.7227818,29.1453237 25.4925659,29.3294964 C22.5764988,31.5549161 18.6628297,33.4273381 16.3376499,34.3635492 C16.2378897,34.4019185 16.1304556,34.42494 16.0230216,34.42494 C15.9155875,34.42494 15.8081535,34.4019185 15.7083933,34.3635492 C11.6258993,32.7136691 2.68585132,28.2014388 2.68585132,23.9270983 L2.68585132,5.70935252 C2.68585132,5.29496403 2.98513189,4.94196643 3.39952038,4.87290168 L4.60431655,4.68105516 L15.8925659,2.87769784 C15.9386091,2.87002398 15.9846523,2.87002398 16.0230216,2.87002398 C16.0690647,2.87002398 16.1151079,2.87002398 16.1534772,2.87769784 L27.917506,4.75779376 L28.6465228,4.87290168 C28.853717,4.90359712 29.0302158,5.01103118 29.1606715,5.15683453 C29.1913669,5.19520384 29.2220624,5.23357314 29.2450839,5.27961631 C29.2911271,5.36402878 29.3294964,5.45611511 29.3448441,5.5558753 C29.352518,5.60191847 29.3601918,5.65563549 29.3601918,5.70935252 L29.3601918,23.942446 Z" id="Shape" fill="#FFFFFF"></path>
                <path d="M17.0206235,14.7491607 C17.542446,14.7491607 17.9645084,14.3270983 17.9645084,13.8052758 C17.9645084,13.2834532 17.542446,12.8613909 17.0206235,12.8613909 L9.73045564,12.8613909 C9.65371703,12.8613909 9.6,12.9227818 9.6,12.9918465 L9.6,13.8052758 C9.6,14.3117506 9.99904077,14.7261391 10.4978417,14.7568345 L17.0206235,14.7491607 L17.0206235,14.7491607 Z" id="Path" fill="#FFFFFF"></path>
                <path d="M18.816307,7.34388489 L11.0964029,7.34388489 C11.0196643,7.34388489 10.9659472,7.40527578 10.9659472,7.47434053 L10.9659472,8.28776978 C10.9659472,8.7942446 11.364988,9.20863309 11.863789,9.23932854 L18.42494,9.22398082 C18.6705036,9.22398082 18.8930456,9.23165468 18.8930456,9.23165468 C21.3103118,9.34676259 23.2364508,11.3573141 23.2364508,13.8052758 C23.2364508,16.276259 21.2719424,18.2791367 18.8239808,18.3558753 L11.917506,18.3558753 C11.8714628,18.3558753 11.8254197,18.3558753 11.7793765,18.3635492 C11.3496403,18.42494 11.0119904,18.7856115 10.981295,19.2306954 L10.981295,28.5544365 C10.981295,28.6311751 11.0426859,28.6848921 11.1117506,28.6848921 L11.9251799,28.6848921 C12.4316547,28.6848921 12.8460432,28.2858513 12.8767386,27.7870504 L12.8767386,20.3664269 C12.8767386,20.305036 12.9381295,20.2513189 12.9995204,20.2513189 L18.9621103,20.2436451 C19.476259,20.2206235 19.97506,20.136211 20.4508393,20.0057554 C23.1597122,19.2306954 25.1395683,16.7520384 25.1395683,13.7976019 C25.1242206,10.2829736 22.3155875,7.42829736 18.816307,7.34388489 L18.816307,7.34388489 Z" id="Path" fill="#FFFFFF"></path>
            </g>
        </g>
    </g>
</svg>
