<svg width="18" height="19" viewBox="0 0 36 38" xmlns="http://www.w3.org/2000/svg">
  <path d="M18 30.03c3.813 0 6.904 1.784 6.904 3.985 0 2.2-3.091 3.985-6.904 3.985-3.812 0-6.903-1.784-6.903-3.985 0-2.201 3.09-3.986 6.903-3.986zm9.622-5.515c1.906-3.277 5.009-5.042 6.929-3.942 1.92 1.1 1.931 4.65.025 7.927-1.906 3.278-5.008 5.042-6.929 3.942-1.92-1.1-1.931-4.65-.025-7.927zM1.45 20.572c1.922-1.1 5.025.663 6.931 3.94 1.906 3.278 1.894 6.828-.027 7.929-1.922 1.101-5.025-.663-6.931-3.94-1.907-3.278-1.894-6.827.027-7.929zM1.422 9.5c1.906-3.277 5.009-5.041 6.93-3.94 1.922 1.101 1.934 4.651.028 7.929-1.906 3.277-5.01 5.041-6.93 3.94-1.922-1.102-1.935-4.651-.028-7.929zM27.649 5.56c1.92-1.1 5.022.664 6.929 3.942 1.906 3.277 1.895 6.826-.026 7.927-1.92 1.1-5.022-.665-6.928-3.942-1.906-3.277-1.895-6.826.025-7.927zM18 0c3.813 0 6.904 1.784 6.904 3.985 0 2.201-3.091 3.986-6.904 3.986-3.812 0-6.903-1.785-6.903-3.986C11.097 1.785 14.187 0 18 0z" fill="#E6007A" fill-rule="nonzero"/>
</svg>
