<svg xmlns="http://www.w3.org/2000/svg" width="18" height="18" viewBox="0 0 40 35">
    <g fill="none" fill-rule="evenodd">
        <g fill="#7A4ADD">
            <g>
                <path d="M1920.649 1042.376c.83-.5 1.918-.51 2.735.02 2.741 1.605 5.484 3.203 8.216 4.82.724.41 1.21 1.194 1.23 2.032.039 1.17.004 2.34.016 3.51-1.303.768-2.607 1.532-3.912 2.296-.005-1.114.006-2.227-.001-3.34.02-.973-.6-1.864-1.433-2.316-1.415-.814-2.825-1.638-4.246-2.44-.803-.47-1.842-.504-2.644-.011-1.487.85-2.976 1.701-4.455 2.57-.779.433-1.259 1.303-1.236 2.196-.012 1.705-.003 3.412-.005 5.116-.021.932.538 1.804 1.327 2.264 1.372.816 2.759 1.605 4.132 2.416.546.329 1.167.584 1.817.528.718-.037 1.316-.471 1.917-.819 2.294-1.352 4.57-2.737 6.895-4.036 2.547-1.426 5.035-2.954 7.556-4.424.812-.49 1.88-.536 2.695-.026 2.64 1.517 5.269 3.056 7.908 4.576.541.315 1.13.628 1.462 1.185.32.498.382 1.103.377 1.682-.007 3.18.008 6.36-.01 9.539-.024.988-.715 1.835-1.566 2.269-2.684 1.539-5.36 3.092-8.044 4.627-.813.487-1.873.538-2.69.037-2.686-1.533-5.36-3.09-8.045-4.627-.833-.408-1.57-1.163-1.61-2.14-.064-1.211-.011-2.427-.027-3.64l3.91-2.295c.009 1.16-.014 2.322.009 3.483.028.895.605 1.705 1.368 2.137 1.417.824 2.839 1.643 4.261 2.457.812.483 1.874.535 2.688.028 1.48-.866 2.956-1.74 4.425-2.62.744-.414 1.243-1.216 1.257-2.074.03-1.745.006-3.493.013-5.24.026-.938-.535-1.828-1.335-2.287-1.448-.841-2.899-1.681-4.356-2.507-.78-.45-1.788-.5-2.574-.036-4.81 2.746-9.566 5.584-14.367 8.342-.715.404-1.43.934-2.289.932-.585.032-1.127-.226-1.619-.515-2.71-1.57-5.43-3.119-8.134-4.696-.802-.436-1.282-1.33-1.26-2.238-.005-3.238-.01-6.477.003-9.715-.015-.894.474-1.761 1.258-2.192 2.789-1.618 5.586-3.224 8.383-4.828z" transform="translate(-2011 -1126) translate(100 84)"/>
            </g>
        </g>
    </g>
</svg>
