<svg width="20" height="17" viewBox="0 0 40 34" fill="none" xmlns="http://www.w3.org/2000/svg">
<g id="quicksilver">
<g id="Group">
<path id="Path" d="M35.9323 20.5944C38.3303 21.6924 40 24.1433 40 26.9874C40 30.8577 36.9084 34 33.1005 34C30.8993 34 28.9373 32.9498 27.675 31.3144C27.2627 30.7237 26.9869 29.4856 28.037 28.2265C28.6249 27.5218 29.9822 26.6969 31.9082 25.7989C33.4023 25.1121 34.8735 24.293 35.8141 23.3268C36.1659 22.9655 36.3981 22.559 36.5181 22.1719C36.6937 21.6054 36.5035 20.878 35.9323 20.5944Z" fill="url(#paint0_linear_3124_70712)"/>
<path id="Path_2" d="M36.3873 22.5074C38.4155 23.8144 38.5811 25.8212 38.6573 26.9995C38.738 28.25 37.8702 31.9025 34.0359 32.4781C30.2814 33.0417 28.5498 30.2626 27.9663 28.3135C27.9891 28.2846 28.0127 28.2556 28.0371 28.2265C28.6248 27.5218 29.9821 26.6969 31.9081 25.7989C33.4022 25.1121 34.8735 24.2931 35.8141 23.3268C36.0497 23.0865 36.2434 22.8096 36.3873 22.5072V22.5074Z" fill="#C0C0C0"/>
<path id="Path_3" d="M34.1042 24.6458C34.1845 24.7764 34.2604 24.8927 34.3399 24.9816C35.9166 26.7438 36.7896 25.1838 37.7693 26.1659C38.2684 26.6662 38.5382 27.0509 38.6323 27.6288C38.4472 29.1859 37.3492 31.9806 34.0359 32.4781C30.2814 33.0417 28.5498 30.2626 27.9663 28.3135C27.9891 28.2846 28.0127 28.2556 28.0371 28.2265C28.6248 27.5218 29.9821 26.6969 31.9081 25.7989C32.6683 25.4496 33.4225 25.0658 34.104 24.6458H34.1042Z" fill="#686768"/>
<path id="Path_4" d="M33.5286 24.983C34.2503 25.3987 35.0175 26.0648 35.7511 27.3768C36.3877 28.515 37.1637 29.1964 38.0485 29.5632C37.4098 30.8581 36.1917 32.1544 34.0359 32.4781C30.2814 33.0417 28.5498 30.2626 27.9663 28.3135C27.9891 28.2846 28.0127 28.2556 28.0371 28.2265C28.6248 27.5218 29.9821 26.6969 31.9081 25.7989C32.4598 25.5453 33.0085 25.2737 33.5286 24.983Z" fill="url(#paint1_linear_3124_70712)"/>
<path id="Path_5" d="M28.8702 27.4862C29.5114 27.972 29.6023 28.4784 29.8586 29.6593C30.1389 30.9521 32.4429 33.2025 35.6739 31.9797C35.2 32.211 34.6568 32.3848 34.0359 32.4781C30.2814 33.0417 28.5498 30.2626 27.9663 28.3135C27.9891 28.2846 28.0127 28.2556 28.0371 28.2265C28.2324 27.9924 28.5125 27.7451 28.8702 27.4862V27.4862Z" fill="#585858"/>
<path id="Path_6" d="M33.2141 25.5534C33.841 25.1749 34.0612 25.5003 34.1695 25.6244C34.2775 25.7486 34.0343 26.4754 33.5295 26.7238C33.0249 26.972 32.6192 26.8744 32.475 26.7238C32.3307 26.5729 32.7003 25.8638 33.2141 25.5534Z" fill="#F1F0F1"/>
<path id="Path_7" d="M34.7193 25.7661C35.0247 25.5236 35.5573 26.1652 35.6386 26.7238C35.7198 27.2822 35.4675 27.5306 35.2601 27.5837C35.0529 27.6369 34.6934 27.1242 34.6021 26.5729C34.539 26.1918 34.485 25.9524 34.7193 25.7661Z" fill="#E1E0E1"/>
<path id="Path_8" d="M31.7969 25.8521L31.7961 25.8511C31.8477 24.4201 32.2523 22.9057 32.8446 21.8099C33.4277 20.7306 34.851 20.1739 35.8203 20.5462L35.9323 20.5945C36.5034 20.8781 36.6937 21.6054 36.5181 22.1719C36.3981 22.559 36.1659 22.9654 35.8141 23.3268C34.8735 24.2932 33.4022 25.1123 31.9081 25.799L31.7969 25.8523V25.8521Z" fill="#A9A9A9"/>
<path id="Path_9" d="M10.5127 33.5293C4.31519 30.7832 0 24.6528 0 17.539C0 7.85886 7.99005 0 17.8314 0C23.5206 0 28.5913 2.62646 31.8539 6.7169C32.9193 8.19403 33.6321 11.2912 30.9183 14.4402C29.3991 16.203 25.8911 18.266 20.9133 20.5118C17.0519 22.2296 13.2496 24.2781 10.8183 26.695C9.90888 27.5988 9.30904 28.6159 8.99895 29.5839C8.54514 31.0005 9.03639 32.8198 10.5128 33.5293H10.5127Z" fill="url(#paint2_linear_3124_70712)"/>
<path id="Path_10" d="M9.25569 28.9179C7.37555 27.6639 5.96277 25.7563 4.43409 22.1605C2.24369 17.0086 3.82301 3.78367 17.3376 2.34951C23.4894 1.69689 30.0403 6.96367 31.6469 13.4769C31.4256 13.8133 31.1822 14.1351 30.9183 14.4402C29.3991 16.203 25.8911 18.266 20.9133 20.5118C17.0519 22.2296 13.2496 24.2781 10.8182 26.695C10.1157 27.3934 9.59769 28.1593 9.25569 28.9179Z" fill="url(#paint3_linear_3124_70712)"/>
<path id="Path_11" d="M3.72913 19.3539C4.38675 16.4759 5.98444 13.6999 9.48134 12.1849C10.3333 11.8155 14.6569 10.7084 17.938 11.3702C21.1236 12.0126 21.1079 14.1569 24.0847 14.1654C26.238 14.1717 27.7153 14.0635 28.4468 14.4553C28.9154 14.7064 29.4043 15.0621 29.8656 15.4559C28.0409 16.9779 24.9638 18.6843 20.9134 20.5118C17.052 22.2296 13.2496 24.2782 10.8183 26.695C10.1158 27.3934 9.59778 28.1593 9.25577 28.9179C7.37564 27.6639 5.96286 25.7563 4.43418 22.1605C4.1043 21.3851 3.86019 20.4269 3.72913 19.3539H3.72913Z" fill="#686768"/>
<path id="Path_12" d="M19.0909 11.7127C21.1761 12.5642 21.519 14.158 24.0846 14.1654C26.2379 14.1717 27.7152 14.0635 28.4467 14.4553C28.9153 14.7064 29.4042 15.0621 29.8655 15.4559C28.0408 16.9779 24.9637 18.6843 20.9133 20.5118C17.0519 22.2296 13.2495 24.2782 10.8182 26.695C10.6039 26.9079 10.4018 27.1324 10.213 27.3675C8.61623 25.0634 6.93474 20.9938 9.15848 17.2876C11.5087 13.3707 14.9382 11.8015 19.0909 11.7127Z" fill="url(#paint4_linear_3124_70712)"/>
<path id="Path_13" d="M21.201 20.3784L21.2028 20.3815C21.0696 23.9609 20.0238 27.7481 18.4933 30.4892C16.986 33.1888 13.3072 34.5809 10.8021 33.6497L10.5127 33.5293C9.03663 32.8196 8.54519 31.0005 8.99882 29.5839C9.30909 28.6157 9.90911 27.5988 10.8183 26.695C13.2496 24.2781 17.052 22.2296 20.9134 20.5118L21.201 20.3785V20.3784Z" fill="#979797"/>
<path id="Path_14" d="M15.5293 16.6464C14.8259 15.6081 15.9104 14.1164 17.0917 13.6104C18.273 13.1044 19.3973 13.0669 19.9497 13.6104C20.5021 14.1539 20.2546 15.7842 18.6159 16.6464C16.9772 17.5084 16.0628 17.4334 15.5293 16.6464Z" fill="#F1F0F1"/>
<path id="Path_15" d="M19.2767 11.7925C21.199 12.6595 21.5969 14.1582 24.0846 14.1655C26.2379 14.1717 27.7152 14.0635 28.4467 14.4553C28.9153 14.7064 29.4042 15.0621 29.8655 15.4559C28.6066 16.5061 26.7513 17.644 24.3913 18.849C22.7574 15.8405 20.9363 14.4028 19.2767 11.7925L19.2767 11.7925Z" fill="#545454"/>
<path id="Path_16" d="M21.4549 14.1727C22.1402 13.9275 23.0743 14.5661 23.5506 15.6905C24.0271 16.8151 24.1355 18.2 22.6933 18.5953C21.531 18.914 21.15 17.0773 21.0357 16.2714C20.9216 15.4657 20.8262 14.3976 21.4549 14.1727Z" fill="#F1F0F1"/>
</g>
</g>
<defs>
<linearGradient id="paint0_linear_3124_70712" x1="33.6536" y1="17.243" x2="26.7342" y2="30.3461" gradientUnits="userSpaceOnUse">
<stop stop-color="#616161"/>
<stop offset="1" stop-color="#A8A8A8"/>
</linearGradient>
<linearGradient id="paint1_linear_3124_70712" x1="27.9663" y1="24.983" x2="27.9663" y2="32.5521" gradientUnits="userSpaceOnUse">
<stop stop-color="#454545"/>
<stop offset="1" stop-color="#171717"/>
</linearGradient>
<linearGradient id="paint2_linear_3124_70712" x1="16.4023" y1="-8.38231" x2="-0.580974" y2="24.85" gradientUnits="userSpaceOnUse">
<stop stop-color="#616161"/>
<stop offset="1" stop-color="#A8A8A8"/>
</linearGradient>
<linearGradient id="paint3_linear_3124_70712" x1="3.62024" y1="2.29474" x2="3.62024" y2="28.9179" gradientUnits="userSpaceOnUse">
<stop stop-color="#B4B4B4"/>
<stop offset="1" stop-color="#BFBFBF"/>
</linearGradient>
<linearGradient id="paint4_linear_3124_70712" x1="8.08752" y1="11.7127" x2="8.08752" y2="27.3675" gradientUnits="userSpaceOnUse">
<stop stop-color="#454545"/>
<stop offset="1" stop-color="#171717"/>
</linearGradient>
</defs>
</svg>
