<svg xmlns="http://www.w3.org/2000/svg" width="18" height="18" viewBox="0 0 36 37">
    <g fill="none" fill-rule="evenodd">
        <g fill-rule="nonzero">
            <g>
                <g>
                    <path fill="#264763" d="M18 .42c9.941 0 18 8.058 18 18 0 9.94-8.059 18-18 18s-18-8.06-18-18c0-9.942 8.059-18 18-18z" transform="translate(-2453.000000, -484.000000) translate(100.000000, 84.000000) translate(2353.000000, 400.000000)"/>
                    <path fill="#00C389" d="M15.438 27c-.182 0-.36-.043-.522-.126-.162-.082-.301-.202-.407-.349l-4.545-6.267H7v-2.282h3.55c.182 0 .36.043.522.125.162.082.301.201.407.348l3.714 5.12 5.667-12.886c.09-.203.236-.376.422-.497.187-.122.405-.186.628-.186H29v2.281h-6.34l-6.171 14.035c-.081.185-.21.345-.375.464-.164.119-.356.192-.558.212-.041.003-.082.003-.123 0" transform="translate(-2453.000000, -484.000000) translate(100.000000, 84.000000) translate(2353.000000, 400.000000)"/>
                </g>
            </g>
        </g>
    </g>
</svg>
