<svg width="19" height="19" viewBox="0 0 38 38" xmlns="http://www.w3.org/2000/svg">
    <g fill="none" fill-rule="evenodd">
        <path d="M15 0c8.284 0 15 6.716 15 15 0 8.284-6.716 15-15 15-8.284 0-15-6.716-15-15C0 6.716 6.716 0 15 0zm0 4C8.925 4 4 8.925 4 15s4.925 11 11 11 11-4.925 11-11S21.075 4 15 4z" fill="#E950A4"/>
        <path d="M23 8c.164 0 .328.003.492.008a10.958 10.958 0 0 1 2.181 4.32A11.02 11.02 0 0 0 23 12c-6.075 0-11 4.925-11 11s4.925 11 11 11 11-4.925 11-11c0-3.42-1.56-6.475-4.008-8.492a14.933 14.933 0 0 0-1.166-5.335C34.216 11.448 38 16.783 38 23c0 8.284-6.716 15-15 15-8.284 0-15-6.716-15-15 0-8.284 6.716-15 15-15z" fill="#6A58E9"/>
    </g>
</svg>
