<svg width="18px" height="18px" viewBox="0 0 36 36" version="1.1" xmlns="http://www.w3.org/2000/svg">
    <title>678142CA-2475-4161-8A27-58E01DFC2CA9</title>
    <g id="Page-1" stroke="none" stroke-width="1" fill="none" fill-rule="evenodd">
        <g id="Logos" transform="translate(-2920.000000, -323.000000)" fill-rule="nonzero">
            <g id="regen" transform="translate(2920.000000, 323.000000)">
                <circle id="Oval" fill="#6DB47B" cx="18" cy="18" r="18"></circle>
                <path d="M16.8385064,22.5724269 L15.3527061,30.6352794 L14.0930263,31.0416667 L13.3016986,29.9688143 L16.8385064,22.5724269 Z M22.2325489,20.833078 L29.5,24.7181947 L29.5,26.0349173 L28.2402888,26.4413045 L22.2325489,20.833078 Z M18.3081642,22.799995 L18.986463,25.9373566 L18.3243067,26.4250339 L17.6621505,25.9536272 L18.3081642,22.799995 Z M19.8585032,22.5724269 L21.4896488,25.3196718 L21.0051541,25.9698978 L20.229969,25.7260591 L19.8585032,22.5724269 Z M15.4495925,21.8571815 L14.0768525,24.7994848 L13.2532084,24.766975 L13.0432618,23.9866787 L15.4495925,21.8571815 Z M14.3837168,20.7517879 L12.1227314,23.1413944 L11.3475462,22.865046 L11.3798312,22.0522398 L14.3837168,20.7517879 Z M13.6892755,19.4513044 L10.8630202,21.0443754 L10.2008953,20.5566981 L10.4431269,19.7927038 L13.6892755,19.4513044 Z M5.29134429,16.9642319 L13.4631864,18.0046061 L5.29134429,19.1099997 L4.5,18.0371158 L5.29134429,16.9642319 Z M26.3185154,17.3543801 L26.8030101,18.0208767 L26.3185154,18.6873418 L23.1369995,17.988367 L26.3185154,17.3543801 Z M28.2080038,9.56787605 L29.4838575,9.97426334 L29.4838575,11.2909859 L22.2325489,15.2086123 L28.2080038,9.56787605 Z M13.1078632,11.9411803 L14.884354,14.6233743 L12.1711902,12.8839938 L12.300393,12.0712192 L13.1078632,11.9411803 Z M22.4424956,10.6407599 L22.781645,11.3885466 L20.6498622,13.8106312 L21.6188515,10.72205 L22.4424956,10.6407599 Z M14.0445988,5 L15.3042786,5.40639517 L16.817,13.441 L13.2532398,6.07287915 L14.0445988,5 Z M18.3081642,9.58411514 L18.986463,10.0392512 L18.2920217,13.2091225 L17.646008,10.0880316 L18.3081642,9.58411514 Z" id="Combined-Shape" stroke="#FFFFFF" stroke-width="0.4" fill="#FFFFFF"></path>
            </g>
        </g>
    </g>
</svg>
