<svg width="17" height="19" viewBox="0 0 34 38" xmlns="http://www.w3.org/2000/svg">
    <defs>
        <linearGradient x1="76.823%" y1="6%" x2="26.203%" y2="88.478%" id="qgznvv9dqa">
            <stop stop-color="#5FF19D" offset="4.034%"/>
            <stop stop-color="#59EEA3" offset="20.5%"/>
            <stop stop-color="#49E5B4" offset="42.66%"/>
            <stop stop-color="#2FD6D0" offset="68.06%"/>
            <stop stop-color="#0AC2F7" offset="95.67%"/>
            <stop stop-color="#04BEFE" offset="100%"/>
        </linearGradient>
    </defs>
    <path d="M3991.957 653.038c.245 0 .245-.243.245-.243l.244-.244 11.74-6.82c.735-.487 1.713-.731 2.692-.731.978 0 1.957.244 2.69.73 0 0 11.497 6.578 11.741 6.578.979.487 1.712 1.461 1.957 2.68 0 .243.245.974 0 1.217H4020.82c-.734 0-1.467-.243-2.201-.243-.979 0-1.957-.244-2.936-.244-1.467-.244-2.935-.244-4.403-.487-1.712-.244-3.424-.487-5.136-.487-1.712-.244-3.425-.488-5.137-.488-1.468-.243-2.935-.243-4.403-.487-.978 0-1.957-.243-2.935-.243h-.978c-.245 0-.245 0-.49-.244-.244 0-.244 0-.244-.244zm31.31 20.462s0 .243-.246.243v.244c-.489.487-.733.975-1.467 1.462l-11.986 6.82c-.733.487-1.712.731-2.69.731-.979 0-1.957-.244-2.691-.73l-10.518-6.09c-.245 0-.245-.244-.245-.244-.244-.244-.244-.244-.244-.487.244-.487.978-.487.978-.487h.979c.489 0 .733 0 1.223-.244.489 0 .734 0 1.223-.244 1.467-.243 2.935-.487 4.403-.487 1.467-.244 2.935-.244 4.158-.487 1.467-.244 2.935-.244 4.158-.244 1.468 0 2.69-.243 3.914-.243h8.561c.49 0 .734.243.734.243-.245 0-.245 0-.245.244zm.733-6.577c0 1.462 0 1.462-2.935 1.949l-1.957.243h-1.468c-4.892.488-10.029.975-14.92 1.218-2.202.244-4.403.244-6.605.244h-4.647c-.49 0-.979.243-1.223-.244-.245-.243-.245-.73-.245-1.218v-9.987c0-1.461.49-1.705 3.18-1.949h1.712c8.317 0 17.367 1.218 28.13 3.898h.244c.49.244.734 0 .734 1.461v4.385z" transform="translate(-3990 -645)" fill="url(#qgznvv9dqa)" fill-rule="nonzero"/>
</svg>
