<svg width="18" height="18" xmlns="http://www.w3.org/2000/svg" xmlns:xlink="http://www.w3.org/1999/xlink" viewBox="0 0 36 36">
    <defs>
        <circle id="a" cx="18" cy="18" r="18"/>
        <circle id="c" cx="18" cy="18" r="18"/>
    </defs>
    <g fill="none" fill-rule="evenodd">
        <mask id="b" fill="#fff">
            <use xlink:href="#a"/>
        </mask>
        <use fill="#F09573" xlink:href="#a"/>
        <path d="m10.543 27.645.645.652c-1.93 1.892-3.939 3.7-5.905 5.555-.304.285-.61.568-.912.853l-.411.393-.222.17c-.222-.224-.447-.446-.669-.668l.19-.176c.5-.462.984-.942 1.493-1.395 1.938-1.786 3.853-3.598 5.79-5.384zm.423-2.754c.208.21.416.419.624.632-2.398 2.398-4.96 4.63-7.4 6.987-.55.535-1.123 1.042-1.693 1.554-.171-.24-.543-.392-.533-.724l.088-.134c.414-.406.828-.808 1.253-1.203 2.57-2.354 5.069-4.783 7.661-7.112zm-2.394.994c-1.982 1.917-4.044 3.75-6.029 5.664-.362.35-.736.694-1.133 1.008l-.206.17c-.173-.24-.346-.481-.52-.72.05-.049.148-.15.195-.2l.173-.172.194-.193.077-.078c.262-.247.521-.493.786-.736 1.881-1.716 3.693-3.511 5.598-5.201.363-.33.636.25.865.458zm18.59-16.476.172.056c.201 3.327-1.59 6.314-3.555 8.846-.959 1.187-2.064 2.246-3.226 3.233l-.178.788c-.182.708-.365 1.419-.44 2.15-.822.966-1.837 1.744-2.805 2.555-.184-.502-.371-1.007-.542-1.517-.159-.55-.327-1.096-.48-1.65-.705-.059-1.411-.103-2.112-.213-.398.384-.793.772-1.183 1.162-.402-.337-.765-.713-1.127-1.09.355-.404.71-.808 1.059-1.215a8.046 8.046 0 0 1-.404-1.847 174.545 174.545 0 0 0-3.19-1.033c.714-.825 1.408-1.671 2.168-2.457.3-.336.77-.407 1.18-.53.727-.171 1.49-.265 2.175-.576.892-.897 1.669-1.914 2.68-2.688 2.731-2.281 6.125-4.254 9.807-3.974zm-7.974 5.374c-.98.316-1.394 1.44-1.223 2.39.521 1.43 2.532 1.68 3.52.584v-.103c.148-.545.274-1.12.15-1.683-.292-.989-1.482-1.6-2.447-1.188z" fill="#FFF" fill-rule="nonzero" mask="url(#b)"/>
        <circle stroke="#EF8057" stroke-width="1.403" cx="18" cy="18" r="17.299"/>
    </g>
</svg>
