<svg width="18" height="18" viewBox="0 0 36 37">
    <g fill-rule="nonzero" fill="none">
        <path d="M30.563 0c1.145.002 2.29-.005 3.435.01-.002 4.61 0 8.917-.001 13.527-.008.922.02 1.844-.016 2.766-.023.936-.027 1.874-.13 2.806-.144 1.48-.412 2.952-.884 4.366a13.684 13.684 0 0 1-1.6 3.275 21.793 21.793 0 0 1-5.333 5.64 20.293 20.293 0 0 1-3.88 2.258c-1.558.688-3.217 1.16-4.915 1.334-.28.048-.561-.014-.84-.041a16.522 16.522 0 0 1-4.53-1.271 20.622 20.622 0 0 1-4.856-2.991 21.59 21.59 0 0 1-4.734-5.42 13.911 13.911 0 0 1-1.464-3.453C.358 21.21.15 19.553.054 17.9c-.012-.77-.04-1.539-.054-2.308C.011 10.294.002 5.299.006.002 10.19-.002 20.377.001 30.563 0z" fill="#1C2D4F"/>
        <path d="M5.01 5.015c.999-.005 1.999.008 2.998-.006 1.744-.011 3.488.01 5.232-.009h12.21c1.183-.003 2.366.012 3.549.009-.001 3.981.005 7.962-.003 11.943-.382-.253-.74-.543-1.112-.81-4.08-3.023-8.163-6.042-12.241-9.066-.073-.048-.14-.129-.236-.12H12.52c5.456 4.018 10.902 8.047 16.358 12.065.02.513-.097 1.017-.188 1.52-.067.266-.082.542-.159.806-.286 1.106-.738 2.176-1.382 3.126a15.622 15.622 0 0 1-3.112 3.452 14.126 14.126 0 0 1-3.972 2.358c-.97.374-1.99.633-3.03.717-.985-.075-1.95-.325-2.876-.661-2.304-.856-4.339-2.347-5.947-4.18-.789-.915-1.495-1.911-2.017-3a9.994 9.994 0 0 1-.666-1.862 16.217 16.217 0 0 1-.428-2.535c-.096-1.236-.11-2.477-.095-3.716.007-.214-.015-.429.013-.641 1.08.81 2.174 1.603 3.258 2.409 4.35 3.208 8.699 6.417 13.048 9.627.265.192.523.393.792.58.5-.367.963-.779 1.409-1.206-4.054-3.005-8.113-6.005-12.168-9.01-2.118-1.562-4.229-3.134-6.347-4.695-.002-2.365-.001-4.73 0-7.095z" fill="#4AA1E4"/>
    </g>
</svg>
