<svg width="16" height="19" viewBox="0 0 32 38" xmlns="http://www.w3.org/2000/svg">
    <path d="M16.119 0c.392.034.77.166 1.1.382 4.251 2.662 8.507 5.317 12.761 7.976.434.283.898.522 1.298.853.5.446.77 1.131.715 1.8-.508 8.297-1.01 16.595-1.524 24.893-.028.875-.638 1.688-1.464 1.971-.495.177-1.028.11-1.543.122-7.914-.002-15.828 0-23.743-.002-1.114.027-2.128-.914-2.184-2.027C1.015 27.622.515 19.274 0 10.928v-.221A2.244 2.244 0 0 1 1.074 8.95L14.194.718c.47-.31.952-.636 1.526-.718h.399zm-.595 3.68C11.75 6.034 7.985 8.401 4.213 10.76l-.4.249c-.133.084-.262.175-.377.283-.259.275-.162.67-.15 1.007.45 7.25.881 14.5 1.334 21.749.01.404.401.753.806.71 7.06.002 14.123 0 21.184 0 .383-.004.74-.35.744-.738.436-7.197.874-14.395 1.313-21.593.008-.36.104-.75-.086-1.082-.222-.263-.544-.406-.825-.59C23.994 8.401 20.23 6.053 16.469 3.7c-.279-.21-.662-.242-.945-.022zm.412 4.345c2.932 1.77 5.816 3.622 8.724 5.434-.081 1.283-.153 2.566-.239 3.85h-4.293c.038-.531.073-1.06.099-1.591a235.799 235.799 0 0 1-4.243-2.644c-1.423.868-2.828 1.77-4.25 2.64.049.872.099 1.744.162 2.616 4.158-.008 8.315.001 12.474-.003l-.757 12.588c-5.085 0-10.17.001-15.255-.002-.131-2.402-.3-4.8-.423-7.204h4.288c.05.973.115 1.944.174 2.917 2.391-.003 4.783-.004 7.176 0 .078-1.336.156-2.672.243-4.008H7.858c-.183-3.054-.38-6.105-.57-9.158 2.873-1.828 5.775-3.609 8.648-5.435z" fill="#E1AB4C" fill-rule="nonzero"/>
</svg>
