<svg width="18" height="18" viewBox="0 0 36 36" xmlns="http://www.w3.org/2000/svg">
    <defs>
        <linearGradient x1="100%" y1="0%" x2="0%" y2="100%" id="8kpir85i4b">
            <stop stop-color="#F9E151" offset="0%"/>
            <stop stop-color="#D38833" offset="100%"/>
        </linearGradient>
        <linearGradient x1="100%" y1="0%" x2="0%" y2="100%" id="e2dqx5x66a">
            <stop stop-color="#FEFB57" offset="0%"/>
            <stop stop-color="#F0D04A" offset="100%"/>
        </linearGradient>
    </defs>
    <g fill-rule="nonzero" fill="none">
        <path d="M18 1c4.687 0 8.936 1.907 12.015 4.985A16.947 16.947 0 0 1 35 18c0 4.687-1.907 8.936-4.985 12.015A16.947 16.947 0 0 1 18 35a16.947 16.947 0 0 1-12.015-4.985A16.947 16.947 0 0 1 1 18c0-4.687 1.907-8.936 4.985-12.015A16.947 16.947 0 0 1 18 1z" stroke="url(#e2dqx5x66a)" stroke-width="2" fill="url(#8kpir85i4b)"/>
        <path d="M16.017 31.097c-2.387-.2-3.787-.301-4.2-.301-1.23 0-2.423-.17-2.423-1.358 0-1.167.041-1.046.266-1.992 1.169 1.328 2.83 1.992 4.941 1.992 1.578 0 2.972-.281 4.161-.825 1.19-.564 2.153-1.328 2.85-2.315a10.832 10.832 0 0 0 1.517-3.26c.328-1.189.492-2.437.492-3.705 0-1.248-.267-3.623-.779-7.066 1.025-.946 1.804-1.831 2.337-2.616.553-.846.84-1.691.82-2.557-.041-.604-.226-1.087-.533-1.49-.328-.402-.8-.604-1.374-.604-2.09-.02-3.177 1.933-3.177 5.818 0 .544.041 1.107.102 1.67l-3.177 2.598c-.759-.645-1.763-.967-2.973-.967-.901 0-1.783.202-2.583.584-.799.383-1.496.926-2.05 1.57-.553.645-1.066 1.51-1.537 2.557C8.225 19.897 8 21.105 8 22.453c0 1.41.287 2.657.84 3.724-.43 1.269-.542 1.488-.542 2.997 0 1.57 1.362 2.453 3.074 2.353.578-.033 2.075.076 4.492.325.219.023.42-.124.464-.34a.347.347 0 0 0-.31-.415zm8.116-25.03c.328 0 .78.121.78 1.108 0 1.006-.739 2.254-2.194 3.724a12.883 12.883 0 0 1-.082-1.39c0-2.274.492-3.442 1.496-3.442zm-6.437 11.736c0 1.128-.43 2.154-1.291 3.06-.574.624-1.21.946-1.886.946h-.246l.041.242c.041.221.123.402.266.523.124.12.308.181.533.181.862 0 1.64-.261 2.317-.765.656-.503 1.127-1.087 1.373-1.751.267-.644.39-1.41.39-2.234 0-.786-.226-1.49-.656-2.134l2.583-2.114c.287 2.94.43 4.71.43 5.314 0 2.497-.533 4.67-1.599 6.422a5.635 5.635 0 0 1-2.213 2.093c-.944.504-2.05.765-3.301.765-2.009 0-3.444-.704-4.387-2.153a15.344 15.344 0 0 1 2.85-4.912c1.25-1.47 2.808-3 4.632-4.55.123.343.164.705.164 1.067zm-8.22 2.194c.615-1.932 1.62-3.341 2.993-4.146.738-.443 1.578-.665 2.501-.665.82 0 1.476.222 1.968.644-3.751 3.16-6.294 6.14-7.544 8.918a7.578 7.578 0 0 1-.308-2.194c0-.886.123-1.731.39-2.557z" fill="#B37128"/>
    </g>
</svg>
