<?xml version="1.0" encoding="UTF-8"?>
<svg width="18px" height="18px" viewBox="0 0 36 36" version="1.1" xmlns="http://www.w3.org/2000/svg" xmlns:xlink="http://www.w3.org/1999/xlink">
    <title>stargaze</title>
    <defs>
        <linearGradient x1="0%" y1="0%" x2="100%" y2="100%" id="linearGradient-1">
            <stop stop-color="#943A1A" offset="0%"></stop>
            <stop stop-color="#943A1A" offset="14.5044393%"></stop>
            <stop stop-color="#D9AF43" offset="32.4884588%"></stop>
            <stop stop-color="#C5DF8A" offset="48.7360814%"></stop>
            <stop stop-color="#4C92D3" offset="69.2224036%"></stop>
            <stop stop-color="#13358E" offset="84.4467163%"></stop>
            <stop stop-color="#13358E" offset="100%"></stop>
        </linearGradient>
    </defs>
    <g id="Page-1" stroke="none" stroke-width="1" fill="none" fill-rule="evenodd">
        <g id="Logos" transform="translate(-2919.000000, -1047.000000)" fill="url(#linearGradient-1)" fill-rule="nonzero">
            <path d="M2937,1047 C2946.94113,1047 2955,1055.05887 2955,1065 C2955,1074.94113 2946.94113,1083 2937,1083 C2927.05887,1083 2919,1074.94113 2919,1065 C2919,1055.05887 2927.05887,1047 2937,1047 Z M2937,1049 C2928.16344,1049 2921,1056.16344 2921,1065 C2921,1073.83656 2928.16344,1081 2937,1081 C2945.83656,1081 2953,1073.83656 2953,1065 C2953,1056.16344 2945.83656,1049 2937,1049 Z M2936.98794,1053.47222 C2937.35979,1053.47222 2937.6884,1053.71718 2937.79887,1054.07673 L2940.09093,1061.25623 L2947.46058,1061.25623 C2947.83448,1061.26151 2948.16278,1061.50929 2948.27461,1061.87062 C2948.38644,1062.23195 2948.25651,1062.62515 2947.95246,1062.84557 L2941.96621,1067.1707 L2944.18683,1074.32793 C2944.30641,1074.68542 2944.18366,1075.08016 2943.8834,1075.30378 C2943.58313,1075.52741 2943.17444,1075.52846 2942.87306,1075.30637 L2936.98798,1070.81475 L2931.11476,1075.30394 C2930.81264,1075.5243 2930.40447,1075.5215 2930.10533,1075.29702 C2929.80618,1075.07253 2929.68475,1074.67792 2929.80502,1074.3211 L2932.00958,1067.18111 L2926.04691,1062.84512 C2925.74316,1062.6245 2925.61356,1062.23137 2925.72551,1061.87022 C2925.83747,1061.50907 2926.1657,1061.26148 2926.53947,1061.25623 L2933.88494,1061.25623 L2936.177,1054.07673 C2936.28747,1053.71718 2936.61608,1053.47222 2936.98794,1053.47222 Z" id="stargaze"></path>
        </g>
    </g>
</svg>