<svg width="18" height="18" viewBox="0 0 36 36" xmlns="http://www.w3.org/2000/svg">
    <g fill-rule="nonzero" fill="none">
        <path d="M18 36C8.075 36 0 27.924 0 18S8.075 0 18 0s18 8.076 18 18-8.075 18-18 18z" fill="#E91179"/>
        <path d="M16.179 8.086c2.298-.24 4.78-.025 6.765 1.256 1.281.799 2.34 2.01 2.808 3.458.076.354-.288.564-.58.63-1.12.326-2.225.706-3.35 1.012-.447.105-.624-.37-.748-.7-.423-1.101-1.592-1.725-2.721-1.824-.999-.087-2.108-.04-2.936.592-.775.588-.742 1.917.039 2.485.572.378 1.247.564 1.914.702 1.37.259 2.753.472 4.09.883 1.332.41 2.727.869 3.73 1.886.66.614 1.13 1.43 1.288 2.32.332 1.821-.03 3.864-1.327 5.245-1.433 1.532-3.57 2.16-5.609 2.293-2.484.15-5.13-.183-7.23-1.613a6.629 6.629 0 0 1-2.802-4.218c-.073-.333.258-.555.547-.596 1.13-.28 2.25-.603 3.385-.86.454-.106.626.395.72.736a3.642 3.642 0 0 0 2.246 2.381c.994.326 2.067.381 3.104.259.694-.089 1.428-.307 1.892-.866.594-.636.628-1.777-.071-2.348-.761-.594-1.736-.794-2.661-.984-1.844-.322-3.708-.697-5.408-1.512-1.349-.676-2.616-1.79-2.975-3.311-.382-1.641-.159-3.506.898-4.863 1.213-1.49 3.126-2.225 4.992-2.443z" fill="#FFF"/>
    </g>
</svg>
