<?xml version="1.0" encoding="UTF-8"?>
<svg width="19px" height="17px" viewBox="0 0 38 34" version="1.1" xmlns="http://www.w3.org/2000/svg" xmlns:xlink="http://www.w3.org/1999/xlink">
    <!-- Generator: Sketch 62 (91390) - https://sketch.com -->
    <title>Symbol</title>
    <desc>Created with Sketch.</desc>
    <defs>
        <linearGradient x1="100%" y1="100%" x2="100%" y2="29.3833937%" id="linearGradient-1">
            <stop stop-color="#2C0E84" offset="0%"></stop>
            <stop stop-color="#00C8FF" offset="100%"></stop>
        </linearGradient>
        <linearGradient x1="81.5358978%" y1="21.4604228%" x2="21.4747295%" y2="45.5250045%" id="linearGradient-2">
            <stop stop-color="#2C0E84" offset="0%"></stop>
            <stop stop-color="#00C8FF" offset="100%"></stop>
        </linearGradient>
        <linearGradient x1="0.0165386887%" y1="51.9502616%" x2="52.3081774%" y2="49.5316199%" id="linearGradient-3">
            <stop stop-color="#672AA2" offset="0%"></stop>
            <stop stop-color="#00C8FF" offset="100%"></stop>
        </linearGradient>
        <linearGradient x1="50%" y1="0%" x2="50%" y2="100%" id="linearGradient-4">
            <stop stop-color="#7B37BB" offset="0%"></stop>
            <stop stop-color="#441476" offset="100%"></stop>
        </linearGradient>
    </defs>
    <g id="Page-3" stroke="none" stroke-width="1" fill="none" fill-rule="evenodd">
        <g id="Logos" transform="translate(-1559.000000, -805.000000)" fill-rule="nonzero">
            <g id="Group-2" transform="translate(124.000000, 142.000000)">
                <g id="Group-4">
                    <g id="Symbol" transform="translate(1435.000000, 663.000000)">
                        <g id="Group">
                            <g id="Path">
                                <g transform="translate(0.422222, 0.000000)">
                                    <polygon fill="url(#linearGradient-1)" points="23.6233333 31.6793333 13.642 31.844 13.642 16.378 18.506 9.86311111 23.6233333 16.378"></polygon>
                                    <polygon fill="url(#linearGradient-2)" points="23.2433333 16.5806667 15.1704444 15.656 18.2611111 7.98 18.354 7.92511111 31.4724444 0.363111111 36.6362222 8.84555556"></polygon>
                                    <polygon fill="url(#linearGradient-3)" points="13.6546667 16.8171111 0.405333333 9.17066667 5.24822222 0.599555556 18.6833333 8.43177778 21.85 15.6475556"></polygon>
                                </g>
                                <path d="M18.9282222,33.3893333 C17.0831111,33.3893333 15.6728889,33.098 14.8115556,32.8531111 C14.2288889,32.6884444 13.8235556,32.1437778 13.8235556,31.5357778 L13.8193333,16.492 C13.794,14.2922222 12.8904444,12.4217778 11.21,11.0791111 C8.90044444,9.24244444 5.30311111,8.57111111 1.82822222,9.33111111 C1.33,9.44088889 0.831777778,9.27622222 0.498222222,8.892 C0.164666667,8.50777778 0.0717777778,7.99266667 0.249111111,7.51555556 C0.646,6.45155556 1.15266667,5.18911111 1.9,3.89711111 C2.82466667,2.29688889 3.78311111,1.22444444 4.42488889,0.603777778 C4.85977778,0.181555556 5.53533333,0.101333333 6.06311111,0.405333333 L18.7593333,7.73511111 L19.1013333,7.93355556 C21.0435556,9.01022222 23.0997778,9.158 25.0926667,8.37266667 C27.8371111,7.29177778 30.2142222,4.51355556 31.2993333,1.12311111 C31.4555556,0.637555556 31.844,0.287111111 32.3464444,0.19 C32.8446667,0.0928888889 33.3386667,0.270222222 33.6637778,0.662888889 C34.3857778,1.53688889 35.226,2.60933333 35.9733333,3.90133333 C36.898,5.50155556 37.3497778,6.86955556 37.5651111,7.73511111 L37.5651111,7.73511111 C37.7128889,8.322 37.4468889,8.94688889 36.9191111,9.25088889 L24.1468889,16.6271111 L23.8006667,16.8297778 C21.9471111,17.9571111 20.8071111,19.6755556 20.5031111,21.7908889 C20.0851111,24.6957778 21.3053333,28.1242222 23.6866667,30.742 C24.0286667,31.122 24.1342222,31.6328889 23.9695556,32.1142222 C23.8048889,32.5955556 23.4037778,32.9333333 22.9013333,33.0177778 C21.7655556,33.1951111 20.4186667,33.3893333 18.9282222,33.3893333 Z" fill="url(#linearGradient-4)"></path>
                            </g>
                        </g>
                    </g>
                </g>
            </g>
        </g>
    </g>
</svg>
