<?xml version="1.0" encoding="utf-8"?>
<!-- Generator: Adobe Illustrator 22.1.0, SVG Export Plug-In . SVG Version: 6.00 Build 0)  -->
<svg version="1.1" id="Слой_1" xmlns="http://www.w3.org/2000/svg" xmlns:xlink="http://www.w3.org/1999/xlink" x="0px" y="0px"
	 viewBox="0 0 15 15" style="enable-background:new 0 0 15 15;" xml:space="preserve" width="15" height="15">
<path fill="#5CA4D5" class="st0" d="M13.1,12.5c-0.4,0.3-0.9,0.7-1.4,0.9c0.1-0.1-0.2-0.4-0.1-0.5c2.2-1.9,2.7-4.4,1.8-6.6
	c-0.1-0.3,0.1-0.4,0.1-0.7C15.6,7.7,15.4,10.5,13.1,12.5z"/>
<path fill="#0087CB" class="st1" d="M13.6,5.8c-0.7-0.7-1.8-1.3-3.2-1.7c0,0,0,0,0,0c0,0,0,0,0,0c0.4,0.1,0.5,0.6,0.8,0.9c0.7,0.6,0.8,1.3,0.9,2.2
	c0.1,1.4,0.1,2.8-0.9,4c-0.5,0.7-1.2,1.2-2,1.6c-0.1,0-0.1,0.1-0.2,0.1c0,0,0,0,0,0c-0.4,0.2-0.8,0.3-1.3,0.4
	c-1.7,0.3-3.9,0.2-6.5-0.7c1.1,0.8,2.2,1.4,3.4,1.7c1.3,0.3,2.5,0.4,3.7,0.3c0,0,0,0,0,0c0.2,0,0.4,0,0.5-0.1c0.7-0.1,1.4-0.3,2-0.6
	h0c0.3-0.1,0.7-0.3,1-0.5c0.1-0.1,0.2-0.2,0.3-0.2C14.5,11.1,15.1,8.1,13.6,5.8z"/>
<path fill="#4377B1" class="st2" d="M9,12.9c3.1-1.3,3.3-4.5-0.3-6.3C6,5.3,7.2,3.2,10.5,4.1C14.1,5.1,13,11.4,9,12.9z"/>
<path fill="#5CA4D5" class="st0" d="M13.8,2.4c-3.4-1.1-6.1-1-7.8-0.3c0,0,0,0,0,0C3.4,3.1,2.8,5.5,4.8,7.4C4.3,6.9,3.7,6.5,3.5,5.9
	C3.1,5.1,3,4.2,3.2,3.5c0.2-1,0.8-2,1.9-2.6c0.4-0.2,1.1-0.4,1.7-0.5C9.1,0.1,11.6,0.6,13.8,2.4z"/>
<path fill="#0087CB" class="st1" d="M5.4,11.1C5.2,11,4.9,11,4.7,10.9c-2.6-1.1-4.1-3-4-5c0-1.4,0.8-2.8,2.2-4c0.4-0.3,0.9-0.6,1.3-0.9c0,0,0,0,0,0
	c0.6-0.3,1.3-0.4,2-0.6c0.2,0,0.4-0.1,0.5-0.1c-0.2,0-0.4,0.1-0.6,0.1C2.7,1.5,2.5,5.5,4.8,7.4c0,0,0,0,0,0c0.4,0.4,0.9,0.7,1.5,1
	C8.7,9.6,8,11.4,5.4,11.1z"/>
<path fill="#4377B1" class="st2" d="M5.4,11.1c-0.3,0-0.5-0.1-0.8-0.2c-5.1-1.4-5.8-5.7-2.7-8.4c0.7-0.6,1.4-1,2.3-1.4C3.8,1.3,3.3,1.6,3,2
	C-0.4,4.9,0.3,9.4,5.4,11.1z"/>
</svg>
