<svg width="16" height="17.5" viewBox="0 0 32 35" xmlns="http://www.w3.org/2000/svg">
    <defs>
        <linearGradient x1="100%" y1="100%" x2="0%" y2="100%" id="mqpo4navqa">
            <stop stop-color="#9DFACE" offset="0%"/>
            <stop stop-color="#28C1FC" offset="50.585%"/>
            <stop stop-color="#513DFF" offset="100%"/>
        </linearGradient>
    </defs>
    <path d="M3894.063 832.76v19.38c0 .74-.867 1.133-1.418.643l-2.435-2.161a.86.86 0 0 1-.284-.563l-1.617-17.299h5.754zm11.541-7.26-2.24 24.158a.86.86 0 0 1-.242.523l-2.495 2.544c-.536.546-1.461.165-1.461-.603V825.5h6.438zm-22.905 3.524 14.364 1.236a.425.425 0 0 0 .078 0l1.684-.166v2.323h-16.163a.428.428 0 0 1-.426-.429v-2.536c0-.252.214-.45.463-.428zm27.416.351.008.082v2.531c0 .21-.151.386-.35.422l-.077.007h-4.386l.271-2.987 4.074-.4a.427.427 0 0 1 .46.345zM3893.21 818c.47 0 .853.384.853.858v10.8l-6.094-.53-.952-10.19a.856.856 0 0 1 .85-.938h5.343zm-12.852 2.79 6.488.32.409 4.047h-6.914a.342.342 0 0 1-.341-.343v-3.681c0-.197.163-.353.358-.343zm31.28-.132a.342.342 0 0 1 .354.27l.008.072v3.814a.343.343 0 0 1-.272.336l-.07.007h-17.254v-3.672l2.415.12 14.818-.947zm-6.275-2.658c.467 0 .84.375.853.831l-.003.107-.162 1.743-6.885.432v-2.255c0-.437.325-.798.746-.851l.107-.007h5.344z" transform="translate(-3880 -818)" fill="url(#mqpo4navqa)" fill-rule="nonzero"/>
</svg>
