<svg width="18" height="18" viewBox="0 0 38 37" xmlns="http://www.w3.org/2000/svg">
    <g fill-rule="nonzero" fill="none">
        <path d="M26.862 10.966c2.978.979 6.015 1.902 8.686 3.594.03.015.092.052.123.07.261 1.896.452 3.838.046 5.73-2.317-1.517-4.526-3.23-6.41-5.268-1.092-1.184-1.956-2.584-2.445-4.126z" fill="#FF6F03"/>
        <g fill="#FFD83D">
            <path d="M12.348 1.062c4.169-1.453 8.88-1.259 12.929.492 5.286 2.332 9.501 7.332 10.394 13.098-2.671-1.692-5.708-2.615-8.686-3.594-3.277-1.116-6.591-2.116-9.84-3.307-1.991-.773-4.01-1.579-5.751-2.84-.643-.48-1.326-1.237-1.114-2.102.323-.898 1.258-1.363 2.068-1.747zM1.21 23.782C-1.096 17.126.93 9.154 6.377 4.622c.662 5.88 3.644 11.51 8.348 15.141 3.908 3.102 8.892 4.843 13.89 4.71 2.28.04 4.52-.451 6.732-.947-1.591 5.314-5.914 9.634-11.117 11.468-3.123 1.068-6.526 1.388-9.76.646-6.099-1.252-11.32-5.948-13.262-11.858z"/>
        </g>
    </g>
</svg>
