<svg width="18" height="19.5" viewBox="0 0 36 39" xmlns="http://www.w3.org/2000/svg">
    <defs>
        <linearGradient x1="42.29%" y1="38.299%" x2="63.772%" y2="69.206%" id="efe62t8e8a">
            <stop stop-color="#F7D45C" offset="0%"/>
            <stop stop-color="#DE3633" offset="100%"/>
        </linearGradient>
        <linearGradient x1="16.812%" y1="27.123%" x2="60.336%" y2="72.127%" id="5q6otrwwdb">
            <stop stop-color="#F7D45C" offset="0%"/>
            <stop stop-color="#DE3633" offset="100%"/>
        </linearGradient>
    </defs>
    <g fill="none" fill-rule="evenodd">
        <ellipse fill="#F2E373" fill-rule="nonzero" cx="17.209" cy="21.727" rx="17.109" ry="17.166"/>
        <path d="M24.162 19.949.784 26.936c1.067 3.405 3.244 6.546 6.542 8.868 8.141 5.721 18.295 3.287 24.66-3.544.137-.147 0-.39-.183-.307a6.224 6.224 0 0 1-3.839.479 6.14 6.14 0 0 1-4.874-4.875 6.242 6.242 0 0 1 4.36-7.199l-3.288-.41z" fill="url(#efe62t8e8a)"/>
        <path d="M21.461 18.586c.462-.19.91-.412 1.34-.664a10.577 10.577 0 0 1 13.155 2.116.189.189 0 0 1-.184.306c-2.915-.615-6.056-.736-8.448.048-2.885.948-5.001 3.005-6.466 5.557-2.146 3.742-3.03 4.8-6.497 6.155-6.04 2.364-11.677.222-13.575-5.16-2.491-8.002 1.1-16.643 8.522-20.51 2.093-1.11 4.63-2.046 6.756-2.662 2.049-.587 5.535-1.438 6.434-3.649a.204.204 0 0 1 .39.056c.359 2.612-.238 3.802-1.734 5.213-1.622 1.53-3.624 2.227-5.42 3.332-2.739 1.82-3.607 5.145-1.79 7.89 1.08 1.631 2.918 2.497 4.85 2.497a7.358 7.358 0 0 0 1.758-.218c.31-.081.614-.184.91-.307z" fill="url(#5q6otrwwdb)"/>
    </g>
</svg>
