<?xml version="1.0" encoding="UTF-8"?>
<svg width="18px" height="18px" viewBox="0 0 36 36" version="1.1" xmlns="http://www.w3.org/2000/svg" xmlns:xlink="http://www.w3.org/1999/xlink">
    <title>grt</title>
    <defs>
        <linearGradient x1="50%" y1="0%" x2="50%" y2="100%" id="linearGradient-1">
            <stop stop-color="#3A1F8B" offset="0%"></stop>
            <stop stop-color="#415EAB" offset="100%"></stop>
        </linearGradient>
    </defs>
    <g id="Page-1" stroke="none" stroke-width="1" fill="none" fill-rule="evenodd">
        <g id="Logos" transform="translate(-2013.000000, -805.000000)">
            <g id="Group-2" transform="translate(99.000000, 84.000000)">
                <g id="grt" transform="translate(1914.000000, 721.000000)">
                    <circle id="Oval" fill="url(#linearGradient-1)" cx="18" cy="18" r="18"></circle>
                    <path d="M17.7142859,8 C21.9747533,8 25.4285719,11.4324867 25.4285719,15.6666408 C25.4285719,19.900795 21.9747533,23.3332817 17.7142859,23.3332817 C13.4538182,23.3332817 10,19.900795 10,15.6666408 C10,11.4324867 13.4538182,8 17.7142859,8 Z M17.7142859,10.5555469 C14.874026,10.5555469 12.5714286,12.8437682 12.5714286,15.6666408 C12.5714286,18.4895135 14.874026,20.7777348 17.7142859,20.7777348 C20.5547019,20.7777348 22.857143,18.4895135 22.857143,15.6666408 C22.857143,12.8437682 20.5547019,10.5555469 17.7142859,10.5555469 Z M25.052052,23.7074757 C25.5541818,24.2065044 25.5541818,25.0154511 25.052052,25.5144797 L19.9090391,30.6257285 C19.4069093,31.1247572 18.5929353,31.1247572 18.0908054,30.6257285 C17.5886755,30.1266999 17.5886755,29.3177531 18.0908054,28.8187245 L23.2338182,23.7074757 C23.735948,23.2084471 24.5499223,23.2084471 25.052052,23.7074757 Z M28,9.27777346 C28,9.98356904 27.4244683,10.5555469 26.7144422,10.5555469 C26.0042599,10.5555469 25.4287273,9.98356904 25.4287273,9.27777346 C25.4287273,8.57197788 26.0042599,8 26.7144422,8 C27.4244683,8 28,8.57197788 28,9.27777346 Z" id="Fill-19" fill="#FFFFFF" fill-rule="nonzero"></path>
                </g>
            </g>
        </g>
    </g>
</svg>
