<svg width="18" height="16" viewBox="0 0 36 32"  version="1.1" xmlns="http://www.w3.org/2000/svg" xmlns:xlink="http://www.w3.org/1999/xlink">
    <title>F8F85E53-71C8-4D7D-B142-D534C377F16E</title>
    <g id="Page-1" stroke="none" stroke-width="1" fill="none" fill-rule="evenodd">
        <g id="Logos" transform="translate(-1557.000000, -167.000000)" fill="#000000" fill-rule="nonzero">
            <path d="M1565.63234,175.864681 C1568.61702,178.398085 1571.15043,181.431915 1574.06362,184.054681 C1570.38191,187.669362 1566.75383,191.33766 1563.08553,194.970213 C1561.12851,196.989787 1559.20277,199.054043 1557.07149,200.894894 C1557.71043,199.849362 1558.60404,198.991489 1559.37702,198.044255 C1563.48319,193.468936 1567.34809,188.683617 1571.40064,184.054681 C1569.41234,181.37383 1567.56255,178.590213 1565.63234,175.864681 Z M1577.6917,187.763191 C1580.42617,190.537872 1583.29915,193.182979 1585.95766,196.029149 C1584.74936,195.268936 1583.56897,194.464407 1582.39537,193.648975 L1580.05099,192.013474 C1579.26839,191.470061 1578.48255,190.931702 1577.68723,190.408298 C1574.98404,192.284894 1572.32106,194.232979 1569.56872,196.029149 C1572.08872,193.111489 1575.06447,190.595957 1577.6917,187.763191 Z M1598.65596,167.053617 C1593.7634,172.687872 1588.97809,178.415957 1584.06319,184.03234 C1584.68723,184.991489 1585.33759,185.93227 1585.99671,186.866927 L1587.98286,189.664775 C1588.64199,190.599433 1589.29234,191.540213 1589.91638,192.499362 C1586.97638,189.77383 1584.22851,186.847234 1581.37787,184.03234 C1585.24723,180.386383 1588.92447,176.54383 1592.71787,172.812979 C1594.66596,170.864894 1596.48447,168.764894 1598.65596,167.053617 Z M1586.16319,172.01766 C1583.3483,174.828085 1580.50213,177.611702 1577.66043,180.399787 C1575.02426,177.52234 1571.98149,175.00234 1569.46149,172.035532 C1572.20489,173.921064 1574.93936,175.824468 1577.66936,177.736809 C1580.56915,175.927234 1583.20979,173.728936 1586.16319,172.01766 Z" id="xsn"></path>
        </g>
    </g>
</svg>
