<?xml version="1.0" encoding="UTF-8"?>
<svg width="16px" height="16px" viewBox="0 0 36 36" version="1.1" xmlns="http://www.w3.org/2000/svg" xmlns:xlink="http://www.w3.org/1999/xlink">
  <title>horizen</title>
  <g id="Update" stroke="none" stroke-width="1" fill="none" fill-rule="evenodd">
    <g id="horizen" fill-rule="nonzero">
      <path d="M35.5145455,17.8763359 C35.5145455,27.7474809 27.5727273,35.7526718 17.7736364,35.7526718 C13.9227273,35.7526718 10.3636364,34.5132824 7.45636364,32.4137405 L11.9509091,29.4870229 C13.6990909,30.3801527 15.6763636,30.8858015 17.7709091,30.8858015 C24.9,30.8858015 30.6818182,25.0625954 30.6818182,17.8763359 C30.6818182,15.7630534 30.18,13.7679389 29.2909091,12.0036641 L32.1927273,7.47480916 C34.2790909,10.4042748 35.5118182,13.9960305 35.5145455,17.8763359 Z M22.2463636,19.0250382 C23.7190909,19.0250382 25.1509091,19.1871756 26.5336364,19.4839695 C25.77,23.6610687 22.14,26.8296183 17.7709091,26.8296183 C14.6918182,26.8296183 11.9781818,25.2577099 10.3772727,22.8668702 C13.7236364,20.4512977 17.8172727,19.0250382 22.2463636,19.0250382 Z" id="Combined-Shape" fill="#0E9DE5"></path>
      <path d="M22.1618182,17.3926718 C23.7136364,17.3926718 25.2245455,17.5630534 26.6809091,17.8818321 C26.6809091,17.8818321 26.6809091,17.879084 26.6809091,17.879084 C26.6809091,12.9187786 22.6909091,8.9010687 17.7709091,8.9010687 C12.8481818,8.9010687 8.86090909,12.9215267 8.86090909,17.879084 C8.86090909,18.2858015 8.89090909,18.6870229 8.94272727,19.08 C8.94272727,19.08 8.94,19.08 8.94,19.0827481 C6.69545455,20.8003053 5.63181818,22.1606107 5.59909091,22.2045802 C5.12454545,20.8525191 4.86,19.3987786 4.86,17.8818321 C4.86,10.6955725 10.6418182,4.87236641 17.7709091,4.87236641 C19.86,4.87236641 21.8290909,5.37526718 23.5745455,6.26290076 L28.0718182,3.33343511 C25.1672727,1.23389313 21.6136364,-7.10542736e-14 17.7709091,-7.10542736e-14 C7.97181818,-7.10542736e-14 0.03,8.00519084 0.03,17.8763359 C0.03,21.8500763 1.32,25.5187786 3.49636364,28.4867176 C4.33636364,26.9560305 5.35909091,25.5407634 6.52909091,24.2683969 C6.52909091,24.2683969 8.28,22.4271756 9.61909091,21.5038168 C13.14,18.9206107 17.4736364,17.3926718 22.1618182,17.3926718 Z" id="Path" fill="#041742"></path>
    </g>
  </g>
</svg>
