<?xml version="1.0" encoding="UTF-8"?>
<svg width="22px" height="16px" viewBox="0 0 22 16" version="1.1" xmlns="http://www.w3.org/2000/svg" xmlns:xlink="http://www.w3.org/1999/xlink">
    <title>menu</title>
    <g id="Ethereum" stroke="none" stroke-width="1" fill="none" fill-rule="evenodd">
        <g id="ETH-Landing-Mobile" transform="translate(-323.000000, -17.000000)" fill="#354052" fill-rule="nonzero">
            <g id="header">
                <path d="M324.013133,17.0001004 C323.652891,16.9950006 323.317813,17.1844572 323.136206,17.4959235 C322.954598,17.8073897 322.954598,18.1926103 323.136206,18.5040765 C323.317813,18.8155428 323.652891,19.0049994 324.013133,18.9998996 L343.986867,18.9998996 C344.347109,19.0049994 344.682187,18.8155428 344.863794,18.5040765 C345.045402,18.1926103 345.045402,17.8073897 344.863794,17.4959235 C344.682187,17.1844572 344.347109,16.9950006 343.986867,17.0001004 L324.013133,17.0001004 Z M324.013133,24.0001004 C323.652891,23.9950006 323.317813,24.1844572 323.136206,24.4959235 C322.954598,24.8073897 322.954598,25.1926103 323.136206,25.5040765 C323.317813,25.8155428 323.652891,26.0049994 324.013133,25.9998996 L343.986867,25.9998996 C344.347109,26.0049994 344.682187,25.8155428 344.863794,25.5040765 C345.045402,25.1926103 345.045402,24.8073897 344.863794,24.4959235 C344.682187,24.1844572 344.347109,23.9950006 343.986867,24.0001004 L324.013133,24.0001004 Z M324.013133,31.0001004 C323.652891,30.9950006 323.317813,31.1844572 323.136206,31.4959235 C322.954598,31.8073897 322.954598,32.1926103 323.136206,32.5040765 C323.317813,32.8155428 323.652891,33.0049994 324.013133,32.9998996 L343.986867,32.9998996 C344.347109,33.0049994 344.682187,32.8155428 344.863794,32.5040765 C345.045402,32.1926103 345.045402,31.8073897 344.863794,31.4959235 C344.682187,31.1844572 344.347109,30.9950006 343.986867,31.0001004 L324.013133,31.0001004 Z" id="menu"></path>
            </g>
        </g>
    </g>
</svg>