<svg xmlns="http://www.w3.org/2000/svg" width="40" height="33" viewBox="0 0 40 33">
    <path fill="#464F5F" fill-rule="nonzero" d="M40 3.907a16.194 16.194 0 0 1-4.713 1.31A8.33 8.33 0 0 0 38.895.61a16.292 16.292 0 0 1-5.212 2.022A8.14 8.14 0 0 0 27.693 0c-4.531 0-8.206 3.73-8.206 8.33 0 .654.073 1.29.211 1.9-6.82-.348-12.866-3.666-16.915-8.706a8.4 8.4 0 0 0-1.11 4.19 8.36 8.36 0 0 0 3.65 6.933 8.086 8.086 0 0 1-3.716-1.042v.104c0 4.037 2.828 7.404 6.583 8.169a8.07 8.07 0 0 1-3.707.144c1.045 3.309 4.075 5.718 7.667 5.786a16.306 16.306 0 0 1-10.192 3.566A16.3 16.3 0 0 1 0 29.258 22.977 22.977 0 0 0 12.58 33c15.095 0 23.348-12.694 23.348-23.703 0-.36-.008-.72-.023-1.078A16.85 16.85 0 0 0 40 3.907z"/>
</svg>
