<svg xmlns="http://www.w3.org/2000/svg" xmlns:xlink="http://www.w3.org/1999/xlink" width="360" height="651" viewBox="0 0 360 651">
    <defs>
        <path id="a" d="M0 0h360v668H0z"/>
        <linearGradient id="d" x1="123.674%" x2="-22.241%" y1="84.496%" y2="84.496%">
            <stop offset="0%" stop-color="#5B96FD"/>
            <stop offset="100%" stop-color="#AD5AE9"/>
        </linearGradient>
        <path id="c" d="M657 700c-6.06.946-12.18 1.945-18.359 3H297V73.253c58.575 3.754 130.639-1.225 231.797-25.133A1132.942 1132.942 0 0 1 657 25.531v674.47z"/>
    </defs>
    <g fill="none" fill-rule="evenodd" transform="translate(0 -17)">
        <mask id="b" fill="#fff">
            <use xlink:href="#a"/>
        </mask>
        <g mask="url(#b)">
            <g transform="translate(-297 -8)">
                <path fill="#9C66ED" d="M642.118 44.562c-117.317 31.957-95.426 29.856-307.16-1.247-211.733-31.102-287.403 31.498-303.823 81.26-16.42 49.76-2.722 164.678 181.489 220.166 184.21 55.488 461.502-.352 564.414-135.936 102.91-135.585-17.603-196.2-134.92-164.243z" opacity=".1"/>
                <path fill="#6A83FE" d="M1009 12.716c-110.646 48.918-55.784 99.477-270.109 100.207-214.325.729-278.772 73.69-286.794 125.201-8.023 51.511 24.452 162.815 215.603 190.218 191.15 27.403 455.92-68.795 535.253-217.776C1282.287 61.586 1119.646-36.2 1009 12.716z" opacity=".1"/>
                <path fill="#A562EE" d="M285.632 613.257c164.273-26.292 272.146-79.203 573.868-37.28 301.722 41.924 228.99-25.238 249.307-74.51 20.317-49.273-5.871-165.65-270.052-230.744-76.102-18.751-173.185 40.212-261.066 38.847-217.186-3.372-432.237-23.789-530.305 69.714-137.75 131.338 73.975 260.265 238.248 233.973z" opacity=".1"/>
                <use fill="url(#d)" xlink:href="#c"/>
            </g>
        </g>
    </g>
</svg>
