<?xml version="1.0" encoding="UTF-8"?>
<svg width="380px" height="46px" viewBox="0 0 380 46" version="1.1" xmlns="http://www.w3.org/2000/svg" xmlns:xlink="http://www.w3.org/1999/xlink">
    <title>Currency-Club-News 2</title>
    <g id="Newsroom" stroke="none" stroke-width="1" fill="none" fill-rule="evenodd">
        <g id="Newsroom-Copy-3" transform="translate(-246.000000, -5676.000000)" fill="#FFFFFF" fill-rule="nonzero">
            <g id="Currency-Club-News" transform="translate(246.000000, 5676.000000)">
                <path d="M287.830502,1.25342956 C290.06867,-0.711928494 293.612863,-0.228306357 295.687138,1.74734153 C297.991887,4.02139456 299.856174,6.76877989 301.059765,9.7888458 C301.68973,11.2139876 302.130193,12.7420278 303.021363,14.0334018 C305.100759,15.0881096 307.538672,14.8257189 309.68465,14.1208654 C309.720502,11.8622471 309.71538,9.60877372 309.71538,7.35015544 C307.974014,6.91283755 306.273621,6.32117217 304.629566,5.60088388 C304.020088,5.89928903 303.41061,6.19769418 302.806253,6.49095441 C304.593715,4.55646586 306.365811,2.60139764 307.933041,0.471402268 C309.43881,1.23284989 310.97531,2.26697808 312.742285,2.1177755 C313.940755,1.96857293 315.006061,1.35632788 316.102098,0.89328541 C315.605296,2.33900691 315.205806,3.89791656 314.160986,5.06581258 C313.172505,6.22856368 311.733317,6.81508414 310.411927,7.47363343 C310.42217,17.4496263 310.463144,27.4256191 310.39144,37.4016119 C305.597561,34.5924876 303.743518,28.969094 301.500228,24.1946116 C299.528387,23.5257725 297.505329,22.6665714 295.379838,22.8672232 C293.956015,22.9804113 292.670477,23.6338157 291.400303,24.2254811 C291.384938,26.1805493 291.39006,28.1356175 291.379817,30.0855408 C294.314531,30.1678595 297.003406,31.3306106 299.748619,32.2361159 C298.345282,33.7178518 297.080231,35.3127759 295.830544,36.9231347 C294.037961,36.0124845 292.224892,34.9217622 290.16086,34.8548783 C288.086586,34.7725596 286.186448,35.7243692 284.352891,36.5681354 C285.090411,35.0761097 285.725498,33.460606 286.954698,32.2824201 C288.004639,31.2637267 289.397732,30.7286554 290.724244,30.1627146 C290.724244,27.1632283 290.724244,24.1637421 290.724244,21.1642559 C290.309389,21.1642559 289.4848,21.1694008 289.069945,21.1745457 C288.619239,21.6272983 288.168532,22.080051 287.717826,22.5276587 C287.164686,20.90701 286.611546,19.0291156 287.553932,17.4341915 C288.142924,16.2457158 289.612842,16.1582522 290.724244,15.7723835 C290.698635,12.2172463 290.795947,8.66210911 290.637175,5.11211683 C289.587234,5.40023214 288.434859,5.46197114 287.518081,6.08965093 C286.626911,6.87682314 286.150596,7.9984149 285.556483,9.00167359 C285.228696,6.28515776 285.423319,3.00784603 287.830502,1.25342956 M291.45152,5.28189906 C291.302992,11.2757266 291.436155,17.2746991 291.379817,23.2736716 C292.824127,22.7437452 294.263315,22.0080222 295.840788,22.018312 C297.669222,22.0543264 299.431075,22.6151223 301.187807,23.0833097 C299.625699,19.2966512 298.201876,15.4585436 296.573186,11.6976098 C295.477149,9.14058633 293.715296,6.8974028 291.45152,5.28189906 M303.180135,15.1704283 C305.228801,19.9500556 306.237769,25.3470729 309.68465,29.396122 C309.751232,24.6370744 309.694894,19.8831717 309.720502,15.1241241 C307.569402,15.7003547 305.336356,15.6643403 303.180135,15.1704283 Z" id="Shape"></path>
                <path d="M14.056979,5.62660846 C16.6485419,4.11400305 19.0762115,2.34415182 21.4577861,0.517706516 C22.1082376,1.37690755 22.6511342,2.36987641 23.5525474,2.99241128 C24.6895572,3.72813432 26.010947,3.01299095 27.1838084,2.79175955 C25.9392436,4.48443703 24.4334739,5.96617294 22.6408909,7.06204013 C22.6613775,15.3453555 22.6152825,23.6286708 22.6664992,31.9119861 C24.7715038,30.8264088 26.6357902,29.3498178 28.3310616,27.6982996 C26.3592202,31.4129293 23.4962091,34.993791 19.3425381,36.285165 C15.2810571,37.4684958 10.4666913,37.6897272 6.8251869,35.1995877 C3.24514251,32.6682888 0.781621264,28.59866 0.223359693,24.230626 C-0.529525179,18.7975943 0.633092956,13.0713024 3.52683413,8.4048633 C5.38087715,5.40023214 8.19779333,3.15190369 11.2144545,1.40777705 C7.61392343,5.02979816 5.38599881,9.89174412 4.90968389,14.9800664 C4.36166565,20.0838234 5.07869887,25.8204052 8.76117657,29.6739475 C11.0249529,32.1435074 14.5281723,32.6888685 17.703605,32.8740855 C19.1786448,32.9821287 20.6280762,32.6168397 22.0211693,32.1589421 C22.1389676,23.8447573 22.0365343,15.5254275 22.072386,7.20609778 C20.1927346,6.76877989 18.7740332,5.48769572 17.5397117,4.0676988 C17.1811951,4.91661 16.7663402,5.78095595 16.7970702,6.73276548 C16.7253669,11.5381174 16.8534085,16.3434692 16.7612185,21.1488211 C16.6690286,22.877513 16.5973252,24.7451177 15.5729921,26.2114188 C14.5947539,27.6674301 12.9609425,28.4185879 11.4756594,29.2263398 C12.5409659,26.4943892 12.233666,23.5309174 12.2592743,20.665199 C12.2439093,16.4000633 12.2900043,12.1349277 12.2285443,7.86979199 C10.9071545,8.48718196 9.58576476,9.12000667 8.18242834,9.52645506 C9.88794305,7.87493691 12.0544077,6.85109855 14.056979,5.62660846 Z" id="Path"></path>
                <path d="M197.566264,5.82211528 C200.280747,4.26320563 202.821094,2.42132557 205.310223,0.517706516 C206.180906,1.65987795 207.005494,3.40914951 208.695644,3.32168593 C209.274392,3.19820794 210.431889,2.95125195 211.015759,2.82777396 C209.771194,4.51016161 208.265424,5.96617294 206.483085,7.06204013 C206.508693,15.3453555 206.452355,23.6286708 206.513815,31.9119861 C208.618819,30.8212639 210.483106,29.3446729 212.173255,27.6931547 C210.211657,31.3974945 207.358889,34.9680665 203.225705,36.2697303 C199.276901,37.4324814 194.66228,37.6742925 191.036141,35.4413988 C187.174405,32.9100999 184.57772,28.5883702 184.029702,23.9939599 C183.328034,18.2779578 184.654545,12.237826 187.973384,7.50964785 C189.827427,4.84972609 192.490694,2.9358172 195.21542,1.2688643 C191.517577,4.88574051 189.238436,9.81457038 188.756999,14.9646317 C188.198738,20.0735336 188.920893,25.8255501 192.608492,29.6842374 C194.882512,32.1537972 198.390853,32.6940134 201.571407,32.8740855 C203.036203,32.9821287 204.480513,32.6116948 205.863363,32.1589421 C205.97604,23.8447573 205.878728,15.5254275 205.919701,7.20609778 C204.04005,6.76877989 202.621349,5.4825508 201.371662,4.07798864 C200.900469,5.06581258 200.557317,6.12566535 200.618777,7.23696728 C200.608534,11.6976098 200.659751,16.1582522 200.623899,20.6188947 C200.536831,22.512224 200.531709,24.5804803 199.420307,26.2062739 C198.442069,27.6622852 196.803136,28.413443 195.328096,29.2314847 C195.79929,27.7960531 196.147563,26.3091722 196.111711,24.786277 C196.086103,19.1474487 196.13732,13.5086203 196.07586,7.86979199 C194.75447,8.48718196 193.438202,9.11486175 192.034865,9.52131015 C193.637947,7.94696574 195.671248,6.97457655 197.566264,5.82211528 Z" id="Path"></path>
                <path d="M215.81476,5.26646432 C218.360228,4.45871245 220.711072,3.16219352 222.749495,1.42835671 C221.899299,3.26509185 221.100319,5.19443549 221.177144,7.26783678 C221.064467,15.0983995 220.849357,22.9289622 220.82887,30.7595249 C221.899299,31.4695233 222.933875,32.2206811 223.942843,33.0129982 C224.506226,32.8998101 225.074731,32.7917668 225.648358,32.6837236 C223.973573,34.1551697 222.268059,35.5854564 220.670099,37.1392212 C219.743077,36.3005998 218.882637,35.3385004 217.760993,34.7622698 C216.618861,34.3095172 215.358931,34.443285 214.165583,34.3352417 C215.005536,33.0695923 216.639348,32.102348 216.593253,30.4251053 C216.762268,23.5617869 216.762268,16.6933236 216.880066,9.82486021 C217.002986,8.22479122 216.495941,6.69160615 215.81476,5.26646432 Z" id="Path"></path>
                <path d="M251.231079,4.86516084 C253.761182,4.42784295 255.948133,3.04386045 258.068502,1.67016778 C255.558886,6.68131631 256.870033,12.3561591 256.270798,17.7017272 C256.480786,17.6194085 256.911006,17.4547712 257.126116,17.3724525 C256.204216,19.0188257 256.388596,20.9275897 256.316893,22.7334554 C256.265676,25.5117102 256.112026,28.289965 256.193973,31.0682199 C257.781689,31.8553921 259.246486,32.8586508 260.567875,34.0419815 C261.387342,33.8670544 262.201687,33.6921272 263.031397,33.5274899 C263.031397,28.7478626 263.026275,23.9733802 263.031397,19.1937529 C261.648547,18.2728129 260.73689,16.3023099 258.867482,16.4309328 L259.056984,17.0380329 C258.806022,16.9865838 258.298977,16.8888304 258.048016,16.8425261 C259.830355,15.3196309 261.986577,14.2803578 263.881593,12.8912304 C264.690816,13.8584746 265.34639,15.1498486 266.642171,15.5254275 C267.681869,15.5923115 268.721567,15.314486 269.704927,15.1858631 C268.916191,16.3434692 267.932831,17.3775974 267.220919,18.5866528 C266.985323,20.4645472 267.133851,22.3681663 267.108243,24.2614955 C267.169703,27.6417056 266.826551,31.0836546 267.666504,34.4021257 C263.763795,34.9783563 259.451352,34.4741545 256.122269,37.0208881 C255.205491,36.1977015 254.37066,35.1841529 253.187555,34.7468351 C252.12737,34.4690096 251.010847,34.5976325 249.935297,34.5616181 C250.770129,33.2856788 252.204195,32.1537972 252.024937,30.4611197 C252.101762,23.4228741 252.178587,16.3846286 252.240047,9.34123807 C252.301507,7.7771835 251.830313,6.28001284 251.231079,4.86516084 Z" id="Path"></path>
                <path d="M91.1585359,15.5048479 C94.9178386,15.7981081 98.6464113,14.7279655 101.668194,12.4796371 C102.825691,15.4173843 104.357069,18.1956391 106.226477,20.7423727 C102.943489,23.0781648 99.6656228,25.4191017 96.3928783,27.7703285 C96.4031216,28.7272829 96.413365,29.6893823 96.4236083,30.6463367 C97.6989031,31.3254657 98.9485895,32.0560438 100.141938,32.8740855 C100.771903,32.5705354 101.401867,32.2721303 102.042076,31.9788701 C100.285344,33.7435764 98.3493546,35.3076309 96.505555,36.964294 C95.5375601,36.1308176 94.6054169,35.1738631 93.3864605,34.7159656 C92.136774,34.319807 90.8051409,34.4329952 89.5196028,34.3352417 C90.2110277,33.1056067 91.1226842,32.0200294 91.8653257,30.8212639 C92.336519,28.8507609 92.0240974,26.7825045 92.1009224,24.7708422 C91.9831241,21.6787475 92.597724,18.386001 91.1585359,15.5048479 M96.49019,26.4377951 C98.405693,25.3110585 100.208519,24.0093946 101.867939,22.5225138 C100.515819,19.924331 99.2610112,17.1975254 97.2072232,15.0623851 C95.8960767,18.694696 96.6233533,22.6562816 96.49019,26.4377951 Z" id="Shape"></path>
                <path d="M108.556835,16.8219465 C110.159916,15.4894131 111.578617,13.956228 112.905129,12.3510141 C115.174027,14.2443434 115.322555,17.2695542 115.343042,20.0066497 C118.22654,17.6091187 121.151011,15.2630368 124.014022,12.8449261 C124.879583,14.4089807 126.236825,15.5511521 128.039651,15.803253 C127.378956,16.7550625 126.441692,17.5731042 126.047323,18.6741163 C125.832213,21.0407779 126.016593,23.4228741 125.955133,25.7946806 C125.990985,27.6519954 125.801483,29.5761941 126.431448,31.3614801 C126.728505,32.4624922 128.039651,32.6065499 128.884726,33.1158966 C127.553093,34.4381401 126.303407,35.8324124 125.058842,37.2369746 C124.095969,36.532121 122.974324,35.9404557 122.344359,34.8857478 C121.678542,33.6921272 121.724637,32.2721303 121.683664,30.9498868 C121.699029,26.8699681 121.709272,22.7900494 121.699029,18.7101308 C121.104916,18.200784 120.505681,17.6965822 119.911568,17.1872355 C118.390433,18.3654214 116.884663,19.559042 115.353285,20.7217931 C115.302068,24.2563506 115.30719,27.7857632 115.322555,31.3151758 C116.295672,31.9171311 117.27391,32.5087964 118.175323,33.2187949 C116.797595,34.3918358 115.327677,35.4671233 114.057504,36.7739321 C112.643924,35.0092258 110.702813,33.8310399 108.536348,33.2342296 C109.330206,32.5036515 110.124064,31.7730734 110.917923,31.0424953 C110.964017,28.0893133 111.086937,25.1412762 111.158641,22.1932391 C111.153519,20.7938219 111.194492,19.2812165 110.503068,18.0155671 C109.903833,17.5422348 109.202164,17.2232499 108.556835,16.8219465 Z" id="Path"></path>
                <path d="M35.1019038,12.6236947 C36.4130502,13.956228 37.3759234,15.6489055 37.3554367,17.5731042 C37.5244517,22.1057756 37.381045,26.6435918 37.4220184,31.181408 C38.2978232,31.8451022 39.1377764,32.5756804 40.0852846,33.1416212 C41.4066743,32.2515506 42.9329308,31.2843063 43.557774,29.7614111 C43.7370323,26.7259105 43.6550856,23.6698301 43.5936256,20.6240397 C43.6141123,19.2554919 42.5590491,18.267668 41.8010426,17.2541194 C41.3605794,17.3775974 40.4745312,17.6142636 40.0289462,17.7325967 C41.8573809,16.1479624 43.7472756,14.635357 45.5552236,13.0249982 C46.3695685,13.8327501 47.127575,14.7279655 48.1211782,15.314486 C49.0481997,15.6334708 50.0520462,15.3093411 51.004676,15.3350656 C50.0725329,16.6778888 48.9764964,17.8920891 47.7370533,18.9467969 C47.7319316,22.080051 47.7012016,25.21845 47.7319316,28.351704 C47.7985133,29.7408314 47.7626616,31.2328572 48.4489648,32.4882168 C49.1301464,32.8998101 49.8983962,33.1364762 50.6359161,33.4348814 C49.5245146,34.7879944 48.4284781,36.1513972 47.2709817,37.4633509 C46.3029868,36.8716855 45.165977,36.4034981 44.5411338,35.4002394 C43.8804389,34.2632129 43.542409,32.9718389 43.0968241,31.7422039 C40.8432911,33.5172 38.6563398,35.3899496 36.4386585,37.2215398 C35.4552987,36.3726286 34.5538855,35.4002394 33.4015107,34.7879944 C32.4283942,34.4072706 31.3374794,34.6593715 30.3233896,34.5770528 C31.1889511,33.4451712 32.1313376,32.3801735 33.1505491,31.3872047 C33.1146974,27.4616335 33.2529824,23.5257725 33.1403058,19.6053462 C33.1864007,18.2265086 31.6447793,17.8200602 30.7228795,17.1820906 C32.3464476,15.8238327 33.7088107,14.2083289 35.1019038,12.6236947 Z" id="Path"></path>
                <path d="M133.658119,16.1222378 C136.946228,16.0141946 140.075566,14.7897045 142.754197,12.9169549 C143.22539,13.7555763 143.614637,14.6765163 144.30094,15.37108 C145.043582,15.437964 145.791345,15.3865148 146.54423,15.376225 C145.65306,16.8065117 144.551902,18.4631748 142.677372,18.4940443 C140.705531,18.7615799 139.839969,16.5544108 138.610769,15.4636885 C138.252253,20.6446193 138.523701,25.8512747 138.441754,31.0424953 C139.563399,31.5981462 140.669679,32.1743769 141.760594,32.7763321 C142.411045,32.4624922 143.061497,32.1537972 143.722192,31.8502471 C141.775959,33.5326348 139.793874,35.1687182 138.078116,37.087772 C137.079391,36.228571 136.142127,35.2253123 134.897562,34.7314003 C133.637632,34.3095172 132.280391,34.4021257 130.974366,34.2940824 C131.916752,33.2290847 132.92572,32.225826 134.00127,31.2997411 C134.113947,26.2525781 134.636357,21.1025169 133.658119,16.1222378 Z" id="Path"></path>
                <path d="M152.777297,12.7214481 C153.883577,13.9356484 155.102533,15.2476021 155.179358,16.9968736 C155.542997,21.4729508 155.128142,25.9747527 155.363738,30.4559748 C155.58397,31.6393056 156.224178,32.7300278 157.002671,33.6355331 C158.841349,33.2548093 160.060306,31.6907547 161.484129,30.5948876 C161.642901,26.695041 161.545589,22.7900494 161.576319,18.8850579 C160.644176,18.2162188 159.655694,17.6451331 158.605753,17.1923804 C160.306146,15.926731 161.873375,14.4861544 163.430362,13.0507228 C164.208855,13.8430399 164.905402,14.7639799 165.893883,15.3041961 C166.831148,15.5820216 167.824751,15.4225292 168.792746,15.4585436 C167.998888,16.791077 166.974555,17.9538281 165.781206,18.9313622 C165.714625,23.2788165 165.740233,27.6262708 165.735111,31.9737251 C165.601948,33.9236484 166.841391,35.6832098 166.554578,37.6331331 C166.124358,40.9927635 163.727419,44.0539888 160.541742,45.1961602 C158.600631,45.8958688 156.490505,46.1531146 154.44696,45.9113036 C152.526335,45.6797823 151.204946,44.0488438 149.432849,43.4417437 C148.726059,43.7967429 148.034635,44.1826117 147.368818,44.6044948 C147.701726,42.808919 148.244623,40.4628371 150.370114,40.0924032 C152.920704,39.855737 154.175512,42.5362384 155.783715,44.0334091 C158.226749,47.0020258 163.54816,43.7401489 162.831127,40.2107362 C162.206284,37.3192932 161.269019,34.4638647 161.397061,31.4540886 C159.046216,33.3782873 156.685128,35.2767614 154.329162,37.1803805 C153.345802,36.3211795 152.454632,35.2819064 151.220311,34.7931393 C150.201099,34.4895892 149.115306,34.75198 148.08073,34.7365452 C148.879709,33.522345 149.801609,32.3956083 150.866916,31.4077843 C150.851551,27.986415 150.918132,24.5599007 150.856672,21.1385313 C150.764482,20.1764319 150.820821,19.0959995 150.247194,18.267668 C149.673568,17.8303501 149.012873,17.5473797 148.382908,17.218105 C150.062814,15.9473107 151.461029,14.3626764 152.777297,12.7214481 Z" id="Path"></path>
                <path d="M227.732876,17.1975254 C229.356444,15.8186878 230.718807,14.1723145 232.17336,12.6236947 C233.417925,13.9819526 234.401285,15.6540504 234.380798,17.5628144 C234.549813,22.0851959 234.401285,26.6178672 234.44738,31.1402487 C235.33855,31.8348124 236.219476,32.5448109 237.095281,33.2599542 C238.344967,32.2721303 239.548559,31.2328572 240.665082,30.0958307 C240.593379,26.7722147 240.808489,23.4383089 240.557527,20.1198378 C240.419242,18.4888994 238.892986,17.3055686 237.330878,17.2695542 C239.220772,16.0347743 240.885314,14.4964443 242.601072,13.0249982 C243.430782,13.8584746 244.199031,14.7948494 245.233608,15.3916597 C246.160629,15.494558 247.092773,15.37108 248.030037,15.3196309 C247.123503,16.6933236 246.012101,17.9023789 244.74705,18.9365071 C244.9007,23.1090343 244.403898,27.3330106 245.074836,31.4643784 C245.167026,32.8535058 246.672796,32.9872737 247.692008,33.4091568 C246.549876,34.7725596 245.443596,36.166832 244.245126,37.4839306 C243.261767,36.8202364 242.047932,36.3263244 241.464062,35.2304572 C240.869949,34.1243002 240.542162,32.904955 240.127307,31.7267692 C237.868653,33.5172 235.67658,35.3950945 233.448655,37.2215398 C232.485782,36.3829185 231.599734,35.4311089 230.478089,34.8085741 C229.499851,34.4072706 228.393571,34.6387918 227.369238,34.5719079 C228.219434,33.4297365 229.172064,32.3698837 230.175911,31.3614801 C230.196397,27.9606904 230.165667,24.5650456 230.227127,21.1642559 C230.170789,20.2844752 230.344925,19.2760716 229.812272,18.509479 C229.202794,17.9435382 228.434544,17.6091187 227.732876,17.1975254 Z" id="Path"></path>
                <path d="M316.250626,15.5202826 C319.98432,15.7672386 323.692406,14.7125308 326.709067,12.4796371 C327.856321,15.4225292 329.397942,18.1956391 331.251985,20.7423727 C327.979241,23.0781648 324.706496,25.4191017 321.433752,27.7600386 C321.433752,28.722138 321.433752,29.6842374 321.438873,30.6463367 C322.71929,31.3203208 323.974098,32.0560438 325.177689,32.8689406 C325.802533,32.5705354 326.422254,32.2824201 327.062462,31.9994497 C325.321096,33.7487213 323.400471,35.302486 321.556672,36.9385694 C320.429905,36.0124845 319.344112,34.8651681 317.863951,34.5616181 C316.767914,34.3609663 315.656513,34.4175604 314.555354,34.3712562 C315.257023,32.6425643 317.182769,31.4437988 317.121309,29.4475712 C317.167404,26.1599697 317.131552,22.8672232 317.136674,19.5796216 C317.177647,18.1699145 316.726941,16.8270914 316.250626,15.5202826 M321.915188,15.0469503 C321.290345,18.8027393 321.49009,22.6254121 321.525942,26.4172155 C323.39535,25.2647542 325.367191,24.1483074 326.785892,22.4299053 C325.515719,19.7854183 324.307006,16.8733956 321.915188,15.0469503 Z" id="Shape"></path>
                <path d="M333.331381,16.852816 C335.216154,15.5974564 336.937034,14.1157205 338.80132,12.8346363 C339.769315,14.2237637 340.742432,15.7518039 340.686093,17.5165102 C340.70658,21.9514281 340.58366,26.386346 340.49147,30.816119 C341.56702,31.6444505 342.637448,32.4779269 343.712998,33.3062585 C344.481248,32.59626 345.894827,32.2103913 345.915314,30.9756114 C346.079207,27.5285174 345.976774,24.0659887 345.956287,20.6137498 C345.981896,19.1577385 345.408269,17.7943357 344.670749,16.5698456 C343.753971,17.0534677 342.852558,17.5422348 341.925536,17.9898425 C343.810309,16.0604988 345.992139,14.4604299 348.0869,12.7780422 C349.111234,14.0436916 350.238,15.3968046 350.314825,17.1100618 C350.601638,21.2002703 350.258487,25.3059135 350.371163,29.401267 C350.447988,31.0219156 350.775775,32.9306796 352.261058,33.8670544 C352.798833,33.8927789 353.879504,33.9390832 354.422401,33.9648078 C354.335333,34.1140103 354.161196,34.4175604 354.079249,34.5719079 C352.071556,35.0349504 350.335312,36.166832 348.665649,37.3192932 C347.456936,35.9558904 346.386507,34.4741545 345.520946,32.8689406 C343.518375,34.1191553 341.59775,35.4979928 339.78468,37.0105983 C338.325005,35.179008 336.312191,33.6612577 333.828183,34.0985756 C334.642528,32.9975635 335.482481,31.9274209 336.353164,30.872713 C336.373651,27.2918513 336.465841,23.7109895 336.373651,20.1301277 C336.353164,18.509479 335.282736,16.297165 333.331381,16.852816 Z" id="Path"></path>
                <path d="M53.319669,17.6708577 C54.943237,16.297165 56.3516951,14.7022409 57.8164915,13.1690558 C59.4503029,14.8154291 60.3209861,16.9660041 60.6026777,19.2452021 C62.0777175,17.3107135 63.5220272,15.3556453 64.9560937,13.3902872 C65.6014236,14.2546332 66.1699285,15.2115876 67.0150033,15.9010064 C67.8293482,15.9627454 68.6385714,15.9730353 69.4529162,15.9318759 C68.8331947,17.5319449 68.1724998,19.5024479 66.3389434,20.0323743 C64.7717137,20.5828803 63.4452023,19.2709266 62.2006375,18.5352036 C61.3401976,19.6104911 60.0956328,20.6394744 60.1673361,22.1623696 C60.0751462,25.2390296 60.1775795,28.3208345 60.1519712,31.3974945 C61.3453193,32.0920582 62.5540324,32.7711872 63.8037189,33.3628526 C62.3952608,34.566763 61.150696,35.9507455 60.0239295,37.4221916 C58.7742431,36.4240778 57.5860166,35.2510369 56.0700035,34.6696613 C54.9637237,34.4587197 53.8472006,34.7622698 52.7409207,34.8445885 C53.5757523,33.584084 54.6410588,32.5036515 55.5424719,31.2997411 C56.1621935,29.7253967 55.9009885,27.9606904 55.9829352,26.3040273 C55.9112319,24.1431624 56.2338968,21.9514281 55.8344069,19.8111429 C55.6858786,18.509479 54.2927855,18.1853493 53.319669,17.6708577 Z" id="Path"></path>
                <path d="M71.6910842,17.6657127 C73.3146522,16.2920201 74.728232,14.697096 76.2032718,13.1639109 C77.8165965,14.820574 78.6924013,16.971149 78.9894579,19.250347 C80.4491327,17.3055686 81.8985641,15.3453555 83.3377522,13.3851423 C83.9882038,14.2597781 84.5464653,15.2373122 85.4222702,15.9112963 C86.22125,15.9678903 87.0202299,15.9781802 87.8243314,15.9370208 C87.2199749,17.5473797 86.5336717,19.497303 84.705237,20.0375192 C83.1328856,20.5777354 81.8114958,19.2657817 80.5618093,18.5300587 C79.7064912,19.6104911 78.4721697,20.6497642 78.5387514,22.1675146 C78.451683,25.2441745 78.543873,28.3208345 78.528508,31.4026394 C79.7269778,32.0972031 80.9356909,32.781477 82.1904991,33.3679975 C80.766676,34.5513282 79.5272329,35.9456006 78.4107097,37.4221916 C77.1712666,36.4446575 76.0035268,35.2921962 74.5233654,34.6953859 C73.3914772,34.4329952 72.2339808,34.7622698 71.1020926,34.8240088 C72.0649658,33.0593025 74.2826471,31.922276 74.2775254,29.7202518 C74.4209321,27.3947496 74.3184987,25.0692474 74.3953237,22.7437452 C74.3748371,21.4369364 74.5233654,20.0015048 73.7960888,18.8490435 C73.1917323,18.2933925 72.4029957,18.0310018 71.6910842,17.6657127 Z" id="Path"></path>
                <path d="M351.482565,18.2419434 C353.449285,16.4463676 355.636236,14.9183274 357.730997,13.2873889 C358.314867,14.3009374 358.81679,15.3865148 359.600405,16.2662955 C360.296952,17.1409313 361.562003,16.8065117 362.524876,17.0277431 C361.792478,17.9641179 361.019107,18.8593333 360.189397,19.7082445 C360.215005,24.5084515 359.364809,29.3858322 360.363533,34.13459 C358.576072,34.0265468 356.747637,34.2374883 355.006271,33.7847357 C355.958901,32.5087964 355.666966,30.8830029 355.723304,29.401267 C355.656722,26.2834476 355.789886,23.1707732 355.672087,20.0529539 C355.728426,18.8336088 354.678484,18.0412916 354.043398,17.1409313 C353.18808,17.5113653 352.343005,17.8920891 351.482565,18.2419434 Z" id="Path"></path>
                <path d="M364.594029,15.8598471 C368.16383,16.1170929 371.784848,15.3659351 374.852726,13.467461 C375.641462,13.9665179 376.373861,14.635357 377.306004,14.8565884 C378.381554,14.8411537 379.144682,13.9150687 380,13.3697076 C379.26248,16.976294 376.798959,19.7596937 374.524939,22.4916443 C376.184359,22.4967892 377.8489,22.5019341 379.518563,22.5276587 C378.980789,26.5767079 379.026883,30.7080757 379.472468,34.7622698 C377.592817,34.5461833 375.672192,34.1757493 373.797663,34.5924876 C371.958985,35.0040809 370.442972,36.1822667 368.957689,37.272989 C367.754097,36.3571939 366.611966,35.0195156 364.988398,35.0040809 C363.610669,35.060675 362.960218,36.470382 362.181725,37.3810322 C362.755351,33.2496644 365.889811,30.3993807 368.337967,27.307286 C367.067794,27.2815614 365.797621,27.2764165 364.532569,27.2918513 C365.285454,23.5463521 365.346914,19.6053462 364.594029,15.8598471 M369.428882,16.4052082 C369.382787,19.4818682 369.106217,22.568818 369.42376,25.6403331 C373.003805,23.1399038 375.938519,19.7699835 378.417405,16.1839768 C377.218935,16.8168015 376.179237,17.9846976 374.740049,18.0052772 C373.285496,18.0978857 372.31238,16.8116566 371.272681,16.0039048 C370.65296,16.1376726 370.03836,16.2714404 369.428882,16.4052082 M371.748996,25.3316381 C369.167677,28.0378641 366.494167,30.6617715 363.912848,33.3679975 C365.695187,32.6477092 367.590204,31.5569869 369.603018,31.9325658 C370.903922,32.2669854 371.841186,33.3114034 372.860398,34.1243002 C373.572309,34.011112 374.289343,33.8927789 375.011498,33.7847357 C374.996133,30.7132206 375.042228,27.6468505 374.970524,24.5804803 C373.854001,24.6422193 372.517246,24.292365 371.748996,25.3316381 Z" id="Shape"></path>
            </g>
        </g>
    </g>
</svg>