<svg xmlns="http://www.w3.org/2000/svg" width="42" height="32" viewBox="0 0 42 32">
    <path fill="#464F5F" fill-rule="nonzero" d="M36.18 3.548C32.544.536 26.794.026 26.552.005a.908.908 0 0 0-.907.552c-.006.012-.326.972-.637 1.898 4.225.762 7.097 2.454 7.25 2.547.717.43.956 1.377.538 2.115a1.49 1.49 0 0 1-1.296.767c-.256 0-.514-.067-.751-.21-.042-.025-4.255-2.496-9.746-2.496-5.493 0-9.707 2.472-9.749 2.497a1.475 1.475 0 0 1-2.048-.563c-.416-.736-.175-1.68.54-2.11.152-.093 3.034-1.79 7.272-2.551-.328-.937-.657-1.882-.663-1.894a.898.898 0 0 0-.907-.552c-.242.02-5.992.53-9.676 3.583C3.846 5.422 0 16.143 0 25.412c0 .164.04.323.12.465 2.656 4.809 9.899 6.067 11.548 6.121a.907.907 0 0 0 .767-.385l1.785-2.492c-3.915-.972-5.985-2.502-6.11-2.596a1.579 1.579 0 0 1-.319-2.161 1.47 1.47 0 0 1 2.091-.334c.056.037 3.876 2.794 11.118 2.794 7.27 0 11.08-2.768 11.118-2.796a1.473 1.473 0 0 1 2.092.342 1.574 1.574 0 0 1-.317 2.152c-.125.094-2.185 1.62-6.09 2.593l1.762 2.497a.903.903 0 0 0 .738.386l.029-.001c1.651-.054 8.893-1.313 11.548-6.121a.95.95 0 0 0 .12-.466c0-9.267-3.846-19.988-5.82-21.862zM15 22.185c-1.657 0-3-1.73-3-3.865 0-2.135 1.343-3.865 3-3.865s3 1.73 3 3.865c0 2.135-1.343 3.865-3 3.865zm12 0c-1.657 0-3-1.73-3-3.865 0-2.135 1.343-3.865 3-3.865s3 1.73 3 3.865c0 2.135-1.343 3.865-3 3.865z"/>
</svg>
