<?xml version="1.0" encoding="utf-8"?>
<!-- Generator: Adobe Illustrator 22.1.0, SVG Export Plug-In . SVG Version: 6.00 Build 0)  -->
<svg version="1.1" id="Слой_1" xmlns="http://www.w3.org/2000/svg" x="0px"
     y="0px"
     viewBox="0 0 12 12" style="enable-background:new 0 0 12 12;" xml:space="preserve">
<style type="text/css">
	.st0{fill:#7F8FA4;}
</style>
  <g>
	<path class="st0" d="M0.1,6.3l5.6,5.6C5.8,11.9,5.9,12,6,12c0.1,0,0.2-0.1,0.3-0.1l5.6-5.6c0.2-0.2,0.2-0.4,0-0.6
		c-0.1-0.1-0.2-0.1-0.3-0.1s-0.2,0-0.3,0.1l-4.9,4.9V0.4C6.4,0.2,6.2,0,6,0C5.8,0,5.6,0.2,5.6,0.4v10.1L0.7,5.7
		c-0.2-0.2-0.4-0.2-0.6,0S0,6.1,0.1,6.3z"/>
</g>
</svg>
