<?xml version="1.0" encoding="UTF-8"?>
<svg width="16px" height="16px" viewBox="0 0 31 31" version="1.1" xmlns="http://www.w3.org/2000/svg" xmlns:xlink="http://www.w3.org/1999/xlink">
  <title>NEM</title>
  <desc>Created with Sketch.</desc>
  <g id="Page-3" stroke="none" stroke-width="1" fill="none" fill-rule="evenodd">
    <g id="Logos" transform="translate(-153.000000, -245.000000)" fill-rule="nonzero">
      <g id="Group-2" transform="translate(99.000000, 100.000000)">
        <g id="Group-4">
          <g id="nem" transform="translate(54.000000, 145.000000)">
            <path d="M15.5210884,30.8324324 C15.5843537,30.7905405 15.6687075,30.7486486 15.7319728,30.7067568 C17.777551,29.5128378 19.6755102,28.0885135 21.3836735,26.4547297 C21.4891156,26.35 21.5734694,26.2243243 21.6578231,26.0986486 C21.7632653,25.8891892 21.8897959,25.6587838 21.9952381,25.4493243 C22.8176871,23.7527027 22.9863946,22.0141892 22.4380952,20.2128378 C21.3836735,16.7148649 17.9884354,14.7040541 14.5931973,15.1439189 C13.6231293,15.2695946 12.7163265,15.5628378 11.8727891,16.0445946 C10.2489796,16.9452703 8.51972789,17.3222973 6.68503401,17.1547297 C5.77823129,17.0709459 4.91360544,16.8405405 4.07006803,16.4844595 C3.41632653,16.1912162 2.8047619,15.8351351 2.23537415,15.3952703 C2.19319728,15.3533784 2.15102041,15.3324324 2.06666667,15.2905405 C2.0877551,15.3743243 2.10884354,15.4162162 2.12993197,15.4581081 C2.84693878,17.3013514 3.7537415,19.0398649 4.8292517,20.7155405 C5.98911565,22.5168919 7.31768707,24.1716216 8.81496599,25.7006757 C10.3122449,27.2297297 11.9571429,28.5702703 13.7496599,29.7641892 C14.529932,30.2668919 15.2891156,30.7277027 15.5210884,30.8324324" id="Path" fill="#05CCBB"></path>
            <path d="M24.0408163,23.6060811 C24.1251701,23.5641892 24.1673469,23.5013514 24.2095238,23.4385135 C24.8632653,22.6216216 25.4748299,21.7837838 26.0442177,20.925 C28.0897959,17.7831081 29.5027211,14.3898649 30.3040816,10.7452703 C30.5782313,9.50945946 30.7680272,8.2527027 30.8734694,6.99594595 C30.9578231,6.13716216 31,5.27837838 31,4.41959459 C31,4.35675676 31,4.29391892 30.9789116,4.25202703 C30.8945578,4.21013514 30.8102041,4.1472973 30.7469388,4.10540541 C30.0721088,3.72837838 29.3972789,3.3722973 28.7013605,3.05810811 C27.6891156,2.5972973 26.6768707,2.15743243 25.622449,1.84324324 C24.3360544,1.40337838 23.0496599,1.36148649 21.7210884,1.67567568 C17.9884354,2.57635135 15.6054422,6.2 16.3013605,9.94932432 C16.7020408,12.022973 17.8197279,13.6358108 19.6122449,14.7668919 C19.7387755,14.8506757 19.8653061,14.9135135 19.9707483,14.9972973 C21.2782313,15.7932432 22.3115646,16.8614865 23.0496599,18.222973 C23.829932,19.6263514 24.1673469,21.1554054 24.0829932,22.7682432 C24.1040816,22.9986486 24.0619048,23.2918919 24.0408163,23.6060811" id="Path" fill="#3BB8E9"></path>
            <path d="M0.0210884354,4.21013514 L0.0210884354,4.41959459 C0.0210884354,5.61351351 0.105442177,6.78648649 0.231972789,7.95945946 C0.358503401,9.0277027 0.54829932,10.075 0.780272109,11.1222973 C0.82244898,11.3108108 0.885714286,11.4783784 0.970068027,11.6459459 C2.42517007,14.7459459 5.82040816,16.3797297 9.17346939,15.6256757 C11.7251701,15.0601351 13.8129252,13.0912162 14.529932,10.5777027 C14.7197279,9.88648649 14.7829932,9.17432432 14.8251701,8.46216216 C14.8462585,7.98040541 14.8884354,7.51959459 14.9727891,7.05878378 C15.5210884,4.21013514 17.4401361,1.86418919 20.1183673,0.754054054 C20.2659864,0.691216216 20.4136054,0.628378378 20.5823129,0.586486486 C20.6034014,0.586486486 20.6455782,0.565540541 20.6244898,0.544594595 C20.2027211,0.397972973 17.6721088,0.146621622 16.1537415,0.125675676 C12.9061224,0.0628378378 9.70068027,0.481756757 6.57959184,1.42432432 C4.28095238,2.07364865 2.10884354,3.01621622 0.0210884354,4.21013514" id="Path" fill="#F5A81C"></path>
          </g>
        </g>
      </g>
    </g>
  </g>
</svg>
