<?xml version="1.0" encoding="UTF-8"?>
<svg width="122px" height="25px" viewBox="0 0 122 25" version="1.1" xmlns="http://www.w3.org/2000/svg" xmlns:xlink="http://www.w3.org/1999/xlink">
    <title>allnodes</title>
    <defs>
        <linearGradient x1="100%" y1="0%" x2="0%" y2="100%" id="linearGradient-1">
            <stop stop-color="#21D4FD" offset="0%"></stop>
            <stop stop-color="#B721FF" offset="100%"></stop>
        </linearGradient>
    </defs>
    <g id="Page-1" stroke="none" stroke-width="1" fill="none" fill-rule="evenodd">
        <g id="Main" transform="translate(-632.000000, -35.000000)">
            <g id="allnodes" transform="translate(632.000000, 35.000000)">
                <path d="M36.737451,20.2959148 L37.6672959,17.5414068 L43.8441231,17.5414068 L44.7739681,20.2959148 L48.0948429,20.2959148 L42.6486082,4.99309236 L38.8628109,4.99309236 L33.4387153,20.2959148 L36.737451,20.2959148 Z M42.892139,14.7213152 L38.6414192,14.7213152 L40.7667791,8.46901919 L42.892139,14.7213152 Z M52.5228295,20.2959148 L52.5228295,4.33725711 L49.6668771,4.33725711 L49.6668771,20.2959148 L52.5228295,20.2959148 Z M58.1906093,20.2959148 L58.1906093,4.33725711 L55.3346569,4.33725711 L55.3346569,20.2959148 L58.1906093,20.2959148 Z M63.8583891,20.2959148 L63.8583891,14.3933976 C63.8583891,12.5789201 64.8103732,11.6826119 66.2936973,11.6826119 C67.6220472,11.6826119 68.4854747,12.4696142 68.4854747,13.9343129 L68.4854747,20.2959148 L71.3414271,20.2959148 L71.3414271,13.5845341 C71.3414271,12.1635578 70.9429221,11.070499 70.1459121,10.2616355 C69.3710413,9.45277206 68.3747789,9.05927091 67.1571248,9.05927091 C65.6516615,9.05927091 64.5447032,9.56207793 63.8583891,10.5895532 L63.8583891,9.36532736 L61.0024367,9.36532736 L61.0024367,20.2959148 L63.8583891,20.2959148 Z M79.2452626,20.6019713 C80.8835609,20.6019713 82.2783283,20.0554419 83.4074258,18.940522 C84.5365232,17.8256021 85.1121415,16.4483481 85.1121415,14.8306211 C85.1121415,13.2128942 84.5365232,11.8575013 83.4074258,10.7425814 C82.2783283,9.62766146 80.8835609,9.05927091 79.2452626,9.05927091 C77.6069644,9.05927091 76.2121969,9.62766146 75.0830995,10.7425814 C73.954002,11.8575013 73.4005229,13.2128942 73.4005229,14.8306211 C73.4005229,16.4483481 73.954002,17.8256021 75.0830995,18.940522 C76.2121969,20.0554419 77.6069644,20.6019713 79.2452626,20.6019713 Z M79.2452626,17.8474632 C78.3818352,17.8474632 77.6733819,17.563268 77.0977635,16.9948774 C76.5442844,16.4264869 76.2564753,15.7050681 76.2564753,14.8306211 C76.2564753,13.9561741 76.5442844,13.2347553 77.0977635,12.6663648 C77.6733819,12.0979742 78.3818352,11.813779 79.2452626,11.813779 C80.1086901,11.813779 80.8171434,12.0979742 81.3927617,12.6663648 C81.96838,13.2347553 82.2561892,13.9561741 82.2561892,14.8306211 C82.2561892,15.7050681 81.96838,16.4264869 81.3927617,16.9948774 C80.8171434,17.563268 80.1086901,17.8474632 79.2452626,17.8474632 Z M92.0076991,20.6019713 C93.5574407,20.6019713 94.7529557,20.0773031 95.594244,19.0061055 L95.594244,20.2959148 L98.4501963,20.2959148 L98.4501963,4.99309236 L95.594244,4.99309236 L95.594244,10.6551367 C94.7529557,9.58393911 93.5574407,9.05927091 92.0076991,9.05927091 C90.524375,9.05927091 89.2403034,9.62766146 88.1776235,10.7425814 C87.1370827,11.8575013 86.6057427,13.2128942 86.6057427,14.8306211 C86.6057427,16.4483481 87.1370827,17.8256021 88.1776235,18.940522 C89.2403034,20.0554419 90.524375,20.6019713 92.0076991,20.6019713 Z M92.5390391,17.9130468 C91.6534725,17.9130468 90.92288,17.6288515 90.3251225,17.0604609 C89.7495042,16.4702092 89.4616951,15.7269293 89.4616951,14.8306211 C89.4616951,13.9343129 89.7495042,13.191033 90.3251225,12.6226424 C90.92288,12.0323907 91.6534725,11.7481954 92.5390391,11.7481954 C93.4246057,11.7481954 94.1551982,12.0323907 94.7308165,12.6226424 C95.3064348,13.191033 95.594244,13.9343129 95.594244,14.8306211 C95.594244,15.7269293 95.3064348,16.4702092 94.7308165,17.0604609 C94.1551982,17.6288515 93.4246057,17.9130468 92.5390391,17.9130468 Z M106.629826,20.6019713 C108.755185,20.6019713 110.371345,19.814969 111.456164,18.2628256 L109.15369,16.9511551 C108.600211,17.6725738 107.758923,18.0442138 106.674104,18.0442138 C104.969388,18.0442138 103.928847,17.3665174 103.552482,15.9892634 L111.898947,15.9892634 C111.965364,15.5739011 112.009643,15.2022611 112.009643,14.8306211 C112.009643,13.191033 111.478303,11.8356401 110.415623,10.7207202 C109.375082,9.60580028 108.024593,9.05927091 106.408434,9.05927091 C104.703718,9.05927091 103.286812,9.60580028 102.201992,10.7207202 C101.117173,11.813779 100.563694,13.191033 100.563694,14.8306211 C100.563694,16.4920704 101.117173,17.8693244 102.224132,18.9623832 C103.33109,20.0554419 104.792275,20.6019713 106.629826,20.6019713 Z M109.15369,13.8031459 L103.508203,13.8031459 C103.840291,12.4040307 104.880831,11.5951672 106.408434,11.5951672 C107.714645,11.5951672 108.821603,12.316586 109.15369,13.8031459 Z M117.532572,20.6019713 C118.794505,20.6019713 119.857185,20.2959148 120.698473,19.7056631 C121.5619,19.0935502 121.982544,18.2191032 121.982544,17.1041833 C122.004684,14.7650376 119.901463,13.9998965 118.285304,13.6719788 C117.156206,13.3877836 116.27064,13.0598659 116.27064,12.4696142 C116.27064,11.9230848 116.824119,11.573306 117.554711,11.573306 C118.37386,11.573306 118.971618,11.944946 119.325845,12.688226 L121.761153,11.3765555 C120.897725,9.88999556 119.347984,9.05927091 117.554711,9.05927091 C116.359196,9.05927091 115.362934,9.36532736 114.543785,9.99930143 C113.746775,10.6114143 113.34827,11.4640002 113.34827,12.5351977 C113.34827,14.8087599 115.407212,15.4864564 117.04551,15.9018187 C118.174608,16.186014 119.060175,16.5139316 119.060175,17.1041833 C119.060175,17.7381574 118.550974,18.0442138 117.532572,18.0442138 C116.403475,18.0442138 115.695021,17.563268 115.362934,16.6232375 L112.883347,18.0004915 C113.702496,19.7275243 115.252238,20.6019713 117.532572,20.6019713 Z" id="Combined-Shape" fill="#354052"></path>
                <circle id="Oval" fill="#FFFFFF" cx="12.460614" cy="12.460614" r="12.360614"></circle>
                <path d="M12.4606142,1.72306613e-13 C19.3424213,1.72306613e-13 24.9212283,5.57880698 24.9212283,12.4606142 C24.9212283,15.1069492 24.0962814,17.5606075 22.6895213,19.5784555 C22.6199958,19.6781826 22.512543,19.8253449 22.3671629,20.0199426 C22.2680389,19.8297352 22.1936959,19.6870797 22.1441339,19.591976 C20.6689874,16.7613413 18.4562676,12.5153893 15.5059746,6.85411989 C15.1326789,6.13779564 14.3919629,5.68854124 13.5842067,5.68854124 L10.1032649,5.68854124 C10.0160896,5.68854124 9.93020152,5.70957795 9.85289375,5.7498651 C9.58755298,5.88814128 9.48454677,6.21533747 9.62282295,6.48067825 C13.4555686,13.8351824 16.3301279,19.3510605 18.2465008,23.0283125 C18.2891321,23.1101162 18.3530792,23.2328216 18.4383419,23.3964289 C18.2759692,23.4836234 18.153592,23.5480275 18.0712105,23.5896413 C16.3849764,24.4414166 14.4788283,24.9212283 12.4606142,24.9212283 C10.4769455,24.9212283 8.60153936,24.4577018 6.93679982,23.633053 C6.84990326,23.5900078 6.7208663,23.5232424 6.54968893,23.4327569 C6.63866697,23.2620122 6.70540051,23.1339537 6.74988954,23.0485813 C7.88428458,20.8717302 9.58587715,17.6064534 11.8546672,13.2527512 L11.8727881,13.2144516 C11.9827652,12.9566772 11.8773019,12.6536296 11.6245964,12.521938 C11.5472887,12.4816509 11.4614006,12.4606142 11.3742253,12.4606142 L7.89328347,12.4606142 L7.81533288,12.4620105 C7.03812144,12.4898762 6.3327695,12.9329758 5.97151556,13.6261928 C4.57637111,16.3031706 3.53001276,18.310904 2.83244054,19.6493929 C2.78187531,19.7464165 2.70602747,19.891952 2.60489701,20.0859993 C2.46364486,19.8996895 2.35916403,19.7588239 2.29145453,19.6634023 C0.848333338,17.6296421 -2.82440737e-13,15.1441976 -2.82440737e-13,12.4606142 C-2.82440737e-13,5.57880698 5.57880698,1.72306613e-13 12.4606142,1.72306613e-13 Z" id="Combined-Shape" fill="url(#linearGradient-1)"></path>
            </g>
        </g>
    </g>
</svg>