<?xml version="1.0" encoding="UTF-8"?>
<svg width="2560px" height="278px" viewBox="0 0 2560 278" version="1.1" xmlns="http://www.w3.org/2000/svg" xmlns:xlink="http://www.w3.org/1999/xlink">
    <title>clouds</title>
    <g id="clouds" stroke="none" stroke-width="1" fill="none" fill-rule="evenodd">
        <g id="bg-copy" transform="translate(-84.605501, 62.000000)" fill="#FFFFFF">
            <path d="M437.100669,0 C532.287059,0 614.637935,54.9553696 654.155917,134.86873 C654.543246,135.651987 655.027313,136.655045 655.608119,137.877903 L655.785275,138.251348 C656.494626,139.748666 658.283486,140.387439 659.780804,139.678087 C659.899327,139.621937 660.014041,139.558075 660.124206,139.486912 C661.661301,138.494008 662.904668,137.70346 663.854308,137.115269 C700.821127,114.218631 744.417209,101 791.100669,101 C853.214507,101 909.862714,124.401147 952.70994,162.868091 C953.332368,163.426889 954.10248,164.131301 955.020274,164.98133 L955.331679,165.270062 C956.546016,166.397246 958.444193,166.326595 959.571376,165.112259 C959.765464,164.903165 959.928733,164.667455 960.056252,164.412251 C960.800888,162.922008 961.422685,161.715171 961.921641,160.791739 C985.663655,116.851778 1032.14603,87 1085.60067,87 C1136.87536,87 1181.73488,114.466645 1206.26861,155.489328 C1206.74599,156.287547 1207.34733,157.333676 1208.07263,158.627714 L1208.27352,158.986774 C1209.08137,160.433333 1210.90893,160.951111 1212.35548,160.143264 C1212.36402,160.138496 1212.37253,160.133687 1212.38102,160.128836 C1214.37616,158.988893 1215.96688,158.101588 1217.15317,157.466921 C1243.95363,143.128643 1274.57788,135 1307.10067,135 C1364.77746,135 1416.48324,160.564927 1451.50464,200.981415 C1451.98889,201.540263 1452.58326,202.240881 1453.28776,203.083269 L1453.5571,203.405817 C1454.61822,204.678295 1456.50998,204.84963 1457.78246,203.788506 C1457.93395,203.662182 1458.0726,203.521226 1458.19642,203.367685 C1459.28342,202.019735 1460.18149,200.942994 1460.89062,200.13746 C1479.85668,178.593183 1507.64125,165 1538.60067,165 C1573.94651,165 1605.15411,182.717893 1623.82649,209.756687 C1624.25739,210.38065 1624.75131,211.128941 1625.30826,212.001559 L1625.5508,212.383158 C1626.43709,213.783044 1628.2904,214.199399 1629.69028,213.313111 C1630.25093,212.958156 1630.67808,212.427336 1630.90487,211.803728 C1631.40784,210.420739 1631.84342,209.259551 1632.21163,208.320164 C1660.05127,137.294383 1729.20253,87 1810.10067,87 C1865.68767,87 1915.72851,110.745913 1950.63267,148.647213 C1951.31163,149.384468 1952.18558,150.359523 1953.25454,151.572375 L1953.5509,151.909054 C1954.63791,153.145361 1956.51814,153.27476 1957.76427,152.199022 C1959.42878,150.76211 1960.76408,149.640175 1961.77015,148.833216 C1985.8231,129.540655 2016.36415,118 2049.60067,118 C2086.5654,118 2120.19604,132.274948 2145.28064,155.612905 L2146.03816,156.322884 C2146.60074,156.854054 2147.4874,156.82859 2148.01857,156.266009 C2148.24336,156.027925 2148.37766,155.718623 2148.39813,155.391827 C2148.4018,155.332476 2148.40545,155.27527 2148.40904,155.220206 C2153.17876,81.9511438 2214.12211,24 2288.60067,24 C2339.87489,24 2384.73406,51.4661421 2409.26793,92.4882022 C2409.31933,92.5741388 2409.37257,92.6636356 2409.42767,92.7566926 L2409.4277,92.7566746 C2410.47395,94.5239477 2412.75476,95.1084493 2414.52204,94.0621954 C2414.88092,93.849732 2415.2015,93.5784109 2415.47037,93.2595895 C2415.47037,93.2595895 2415.47037,93.2595895 2415.47037,93.2595895 C2453.25211,48.4580951 2509.80268,20 2573,20 C2686.77066,20 2779,112.229342 2779,226 C2779,339.770658 2686.77066,432 2573,432 C2476.69828,432 2395.83061,365.918997 2373.26734,276.62735 C2349.72894,294.436909 2320.39837,305 2288.60067,305 C2250.16414,305 2215.33249,289.56567 2189.96534,264.556629 C2186.80161,339.342034 2125.16807,399 2049.60067,399 C2021.6156,399 1995.54151,390.818138 1973.64,376.716015 C1940.18623,432.028692 1879.46101,469 1810.10067,469 C1720.99058,469 1646.13325,407.976626 1625.03838,325.439551 C1606.53043,353.490929 1574.72706,372 1538.60067,372 C1522.89147,372 1507.9997,368.500198 1494.66252,362.237771 C1477.73786,450.394045 1400.19759,517 1307.10067,517 C1214.55369,517 1137.38011,451.178625 1119.83975,363.795685 C1108.88437,366.542354 1097.41275,368 1085.60067,368 C1066.86995,368 1048.99531,364.33471 1032.65485,357.68224 C1025.07328,484.498458 919.823669,585 791.100669,585 C693.358801,585 609.150891,527.054236 570.955789,443.64156 C532.622312,469.140546 486.596796,484 437.100669,484 C343.121571,484 261.654454,430.429837 221.569704,352.159895 C203.397439,359.161131 183.647028,363 163,363 C72.9775858,363 0,290.022414 0,200 C0,109.977586 72.9775858,37 163,37 C198.987722,37 232.251489,48.6626407 259.217935,68.4145576 C259.217935,68.4145576 259.217935,68.4145576 259.217935,68.4145576 C262.262685,70.6447241 266.470694,70.3598083 269.187034,67.73957 C269.202959,67.7242137 269.218771,67.7089698 269.234473,67.6938412 C312.741209,25.7763471 371.910745,0 437.100669,0 Z" id="Combined-Shape"></path>
        </g>
    </g>
</svg>