<svg xmlns="http://www.w3.org/2000/svg" width="190" height="25" viewBox="0 0 190 25">
    <path fill="#FFF" d="M12.261 0c6.772 0 12.261 5.49 12.261 12.261 0 2.604-.811 5.019-2.196 7.004l-.033.048c-.095.133-.28.164-.412.07-.026-.018-.048-.04-.067-.065l-.024-.04c-1.452-2.785-3.63-6.963-6.532-12.534-.368-.704-1.096-1.147-1.891-1.147H9.942c-.086 0-.17.021-.247.06-.26.137-.362.459-.226.72l8.485 16.283.004.006c.103.197.026.44-.171.544h-.003l-.002.002c-1.66.838-3.535 1.31-5.52 1.31-1.813 0-3.534-.393-5.082-1.099l-.354-.168c-.208-.103-.293-.355-.19-.563l.006-.012 5.023-9.64.018-.037c.108-.254.004-.552-.244-.681-.077-.04-.161-.06-.247-.06H7.69c-.765.028-1.459.464-1.814 1.146L2.905 19.11l-.118.226c-.077.149-.26.206-.41.129-.042-.022-.078-.054-.106-.093l-.016-.022C.835 17.347 0 14.902 0 12.26 0 5.49 5.49 0 12.261 0zm66.634 8.888c1.59 0 2.943.558 4.038 1.652 1.096 1.093 1.654 2.423 1.654 4.01 0 1.588-.558 2.939-1.654 4.033-1.095 1.094-2.449 1.63-4.038 1.63-1.59 0-2.944-.536-4.04-1.63-1.095-1.094-1.632-2.445-1.632-4.033 0-1.587.537-2.917 1.633-4.01 1.095-1.094 2.449-1.652 4.039-1.652zm94.528 0c2.083 0 3.931 1.073 4.812 2.767l-2.385 1.394c-.43-.88-1.353-1.437-2.449-1.437-1.654 0-2.878 1.223-2.878 2.938 0 .837.279 1.545.816 2.102.537.537 1.224.815 2.062.815 1.117 0 2.041-.536 2.47-1.415l2.407 1.373c-.946 1.694-2.772 2.788-4.855 2.788-1.612 0-2.965-.536-4.06-1.63-1.075-1.094-1.612-2.424-1.612-4.033 0-1.608.537-2.938 1.611-4.032 1.096-1.094 2.45-1.63 4.06-1.63zm-12.42 0c1.568 0 2.878.536 3.888 1.63 1.031 1.094 1.547 2.424 1.547 4.032 0 .365-.043.73-.108 1.137h-8.099c.365 1.351 1.375 2.016 3.03 2.016 1.052 0 1.868-.364 2.405-1.072l2.235 1.287c-1.053 1.523-2.621 2.295-4.684 2.295-1.783 0-3.2-.536-4.275-1.609-1.074-1.072-1.61-2.423-1.61-4.054 0-1.608.536-2.96 1.589-4.032 1.052-1.094 2.427-1.63 4.082-1.63zm-25.869-4.29c2.729 0 5.178 1.373 6.467 3.54l-2.557 1.48c-.752-1.352-2.191-2.145-3.91-2.145-1.46 0-2.642.45-3.544 1.372-.881.923-1.332 2.102-1.332 3.56 0 1.438.45 2.617 1.332 3.54.902.922 2.084 1.372 3.544 1.372 1.719 0 3.201-.815 3.91-2.123l2.557 1.48c-1.29 2.166-3.717 3.539-6.467 3.539-2.255 0-4.124-.75-5.607-2.252-1.482-1.502-2.212-3.346-2.212-5.555 0-2.21.73-4.076 2.212-5.555 1.483-1.502 3.352-2.253 5.607-2.253zm-19.066 4.29c1.74 0 3.243.815 4.081 2.274l-2.363 1.287c-.343-.73-.924-1.094-1.718-1.094-.71 0-1.246.343-1.246.879 0 .58.859.9 1.955 1.18 1.568.321 3.609 1.072 3.587 3.367 0 1.094-.408 1.952-1.246 2.552-.816.58-1.847.88-3.072.88-2.213 0-3.716-.858-4.511-2.553l2.406-1.35c.322.921 1.01 1.393 2.105 1.393.988 0 1.482-.3 1.482-.922 0-.579-.859-.9-1.954-1.18-1.59-.407-3.588-1.072-3.588-3.303 0-1.05.387-1.887 1.16-2.488.795-.622 1.762-.922 2.922-.922zm-10.816 0c1.568 0 2.879.536 3.888 1.63 1.031 1.094 1.547 2.424 1.547 4.032 0 .365-.043.73-.107 1.137h-8.1c.366 1.351 1.376 2.016 3.03 2.016 1.052 0 1.869-.364 2.406-1.072l2.234 1.287c-1.053 1.523-2.62 2.295-4.683 2.295-1.783 0-3.201-.536-4.275-1.609-1.074-1.072-1.611-2.423-1.611-4.054 0-1.608.537-2.96 1.59-4.032 1.052-1.094 2.427-1.63 4.081-1.63zm-7.722-3.99v15.014h-2.771v-1.265c-.817 1.051-1.977 1.566-3.48 1.566-1.44 0-2.686-.536-3.717-1.63-1.01-1.094-1.525-2.445-1.525-4.033 0-1.587.515-2.917 1.525-4.01 1.031-1.094 2.277-1.652 3.716-1.652 1.504 0 2.664.515 3.48 1.566V4.899h2.772zm-54.146 0l5.284 15.014h-3.222l-.902-2.702H38.55l-.902 2.702h-3.201L39.71 4.9h3.674zm102.882 0v5.491c.666-1.008 1.74-1.5 3.2-1.5 1.182 0 2.149.385 2.9 1.179.774.793 1.16 1.866 1.16 3.26v6.584h-2.77v-6.24c0-1.438-.838-2.21-2.127-2.21-1.44 0-2.363.88-2.363 2.66v5.79h-2.772V4.9h2.772zm-93.301-.643v15.657h-2.771V4.255h2.77zm129.669.644v9.008l3.695-4.719h3.308l-4.318 5.298 4.447 5.426h-3.222l-3.91-4.868v4.868h-2.771V4.9h2.77zm-124.17-.644v15.657h-2.77V4.255h2.77zm8.701 4.633c1.182 0 2.148.386 2.9 1.18.774.793 1.16 1.866 1.16 3.26v6.584h-2.771v-6.24c0-1.438-.838-2.21-2.127-2.21-1.44 0-2.363.88-2.363 2.66v5.79h-2.771V9.188h2.771v1.201c.666-1.008 1.74-1.5 3.201-1.5zm24.629 2.638c-.86 0-1.568.28-2.148.858-.559.558-.838 1.287-.838 2.166 0 .88.28 1.61.838 2.188.58.558 1.289.837 2.148.837.86 0 1.568-.28 2.127-.837.558-.579.838-1.308.838-2.188 0-.879-.28-1.608-.838-2.166-.559-.579-1.268-.858-2.127-.858zm-12.9.065c-.837 0-1.525.278-2.083.836-.537.558-.817 1.266-.817 2.123 0 .858.28 1.566.817 2.124.558.557 1.246.836 2.084.836.837 0 1.525-.279 2.083-.836.559-.558.838-1.266.838-2.124 0-.857-.28-1.565-.838-2.123-.558-.558-1.246-.836-2.083-.836zM41.558 8.309l-2.062 6.134h4.125L41.557 8.31zm63.695 3.067c-1.482 0-2.492.794-2.814 2.166h5.478c-.322-1.458-1.397-2.166-2.664-2.166zm55.75 0c-1.482 0-2.491.794-2.814 2.166h5.478c-.322-1.458-1.396-2.166-2.663-2.166z"/>
</svg>
