<?xml version="1.0" encoding="UTF-8"?>
<svg width="380px" height="107px" viewBox="0 0 380 107" version="1.1" xmlns="http://www.w3.org/2000/svg" xmlns:xlink="http://www.w3.org/1999/xlink">
    <title>cryptosaurus 2</title>
    <g id="Newsroom" stroke="none" stroke-width="1" fill="none" fill-rule="evenodd">
        <g id="Newsroom-Copy-3" transform="translate(-801.000000, -5646.000000)" fill="#FFFFFF" fill-rule="nonzero">
            <g id="cryptosaurus" transform="translate(801.000000, 5646.000000)">
                <g id="#4edaddff">
                    <path d="M42.1109935,0 L43.2211786,0 C53.3116965,2.67879433 63.3794025,5.44865248 73.4699204,8.11985816 C71.8654748,10.8062411 70.8085178,13.7658156 70.2762373,16.8468085 C62.945974,14.805461 55.5776908,12.8855319 48.2322195,10.897305 C44.7876041,9.75141844 40.7574802,10.3812766 38.1721176,13.0297163 C30.3628019,20.6866667 22.6979624,28.4953901 14.8430226,36.1143972 C11.9458958,38.5882979 9.51261337,42.2991489 10.5239464,46.2680142 C12.5161963,54.5092908 14.8810427,62.6670922 17.0633928,70.8628369 C13.9761658,71.4623404 11.0258109,72.6309929 8.35680423,74.3004965 C5.59654951,64.048227 2.95795891,53.7580142 0,43.5512766 L0,41.2974468 C0.699568689,38.4592908 2.02266599,35.7501418 4.17460011,33.7239716 C14.181474,23.7600709 24.1883478,13.7885816 34.1800137,3.80191489 C36.2787197,1.65432624 39.1758466,0.455319149 42.1109935,0 Z" id="Path"></path>
                    <path d="M90.3812331,35.6894326 C93.4684601,35.0292199 96.426419,33.8378014 98.9965736,31.9861702 C101.619956,41.9576596 104.395419,51.8912057 107.018801,61.862695 C108.227839,66.0895745 106.592977,70.6351773 103.475334,73.6175177 C93.4684601,83.6421277 83.4311702,93.636383 73.3862763,103.615461 C71.2419462,105.793404 68.2231552,106.88617 65.2043643,107 L64.8089559,107 C61.3871525,106.688865 58.1022213,105.603688 54.794478,104.74617 C47.5630669,102.818652 40.3468638,100.853191 33.1002446,99.0015603 C34.7731263,96.3151773 35.9821635,93.3783688 36.6285041,90.2821986 C43.7990832,92.3007801 51.0304943,94.0992908 58.2010734,96.102695 C60.6419598,96.7629078 63.2805504,97.4079433 65.7594568,96.5807801 C67.8809749,95.950922 69.5310445,94.4104255 71.051846,92.892695 C78.7623096,85.1370922 86.5412093,77.4497872 94.2668809,69.7093617 C96.8218274,67.2658156 97.9092005,63.5397872 96.9586995,60.117305 C94.8067654,51.9670922 92.5635832,43.8320567 90.3812331,35.6894326 Z" id="Path"></path>
                    <g id="networks" transform="translate(206.365000, 68.796000)">
                        <polygon id="Path" points="6.526 0.104 6.526 6.89 1.066 0.104 0 0.104 0 9.204 1.3 9.204 1.3 2.418 6.76 9.204 7.826 9.204 7.826 0.104"></polygon>
                        <polygon id="Path" points="13.456 8.073 13.456 5.135 18.019 5.135 18.019 4.03 13.456 4.03 13.456 1.235 18.578 1.235 18.578 0.104 12.156 0.104 12.156 9.204 18.76 9.204 18.76 8.073"></polygon>
                        <polygon id="Path" points="24.273 9.204 25.56 9.204 25.56 1.235 28.68 1.235 28.68 0.104 21.153 0.104 21.153 1.235 24.273 1.235"></polygon>
                        <polygon id="Path" points="43.215 0.104 40.706 7.54 38.197 0.104 37.001 0.104 34.44 7.501 31.983 0.104 30.644 0.104 33.686 9.204 35.077 9.204 37.56 1.937 40.043 9.204 41.408 9.204 44.45 0.104"></polygon>
                        <path d="M51.653,9.308 C54.422,9.308 56.476,7.332 56.476,4.654 C56.476,1.976 54.422,0 51.653,0 C48.858,0 46.804,1.989 46.804,4.654 C46.804,7.319 48.858,9.308 51.653,9.308 Z M51.653,8.151 C49.612,8.151 48.104,6.669 48.104,4.654 C48.104,2.639 49.612,1.157 51.653,1.157 C53.668,1.157 55.176,2.639 55.176,4.654 C55.176,6.669 53.668,8.151 51.653,8.151 Z" id="Shape"></path>
                        <path d="M67.566,9.204 L65.408,6.149 C66.682,5.694 67.41,4.68 67.41,3.276 C67.41,1.3 65.98,0.104 63.614,0.104 L60.065,0.104 L60.065,9.204 L61.365,9.204 L61.365,6.435 L63.614,6.435 C63.809,6.435 64.004,6.422 64.186,6.409 L66.149,9.204 L67.566,9.204 Z M63.575,5.33 L61.365,5.33 L61.365,1.235 L63.575,1.235 C65.239,1.235 66.11,1.976 66.11,3.276 C66.11,4.576 65.239,5.33 63.575,5.33 Z" id="Shape"></path>
                        <polygon id="Path" points="77.564 9.204 79.085 9.204 74.951 4.199 78.838 0.104 77.356 0.104 72.416 5.187 72.416 0.104 71.116 0.104 71.116 9.204 72.416 9.204 72.416 6.851 74.08 5.161"></polygon>
                        <path d="M84.52,9.308 C86.925,9.308 88.043,8.112 88.043,6.721 C88.043,3.38 82.531,4.771 82.531,2.548 C82.531,1.755 83.194,1.105 84.741,1.105 C85.547,1.105 86.444,1.339 87.237,1.846 L87.666,0.806 C86.912,0.286 85.807,0 84.741,0 C82.349,0 81.257,1.196 81.257,2.6 C81.257,5.98 86.769,4.576 86.769,6.799 C86.769,7.592 86.093,8.203 84.52,8.203 C83.35,8.203 82.193,7.761 81.517,7.15 L81.036,8.164 C81.764,8.84 83.129,9.308 84.52,9.308 Z" id="Path"></path>
                    </g>
                </g>
                <g id="#38b6ffff" transform="translate(4.992714, 4.348318)">
                    <path d="M78.2787723,0.774022901 C83.8296978,-1.19902674 90.4832043,0.690547724 94.0342758,5.41068957 C98.9768807,11.5726754 97.288791,21.6504059 90.4451843,25.710335 C83.7232417,30.2331718 73.5262676,27.3570725 70.2641484,19.9277818 C66.6370368,12.7868598 70.5683087,3.15685978 78.2787723,0.774022901 Z" id="Path"></path>
                    <path d="M33.5063762,13.5001931 C34.8750975,12.1342357 36.395899,10.7379236 38.357733,10.3509023 C41.0723636,9.59203709 43.8022023,10.6089165 46.4179809,11.2843066 C52.7445151,12.9538101 59.0634454,14.6688456 65.4051876,16.2624626 C66.5914128,24.2836683 73.5034556,30.7795548 81.5941196,31.5004768 C83.5863695,39.0056541 85.6166395,46.5108314 87.6621175,54.0084201 C88.3008542,56.1863633 88.5517864,58.6147321 87.6088895,60.7547321 C86.6051605,63.3196967 84.3239583,65.0195548 82.4837884,66.9546612 C78.7502208,70.5744484 75.2067533,74.3915406 71.3515215,77.8823208 L70.4770606,77.5408314 C70.6063287,77.0096257 70.864865,75.9396257 70.9941331,75.4008314 C70.4238326,75.8865052 69.845928,76.3721789 69.2832314,76.8578527 C68.5456427,76.5998385 67.815658,76.3418243 67.0856733,76.0838101 C67.4354576,75.2718243 67.777638,74.4598385 68.1274223,73.6554413 C66.796721,74.1714697 65.4432077,74.6495548 64.0896943,75.0972853 C64.4470827,73.640264 64.8500951,72.1984201 65.2226914,70.7413988 C63.9224062,71.6140938 62.6221209,72.4867889 61.3142316,73.3518952 C61.3674596,72.6840938 61.4663117,71.3409023 61.5119358,70.6731009 C60.0595703,70.9159378 58.3638767,71.2650158 58.0597164,69.3374981 C57.2232756,68.7607605 56.3336067,68.2674981 55.634038,67.5313988 C52.4251468,63.1831009 47.0110935,61.89303 42.2357768,60.0489874 C45.2925878,59.7074981 48.3037748,59.0928172 51.3377738,58.6223208 C53.2235676,58.2580655 54.9192613,59.381186 56.660579,59.8668598 C56.7670351,60.2462924 56.9647393,61.0051577 57.0711954,61.3845903 C58.0369044,61.4073562 59.0026133,61.4301222 59.9683223,61.4528881 C59.9911343,62.6746612 59.9987383,63.9040229 59.9759263,65.125796 C60.6298709,64.3289874 61.2838156,63.5245903 61.9377602,62.7201931 C62.4016047,62.9478527 63.3216896,63.4183491 63.785534,63.6535974 C63.5422058,64.8829591 63.3064815,66.1199094 63.0783613,67.3568598 C64.4927067,66.0060796 66.0135082,64.7691293 67.5799338,63.5928881 C67.6103498,65.7328881 67.5723297,67.8804768 67.5267057,70.0280655 C69.0475072,67.9563633 70.5074766,65.8391293 72.2487944,63.9343775 C72.3020224,65.6190584 72.3248344,67.3037392 72.3476465,68.9960087 C73.4806436,67.4858669 74.5376006,65.9226045 75.5641416,64.3441647 C75.913926,64.1696257 76.6210987,63.8129591 76.978487,63.6384201 C76.993695,64.8829591 77.008903,66.1350867 77.0241111,67.3872144 C78.3396044,65.5507605 79.4802055,63.5170016 81.2975633,62.1055123 C82.6282646,60.8989165 84.5064544,59.8820371 84.7041586,57.9013988 C85.4113313,54.0994839 84.9702989,49.7056541 82.1948362,46.7840229 C79.4954135,43.9610442 75.5945577,42.8379236 71.929426,41.8665761 C67.7624299,40.864874 63.6258499,39.7417534 59.4360417,38.8083491 C61.3598556,40.3488456 63.3825216,41.7451577 65.3367515,43.2401222 C64.2341705,43.3843066 63.0479453,44.1735264 62.0061963,43.4070725 C58.2574206,41.4112569 56.3564187,37.2678527 52.8205552,34.9988456 C50.1971726,33.3596967 46.509229,33.4279945 44.2280267,35.6590584 C42.0913006,37.6624626 39.5895822,39.1801931 37.2019238,40.864874 C34.0994888,43.6347321 32.6775394,47.7401931 31.3620461,51.5724626 C29.3697961,58.5160796 27.9250347,65.6721789 27.7501425,72.9193421 C24.6629155,69.5272144 20.5263354,67.0988456 15.9259109,66.5372853 C13.8196008,58.7285619 11.6904787,50.9350158 9.63739666,43.1111151 C8.77814381,40.121186 10.032805,36.8884201 12.1999472,34.7635974 C19.2944862,27.6682073 26.4194412,20.6031718 33.5063762,13.5001931 Z" id="Path"></path>
                    <path d="M119.439265,33.2989874 C124.062501,29.4667179 131.575261,29.967569 135.658613,34.3765761 C134.502804,35.4465761 133.346995,36.5089874 132.198789,37.5789874 C130.221747,36.0005477 127.659197,34.6042357 125.10425,35.7273562 C120.412578,37.2299094 120.35935,45.0006896 125.051022,46.5335974 C127.575553,47.7022499 130.236955,46.3211151 132.153165,44.6667889 C133.316579,45.7671435 134.487596,46.8599094 135.658613,47.9678527 C131.423181,52.3844484 123.651885,52.8018243 119.081877,48.6963633 C114.72478,44.77303 114.831236,36.9870725 119.439265,33.2989874 Z" id="Path"></path>
                    <path d="M229.560501,31.1134555 C233.522189,30.1345194 238.092198,31.0072144 241.019741,33.9667889 C244.677268,37.632108 244.85216,44.2038811 241.301089,47.9982073 C236.214008,53.6669307 225.089345,52.437569 222.275862,45.0310442 C219.812164,39.3926754 223.484899,32.2593421 229.560501,31.1134555 M231.088907,35.5755832 C226.435254,36.8884201 225.85735,44.1811151 230.14601,46.2983491 C233.697081,48.4459378 238.510418,45.2207605 238.198654,41.1835974 C238.502814,37.5258669 234.62477,34.3462215 231.088907,35.5755832 Z" id="Shape"></path>
                    <path d="M249.711121,31.9861506 C253.771661,29.9220371 258.64583,30.6353704 262.721578,32.304874 C262.181694,33.723952 261.588581,35.120264 261.0563,36.5393421 C258.699058,35.6590584 256.113696,34.5511151 253.573957,35.2872144 C252.494188,35.5528172 251.612123,36.7442357 252.36492,37.7687038 C255.474959,39.4837392 259.588727,38.9980655 262.257734,41.5933846 C264.843096,44.3101222 263.322295,49.1061506 259.999343,50.472108 C255.573811,52.3161506 250.357462,51.6331718 246.16005,49.4628172 C246.76837,48.0740938 247.384295,46.7005477 248.00022,45.3118243 C250.631206,46.6170725 253.611977,47.7098385 256.585144,47.0040938 C257.573665,46.7460796 258.676246,45.6153704 257.672517,44.6971435 C254.66133,42.7468598 250.387878,43.4222499 247.787307,40.6979236 C245.346421,38.1026045 246.623894,33.4962924 249.711121,31.9861506 Z" id="Path"></path>
                    <path d="M349.011855,31.1286328 C350.836817,31.1362215 352.661779,31.1362215 354.494344,31.1286328 C354.425908,35.2644484 354.593197,39.3926754 354.418304,43.5209023 C354.319452,46.5335974 352.555323,49.5387038 349.696216,50.6997676 C346.951169,51.7697676 343.80311,51.7545903 341.004835,50.9274272 C337.833964,49.8953704 335.826506,46.715725 335.697238,43.4753704 C335.446306,39.3699094 335.659218,35.2492711 335.590782,31.1438101 C337.476576,31.1362215 339.36237,31.1362215 341.255767,31.1286328 C341.438264,35.5224626 340.852755,39.9921789 341.567532,44.3404768 C342.312724,47.8236683 348.099374,47.8009023 348.692487,44.2342357 C349.392055,39.9087038 348.852171,35.492108 349.011855,31.1286328 Z" id="Path"></path>
                    <path d="M360.881711,32.1758669 C364.972667,29.8613279 370.067352,30.5822499 374.241952,32.3276399 C373.656443,33.7315406 373.070935,35.1354413 372.500634,36.5545194 C370.097768,35.5072853 367.405949,34.6725335 364.790171,35.3631009 C363.748422,35.8715406 363.033645,36.8960087 364.02977,37.8749449 C367.177829,39.4837392 371.291597,39.051186 373.884564,41.737569 C376.17337,44.5377818 374.759024,49.1137392 371.481697,50.4645194 C367.056165,52.3465052 361.877836,51.5724626 357.650008,49.5159378 C358.250724,48.1196257 358.851441,46.7309023 359.429345,45.3270016 C362.1896,46.6170725 365.322451,47.8236683 368.386866,46.9054413 C369.489447,46.4121789 370.074956,45.319413 368.888731,44.4543066 C366.037228,43.004874 362.508968,43.2249449 359.885586,41.2746612 C356.874399,39.0132428 357.726048,33.9212569 360.881711,32.1758669 Z" id="Path"></path>
                    <path d="M138.8599,31.1362215 C142.897628,31.2728172 146.98098,30.8023208 150.980688,31.4549449 C154.486135,32.0240938 157.337638,35.317569 156.94223,38.9297676 C157.025874,41.5706186 155.155288,43.6043775 153.117414,45.0006896 C154.524155,47.0496257 155.930897,49.1061506 157.375658,51.1323208 C155.33018,51.1247321 153.277098,51.1247321 151.224016,51.0792002 C150.052999,49.3034555 148.851566,47.5504768 147.650133,45.7974981 C146.585572,45.8050867 145.536219,45.8126754 144.479262,45.8278527 C144.479262,47.5960087 144.479262,49.3565761 144.486866,51.1247321 C142.608676,51.1171435 140.73809,51.1171435 138.8599,51.1171435 C138.867504,44.4618952 138.875108,37.7990584 138.8599,31.1362215 M144.49447,35.4769307 C144.471658,37.5106896 144.471658,39.5444484 144.49447,41.585796 C146.289015,41.4795548 148.197621,41.7679236 149.893315,41.0318243 C151.809525,40.0908314 151.748693,36.9946612 149.908523,36.0005477 C148.205225,35.2796257 146.296619,35.5755832 144.49447,35.4769307 Z" id="Shape"></path>
                    <path d="M158.341367,31.1286328 C160.333617,31.1362215 162.333471,31.1362215 164.325721,31.1362215 C165.914959,33.7543066 167.390136,36.4406896 169.04781,39.0208314 C170.789127,36.4862215 172.264305,33.7770725 173.861146,31.1438101 C175.693712,31.1362215 177.526278,31.1362215 179.358844,31.1286328 C176.857125,35.3782782 174.195723,39.5520371 171.815668,43.8699803 C171.443072,46.2604059 171.72442,48.7115406 171.655984,51.1247321 C169.777794,51.1171435 167.892001,51.1171435 166.013811,51.1171435 C165.892147,48.5977108 166.363595,45.9644484 165.732462,43.5209023 C163.398032,39.3167889 160.77465,35.2720371 158.341367,31.1286328 Z" id="Path"></path>
                    <path d="M181.662858,31.1286328 C186.331719,31.4549449 191.297136,30.3242357 195.753084,32.1227463 C200.429549,34.0047321 201.129117,41.1835974 197.129409,44.0976399 C194.315927,46.2376399 190.582359,45.84303 187.259408,45.9492711 C187.267012,47.6718952 187.267012,49.3945194 187.274616,51.1171435 C185.40403,51.1171435 183.533444,51.1171435 181.662858,51.1247321 C181.670462,44.4618952 181.662858,37.7914697 181.662858,31.1286328 M187.267012,35.4996967 C187.267012,37.5182782 187.267012,39.5368598 187.267012,41.56303 C189.038745,41.4795548 190.924539,41.7831009 192.597421,41.0621789 C194.582067,40.1363633 194.559255,36.8960087 192.589817,35.9777818 C190.916935,35.2492711 189.031141,35.5907605 187.267012,35.4996967 Z" id="Shape"></path>
                    <path d="M201.691814,31.1362215 C207.676168,31.1362215 213.660522,31.1438101 219.644876,31.1286328 C219.644876,32.6084201 219.644876,34.0882073 219.644876,35.5604059 C217.591794,35.5452286 215.546316,35.5376399 213.500838,35.5452286 C213.470422,40.7358669 213.493234,45.9340938 213.493234,51.1247321 C211.60744,51.1171435 209.721646,51.1171435 207.843456,51.1171435 C207.835852,45.9265052 207.858664,40.7358669 207.828248,35.5452286 C205.78277,35.5376399 203.737292,35.5452286 201.691814,35.5528172 C201.68421,34.0806186 201.691814,32.6084201 201.691814,31.1362215 Z" id="Path"></path>
                    <path d="M273.428021,31.1513988 C275.283398,31.1362215 277.138776,31.1362215 279.001758,31.1134555 C282.035757,37.7535264 284.932884,44.4618952 287.928863,51.1171435 C285.989841,51.1323208 284.050819,51.1095548 282.111797,51.1399094 C281.541497,49.8194839 280.9788,48.4990584 280.408499,47.1938101 C277.549393,47.1786328 274.69789,47.2013988 271.846387,47.3607605 C271.352127,48.6128881 270.857866,49.8650158 270.363606,51.1171435 C268.439792,51.1171435 266.515978,51.1247321 264.599768,51.1247321 C267.542519,44.4618952 270.530894,37.829413 273.428021,31.1513988 M273.580101,43.156647 C275.336626,43.1870016 277.093152,43.1945903 278.849678,43.1945903 C277.998029,41.0090584 277.123568,38.8311151 276.264315,36.6455832 C275.291002,38.7779945 274.416542,40.9635264 273.580101,43.156647 Z" id="Shape"></path>
                    <path d="M290.217669,31.1362215 C292.095859,31.1362215 293.974049,31.1362215 295.852239,31.1362215 C295.935883,35.2720371 295.677347,39.4306186 295.973903,43.5664342 C296.087963,45.820264 298.475621,47.4897676 300.650367,46.8371435 C302.551369,46.4956541 303.494266,44.5150158 303.494266,42.7468598 C303.623534,38.876647 303.494266,34.9988456 303.532286,31.1286328 C305.395268,31.1362215 307.25825,31.1362215 309.121232,31.1438101 C308.915924,35.9929591 309.607888,40.9407605 308.604159,45.7216116 C306.429413,53.7200513 292.369603,53.5606896 290.582662,45.3725335 C289.829865,40.6751577 290.407769,35.8791293 290.217669,31.1362215 Z" id="Path"></path>
                    <path d="M313.721656,31.1362215 C318.747905,31.5384201 324.321643,30.0055123 328.891651,32.7070725 C333.279164,35.5452286 332.571991,42.6937392 327.986774,45.0082782 C329.408724,47.0420371 330.807861,49.0985619 332.245019,51.1247321 C330.207145,51.0336683 328.085626,51.3827463 326.100981,50.8970725 C324.800695,49.2958669 323.743738,47.5201222 322.572721,45.8278527 C321.500556,45.8050867 320.420787,45.7974981 319.356226,45.7974981 C319.341018,47.5732428 319.333414,49.3489874 319.348622,51.1247321 C317.470432,51.1171435 315.599846,51.1171435 313.72926,51.1171435 C313.72926,44.4618952 313.736864,37.7990584 313.721656,31.1362215 M319.36383,35.4769307 C319.333414,37.5182782 319.333414,39.5520371 319.36383,41.5933846 C321.173584,41.4947321 323.089794,41.7299803 324.815903,41.039413 C326.929817,39.9087038 326.511597,36.3723917 324.207583,35.7425335 C322.610741,35.4010442 320.968275,35.5300513 319.36383,35.4769307 Z" id="Shape"></path>
                    <path d="M47.543374,45.7064342 C46.9198454,43.7485619 45.7640363,39.6582782 49.0413635,39.7038101 C52.0297384,40.4550867 53.3832518,43.7865052 55.2538376,45.9492711 C53.611372,46.7081364 51.8624503,47.1786328 50.0831125,47.4973562 C50.0831125,45.6609023 50.1363406,43.8168598 50.1895686,41.9804059 C49.2922957,43.2097676 48.4178349,44.4618952 47.543374,45.7064342 Z" id="Path"></path>
                    <path d="M76.5526626,48.9543775 C79.3889574,48.506647 80.6436186,51.5496967 80.6588266,53.8718243 C78.6361607,53.2116116 75.2371693,51.6028172 76.5526626,48.9543775 Z" id="Path"></path>
                    <path d="M32.6091033,63.9192002 C32.3961911,62.2724626 33.1565918,60.8306186 34.6697893,60.1172853 C34.9207216,63.0009733 34.5709372,66.0592002 35.8560145,68.7531718 C37.5060841,72.2287747 40.6161232,74.9834555 44.2508388,76.2583491 C47.6346221,77.4497676 51.5202699,76.7971435 54.653121,78.7626045 C58.1965885,80.9329591 61.9757802,83.0198385 66.2416284,83.1488456 C63.77793,85.7896967 61.0556953,88.5974981 57.1852555,88.7872144 C55.7404941,85.8352286 54.5390609,82.7087038 52.607643,80.0374981 C51.0260094,79.2634555 49.1706316,79.4152286 47.4673339,79.1116825 C39.7568703,78.5121789 32.6699354,71.8038101 32.6091033,63.9192002 Z" id="Path"></path>
                    <path d="M10.5726896,70.5061506 C14.2910492,69.6031009 18.4124213,70.1874272 21.6137085,72.3046612 C26.3738172,75.2111151 28.9059516,81.2820371 27.7197265,86.700335 C27.0049498,90.78303 24.2446951,94.3800513 20.6175835,96.3379236 C16.5722515,98.4779236 11.4395464,98.5006896 7.40181846,96.3379236 C3.2880504,94.1372144 0.368111525,89.8420371 0.0715552329,85.1598385 C-0.643221471,78.5652995 4.07886718,71.9328172 10.5726896,70.5061506 Z" id="Path"></path>
                </g>
            </g>
        </g>
    </g>
</svg>