<?xml version="1.0" encoding="UTF-8"?>
<svg width="46px" height="46px" viewBox="0 0 46 46" version="1.1" xmlns="http://www.w3.org/2000/svg"
>
  <!-- Generator: sketchtool 51.3 (57544) - http://www.bohemiancoding.com/sketch -->
  <title>0EC1DB80-011B-4128-A866-3CF9B9379E2D</title>
  <desc>Created with sketchtool.</desc>
  <defs></defs>
  <g id="Page-3" stroke="none" stroke-width="1" fill="none" fill-rule="evenodd">
    <g id="Steps" transform="translate(-349.000000, -207.000000)">
      <g id="3_inactive" transform="translate(349.000000, 207.000000)">
        <path
          d="M23,1 C10.8706914,1 1,10.8706914 1,23 C1,35.1293085 10.8706915,45 23,45 C35.1293084,45 45,35.1293084 45,23 C45,10.8706915 35.1293085,1 23,1 Z"
          id="circle" stroke="#FFFFFF" stroke-width="2" opacity="0.35" fill-rule="nonzero"></path>
        <path
          d="M27.5125,16.55 L23.7125,21.675 C26.3875,22.175 28.2625,24.05 28.2625,26.825 C28.2625,28.525 27.6875,29.875 26.5125,30.85 C25.3375,31.825 23.9375,32.325 22.2625,32.325 C19.5875,32.325 17.3875,31.075 16.5125,28.775 L18.4625,27.625 C18.9875,29.25 20.2375,30.05 22.2625,30.05 C24.4375,30.05 25.9375,28.85 25.9375,26.825 C25.9375,24.8 24.4375,23.575 22.2625,23.575 L21.6625,23.575 L20.7375,22.15 L24.7875,16.675 L17.0125,16.675 L17.0125,14.5 L27.5125,14.5 L27.5125,16.55 Z"
          id="3" fill-opacity="0.35" fill="#FFFFFF"></path>
      </g>
    </g>
  </g>
</svg>
