<?xml version="1.0" encoding="UTF-8"?>
<svg width="46px" height="46px" viewBox="0 0 46 46" version="1.1" xmlns="http://www.w3.org/2000/svg"
>
  <!-- Generator: sketchtool 51.3 (57544) - http://www.bohemiancoding.com/sketch -->
  <title>725C6D14-D69A-4B68-941C-5E9D1F7F3B33</title>
  <desc>Created with sketchtool.</desc>
  <defs></defs>
  <g id="Page-3" stroke="none" stroke-width="1" fill="none" fill-rule="evenodd">
    <g id="Steps" transform="translate(-251.000000, -207.000000)">
      <g id="2_inactive" transform="translate(251.000000, 207.000000)">
        <path
          d="M23,1 C10.8706914,1 1,10.8706914 1,23 C1,35.1293085 10.8706915,45 23,45 C35.1293084,45 45,35.1293084 45,23 C45,10.8706915 35.1293085,1 23,1 Z"
          id="circle" stroke="#FFFFFF" stroke-width="2" opacity="0.35" fill-rule="nonzero"></path>
        <path
          d="M28.1125,32 L16.8125,32 L16.8125,30.1 L22.9875,23.8 C24.6375,22.15 25.4625,20.725 25.4625,19.55 C25.4625,17.575 24.0875,16.425 22.3625,16.425 C20.7125,16.425 19.5125,17.2 18.7625,18.775 L16.8125,17.625 C17.9125,15.35 19.9625,14.175 22.3375,14.175 C23.8125,14.175 25.0875,14.65 26.1625,15.625 C27.2375,16.6 27.7875,17.9 27.7875,19.525 C27.7875,21.3 26.7375,23.225 24.6625,25.3 L20.1875,29.75 L28.1125,29.75 L28.1125,32 Z"
          id="2" fill-opacity="0.35" fill="#FFFFFF"></path>
      </g>
    </g>
  </g>
</svg>
