<?xml version="1.0" encoding="UTF-8"?>
<svg width="17px" height="17px" viewBox="0 0 17 17" version="1.1" xmlns="http://www.w3.org/2000/svg" xmlns:xlink="http://www.w3.org/1999/xlink">
    <title>left</title>
    <g id="Popups-+-Host" stroke="none" stroke-width="1" fill="none" fill-rule="evenodd">
        <g id="Polygon-Unbond-3" transform="translate(-462.000000, -106.000000)" fill="#FFFFFF" fill-rule="nonzero">
            <g id="Group-Copy" transform="translate(445.000000, 89.000000)">
                <path d="M23.4689501,17.713017 C22.8069414,18.4988073 22.8458826,19.6742493 23.5857661,20.4141896 L26.669,23.499 L19,23.5 C17.8954314,23.5 17,24.3954191 17,25.5 L17.0054857,25.6492638 C17.081835,26.6841326 17.9456391,27.5 19,27.5 L26.67,27.499 L23.5857342,30.5858522 C22.8047689,31.3668175 22.8047689,32.6331825 23.5857932,33.4142068 C24.3668175,34.1952311 25.6331825,34.1952311 26.4142068,33.4142068 L32.2071068,27.6213068 C33.3786311,26.4497825 33.3786311,24.5502175 32.2071068,23.3786932 L26.4142249,17.5858013 C25.6331965,16.8047329 24.3668035,16.8047329 23.5857751,17.5858013 L23.4689501,17.713017 Z" id="left" transform="translate(25.042875, 25.499987) scale(-1, 1) translate(-25.042875, -25.499987) "></path>
            </g>
        </g>
    </g>
</svg>