<?xml version="1.0" encoding="UTF-8"?>
<svg width="18px" height="18px" viewBox="0 0 18 18" version="1.1" xmlns="http://www.w3.org/2000/svg"
>
  <!-- Generator: sketchtool 47 (45396) - http://www.bohemiancoding.com/sketch -->
  <title>D722B876-5DB4-46B2-B378-875666CFA7CA</title>
  <desc>Created with sketchtool.</desc>
  <defs></defs>
  <g id="Page-3" stroke="none" stroke-width="1" fill="none" fill-rule="evenodd">
    <g id="Main" transform="translate(-1012.000000, -284.000000)">
      <g id="Group-2" transform="translate(100.000000, 260.000000)">
        <g id="Group-4">
          <g id="Button" transform="translate(831.000000, 24.000000)">
            <g id="alert" transform="translate(81.000000, 0.000000)">
              <path
                d="M9,3.49942297e-13 C13.9794038,3.49942297e-13 18,4.020597 18,9 C18,13.9794038 13.9794038,18 9,18 C4.020597,18 -5.59552404e-13,13.9794038 -5.59552404e-13,9 C-5.59552404e-13,4.020597 4.020597,3.49942297e-13 9,3.49942297e-13 Z"
                id="Shape" fill="#D445A4" fill-rule="nonzero"></path>
              <path
                d="M8.23076923,4.38461538 L9.76923077,4.38461538 L9.76923077,10.5384615 L8.23076923,10.5384615 L8.23076923,4.38461538 Z M8.23076923,12.0769231 L9.76923077,12.0769231 L9.76923077,13.6153846 L8.23076923,13.6153846 L8.23076923,12.0769231 Z"
                id="Combined-Shape" fill="#FFFFFF"></path>
            </g>
          </g>
        </g>
      </g>
    </g>
  </g>
</svg>
