<?xml version="1.0" encoding="UTF-8"?>
<svg width="10px" height="5px" viewBox="0 0 10 5" version="1.1" xmlns="http://www.w3.org/2000/svg" xmlns:xlink="http://www.w3.org/1999/xlink">
    <!-- Generator: sketchtool 53.2 (72643) - https://sketchapp.com -->
    <title>3B61BA94-D304-4C9F-8829-9A803208A70E</title>
    <desc>Created with sketchtool.</desc>
    <g id="Page-1" stroke="none" stroke-width="1" fill="none" fill-rule="evenodd">
        <g id="Concept" transform="translate(-1570.000000, -7964.000000)" fill="#0f1e3d" fill-rule="nonzero">
            <g id="Group-30" transform="translate(0.000000, 7663.000000)">
                <g id="Footer-#2" transform="translate(469.000000, 57.000000)">
                    <g id="Input-1" transform="translate(1038.000000, 236.000000)">
                        <g id="Input">
                            <g id="State" transform="translate(63.000000, 8.000000)">
                                <path d="M9.44413318,0.164906328 C9.33288069,0.0549383729 9.20100309,0 9.0486235,0 L1.17373894,0 C1.02129779,0 0.889512539,0.0549383729 0.778167699,0.164906328 C0.66682286,0.274995896 0.611196615,0.405151499 0.611196615,0.555616362 C0.611196615,0.706050822 0.66682286,0.836206425 0.778167699,0.946204783 L4.71562537,4.83497206 C4.82709335,4.94494001 4.9588786,5 5.11119662,5 C5.26351463,5 5.39542302,4.94494001 5.50667551,4.83497206 L9.44413318,0.94617438 C9.55535488,0.836206425 9.61119662,0.706050822 9.61119662,0.555585959 C9.61119662,0.405151499 9.55535488,0.274995896 9.44413318,0.164906328 Z" id="arrow"></path>
                            </g>
                        </g>
                    </g>
                </g>
            </g>
        </g>
    </g>
</svg>