<?xml version="1.0" encoding="UTF-8"?>
<svg width="9px" height="5px" viewBox="0 0 9 5" version="1.1" xmlns="http://www.w3.org/2000/svg"
>
  <!-- Generator: sketchtool 44.1 (41455) - http://www.bohemiancoding.com/sketch -->
  <title>DF945D13-43C4-4F16-9FF5-6F6044A47026</title>
  <desc>Created with sketchtool.</desc>
  <defs></defs>
  <g id="Page-3" stroke="none" stroke-width="1" fill="none" fill-rule="evenodd" transform="rotate(180)">
    <g id="AllNodes-Stylesheet" transform="translate(-648.000000, -830.000000)" fill-rule="nonzero" fill="#FFFFFF">
      <g id="02---Typography" transform="translate(105.000000, 497.000000)">
        <g id="Input-2" transform="translate(311.000000, 282.000000)">
          <g id="Input" transform="translate(1.000000, 3.000000)">
            <g id="State" transform="translate(0.000000, 22.000000)">
              <path
                d="M230.832937,21.1649063 C230.721684,21.0549384 230.589806,21 230.437427,21 L222.562542,21 C222.410101,21 222.278316,21.0549384 222.166971,21.1649063 C222.055626,21.2749959 222,21.4051515 222,21.5556164 C222,21.7060508 222.055626,21.8362064 222.166971,21.9462048 L226.104429,25.8349721 C226.215897,25.94494 226.347682,26 226.5,26 C226.652318,26 226.784226,25.94494 226.895479,25.8349721 L230.832937,21.9461744 C230.944158,21.8362064 231,21.7060508 231,21.555586 C231,21.4051515 230.944158,21.2749959 230.832937,21.1649063 Z"
                id="arrow"></path>
            </g>
          </g>
        </g>
      </g>
    </g>
  </g>
</svg>
