<?xml version="1.0" encoding="UTF-8"?>
<svg width="340px" height="55px" viewBox="0 0 340 55" version="1.1" xmlns="http://www.w3.org/2000/svg" xmlns:xlink="http://www.w3.org/1999/xlink">
    <title>hackernoon 2</title>
    <g id="Newsroom" stroke="none" stroke-width="1" fill="none" fill-rule="evenodd">
        <g id="Newsroom-Copy-3" transform="translate(-823.000000, -4523.000000)" fill-rule="nonzero">
            <g id="hackernoon" transform="translate(823.000000, 4523.000000)">
                <g id="#111111ff" fill="#FFFFFF">
                    <path d="M8.54618544,0 L38.482662,0 C38.482662,4.2515 38.482662,8.5085 38.4771448,12.76 C39.8564517,12.7655 41.2357586,12.771 42.6150654,12.771 C42.6260999,15.6145 42.6205827,18.458 42.6095482,21.296 C44.010924,21.307 45.417817,21.307 46.8191928,21.296 C46.8798823,22.7425 46.9129857,24.1945 46.9129857,25.6465 C48.3198787,25.6465 49.7322889,25.641 51.1446992,25.641 C51.1667681,27.0875 51.1833198,28.5395 51.1998715,29.9915 C49.7653923,29.997 48.3364304,30.0025 46.9074685,30.008 C46.896434,31.4545 46.8909168,32.901 46.8743651,34.3475 C45.4509204,34.3475 44.0219585,34.3475 42.5985138,34.3585 C42.6371343,37.158 42.5874793,39.963 42.6592033,42.7625 C41.2854136,42.9935 39.8840378,43.021 38.4936965,42.9715 C38.4661103,46.981 38.4881792,50.9905 38.482662,55 L8.55170267,55 C8.54618544,50.963 8.55170267,46.926 8.54618544,42.889 C7.17239579,42.8175 5.79308891,42.801 4.41929925,42.8175 C4.4082648,39.996 4.41929925,37.1745 4.41378202,34.353 C2.94068227,34.3475 1.47309975,34.342 0,34.3255 L0,21.3345 C1.48413421,21.3125 2.96826841,21.3015 4.45240262,21.3015 C4.38619589,25.652 4.4082648,30.0025 4.43585093,34.353 C5.81515782,34.3475 7.18894747,34.3475 8.56825435,34.3585 C8.54618544,37.1745 8.54618544,39.996 8.5572199,42.812 C11.3930748,42.8285 14.2234126,42.8175 17.0592675,42.8175 C17.1034053,44.2915 17.1144398,45.76 17.1089226,47.2285 C21.3792567,47.2285 25.655108,47.234 29.9309593,47.2285 C29.9199249,45.76 29.9309593,44.286 29.9806144,42.8175 C32.8219866,42.6855 35.6633587,43.098 38.4992137,42.779 C38.4716276,39.9685 38.4881792,37.1635 38.4771448,34.353 C39.8564517,34.3475 41.2302413,34.3475 42.6095482,34.342 C42.6205827,29.997 42.6426516,25.6575 42.5985138,21.3125 C41.2247241,21.307 39.8564517,21.307 38.482662,21.3015 C38.482662,18.4635 38.4881792,15.62 38.482662,12.782 C35.6247382,12.749 32.7668143,12.7765 29.9033732,12.7545 C29.9254421,11.3685 29.9309593,9.977 29.9309593,8.5855 C28.4633768,8.5855 27.0013115,8.5855 25.5392462,8.5745 C25.4895912,15.719 25.5226945,22.858 25.5226945,30.0025 C24.1875255,30.0025 22.8523564,30.008 21.5171874,30.0025 C21.5006357,22.8635 21.555808,15.719 21.484084,8.5745 C20.0330532,8.5855 18.5875395,8.5855 17.1365087,8.5745 C17.1089226,9.9715 17.1034053,11.3685 17.1034053,12.7655 C14.2565159,12.771 11.4041093,12.7545 8.5572199,12.7765 C8.54618544,15.62 8.54618544,18.458 8.56273713,21.296 C7.1944647,21.307 5.82067504,21.307 4.45240262,21.3015 C4.38067866,18.4525 4.41929925,15.609 4.41378202,12.7655 C5.79860613,12.7655 7.18343024,12.7655 8.56825435,12.76 C8.53515099,8.5085 8.56273713,4.2515 8.54618544,0 Z" id="Path"></path>
                    <path d="M61.6550176,15.5485 C63.2660481,15.5375 64.8770785,15.5375 66.4936262,15.554 C66.4770745,18.7275 66.4991434,21.901 66.46604,25.0745 C71.1612007,25.1075 75.8508441,25.08 80.5460047,25.091 C80.5625564,21.9065 80.5404875,18.7275 80.5570392,15.543 C82.1680696,15.5375 83.7791,15.543 85.3901305,15.554 C85.3680616,23.518 85.3680616,31.482 85.3901305,39.446 C83.7791,39.457 82.1680696,39.4625 80.5570392,39.457 C80.5404875,36.3055 80.5570392,33.154 80.5460047,30.0025 C75.8508441,30.0025 71.1612007,29.9915 66.46604,30.0135 C66.4991434,33.1595 66.4770745,36.3055 66.488109,39.4515 C64.8770785,39.457 63.2660481,39.457 61.6550176,39.4515 C61.6550176,31.482 61.6550176,23.518 61.6550176,15.5485 Z" id="Path"></path>
                    <path d="M89.936326,15.543 C97.842513,15.543 105.743183,15.543 113.64937,15.543 C113.654887,23.5125 113.660404,31.4875 113.64937,39.457 C112.038339,39.4625 110.427309,39.457 108.816279,39.446 C108.838347,36.3 108.816279,33.154 108.838347,30.008 C104.143187,29.997 99.442509,29.997 94.7473484,30.008 C94.7639,33.154 94.7473484,36.3 94.7694173,39.446 C93.1583868,39.457 91.5473564,39.4625 89.936326,39.457 C89.9252915,31.4875 89.9252915,23.5125 89.936326,15.543 M94.7583828,20.493 C94.7528656,22.022 94.7528656,23.551 94.7528656,25.08 C99.4480262,25.0965 104.13767,25.0965 108.83283,25.08 C108.83283,23.5455 108.827313,22.0165 108.827313,20.4875 C104.13767,20.493 99.4480262,20.482 94.7583828,20.493 Z" id="Shape"></path>
                    <path d="M118.195565,15.554 C126.101752,15.532 134.013457,15.5485 141.925161,15.5485 C141.941713,17.193 141.936195,18.8375 141.914127,20.4875 C135.624487,20.493 129.329331,20.4875 123.039691,20.4875 C123.028657,25.1625 123.028657,29.8375 123.039691,34.5125 C129.329331,34.5125 135.624487,34.507 141.914127,34.5125 C141.936195,36.1625 141.936195,37.807 141.930678,39.4515 C134.018974,39.4515 126.10727,39.468 118.195565,39.446 C118.217634,31.482 118.217634,23.518 118.195565,15.554 Z" id="Path"></path>
                    <path d="M146.465839,15.5595 C148.082387,15.543 149.693417,15.5375 151.309965,15.5485 C151.309965,18.722 151.326517,21.8955 151.287896,25.0745 C154.432716,25.1075 157.577535,25.08 160.722355,25.091 C160.667183,23.4575 160.656148,21.8185 160.760976,20.185 C162.300282,20.207 163.850623,20.207 165.395447,20.1905 C165.373378,18.645 165.373378,17.094 165.384412,15.5485 C166.989926,15.5375 168.606473,15.5375 170.217504,15.554 C170.217504,17.1985 170.206469,18.843 170.1844,20.4875 C168.606473,20.4875 167.028546,20.493 165.450619,20.4875 C165.516826,22.0495 165.533378,23.617 165.516826,25.1845 C164.01614,25.19 162.515454,25.1185 161.025803,25.2175 C160.57339,26.708 160.920975,28.3635 160.854769,29.92 C162.40511,29.909 163.95545,29.909 165.505791,29.909 C165.52786,31.4435 165.522343,32.978 165.472688,34.5125 C167.039581,34.507 168.611991,34.5125 170.1844,34.5125 C170.211987,36.157 170.217504,37.8015 170.206469,39.4515 C168.600956,39.457 166.989926,39.4625 165.384412,39.4515 C165.373378,37.906 165.378895,36.355 165.38993,34.8095 C163.845106,34.793 162.300282,34.7875 160.755459,34.815 C160.6727,33.209 160.667183,31.6085 160.689252,30.0025 C157.549949,30.008 154.410647,29.9805 151.276862,30.0245 C151.337551,33.165 151.304448,36.311 151.309965,39.4515 C149.693417,39.4625 148.082387,39.4625 146.471356,39.446 C146.482391,31.482 146.493425,23.518 146.465839,15.5595 Z" id="Path"></path>
                    <path d="M174.758182,15.5485 C182.669886,15.543 190.581591,15.532 198.493295,15.554 C198.493295,17.1985 198.48226,18.843 198.454674,20.4875 C192.209173,20.493 185.963671,20.482 179.71817,20.4985 C179.71817,22.022 179.71817,23.5455 179.71817,25.0745 C182.835403,25.102 185.958154,25.0855 189.075387,25.08 C189.102974,26.719 189.108491,28.3525 189.13056,29.986 C185.991257,30.0245 182.851955,29.986 179.712652,30.008 C179.71817,31.5095 179.723687,33.011 179.729204,34.507 C185.969188,34.5125 192.209173,34.5125 198.454674,34.507 C198.48226,36.1515 198.493295,37.8015 198.493295,39.446 C190.581591,39.468 182.669886,39.457 174.758182,39.4515 C174.758182,31.482 174.752665,23.518 174.758182,15.5485 Z" id="Path"></path>
                    <path d="M203.160869,15.554 C211.022919,15.532 218.890485,15.554 226.752534,15.543 C226.758051,20.361 226.763372,25.1845 226.752534,30.0025 C225.180124,29.997 223.618749,30.0025 222.051856,30.008 C222.068408,31.5095 222.068408,33.011 222.051856,34.507 C223.602197,34.5125 225.158055,34.5125 226.713914,34.5015 C226.763372,36.1515 226.774603,37.807 226.752534,39.457 C225.135987,39.4625 223.524956,39.457 221.919443,39.446 C221.92496,37.895 221.930477,36.3495 221.947029,34.804 C220.385654,34.7985 218.824278,34.793 217.262903,34.7985 C217.2298,33.2035 217.2298,31.614 217.279455,30.0245 C214.18429,29.9805 211.094642,30.008 208.004995,30.0025 C207.988443,33.154 208.010512,36.3055 207.993961,39.457 C206.38293,39.4625 204.7719,39.457 203.160869,39.446 C203.182938,31.482 203.182938,23.518 203.160869,15.554 M208.004995,20.4875 C207.993961,22.022 207.993961,23.5565 208.004995,25.091 C212.650501,25.08 217.290489,25.1075 221.935995,25.0745 C221.930477,23.551 221.930477,22.022 221.930477,20.493 C217.290489,20.482 212.644983,20.493 208.004995,20.4875 Z" id="Shape"></path>
                    <path d="M231.43666,15.5595 C239.348365,15.532 247.265586,15.5375 255.182808,15.5595 C255.166256,23.518 255.166256,31.482 255.182808,39.4405 C253.516605,39.4625 251.855919,39.4625 250.195234,39.4405 C250.22282,33.1265 250.189717,26.8125 250.211786,20.4985 C245.560763,20.482 240.90974,20.482 236.258717,20.4985 C236.291821,26.818 236.275269,33.1375 236.269752,39.4515 C234.658721,39.4625 233.047691,39.4625 231.43666,39.446 C231.453212,31.482 231.453212,23.518 231.43666,15.5595 Z" id="Path"></path>
                    <path d="M259.723486,15.5485 C267.63519,15.543 275.546894,15.532 283.458599,15.554 C283.43653,23.518 283.43653,31.482 283.458599,39.446 C275.546894,39.468 267.63519,39.457 259.723486,39.4515 C259.723486,31.482 259.723486,23.518 259.723486,15.5485 M264.55106,20.493 C264.55106,25.1625 264.556577,29.8375 264.545543,34.507 C269.235186,34.518 273.92483,34.507 278.614473,34.5125 C278.61999,29.8375 278.61999,25.1625 278.614473,20.4875 C273.92483,20.493 269.235186,20.482 264.55106,20.493 Z" id="Shape"></path>
                    <path d="M288.004794,15.543 C295.905464,15.543 303.811651,15.543 311.717838,15.543 C311.723355,23.5125 311.728873,31.4875 311.717838,39.457 C303.811651,39.457 295.910981,39.457 288.004794,39.457 C287.99376,31.4875 287.99376,23.5125 288.004794,15.543 M292.826851,20.493 C292.826851,25.1625 292.826851,29.8375 292.826851,34.507 C297.516495,34.518 302.206138,34.507 306.895781,34.5125 C306.890264,29.8375 306.906816,25.1625 306.890264,20.493 C302.200621,20.4875 297.510977,20.482 292.826851,20.493 Z" id="Shape"></path>
                    <path d="M316.264034,15.554 C324.170221,15.532 332.081925,15.5485 339.993629,15.5485 C340.004664,23.5125 339.999146,31.482 339.993629,39.4515 C338.382599,39.457 336.771568,39.457 335.166055,39.4515 C335.17709,33.132 335.160538,26.818 335.17709,20.4985 C330.487446,20.4765 325.797803,20.4985 321.108159,20.4875 C321.091608,26.8125 321.113677,33.132 321.097125,39.457 C319.486095,39.4625 317.869547,39.457 316.264034,39.446 C316.286103,31.482 316.286103,23.518 316.264034,15.554 Z" id="Path"></path>
                </g>
                <g id="#ffffffff" transform="translate(4.408924, 8.574500)">
                    <path d="M12.7275844,0 C14.1786153,0.011 15.6241289,0.011 17.0751597,0 C17.1468837,7.1445 17.0917114,14.289 17.1082631,21.428 C18.4434321,21.4335 19.7786012,21.428 21.1137703,21.428 C21.1137703,14.2835 21.0806669,7.1445 21.130322,0 C22.5923872,0.011 24.0544525,0.011 25.5220351,0.011 C25.5220351,1.4025 25.5165178,2.794 25.4944489,4.18 C28.35789,4.202 31.2158139,4.1745 34.0737377,4.2075 C34.079255,7.0455 34.0737377,9.889 34.0737377,12.727 C35.4475274,12.7325 36.8157998,12.7325 38.1895895,12.738 C38.2337273,17.083 38.2116584,21.4225 38.2006239,25.7675 C36.821317,25.773 35.4475274,25.773 34.0682205,25.7785 C34.079255,28.589 34.0627033,31.394 34.0902894,34.2045 C31.2544345,34.5235 28.4130623,34.111 25.5716901,34.243 C25.5220351,35.7115 25.5110006,37.1855 25.5220351,38.654 C21.2461837,38.6595 16.9703324,38.654 12.6999983,38.654 C12.7055155,37.1855 12.6944811,35.717 12.6503432,34.243 C9.81448829,34.243 6.98415057,34.254 4.14829562,34.2375 C4.13726116,31.4215 4.13726116,28.6 4.15933007,25.784 C2.78002319,25.773 1.40623353,25.773 0.0269266519,25.7785 C-0.00065948576,21.428 -0.0227283959,17.0775 0.0434783345,12.727 C1.41175076,12.7325 2.78554042,12.7325 4.15381284,12.7215 C4.13726116,9.8835 4.13726116,7.0455 4.14829562,4.202 C6.99518502,4.18 9.84759165,4.1965 12.6944811,4.191 C12.6944811,2.794 12.6999983,1.397 12.7275844,0 Z" id="Path"></path>
                </g>
            </g>
        </g>
    </g>
</svg>