<svg xmlns="http://www.w3.org/2000/svg" xmlns:xlink="http://www.w3.org/1999/xlink" width="2048" height="1120" viewBox="0 0 2048 1120">
    <defs>
        <path id="prefix__a" d="M2048 0L2047.994 1120 0 1120 0.003 0z"/>
    </defs>
    <g fill="none" fill-rule="evenodd">
        <mask id="prefix__b" fill="#fff">
            <use xlink:href="#prefix__a"/>
        </mask>
        <use fill="#190B28" xlink:href="#prefix__a"/>
        <g fill="#A16DFE" fill-rule="nonzero" mask="url(#prefix__b)">
            <g>
                <path d="M1250 251c0 13.807 11.193 25 25 25s25-11.193 25-25-11.193-25-25-25-25 11.193-25 25zm-385 25c0 17.95 14.55 32.5 32.5 32.5S930 293.95 930 276s-14.55-32.5-32.5-32.5S865 258.05 865 276zM537.5 488.5c0 13.807 11.193 25 25 25s25-11.193 25-25-11.193-25-25-25-25 11.193-25 25zm1215 162.5c0 13.807 11.193 25 25 25s25-11.193 25-25-11.193-25-25-25-25 11.193-25 25zm-1605 195c0 13.807 11.193 25 25 25s25-11.193 25-25-11.193-25-25-25-25 11.193-25 25zm920 22.5c0 13.807 11.193 25 25 25s25-11.193 25-25-11.193-25-25-25-25 11.193-25 25zM435 971c0 13.807 11.193 25 25 25s25-11.193 25-25-11.193-25-25-25-25 11.193-25 25zm737.5 122.5c0 13.807 11.193 25 25 25s25-11.193 25-25-11.193-25-25-25-25 11.193-25 25zM1430 1116c0 15.188 12.312 27.5 27.5 27.5s27.5-12.312 27.5-27.5-12.312-27.5-27.5-27.5-27.5 12.312-27.5 27.5zm-590 170c13.807 0 25-11.193 25-25s-11.193-25-25-25-25 11.193-25 25 11.193 25 25 25zm480 70c0 13.807 11.193 25 25 25s25-11.193 25-25-11.193-25-25-25-25 11.193-25 25z" opacity=".15" transform="translate(84 -61)"/>
                <path d="M1512.5 140c0 6.904 5.596 12.5 12.5 12.5s12.5-5.596 12.5-12.5-5.596-12.5-12.5-12.5-12.5 5.596-12.5 12.5zM260 182.5c0 6.904 5.596 12.5 12.5 12.5s12.5-5.596 12.5-12.5-5.596-12.5-12.5-12.5-12.5 5.596-12.5 12.5zm900 87.5c0 6.904 5.596 12.5 12.5 12.5s12.5-5.596 12.5-12.5-5.596-12.5-12.5-12.5-12.5 5.596-12.5 12.5zM5 297.5c0 6.904 5.596 12.5 12.5 12.5S30 304.404 30 297.5 24.404 285 17.5 285 5 290.596 5 297.5zM197.5 395c0 6.904 5.596 12.5 12.5 12.5s12.5-5.596 12.5-12.5-5.596-12.5-12.5-12.5-12.5 5.596-12.5 12.5zm205 230c6.904 0 12.5-5.596 12.5-12.5s-5.596-12.5-12.5-12.5-12.5 5.596-12.5 12.5 5.596 12.5 12.5 12.5zm745 55c0 6.904 5.596 12.5 12.5 12.5s12.5-5.596 12.5-12.5-5.596-12.5-12.5-12.5-12.5 5.596-12.5 12.5zm480 82.5c0 6.904 5.596 12.5 12.5 12.5s12.5-5.596 12.5-12.5-5.596-12.5-12.5-12.5-12.5 5.596-12.5 12.5zm-235 77.5c0 6.904 5.596 12.5 12.5 12.5s12.5-5.596 12.5-12.5-5.596-12.5-12.5-12.5-12.5 5.596-12.5 12.5zm-445 112.5c0 8.284 6.716 15 15 15 8.284 0 15-6.716 15-15 0-8.284-6.716-15-15-15-8.284 0-15 6.716-15 15zM1715 965c0 6.904 5.596 12.5 12.5 12.5s12.5-5.596 12.5-12.5-5.596-12.5-12.5-12.5-12.5 5.596-12.5 12.5zm-1002.5 67.5c8.284 0 15-6.716 15-15 0-8.284-6.716-15-15-15-8.284 0-15 6.716-15 15 0 8.284 6.716 15 15 15zM15 1050c8.284 0 15-6.716 15-15 0-8.284-6.716-15-15-15-8.284 0-15 6.716-15 15 0 8.284 6.716 15 15 15zm1580 0c0 6.904 5.596 12.5 12.5 12.5s12.5-5.596 12.5-12.5-5.596-12.5-12.5-12.5-12.5 5.596-12.5 12.5zm-435 182.5c0 8.284 6.716 15 15 15 8.284 0 15-6.716 15-15 0-8.284-6.716-15-15-15-8.284 0-15 6.716-15 15z" opacity=".1" transform="translate(84 -61)"/>
                <path d="M1655 36.25c0 20.02 16.23 36.25 36.25 36.25s36.25-16.23 36.25-36.25S1711.27 0 1691.25 0 1655 16.23 1655 36.25zM832.5 185c13.807 0 25-11.193 25-25s-11.193-25-25-25-25 11.193-25 25 11.193 25 25 25zm545 188.75c0 21.401 17.349 38.75 38.75 38.75s38.75-17.349 38.75-38.75-17.349-38.75-38.75-38.75-38.75 17.349-38.75 38.75zM772.5 560c0 40.04 32.46 72.5 72.5 72.5s72.5-32.46 72.5-72.5-32.46-72.5-72.5-72.5-72.5 32.46-72.5 72.5zm-555 302.5c0 23.472 19.028 42.5 42.5 42.5s42.5-19.028 42.5-42.5S283.472 820 260 820s-42.5 19.028-42.5 42.5zm1585 91.25c0 21.401 17.349 38.75 38.75 38.75s38.75-17.349 38.75-38.75-17.349-38.75-38.75-38.75-38.75 17.349-38.75 38.75zM187.5 1160c16.569 0 30-13.431 30-30 0-16.569-13.431-30-30-30-16.569 0-30 13.431-30 30 0 16.569 13.431 30 30 30zm800-5c0 15.188 12.312 27.5 27.5 27.5s27.5-12.312 27.5-27.5-12.312-27.5-27.5-27.5-27.5 12.312-27.5 27.5zm595 52.5c0 27.614 22.386 50 50 50s50-22.386 50-50-22.386-50-50-50-50 22.386-50 50zm-1020-7.5c0 23.472 19.028 42.5 42.5 42.5s42.5-19.028 42.5-42.5-19.028-42.5-42.5-42.5-42.5 19.028-42.5 42.5z" opacity=".05" transform="translate(84 -61)"/>
            </g>
        </g>
    </g>
</svg>
