<?xml version="1.0" encoding="UTF-8"?>
<svg width="22px" height="22px" viewBox="0 0 22 22" version="1.1" xmlns="http://www.w3.org/2000/svg" xmlns:xlink="http://www.w3.org/1999/xlink">
    <!-- Generator: sketchtool 51.3 (57544) - http://www.bohemiancoding.com/sketch -->
    <title>3BA4E0A6-A900-4CB2-856F-C61F3BD41866</title>
    <desc>Created with sketchtool.</desc>
    <defs></defs>
    <g id="Page-3" stroke="none" stroke-width="1" fill="none" fill-rule="evenodd">
        <g id="Check-Result-Monitor" transform="translate(-261.000000, -821.000000)" fill="#354052" fill-rule="nonzero">
            <g id="Group-6-Copy-2" transform="translate(210.000000, 416.000000)">
                <g id="Group-4" transform="translate(0.000000, 365.000000)">
                    <g id="chart-icons---free-download--png-and-svg-(15)" transform="translate(51.000000, 40.000000)">
                        <path d="M0,0 L0,22 L22,22 L22,0 L0,0 Z M2,2 L20,2 L20,20 L2,20 L2,2 Z M10,5 L10,14 C10,14.566406 9.566406,15 9,15 L8,15 C7.433594,15 7,14.566406 7,14 L7,11 L5,11 L5,14 C5,14.566406 4.566406,15 4,15 L3,15 L3,17 L4,17 C4.765625,17 5.46875,16.699219 6,16.21875 C6.53125,16.699219 7.234375,17 8,17 L9,17 C9.765625,17 10.46875,16.699219 11,16.21875 C11.53125,16.699219 12.234375,17 13,17 L14,17 C14.765625,17 15.46875,16.699219 16,16.21875 C16.53125,16.699219 17.234375,17 18,17 L19,17 L19,15 L18,15 C17.433594,15 17,14.566406 17,14 L17,11 L15,11 L15,14 C15,14.566406 14.566406,15 14,15 L13,15 C12.433594,15 12,14.566406 12,14 L12,5 L10,5 Z" id="ьщтшещк"></path>
                    </g>
                </g>
            </g>
        </g>
    </g>
</svg>