<?xml version="1.0" encoding="UTF-8"?>
<svg width="1034px" height="786px" viewBox="0 0 1034 786" version="1.1" xmlns="http://www.w3.org/2000/svg" xmlns:xlink="http://www.w3.org/1999/xlink">
    <!-- Generator: Sketch 59 (86127) - https://sketch.com -->
    <title>snow_tree</title>
    <desc>Created with Sketch.</desc>
    <defs>
        <linearGradient x1="0%" y1="100%" x2="100%" y2="0%" id="linearGradient-1">
            <stop stop-color="#FF8E64" offset="0%"></stop>
            <stop stop-color="#FFE641" offset="100%"></stop>
        </linearGradient>
        <circle id="path-2" cx="233" cy="230" r="25"></circle>
        <filter x="-110.0%" y="-70.0%" width="320.0%" height="320.0%" filterUnits="objectBoundingBox" id="filter-3">
            <feOffset dx="0" dy="20" in="SourceAlpha" result="shadowOffsetOuter1"></feOffset>
            <feGaussianBlur stdDeviation="15" in="shadowOffsetOuter1" result="shadowBlurOuter1"></feGaussianBlur>
            <feColorMatrix values="0 0 0 0 0   0 0 0 0 0   0 0 0 0 0  0 0 0 0.1 0" type="matrix" in="shadowBlurOuter1"></feColorMatrix>
        </filter>
        <filter x="-51.1%" y="-46.8%" width="202.3%" height="193.6%" filterUnits="objectBoundingBox" id="filter-4">
            <feOffset dx="0" dy="50" in="SourceAlpha" result="shadowOffsetOuter1"></feOffset>
            <feGaussianBlur stdDeviation="40" in="shadowOffsetOuter1" result="shadowBlurOuter1"></feGaussianBlur>
            <feColorMatrix values="0 0 0 0 0.180392157   0 0 0 0 0.749019608   0 0 0 0 0.584313725  0 0 0 0.5 0" type="matrix" in="shadowBlurOuter1" result="shadowMatrixOuter1"></feColorMatrix>
            <feMerge>
                <feMergeNode in="shadowMatrixOuter1"></feMergeNode>
                <feMergeNode in="SourceGraphic"></feMergeNode>
            </feMerge>
        </filter>
        <linearGradient x1="95.8136747%" y1="50%" x2="-4.18632531%" y2="50%" id="linearGradient-5">
            <stop stop-color="#1CB296" offset="0%"></stop>
            <stop stop-color="#50E09F" offset="100%"></stop>
        </linearGradient>
        <linearGradient x1="95.8136747%" y1="50%" x2="-4.18632531%" y2="50%" id="linearGradient-6">
            <stop stop-color="#1AAB90" offset="0%"></stop>
            <stop stop-color="#50E09F" offset="100%"></stop>
        </linearGradient>
        <linearGradient x1="-2.22044605e-14%" y1="50%" x2="98.9600929%" y2="50%" id="linearGradient-7">
            <stop stop-color="#FFFFFF" stop-opacity="0" offset="0%"></stop>
            <stop stop-color="#FFFFFF" stop-opacity="0" offset="99.9472128%"></stop>
        </linearGradient>
        <linearGradient x1="50%" y1="61.8671926%" x2="24.5973094%" y2="38.1328074%" id="linearGradient-8">
            <stop stop-color="#FFFFFF" stop-opacity="0" offset="0%"></stop>
            <stop stop-color="#FFFFFF" stop-opacity="0.3" offset="100%"></stop>
        </linearGradient>
        <linearGradient x1="50%" y1="100%" x2="24.5973094%" y2="0%" id="linearGradient-9">
            <stop stop-color="#FFFFFF" stop-opacity="0" offset="0%"></stop>
            <stop stop-color="#FFFFFF" stop-opacity="0.3" offset="100%"></stop>
        </linearGradient>
        <linearGradient x1="50%" y1="61.8671926%" x2="24.5973094%" y2="38.1328074%" id="linearGradient-10">
            <stop stop-color="#FFFFFF" stop-opacity="0" offset="0%"></stop>
            <stop stop-color="#FFFFFF" stop-opacity="0.3" offset="100%"></stop>
        </linearGradient>
        <linearGradient x1="93.6988963%" y1="90.7069575%" x2="3.84834877%" y2="59.5911128%" id="linearGradient-11">
            <stop stop-color="#84FFB0" stop-opacity="0" offset="0%"></stop>
            <stop stop-color="#84FFB0" stop-opacity="0" offset="32.2186444%"></stop>
            <stop stop-color="#84FFB0" offset="65.6787087%"></stop>
            <stop stop-color="#84FFB0" stop-opacity="0" offset="100%"></stop>
        </linearGradient>
        <circle id="path-12" cx="329" cy="343" r="25"></circle>
        <filter x="-110.0%" y="-70.0%" width="320.0%" height="320.0%" filterUnits="objectBoundingBox" id="filter-13">
            <feOffset dx="0" dy="20" in="SourceAlpha" result="shadowOffsetOuter1"></feOffset>
            <feGaussianBlur stdDeviation="15" in="shadowOffsetOuter1" result="shadowBlurOuter1"></feGaussianBlur>
            <feColorMatrix values="0 0 0 0 0   0 0 0 0 0   0 0 0 0 0  0 0 0 0.1 0" type="matrix" in="shadowBlurOuter1"></feColorMatrix>
        </filter>
        <circle id="path-14" cx="149" cy="323" r="25"></circle>
        <filter x="-110.0%" y="-70.0%" width="320.0%" height="320.0%" filterUnits="objectBoundingBox" id="filter-15">
            <feOffset dx="0" dy="20" in="SourceAlpha" result="shadowOffsetOuter1"></feOffset>
            <feGaussianBlur stdDeviation="15" in="shadowOffsetOuter1" result="shadowBlurOuter1"></feGaussianBlur>
            <feColorMatrix values="0 0 0 0 0   0 0 0 0 0   0 0 0 0 0  0 0 0 0.1 0" type="matrix" in="shadowBlurOuter1"></feColorMatrix>
        </filter>
        <linearGradient x1="31.9738858%" y1="-11.7704029%" x2="31.9738858%" y2="116.223153%" id="linearGradient-16">
            <stop stop-color="#FFFFFF" offset="0%"></stop>
            <stop stop-color="#FFFFFF" stop-opacity="0" offset="100%"></stop>
        </linearGradient>
        <path d="M327.968505,173.101713 L313.980876,179.010262 C308.747861,181.220753 304.285007,179.604205 304.012814,175.399601 C303.904426,173.725306 304.485995,171.807534 305.667487,169.943179 L313.598273,157.428672 C315.448047,154.509791 315.854367,151.531469 314.684818,149.464306 L309.670452,140.601483 C307.79449,137.285746 310.240105,131.840273 315.132886,128.438677 C317.081218,127.084144 319.221469,126.202641 321.222306,125.930635 L334.652949,124.104793 C337.785508,123.678934 341.173699,121.83823 343.713349,119.182544 L354.601929,107.796469 C358.675537,103.53674 364.649863,101.7878 367.945961,103.890102 C369.258485,104.72725 369.999665,106.100223 370.054757,107.796469 L370.424565,119.182544 C370.510819,121.83823 372.198516,123.678934 374.937655,124.104793 L386.681534,125.930635 C391.075124,126.613714 392.321845,130.978283 389.466165,135.679173 C388.329018,137.551092 386.64684,139.281139 384.680052,140.601483 L371.477964,149.464306 C368.398712,151.531469 366.053575,154.509791 365.206807,157.428672 L361.576343,169.943179 C360.218123,174.625074 355.014313,179.071466 349.953307,179.874474 C347.937988,180.194236 346.157165,179.890491 344.886531,179.010262 L336.357384,173.101713 C334.368048,171.723604 331.230976,171.723604 327.968505,173.101713 Z" id="path-17"></path>
        <filter x="-50.6%" y="-36.4%" width="201.1%" height="214.3%" filterUnits="objectBoundingBox" id="filter-18">
            <feOffset dx="0" dy="16" in="SourceAlpha" result="shadowOffsetOuter1"></feOffset>
            <feGaussianBlur stdDeviation="12" in="shadowOffsetOuter1" result="shadowBlurOuter1"></feGaussianBlur>
            <feColorMatrix values="0 0 0 0 0.360784314   0 0 0 0 0.317647059   0 0 0 0 0.882352941  0 0 0 0.3 0" type="matrix" in="shadowBlurOuter1"></feColorMatrix>
        </filter>
        <filter x="-34.5%" y="-18.2%" width="169.0%" height="177.9%" filterUnits="objectBoundingBox" id="filter-19">
            <feGaussianBlur stdDeviation="6" in="SourceAlpha" result="shadowBlurInner1"></feGaussianBlur>
            <feOffset dx="0" dy="0" in="shadowBlurInner1" result="shadowOffsetInner1"></feOffset>
            <feComposite in="shadowOffsetInner1" in2="SourceAlpha" operator="arithmetic" k2="-1" k3="1" result="shadowInnerInner1"></feComposite>
            <feColorMatrix values="0 0 0 0 1   0 0 0 0 1   0 0 0 0 1  0 0 0 0.5 0" type="matrix" in="shadowInnerInner1"></feColorMatrix>
        </filter>
    </defs>
    <g id="Page-1" stroke="none" stroke-width="1" fill="none" fill-rule="evenodd">
        <g id="Main-2020" transform="translate(-722.000000, -62.000000)">
            <g id="Header">
                <g id="header_2020_bg">
                    <g id="snow_tree" transform="translate(722.000000, 62.000000)">
                        <path d="M416.00659,542.583479 C416.169706,538.824961 419.319957,535.894004 423.079485,536.002941 C426.839013,536.111877 429.814354,539.220329 429.759675,542.981989 C429.704996,546.743649 426.640564,549.764263 422.879459,549.763825 C422.746465,549.763825 422.614084,549.759994 422.482316,549.752331 C418.727952,549.534987 415.843474,546.341997 416.00659,542.583479 Z M889.224564,687.394378 C889.38768,683.63586 892.537931,680.704904 896.297459,680.81384 C900.056987,680.922776 903.032328,684.031228 902.977649,687.792888 C902.922971,691.554548 899.858538,694.575162 896.097433,694.574724 C895.964439,694.574724 895.832058,694.570893 895.70029,694.56323 C891.945926,694.345886 889.061448,691.152896 889.224564,687.394378 Z M277.084897,527.522304 C277.185019,525.174671 279.151343,523.342565 281.499579,523.408963 C283.847814,523.475361 285.707525,525.41565 285.674898,527.765192 C285.642271,530.114734 283.729399,532.002609 281.380226,532.003742 C281.298654,532.003742 281.215773,532.001561 281.133328,531.996761 C278.78797,531.862886 276.984776,529.869938 277.084897,527.522304 Z M864.0066,549.58257 C864.169834,545.824353 867.320002,542.893774 871.079227,543.002954 C874.838452,543.112135 877.813315,546.220606 877.758265,549.981964 C877.703216,553.743323 874.63866,556.763359 870.87785,556.762425 C870.746699,556.762425 870.614629,556.758593 870.48164,556.750931 C866.727572,556.533595 863.843366,553.340787 864.0066,549.58257 Z M695.267364,492.885682 C695.430479,489.127164 698.58073,486.196207 702.340258,486.305144 C706.099786,486.41408 709.075128,489.522532 709.020449,493.284192 C708.96577,497.045852 705.901338,500.066466 702.140232,500.066028 C702.007851,500.065108 701.87547,500.06143 701.742629,500.053614 C697.988725,499.83719 695.104248,496.6442 695.267364,492.885682 Z M629.69772,382.4878 C629.860888,378.727741 633.012426,375.795576 636.773495,375.904557 C640.534564,376.013538 643.51112,379.123271 643.456404,382.886473 C643.401689,386.649674 640.335981,389.67151 636.573334,389.671115 C636.440935,389.671503 636.306696,389.667825 636.175216,389.661387 C632.420231,389.442143 629.534551,386.247859 629.69772,382.4878 Z M308.464913,434.583651 C305.302146,434.403083 302.870474,431.71561 303.00535,428.549767 C303.140226,425.383924 305.791658,422.913118 308.958317,423.002342 C312.124975,423.091566 314.633148,425.70775 314.589639,428.876168 C314.546131,432.044585 311.967065,434.590875 308.799152,434.593132 C308.688524,434.593657 308.576718,434.590126 308.464913,434.583651 Z M214.107355,442.456539 C212.309003,442.353868 210.926351,440.825768 211.003042,439.025666 C211.079732,437.225565 212.58734,435.820662 214.387904,435.871395 C216.188469,435.922128 217.614619,437.409693 217.58988,439.211258 C217.565141,441.012823 216.098682,442.460646 214.297403,442.46193 C214.2345,442.462228 214.170927,442.46022 214.107355,442.456539 Z M197.107355,538.586475 C195.309003,538.483804 193.926351,536.955704 194.003042,535.155603 C194.079732,533.355501 195.58734,531.950599 197.387904,532.001332 C199.188469,532.052065 200.614619,533.539629 200.58988,535.341194 C200.565141,537.14276 199.098682,538.590583 197.297403,538.591866 C197.2345,538.592164 197.170927,538.590156 197.107355,538.586475 Z M1030.13569,345.168079 C1028.14062,345.053996 1026.60683,343.358634 1026.692,341.361611 C1026.77717,339.364587 1028.44973,337.806041 1030.44727,337.862324 C1032.44481,337.918607 1034.02701,339.56886 1033.99965,341.567512 C1033.97229,343.566165 1032.34553,345.172474 1030.3472,345.174038 C1030.27719,345.174535 1030.20619,345.172548 1030.13569,345.168079 Z M971.447072,656.307232 C969.451996,656.193149 967.918212,654.497788 968.003382,652.500764 C968.088552,650.503741 969.761111,648.945195 971.758652,649.001478 C973.756193,649.057761 975.338386,650.708013 975.311031,652.706666 C975.283675,654.705318 973.65691,656.311628 971.658577,656.313192 C971.588572,656.313688 971.517573,656.311702 971.447072,656.307232 Z M450.052668,637.687976 C447.293319,637.53019 445.171974,635.185371 445.289771,632.423329 C445.407568,629.661287 447.72085,627.505694 450.483608,627.583538 C453.246366,627.661381 455.434664,629.943812 455.396829,632.708107 C455.358995,635.472402 453.109049,637.694055 450.345196,637.696218 C450.248373,637.696905 450.150177,637.694157 450.052668,637.687976 Z M495.489248,326.872877 C495.652416,323.112818 498.803954,320.180653 502.565023,320.289634 C506.326092,320.398615 509.302648,323.508348 509.247932,327.27155 C509.193217,331.034751 506.127509,334.056587 502.364862,334.05612 C502.233382,334.05612 502.100983,334.052442 501.968123,334.045084 C498.211759,333.82722 495.326079,330.632936 495.489248,326.872877 Z M345.795184,276.131892 C345.871875,274.331791 347.379482,272.926888 349.180047,272.977621 C350.980611,273.028354 352.406761,274.515919 352.382022,276.317484 C352.357283,278.119049 350.890824,279.566872 349.089546,279.568119 C349.024969,279.568789 348.961397,279.566781 348.897824,279.562095 C347.101145,279.460094 345.718494,277.931994 345.795184,276.131892 Z M0.00304188353,279.155603 C0.0797323943,277.355501 1.58733964,275.950599 3.38790443,276.001332 C5.18846922,276.052065 6.61461916,277.539629 6.58987996,279.341194 C6.56514075,281.14276 5.0986819,282.590583 3.29740332,282.59183 C3.23282694,282.592499 3.16925434,282.590491 3.10568173,282.585806 C1.30900264,282.483804 -0.0736486273,280.955704 0.00304188353,279.155603 Z M1008.11757,242.175812 C1008.28072,238.416138 1011.43194,235.484275 1015.19262,235.593245 C1018.95331,235.702215 1021.92956,238.811628 1021.87485,242.574444 C1021.82015,246.33726 1018.75476,249.35879 1014.9925,249.358331 C1014.8598,249.358331 1014.72679,249.354652 1014.59347,249.347295 C1010.83979,249.129446 1007.95441,245.935486 1008.11757,242.175812 Z M962.046363,30.4334853 C962.209518,26.6738116 965.360734,23.7419488 969.121418,23.8509185 C972.882101,23.9598883 975.858354,27.0693009 975.803647,30.8321171 C975.748941,34.5949332 972.683552,37.6164636 968.921291,37.616004 C968.78859,37.616004 968.655582,37.6123254 968.522267,37.6049683 C964.768587,37.3871192 961.883208,34.193159 962.046363,30.4334853 Z M592.31272,236.500557 C592.450243,233.265147 595.159725,230.739817 598.395961,230.830769 C601.632198,230.921721 604.195644,233.595241 604.151329,236.833272 C604.107013,240.071302 601.471361,242.673632 598.233848,242.676014 C598.118887,242.676374 598.003054,242.673325 597.890706,242.666792 C594.660607,242.482221 592.175197,239.735968 592.31272,236.500557 Z M263.721133,240.171984 C260.195013,239.970447 257.484197,236.973979 257.634915,233.444431 C257.785633,229.914884 260.742019,227.160537 264.272477,227.260481 C267.802935,227.360425 270.598846,230.277613 270.549748,233.810038 C270.500649,237.342462 267.62474,240.180776 264.092869,240.182508 C263.973633,240.182508 263.850013,240.179877 263.721133,240.171984 Z M177.054904,274.703675 C175.057418,274.589507 173.521788,272.89206 173.607167,270.892632 C173.692546,268.893205 175.367287,267.332915 177.367231,267.389532 C179.367174,267.446148 180.951009,269.098685 180.923196,271.099742 C180.895382,273.100799 179.26623,274.708655 177.265486,274.709636 C177.197941,274.709636 177.127912,274.708146 177.054904,274.703675 Z M844.966552,218.969988 C845.129655,215.211855 848.279583,212.281201 852.038727,212.390126 C855.79787,212.499051 858.772907,215.607182 858.718237,219.368457 C858.663568,223.129732 855.599454,226.150041 851.838734,226.149644 C851.708809,226.149917 851.577352,226.146239 851.444363,226.138576 C847.687626,225.920787 844.803449,222.728121 844.966552,218.969988 Z M296.36561,145.181545 C293.202786,145.000977 290.771091,142.313417 290.906046,139.14752 C291.041001,135.981622 293.692584,133.51086 296.859295,133.600243 C300.026005,133.689627 302.534071,136.306024 302.490324,139.474496 C302.446576,142.642967 299.867231,145.189087 296.699261,145.190962 C296.587455,145.192924 296.476238,145.189785 296.36561,145.181545 Z M197.107358,6.58647527 C195.308974,6.48380452 193.92631,4.95565515 194.003045,3.15552299 C194.079781,1.35539083 195.587473,-0.0494868019 197.388068,0.00133650213 C199.188663,0.0521598062 200.614751,1.53984587 200.589876,3.34144184 C200.565002,5.14303782 199.098384,6.59076381 197.297072,6.5918301 C197.2335,6.5929457 197.170262,6.59116075 197.107358,6.58647527 Z M97.1073584,73.5864753 C95.3089737,73.4838045 93.9263098,71.9556552 94.0030453,70.155523 C94.0797809,68.3553908 95.5874731,66.9505132 97.3880679,67.0013365 C99.1886627,67.0521598 100.614751,68.5398459 100.589876,70.3414418 C100.565002,72.1430378 99.0983837,73.5907638 97.2970724,73.5918301 C97.2334998,73.5929457 97.1702618,73.5911607 97.1073584,73.5864753 Z M223.910293,73.4305831 C222.111908,73.3279123 220.729244,71.799763 220.80598,69.9996308 C220.882715,68.1994986 222.390407,66.794621 224.191002,66.8454443 C225.991597,66.8962676 227.417686,68.3839537 227.392811,70.1855497 C227.367936,71.9871456 225.901318,73.4348716 224.100007,73.4359379 C224.036434,73.4370535 223.973196,73.4352686 223.910293,73.4305831 Z M956.840508,136.551408 C956.925824,134.553908 958.598957,132.995133 960.596973,133.051695 C962.594989,133.108257 964.177304,134.759191 964.149537,136.75832 C964.12177,138.75745 962.494213,140.363777 960.495397,140.364797 C960.425554,140.366452 960.355214,140.365293 960.284377,140.36132 C958.289315,140.244741 956.755191,138.548909 956.840508,136.551408 Z M403.68956,92.2677796 C403.827083,89.0323689 406.536565,86.5070393 409.772801,86.5979911 C413.009038,86.6889429 415.572485,89.3624637 415.528169,92.600494 C415.483853,95.8385242 412.848201,98.4408541 409.610688,98.4431612 C409.497469,98.4453391 409.383378,98.4418545 409.269288,98.435321 C406.037447,98.2494435 403.552037,95.5031903 403.68956,92.2677796 Z M828.683313,82.6777741 C826.689441,82.5637326 825.156581,80.8694131 825.241648,78.8735915 C825.326715,76.8777699 826.998183,75.320096 828.994524,75.3762134 C830.990864,75.4323309 832.572235,77.0814426 832.545107,79.0788929 C832.517979,81.0763432 830.892407,82.6818787 828.895279,82.6837325 C828.824789,82.6850566 828.753968,82.6834015 828.682816,82.6787672 L828.683313,82.6777741 Z M495.041759,42.7570171 C495.127063,40.7599022 496.799875,39.2014294 498.797506,39.2579805 C500.795136,39.3145315 502.377147,40.9651452 502.34939,42.9638892 C502.321632,44.9626331 500.694394,46.5686553 498.695963,46.5696824 C498.626124,46.5696824 498.555787,46.5676959 498.484955,46.563723 C496.490278,46.4496408 494.956456,44.754132 495.041759,42.7570171 Z M370.003392,31.5005281 C370.088696,29.5034132 371.761507,27.9449405 373.759138,28.0014915 C375.756769,28.0580425 377.33878,29.7086563 377.311022,31.7074002 C377.283264,33.7061442 375.656026,35.3121664 373.657596,35.3131934 C373.587756,35.3131934 373.51742,35.311207 373.446587,35.307234 C371.45191,35.1931518 369.918088,33.497643 370.003392,31.5005281 Z" id="SHAPE-29" fill="#FFFFFF" fill-rule="nonzero"></path>
                        <g id="tree" transform="translate(375.000000, 82.000000)">
                            <g id="Oval">
                                <use fill="black" fill-opacity="1" filter="url(#filter-3)" xlink:href="#path-2"></use>
                                <use fill="url(#linearGradient-1)" fill-rule="evenodd" xlink:href="#path-2"></use>
                            </g>
                            <g id="Group-11" filter="url(#filter-4)" transform="translate(0.000000, 87.000000)">
                                <g id="Group-10" transform="translate(243.500000, 266.000000) rotate(26.000000) translate(-243.500000, -266.000000) translate(78.000000, 51.000000)">
                                    <g id="Group-12">
                                        <g id="Group-7-Copy" transform="translate(0.988095, 0.000000)">
                                            <path d="M177.611855,42.2285093 C183.754156,45.1794644 188.708799,50.1336352 191.66034,56.275655 L320.094111,323.534687 C326.015722,331.795306 329.234279,340.672424 329.234279,349.915254 C329.234279,394.144838 255.532675,430 164.617139,430 C73.7016038,430 -9.09494702e-13,394.144838 -9.09494702e-13,349.915254 C-9.09494702e-13,340.610563 3.2617836,331.676496 9.25942924,323.368908 L137.579302,56.2782318 C144.754263,41.3438238 162.677447,35.0535488 177.611855,42.2285093 Z" id="Combined-Shape" fill="url(#linearGradient-5)"></path>
                                            <ellipse id="Oval-Copy-4" fill="url(#linearGradient-6)" cx="164.617139" cy="349.915254" rx="164.617139" ry="80.0847458"></ellipse>
                                            <ellipse id="Oval-Copy-11" fill="url(#linearGradient-7)" cx="164.617139" cy="349.915254" rx="164.617139" ry="80.0847458"></ellipse>
                                            <ellipse id="Oval-Copy-9" fill="url(#linearGradient-8)" opacity="0.8" cx="164.5" cy="252" rx="117" ry="57"></ellipse>
                                            <circle id="Oval-Copy-3" fill="url(#linearGradient-9)" opacity="0.69" cx="237.36716" cy="277.852539" r="25"></circle>
                                            <circle id="Oval" fill="url(#linearGradient-9)" opacity="0.69" cx="101.459095" cy="109.380322" r="25"></circle>
                                            <ellipse id="Oval-Copy-10" fill="url(#linearGradient-10)" opacity="0.8" cx="165.011905" cy="168" rx="78" ry="38"></ellipse>
                                            <path d="M177.611855,42.2285093 C183.754156,45.1794644 188.708799,50.1336352 191.66034,56.275655 L320.090536,323.5297 C297.672616,292.263496 236.529875,269.830508 164.617139,269.830508 C92.8285081,269.830508 31.7727308,292.186134 9.26015346,323.367905 L137.579302,56.2782318 C144.754263,41.3438238 162.677447,35.0535488 177.611855,42.2285093 Z" id="Combined-Shape-Copy-4" fill-opacity="0.7" fill="url(#linearGradient-11)"></path>
                                        </g>
                                    </g>
                                </g>
                            </g>
                            <g id="Oval-Copy">
                                <use fill="black" fill-opacity="1" filter="url(#filter-13)" xlink:href="#path-12"></use>
                                <use fill="url(#linearGradient-1)" fill-rule="evenodd" xlink:href="#path-12"></use>
                            </g>
                            <g id="Oval-Copy-2">
                                <use fill="black" fill-opacity="1" filter="url(#filter-15)" xlink:href="#path-14"></use>
                                <use fill="url(#linearGradient-1)" fill-rule="evenodd" xlink:href="#path-14"></use>
                            </g>
                            <g id="Star-Copy">
                                <use fill="black" fill-opacity="1" filter="url(#filter-18)" xlink:href="#path-17"></use>
                                <use fill="url(#linearGradient-16)" fill-rule="evenodd" xlink:href="#path-17"></use>
                                <use fill="black" fill-opacity="1" filter="url(#filter-19)" xlink:href="#path-17"></use>
                            </g>
                            <path d="M369.734056,613.005272 C376.496834,613.200896 381.849222,618.792282 381.751083,625.558888 C381.652944,632.325495 376.140653,637.759225 369.375048,637.758542 C369.137474,637.758542 368.898815,637.752032 368.662326,637.737926 C361.907988,637.347522 356.718848,631.604235 357.011818,624.843264 C357.304789,618.082293 362.971278,612.809647 369.734056,613.005272 Z M208.659067,552.586759 C215.423339,552.782278 220.777046,558.374748 220.679091,565.142848 C220.581136,571.910949 215.067826,577.34606 208.30073,577.345639 C208.063144,577.344554 207.824473,577.338043 207.586345,577.323937 C200.831602,576.934567 195.641271,571.19007 195.934214,564.427606 C196.227158,557.665141 201.894794,552.39124 208.659067,552.586759 Z M431.190927,483.004619 C437.134354,483.176281 441.838515,488.089958 441.752654,494.036748 C441.666793,499.983538 436.822733,504.759248 430.876829,504.759248 C430.667568,504.759676 430.458307,504.753478 430.248093,504.741558 C424.31352,504.397985 419.753035,499.35061 420.010376,493.408772 C420.267716,487.466935 425.2475,482.832957 431.190927,483.004619 Z M643.165134,476.770496 C649.929454,476.966165 655.283058,482.558835 655.184879,489.326984 C655.086701,496.095134 649.573131,501.530085 642.805982,501.529368 C642.570023,501.528825 642.331352,501.521772 642.093224,501.50875 C635.337344,501.118291 630.146996,495.373712 630.440016,488.611198 C630.733036,481.848685 636.400813,476.574827 643.165134,476.770496 Z M553.683284,359.193727 C560.446351,359.389063 565.799248,364.980369 565.701546,371.747262 C565.603844,378.514156 560.091755,383.948413 553.325869,383.948413 C553.08775,383.947328 552.849631,383.940275 552.611511,383.926711 C545.857435,383.537386 540.668028,377.793942 540.960858,371.032685 C541.253687,364.271427 546.920217,358.998391 553.683284,359.193727 Z M20.8936104,288.742523 C27.6563884,288.938148 33.0087765,294.529533 32.9106374,301.29614 C32.8124983,308.062747 27.300208,313.496477 20.5346027,313.495794 C20.2970287,313.495794 20.0583699,313.489283 19.8218807,313.475177 C13.0675429,313.084774 7.87840266,307.341487 8.17137299,300.580516 C8.46434332,293.819545 14.1308324,288.546899 20.8936104,288.742523 Z M433.072882,283.307506 C439.835949,283.502841 445.188846,289.094148 445.091144,295.861041 C444.993442,302.627934 439.481353,308.062247 432.715468,308.062247 C432.477348,308.062734 432.239229,308.055681 432.000024,308.042118 C425.247034,307.651164 420.057627,301.907721 420.350456,295.146463 C420.643286,288.385206 426.309815,283.11217 433.072882,283.307506 Z M108.947535,82.9800477 C115.71065,83.1755332 121.063445,88.7670395 120.965519,95.5339824 C120.867594,102.300925 115.355245,107.735121 108.589306,107.734726 C108.356069,107.734184 108.117949,107.72713 107.878745,107.713567 C101.121362,107.323695 95.9319374,101.580169 96.2248434,94.8188617 C96.5177494,88.0575546 102.18442,82.7845622 108.947535,82.9800477 Z M304.67152,0.0822529745 C311.434635,0.277738493 316.78743,5.86924476 316.689504,12.6361876 C316.591579,19.4031305 311.07923,24.837326 304.313291,24.8369314 C304.076799,24.8363888 303.838137,24.8320484 303.600018,24.8184847 C296.845347,24.4259005 291.655923,18.6823739 291.948829,11.9210669 C292.241735,5.15975987 297.908405,-0.113232544 304.67152,0.0822529745 Z" id="Combined-Shape" fill="#FFFFFF" fill-rule="nonzero"></path>
                        </g>
                    </g>
                </g>
            </g>
        </g>
    </g>
</svg>