<?xml version="1.0" encoding="UTF-8"?>
<svg width="20px" height="4px" viewBox="0 0 20 4" version="1.1" xmlns="http://www.w3.org/2000/svg"
>
  <!-- Generator: sketchtool 47 (45396) - http://www.bohemiancoding.com/sketch -->
  <title>F5FA211C-3204-407F-B43A-66C71A84F882</title>
  <desc>Created with sketchtool.</desc>
  <defs></defs>
  <g id="Page-3" stroke="none" stroke-width="1" fill="none" fill-rule="evenodd">
    <g id="Node-Info" transform="translate(-417.000000, -126.000000)" fill="#D3DCE8">
      <g id="Group-4" transform="translate(100.000000, 90.000000)">
        <path
          d="M335,40 C333.895431,40 333,39.1045695 333,38 C333,36.8954305 333.895431,36 335,36 C336.104569,36 337,36.8954305 337,38 C337,39.1045695 336.104569,40 335,40 Z M327,40 C325.895431,40 325,39.1045695 325,38 C325,36.8954305 325.895431,36 327,36 C328.104569,36 329,36.8954305 329,38 C329,39.1045695 328.104569,40 327,40 Z M319,40 C317.895431,40 317,39.1045695 317,38 C317,36.8954305 317.895431,36 319,36 C320.104569,36 321,36.8954305 321,38 C321,39.1045695 320.104569,40 319,40 Z"
          id="dots"></path>
      </g>
    </g>
  </g>
</svg>
