<?xml version="1.0" encoding="UTF-8"?>
<svg width="22px" height="24px" viewBox="0 0 22 24" version="1.1" xmlns="http://www.w3.org/2000/svg" xmlns:xlink="http://www.w3.org/1999/xlink">
    <!-- Generator: sketchtool 51.3 (57544) - http://www.bohemiancoding.com/sketch -->
    <title>494C7BE4-10FD-415F-9ED9-2196EFCAF401</title>
    <desc>Created with sketchtool.</desc>
    <defs></defs>
    <g id="Page-3" stroke="none" stroke-width="1" fill="none" fill-rule="evenodd">
        <g id="Check-Result-Bot" transform="translate(-261.000000, -828.000000)" fill="#354052">
            <g id="Group-6-Copy-2" transform="translate(210.000000, 416.000000)">
                <g id="Group-4" transform="translate(0.000000, 365.000000)">
                    <path d="M66.5926636,52.1146729 C69.2891322,53.51126 71.2689021,56.0992695 71.8351175,59.1818454 C72.5229692,59.4979358 73,60.1927239 73,61 C73,61.8072761 72.5229692,62.5020642 71.8351175,62.8181546 C70.9801169,67.4729281 66.9019543,71 62,71 C57.0980457,71 53.0198831,67.4729281 52.1648825,62.8181546 C51.4770308,62.5020642 51,61.8072761 51,61 C51,60.1927239 51.4770308,59.4979358 52.1648825,59.1818454 C52.7957533,55.7472737 55.1814346,52.9266651 58.3580542,51.6838916 L56.7,55 L56.7083512,55 C55.0475098,56.4658889 54,58.6106149 54,61 C54,65.418278 57.581722,69 62,69 C66.418278,69 70,65.418278 70,61 C70,57.9158342 68.2547356,55.2392968 65.6979397,53.9041205 L66.5926636,52.1146729 Z M59,59 C57.894531,59 57,59.894531 57,61 C57,62.105469 57.894531,63 59,63 C60.105469,63 61,62.105469 61,61 C61,59.894531 60.105469,59 59,59 Z M65,59 C66.105469,59 67,59.894531 67,61 C67,62.105469 66.105469,63 65,63 C63.894531,63 63,62.105469 63,61 C63,59.894531 63.894531,59 65,59 Z M62,47 L62,51 L65,51 L62,57 L62,53 L59,53 L62,47 Z" id="check_bot"></path>
                </g>
            </g>
        </g>
    </g>
</svg>