<svg xmlns="http://www.w3.org/2000/svg" xmlns:xlink="http://www.w3.org/1999/xlink" width="178" height="138" viewBox="0 0 178 138">
    <defs>
        <linearGradient id="c" x1="113.887%" x2="-7.803%" y1="24.49%" y2="80.648%">
            <stop offset="0%" stop-color="#58BFFF"/>
            <stop offset="100%" stop-color="#A521FF"/>
        </linearGradient>
        <path id="a" d="M127.5 100h-115C5.598 100 0 94.403 0 87.5v-75C0 5.598 5.598 0 12.5 0h115c6.903 0 12.5 5.598 12.5 12.5v75c0 6.903-5.597 12.5-12.5 12.5z"/>
        <filter id="b" width="147.1%" height="166%" x="-23.6%" y="-24%" filterUnits="objectBoundingBox">
            <feOffset dy="9" in="SourceAlpha" result="shadowOffsetOuter1"/>
            <feGaussianBlur in="shadowOffsetOuter1" result="shadowBlurOuter1" stdDeviation="9.5"/>
            <feColorMatrix in="shadowBlurOuter1" values="0 0 0 0 0.607843137 0 0 0 0 0.37254902 0 0 0 0 1 0 0 0 0.3 0"/>
        </filter>
        <linearGradient id="g" x1="50%" x2="50%" y1="0%" y2="100%">
            <stop offset="0%" stop-color="#FFF"/>
            <stop offset="100%" stop-color="#FFF" stop-opacity=".5"/>
        </linearGradient>
        <path id="f" d="M91.388 50l48.4 39.6c-1.003 5.898-6.103 10.4-12.288 10.4h-115C6.315 100 1.215 95.498.213 89.6L48.61 50l15.977 13.072a8.55 8.55 0 0 0 10.825 0l15.975-13.071z"/>
        <filter id="e" width="136.5%" height="202%" x="-18.3%" y="-51%" filterUnits="objectBoundingBox">
            <feOffset in="SourceAlpha" result="shadowOffsetOuter1"/>
            <feGaussianBlur in="shadowOffsetOuter1" result="shadowBlurOuter1" stdDeviation="8.5"/>
            <feColorMatrix in="shadowBlurOuter1" values="0 0 0 0 0.498039216 0 0 0 0 0.560784314 0 0 0 0 0.643137255 0 0 0 0.2 0"/>
        </filter>
        <linearGradient id="j" x1="50%" x2="50%" y1="0%" y2="100%">
            <stop offset="0%" stop-color="#FFF"/>
            <stop offset="100%" stop-color="#FFF" stop-opacity=".5"/>
        </linearGradient>
        <path id="i" d="M.212 10.4l64.376 52.672a8.55 8.55 0 0 0 10.825 0L139.786 10.4C138.785 4.503 133.685 0 127.5 0h-115C6.315 0 1.215 4.503.213 10.4z"/>
        <filter id="h" width="136.5%" height="178.5%" x="-18.3%" y="-39.2%" filterUnits="objectBoundingBox">
            <feOffset in="SourceAlpha" result="shadowOffsetOuter1"/>
            <feGaussianBlur in="shadowOffsetOuter1" result="shadowBlurOuter1" stdDeviation="8.5"/>
            <feColorMatrix in="shadowBlurOuter1" values="0 0 0 0 0.498039216 0 0 0 0 0.560784314 0 0 0 0 0.643137255 0 0 0 0.2 0"/>
        </filter>
        <linearGradient id="m" x1="45.814%" x2="45.814%" y1="100%" y2="0%">
            <stop offset="0%" stop-color="#1CB296"/>
            <stop offset="100%" stop-color="#50E09F"/>
        </linearGradient>
        <path id="l" d="M31.05 0C13.9 0 0 13.9 0 31.05 0 48.196 13.9 62.1 31.05 62.1c17.146 0 31.05-13.904 31.05-31.05C62.1 13.9 48.196 0 31.05 0z"/>
        <filter id="k" width="156.4%" height="156.4%" x="-28.2%" y="-20.1%" filterUnits="objectBoundingBox">
            <feOffset dy="5" in="SourceAlpha" result="shadowOffsetOuter1"/>
            <feGaussianBlur in="shadowOffsetOuter1" result="shadowBlurOuter1" stdDeviation="5"/>
            <feColorMatrix in="shadowBlurOuter1" values="0 0 0 0 0.11372549 0 0 0 0 0.701960784 0 0 0 0 0.588235294 0 0 0 0.5 0"/>
        </filter>
        <linearGradient id="n" x1="50%" x2="50%" y1="0%" y2="100%">
            <stop offset="0%" stop-color="#FFF"/>
            <stop offset="97.799%" stop-color="#FFF" stop-opacity=".8"/>
        </linearGradient>
    </defs>
    <g fill="none" fill-rule="evenodd">
        <g transform="translate(19 10)">
            <mask id="d" fill="#fff">
                <use xlink:href="#a"/>
            </mask>
            <use fill="#000" filter="url(#b)" xlink:href="#a"/>
            <use fill="url(#c)" xlink:href="#a"/>
            <g mask="url(#d)" opacity=".1">
                <use fill="#000" filter="url(#e)" xlink:href="#f"/>
                <use fill="url(#g)" xlink:href="#f"/>
            </g>
            <g mask="url(#d)" opacity=".3">
                <use fill="#000" filter="url(#h)" xlink:href="#i"/>
                <use fill="url(#j)" xlink:href="#i"/>
            </g>
        </g>
        <g fill-rule="nonzero">
            <g transform="translate(102 59)">
                <use fill="#000" filter="url(#k)" xlink:href="#l"/>
                <use fill="url(#m)" xlink:href="#l"/>
            </g>
            <path fill="url(#n)" d="M29.115 44.885a3.446 3.446 0 0 1-4.879 0l-8.749-8.746a3.457 3.457 0 0 1 0-4.882 3.452 3.452 0 0 1 4.878 0l6.31 6.31 15.056-15.056a3.446 3.446 0 0 1 4.878 0 3.446 3.446 0 0 1 0 4.879L29.115 44.885z" transform="translate(102 59)"/>
        </g>
    </g>
</svg>
