<?xml version="1.0" encoding="UTF-8"?>
<svg width="15px" height="14px" viewBox="0 0 15 14" version="1.1" xmlns="http://www.w3.org/2000/svg"
>
  <!-- Generator: Sketch 51.3 (57544) - http://www.bohemiancoding.com/sketch -->
  <title>monitor</title>
  <desc>Created with Sketch.</desc>
  <defs></defs>
  <g id="Page-3" stroke="none" stroke-width="1" fill="none" fill-rule="evenodd">
    <g id="List" transform="translate(-307.000000, -803.000000)" fill="#C7CBD4" fill-rule="nonzero" stroke="#C7CBD4"
       stroke-width="0.5">
      <g id="Group-2" transform="translate(118.000000, 108.000000)">
        <g id="Group-3" transform="translate(30.000000, 85.000000)">
          <path
            d="M161.772727,611 C160.79865,611 160,611.79865 160,612.772727 L160,618.681818 C160,619.655895 160.79865,620.454545 161.772727,620.454545 L165.899859,620.454545 L165.899859,621.059304 L165.899859,622.119044 L163.540838,622.119044 L163.540838,623.300862 L169.449929,623.300862 L169.449929,622.119044 L167.081677,622.119044 L167.081677,621.054688 L167.081677,620.454545 L171.227273,620.454545 C172.20135,620.454545 173,619.655895 173,618.681818 L173,612.772727 C173,611.79865 172.20135,611 171.227273,611 L161.772727,611 Z M161.772727,612.181818 L171.227273,612.181818 C171.559659,612.181818 171.818182,612.440341 171.818182,612.772727 L171.818182,618.681818 C171.818182,619.014205 171.559659,619.272727 171.227273,619.272727 L161.772727,619.272727 C161.440341,619.272727 161.181818,619.014205 161.181818,618.681818 L161.181818,612.772727 C161.181818,612.440341 161.440341,612.181818 161.772727,612.181818 Z"
            id="monitor"></path>
        </g>
      </g>
    </g>
  </g>
</svg>
