<?xml version="1.0" encoding="UTF-8"?>
<svg width="22px" height="16px" viewBox="0 0 22 16" version="1.1" xmlns="http://www.w3.org/2000/svg"
>
  <!-- Generator: Sketch 51.3 (57544) - http://www.bohemiancoding.com/sketch -->
  <title>change_hover</title>
  <desc>Created with Sketch.</desc>
  <defs></defs>
  <g id="Page-3" stroke="none" stroke-width="1" fill="none" fill-rule="evenodd">
    <g id="List" transform="translate(-681.000000, -147.000000)" fill="#567FE9" fill-rule="nonzero">
      <path
        d="M698.856926,147 C699.068108,147 699.280125,147.079697 699.441049,147.242216 L702.831669,150.936003 C703.204022,151.34105 702.917979,151.998626 702.371333,151.998626 L699.829819,151.998626 L699.829819,157.999321 C699.829819,160.749155 697.601163,162.9999 694.878315,162.9999 L689.926811,162.9999 C689.569673,163.005 689.237481,162.815503 689.057439,162.503969 C688.877396,162.192436 688.877396,161.807132 689.057439,161.495598 C689.237481,161.184065 689.569673,160.994567 689.926811,160.999668 L694.878315,160.999668 C696.530616,160.999668 697.849218,159.667998 697.849218,157.999321 L697.849218,151.998626 L695.342519,151.998626 C694.794882,151.998626 694.510774,151.34105 694.884118,150.936003 L698.274738,147.242216 C698.435662,147.079697 698.645744,147 698.856926,147 Z M685.143074,163 C684.931892,163 684.719875,162.920303 684.558951,162.757784 L681.168331,159.063997 C680.795978,158.65895 681.082021,158.001374 681.628667,158.001374 L684.170181,158.001374 L684.170181,152.000679 C684.170181,149.250845 686.398837,147.0001 689.121685,147.0001 L694.073189,147.0001 C694.430327,146.995 694.762519,147.184497 694.942561,147.496031 C695.122604,147.807564 695.122604,148.192868 694.942561,148.504402 C694.762519,148.815935 694.430327,149.005433 694.073189,149.000332 L689.121685,149.000332 C687.469384,149.000332 686.150782,150.332002 686.150782,152.000679 L686.150782,158.001374 L688.657481,158.001374 C689.205118,158.001374 689.489226,158.65895 689.115882,159.063997 L685.725262,162.757784 C685.564338,162.920303 685.354256,163 685.143074,163 Z"
        id="change_hover"></path>
    </g>
  </g>
</svg>
