<?xml version="1.0" encoding="UTF-8"?>
<svg width="891px" height="462px" viewBox="0 0 891 462" version="1.1" xmlns="http://www.w3.org/2000/svg" xmlns:xlink="http://www.w3.org/1999/xlink">
    <!-- Generator: Sketch 53.2 (72643) - https://sketchapp.com -->
    <title>features_uptime_bg</title>
    <desc>Created with Sketch.</desc>
    <defs>
        <linearGradient x1="97.2897624%" y1="39.1388653%" x2="36.834579%" y2="61.6736501%" id="linearGradient-1">
            <stop stop-color="#7A6CFE" offset="0%"></stop>
            <stop stop-color="#9548FE" offset="100%"></stop>
        </linearGradient>
        <linearGradient x1="90.8943448%" y1="62.5625658%" x2="23.7024439%" y2="39.029014%" id="linearGradient-2">
            <stop stop-color="#7A6CFE" offset="0%"></stop>
            <stop stop-color="#9548FE" offset="100%"></stop>
        </linearGradient>
        <path d="M157.489224,35.0567498 C185.454826,150.215227 206.054076,277.796057 355.209009,371.066758 C394.902586,395.888249 430.831535,424.28057 463.601803,459.610288 C325.4762,456.173431 180.673889,415.120825 91.3849395,333.574666 C-69.2382905,186.880058 12.294591,-5.99108748 151.363906,33.2813492 C153.445022,33.8690453 155.486315,34.4610184 157.489236,35.0567534 Z" id="path-3"></path>
    </defs>
    <g id="Page-1" stroke="none" stroke-width="1" fill="none" fill-rule="evenodd">
        <g id="Main" transform="translate(0.000000, -3916.000000)">
            <g id="Block-6" transform="translate(0.000000, 3821.000000)">
                <g id="Group-23" transform="translate(0.000000, 95.000000)">
                    <g id="features_uptime_bg">
                        <path d="M690.804641,3.10066707 C554.589665,31.1851088 597.433031,109.403094 364.617344,47.999901 C131.801657,-13.4032924 37.7818709,57.7235367 12.0727382,118.833963 C-13.6363944,179.944389 -15.1382764,326.468868 183.243302,415.784129 C381.62488,505.09939 700.694889,463.584924 835.962275,303.157416 C971.229661,142.729909 827.019617,-24.9837747 690.804641,3.10066707 Z" id="Path-135" fill="url(#linearGradient-1)" opacity="0.2"></path>
                        <path d="M151.363906,443.07069 C290.433222,403.798254 251.668631,345.427238 468.785364,421.61221 C685.902097,497.797183 807.31943,448.181069 857.677939,376.904053 C908.036448,305.627037 908.036448,177.697858 750.157187,79.0635029 C592.277925,-19.5708525 252.00817,-3.91723527 91.3849395,142.777373 C-69.2382905,289.471982 12.294591,482.343127 151.363906,443.07069 Z" id="Path-135-Copy" fill="url(#linearGradient-2)" transform="translate(445.234742, 238.176020) scale(1, -1) translate(-445.234742, -238.176020) "></path>
                        <path d="M217.350662,58.1062702 C263.923368,137.576208 340.732158,197.583808 489.932008,209.461119 C560.465597,215.076066 648.164607,277.082397 753.029039,395.480111 C752.077615,396.083997 751.120338,396.686812 750.157187,397.288537 C592.277925,495.922892 252.00817,480.269275 91.3849395,333.574666 C-69.2382905,186.880058 12.294591,-5.99108748 151.363906,33.2813492 C179.404018,41.199728 200.214578,49.894529 217.350669,58.1062736 Z" id="Combined-Shape" fill="#FFFFFF" opacity="0.05"></path>
                        <mask id="mask-4" fill="white">
                            <use xlink:href="#path-3"></use>
                        </mask>
                        <use id="Combined-Shape" fill="#FFFFFF" opacity="0.05" xlink:href="#path-3"></use>
                    </g>
                </g>
            </g>
        </g>
    </g>
</svg>