<svg xmlns="http://www.w3.org/2000/svg" xmlns:xlink="http://www.w3.org/1999/xlink" width="2048" height="554" viewBox="0 0 2048 554">
    <defs>
        <path id="a" d="M0 0h2048v631H0z"/>
        <linearGradient id="b" x1="98.942%" x2="1.968%" y1="41.167%" y2="57.923%">
            <stop offset="0%" stop-color="#5B96FD"/>
            <stop offset="100%" stop-color="#AE5DE3"/>
        </linearGradient>
        <linearGradient id="d" x1="98.942%" x2="1.968%" y1="46.648%" y2="53.006%">
            <stop offset="0%" stop-color="#5B96FD"/>
            <stop offset="100%" stop-color="#AE5DE3"/>
        </linearGradient>
        <linearGradient id="e" x1="3.03%" x2="97.88%" y1="44.564%" y2="54.887%">
            <stop offset="0%" stop-color="#5B96FD"/>
            <stop offset="100%" stop-color="#AE5DE3"/>
        </linearGradient>
        <linearGradient id="g" x1="91.483%" x2="9.561%" y1="27.536%" y2="27.536%">
            <stop offset="0%" stop-color="#6691F9"/>
            <stop offset="100%" stop-color="#A466E9"/>
        </linearGradient>
        <path id="f" d="M389.51 139.225c301.918-13.345 476.827-177.87 1085.08-43.523 408.621 90.253 700.209 60.5 874.563-4.4v147.113c218.626 224.608 198.021 499.803-61.813 825.585H239.036C110.17 864.353 42.116 750.385 34.87 722.095H0V0h34.49c72.255 90.704 215.354 145.4 355.02 139.225z"/>
    </defs>
    <g fill="none" fill-rule="evenodd" transform="translate(0 -77)">
        <mask id="c" fill="#fff">
            <use xlink:href="#a"/>
        </mask>
        <path fill="url(#b)" d="M308.409 172.757c321.218-12.342 507.308-164.496 1154.443-40.25 434.742 83.467 744.968 55.95 930.468-4.07V264.49c348.902 311.58 192.587 941.07-254.594 896.53-472.764-47.09-490.235-156.904-1109.42-39.936-619.185 116.967-966.111 23.303-1059.553-99.415-13.558-17.806-27.09-49.003-38.653-88.247H-106V44h36.695c76.874 83.884 229.12 134.467 377.714 128.757z" mask="url(#c)" opacity=".217"/>
        <path fill="url(#d)" d="M2063 428.029V698H-169V241h26.407c11.577-21.523 26.393-39.811 41.244-53.056 83.447-74.425 398.167-149.657 946.226-60.291 548.058 89.365 727.025-24.22 990.76-24.22 249.093 0 521.914 146.893 227.363 324.596z" mask="url(#c)" opacity=".1"/>
        <g mask="url(#c)">
            <g transform="translate(-239 34)">
                <path fill="url(#e)" d="M2326.472 370.769H2471v401h-259.283c-81.228 128.382-461.852 46.912-782.142 47.71-238.566.595-513.912 39.264-692.97-40.062a359.805 359.805 0 0 0-18.678-7.648H239v-401h26.158c11.614-35.831 26.536-66.272 41.493-88.274 83.447-122.754 398.167-246.84 946.226-99.444 548.058 147.397 710.426 17.736 974.16 17.736 125.087 0 128.807 73.919 99.435 169.982z" opacity=".2" transform="rotate(180 1355 480.118)"/>
                <mask id="h" fill="#fff">
                    <use xlink:href="#f"/>
                </mask>
                <use fill="url(#g)" xlink:href="#f"/>
                <path fill="#A96AFF" fill-rule="nonzero" d="M1580.618-661.316c-119.522 51.896-205.926 146.746-259.212 284.548-153.615 397.259-872.25 56.624-806.9 571.11 14.912 117.395-135.733 254.552-451.935 411.471L-151.23-416.364l1674.079-448.568 57.769 203.616z" mask="url(#h)" opacity=".45"/>
                <path fill="#67D7FF" fill-rule="nonzero" d="M2878.254-36.602l-434.972-988.328C1622.285-445.928 1348.005-97.745 1620.443 19.617c408.658 176.044 166.841 474.903 434.271 505.776 178.287 20.583 452.8-166.75 823.54-561.995z" mask="url(#h)" opacity=".045"/>
            </g>
        </g>
    </g>
</svg>
