<?xml version="1.0" encoding="UTF-8"?>
<svg width="8px" height="5px" viewBox="0 0 8 5" version="1.1" xmlns="http://www.w3.org/2000/svg" xmlns:xlink="http://www.w3.org/1999/xlink">
    <title>arrow_mini</title>
    <g id="Page-3" stroke="none" stroke-width="1" fill="none" fill-rule="evenodd">
        <g id="Marks-Copy-4" transform="translate(-836.000000, -369.000000)" fill="#7F8FA4" fill-rule="nonzero">
            <g id="Group-2" transform="translate(261.000000, 220.000000)">
                <g id="Group-7" transform="translate(391.000000, 140.000000)">
                    <path d="M184.690214,10.5981174 C184.614513,10.5230344 184.571932,10.4208281 184.571932,10.3142066 C184.571932,10.2075851 184.614513,10.1053788 184.690214,10.0302958 L184.850164,9.87034599 C184.925401,9.7922438 185.029639,9.74881124 185.138073,9.75038366 L190.864275,9.75038366 C190.97271,9.74881124 191.076948,9.7922438 191.152185,9.87034599 L191.312134,10.0302958 C191.387836,10.1053788 191.430417,10.2075851 191.430417,10.3142066 C191.430417,10.4208281 191.387836,10.5230344 191.312134,10.5981174 L188.281086,13.6291655 C188.208522,13.706483 188.10721,13.7503424 188.001174,13.7503424 C187.895139,13.7503424 187.793826,13.706483 187.721262,13.6291655 L184.690214,10.5981174 Z" id="arrow_mini"></path>
                </g>
            </g>
        </g>
    </g>
</svg>