<svg width="255" height="57" viewBox="0 0 255 57" fill="none" xmlns="http://www.w3.org/2000/svg">
<path d="M4.97171 56.0001V42.225H0.100342V39.6845H12.5701V42.225H7.72205V56.0001H4.97171Z" fill="white"/>
<path d="M14.6778 56.0001V38.9852H17.335V44.8588H17.3816C17.6613 44.4393 18.1197 44.0741 18.7567 43.7634C19.3938 43.4526 20.0387 43.2972 20.6913 43.2972C22.0121 43.2972 23.0843 43.7012 23.9078 44.5092C24.7314 45.3172 25.1431 46.4205 25.1431 47.819V56.0001H22.5093V48.4483C22.5093 47.6403 22.2918 46.9876 21.8567 46.4904C21.4216 45.9932 20.7923 45.7445 19.9688 45.7445C19.1763 45.7445 18.5392 45.9776 18.0575 46.4438C17.5758 46.9099 17.335 47.5082 17.335 48.2385V56.0001H14.6778Z" fill="white"/>
<path d="M36.7214 51.8979L38.6326 53.4595C37.4361 55.3863 35.7269 56.3497 33.5049 56.3497C31.7956 56.3497 30.3971 55.7592 29.3094 54.5783C28.2373 53.3818 27.7012 51.7969 27.7012 49.8234C27.7012 47.85 28.2373 46.2729 29.3094 45.0919C30.3816 43.8954 31.7412 43.2972 33.3883 43.2972C35.0354 43.2972 36.3795 43.8877 37.4206 45.0686C38.4772 46.2496 39.0056 47.8345 39.0056 49.8234V50.6159H30.3816C30.4127 51.6415 30.6924 52.465 31.2207 53.0866C31.7645 53.6926 32.5104 53.9956 33.4583 53.9956C33.9089 53.9956 34.3129 53.9334 34.6703 53.8091C35.0277 53.6848 35.3384 53.4983 35.6026 53.2497C35.8823 53.0011 36.0921 52.7836 36.2319 52.5971C36.3717 52.4106 36.5349 52.1775 36.7214 51.8979ZM30.4049 48.6114H36.4184C36.3717 47.7413 36.0921 47.0343 35.5793 46.4904C35.0665 45.931 34.3362 45.6513 33.3883 45.6513C32.5026 45.6513 31.7956 45.9465 31.2673 46.537C30.739 47.1275 30.4515 47.819 30.4049 48.6114Z" fill="white"/>
<path d="M49.155 56.0001L50.2134 50.4803L50.1224 50.4348L51.2263 44.7785L51.3287 44.7216L52.3302 39.5775H50.1224L46.9471 56.0001H49.155ZM54.6406 56.0001L57.8158 39.5775H55.6079L54.6064 44.7216L54.6975 44.7672L53.5935 50.4348L53.4911 50.4803L52.4327 56.0001H54.6406ZM58.2824 51.7209L58.6921 49.5585H54.8909L54.8227 49.6609H49.3143L49.246 49.5585H45.5928L45.1717 51.7209H58.2824ZM59.3409 45.837L59.7506 43.6746H46.6398L46.2187 45.837H49.872L49.9403 45.7345H55.4372L55.5055 45.837H59.3409Z" fill="white"/>
<path d="M66.3272 56.0001H69.2293V39.5775H66.3158L62.0252 42.5934V45.3021L66.2361 42.3999H66.3272V56.0001Z" fill="white"/>
<path d="M83.1313 56.0001L77.281 39.6845H80.1712L84.4599 51.9911H84.5531L88.7019 39.6845H91.5688L85.7884 56.0001H83.1313Z" fill="white"/>
<path d="M100.703 51.8979L102.614 53.4595C101.418 55.3863 99.7085 56.3497 97.4865 56.3497C95.7772 56.3497 94.3788 55.7592 93.2911 54.5783C92.2189 53.3818 91.6828 51.7969 91.6828 49.8234C91.6828 47.85 92.2189 46.2729 93.2911 45.0919C94.3632 43.8954 95.7229 43.2972 97.37 43.2972C99.0171 43.2972 100.361 43.8877 101.402 45.0686C102.459 46.2496 102.987 47.8345 102.987 49.8234V50.6159H94.3632C94.3943 51.6415 94.674 52.465 95.2023 53.0866C95.7462 53.6926 96.492 53.9956 97.4399 53.9956C97.8905 53.9956 98.2945 53.9334 98.6519 53.8091C99.0093 53.6848 99.3201 53.4983 99.5842 53.2497C99.8639 53.0011 100.074 52.7836 100.214 52.5971C100.353 52.4106 100.517 52.1775 100.703 51.8979ZM94.3865 48.6114H100.4C100.353 47.7413 100.074 47.0343 99.5609 46.4904C99.0481 45.931 98.3178 45.6513 97.37 45.6513C96.4843 45.6513 95.7772 45.9465 95.2489 46.537C94.7206 47.1275 94.4332 47.819 94.3865 48.6114Z" fill="white"/>
<path d="M105.678 56.0001V43.6468H108.195V44.9521H108.241C108.49 44.4859 108.848 44.113 109.314 43.8333C109.78 43.5536 110.277 43.4137 110.805 43.4137C111.163 43.4137 111.528 43.4914 111.901 43.6468L111.481 46.234C111.031 46.1097 110.704 46.0475 110.502 46.0475C109.057 46.0475 108.335 47.0731 108.335 49.1242V56.0001H105.678Z" fill="white"/>
<path d="M114.169 56.0001V43.6468H116.826V56.0001H114.169ZM114.122 41.619V38.9852H116.873V41.619H114.122Z" fill="white"/>
<path d="M120.942 56.0001V45.931H119.077V43.6468H121.012V41.8521C121.012 40.7955 121.268 40.0574 121.781 39.6379C122.309 39.2028 123.07 38.9852 124.065 38.9852H125.93V41.3393H124.601C124.197 41.3393 123.917 41.417 123.762 41.5724C123.606 41.7278 123.529 42.023 123.529 42.4581V43.6468H130.778V56.0001H128.12V45.931H123.599V56.0001H120.942ZM128.074 41.619V38.9852H130.824V41.619H128.074Z" fill="white"/>
<path d="M142.516 51.8979L144.427 53.4595C143.231 55.3863 141.522 56.3497 139.3 56.3497C137.59 56.3497 136.192 55.7592 135.104 54.5783C134.032 53.3818 133.496 51.7969 133.496 49.8234C133.496 47.85 134.032 46.2729 135.104 45.0919C136.176 43.8954 137.536 43.2972 139.183 43.2972C140.83 43.2972 142.174 43.8877 143.215 45.0686C144.272 46.2496 144.8 47.8345 144.8 49.8234V50.6159H136.176C136.208 51.6415 136.487 52.465 137.016 53.0866C137.559 53.6926 138.305 53.9956 139.253 53.9956C139.704 53.9956 140.108 53.9334 140.465 53.8091C140.823 53.6848 141.133 53.4983 141.397 53.2497C141.677 53.0011 141.887 52.7836 142.027 52.5971C142.167 52.4106 142.33 52.1775 142.516 51.8979ZM136.2 48.6114H142.213C142.167 47.7413 141.887 47.0343 141.374 46.4904C140.861 45.931 140.131 45.6513 139.183 45.6513C138.297 45.6513 137.59 45.9465 137.062 46.537C136.534 47.1275 136.246 47.819 136.2 48.6114Z" fill="white"/>
<path d="M155.276 51.2685V48.4716C155.276 47.7102 155.019 47.0576 154.507 46.5137C154.009 45.9699 153.326 45.6979 152.455 45.6979C151.461 45.6979 150.692 46.0553 150.148 46.7701C149.604 47.4693 149.332 48.4871 149.332 49.8234C149.332 51.1598 149.604 52.1853 150.148 52.9001C150.692 53.5993 151.461 53.949 152.455 53.949C153.295 53.949 153.97 53.6926 154.483 53.1798C155.012 52.6515 155.276 52.0144 155.276 51.2685ZM155.462 56.0001V54.8113H155.416C155.291 54.9823 155.128 55.161 154.926 55.3474C154.74 55.5184 154.367 55.7281 153.807 55.9767C153.263 56.2254 152.673 56.3497 152.036 56.3497C150.404 56.3497 149.099 55.7592 148.12 54.5783C147.157 53.3973 146.675 51.8124 146.675 49.8234C146.675 47.8345 147.196 46.2496 148.237 45.0686C149.293 43.8877 150.552 43.2972 152.013 43.2972C153.318 43.2972 154.39 43.81 155.229 44.8355H155.276V38.9852H157.933V56.0001H155.462Z" fill="white"/>
<path d="M167.481 56.0001V39.6845H173.984C175.647 39.6845 176.991 40.1429 178.016 41.0596C179.042 41.9764 179.555 43.2351 179.555 44.8355C179.555 46.4205 179.057 47.6713 178.063 48.5881C177.068 49.4894 175.717 49.94 174.007 49.94H170.231V56.0001H167.481ZM170.231 47.3994H173.937C174.745 47.3994 175.414 47.1741 175.942 46.7235C176.47 46.2573 176.734 45.628 176.734 44.8355C176.734 43.9343 176.462 43.2739 175.919 42.8544C175.375 42.4348 174.707 42.225 173.914 42.225H170.231V47.3994Z" fill="white"/>
<path d="M181.542 56.0001V43.6468H184.06V44.9521H184.106C184.355 44.4859 184.712 44.113 185.178 43.8333C185.645 43.5536 186.142 43.4137 186.67 43.4137C187.027 43.4137 187.393 43.4914 187.766 43.6468L187.346 46.234C186.895 46.1097 186.569 46.0475 186.367 46.0475C184.922 46.0475 184.199 47.0731 184.199 49.1242V56.0001H181.542Z" fill="white"/>
<path d="M194.45 53.949C195.366 53.949 196.105 53.5916 196.664 52.8768C197.239 52.1465 197.526 51.1287 197.526 49.8234C197.526 48.5182 197.239 47.5082 196.664 46.7934C196.105 46.0631 195.366 45.6979 194.45 45.6979C193.517 45.6979 192.764 46.0553 192.189 46.7701C191.629 47.4849 191.35 48.5027 191.35 49.8234C191.35 51.1598 191.629 52.1853 192.189 52.9001C192.748 53.5993 193.502 53.949 194.45 53.949ZM198.529 54.6249C197.472 55.7747 196.112 56.3497 194.45 56.3497C192.787 56.3497 191.412 55.7747 190.324 54.6249C189.252 53.475 188.716 51.8745 188.716 49.8234C188.716 47.8034 189.268 46.2107 190.371 45.0453C191.49 43.8799 192.849 43.2972 194.45 43.2972C196.05 43.2972 197.394 43.8799 198.482 45.0453C199.585 46.2107 200.137 47.8034 200.137 49.8234C200.137 51.8745 199.601 53.475 198.529 54.6249Z" fill="white"/>
<path d="M205.935 56.0001L200.971 43.6468H203.721L207.031 52.1775H207.078L210.387 43.6468H213.114L208.15 56.0001H205.935Z" fill="white"/>
<path d="M215.254 56.0001V43.6468H217.911V56.0001H215.254ZM215.207 41.619V38.9852H217.957V41.619H215.207Z" fill="white"/>
<path d="M229.228 51.2685V48.4716C229.228 47.7102 228.972 47.0576 228.459 46.5137C227.962 45.9699 227.278 45.6979 226.408 45.6979C225.414 45.6979 224.645 46.0553 224.101 46.7701C223.557 47.4693 223.285 48.4871 223.285 49.8234C223.285 51.1598 223.557 52.1853 224.101 52.9001C224.645 53.5993 225.414 53.949 226.408 53.949C227.247 53.949 227.923 53.6926 228.436 53.1798C228.964 52.6515 229.228 52.0144 229.228 51.2685ZM229.415 56.0001V54.8113H229.368C229.244 54.9823 229.081 55.161 228.879 55.3474C228.692 55.5184 228.319 55.7281 227.76 55.9767C227.216 56.2254 226.626 56.3497 225.989 56.3497C224.357 56.3497 223.052 55.7592 222.073 54.5783C221.11 53.3973 220.628 51.8124 220.628 49.8234C220.628 47.8345 221.148 46.2496 222.189 45.0686C223.246 43.8877 224.505 43.2972 225.965 43.2972C227.271 43.2972 228.343 43.81 229.182 44.8355H229.228V38.9852H231.886V56.0001H229.415Z" fill="white"/>
<path d="M243.578 51.8979L245.489 53.4595C244.293 55.3863 242.584 56.3497 240.362 56.3497C238.652 56.3497 237.254 55.7592 236.166 54.5783C235.094 53.3818 234.558 51.7969 234.558 49.8234C234.558 47.85 235.094 46.2729 236.166 45.0919C237.238 43.8954 238.598 43.2972 240.245 43.2972C241.892 43.2972 243.236 43.8877 244.277 45.0686C245.334 46.2496 245.862 47.8345 245.862 49.8234V50.6159H237.238C237.269 51.6415 237.549 52.465 238.077 53.0866C238.621 53.6926 239.367 53.9956 240.315 53.9956C240.766 53.9956 241.17 53.9334 241.527 53.8091C241.884 53.6848 242.195 53.4983 242.459 53.2497C242.739 53.0011 242.949 52.7836 243.089 52.5971C243.229 52.4106 243.392 52.1775 243.578 51.8979ZM237.262 48.6114H243.275C243.229 47.7413 242.949 47.0343 242.436 46.4904C241.923 45.931 241.193 45.6513 240.245 45.6513C239.359 45.6513 238.652 45.9465 238.124 46.537C237.596 47.1275 237.308 47.819 237.262 48.6114Z" fill="white"/>
<path d="M248.553 56.0001V43.6468H251.07V44.9521H251.117C251.365 44.4859 251.723 44.113 252.189 43.8333C252.655 43.5536 253.152 43.4137 253.681 43.4137C254.038 43.4137 254.403 43.4914 254.776 43.6468L254.356 46.234C253.906 46.1097 253.58 46.0475 253.378 46.0475C251.932 46.0475 251.21 47.0731 251.21 49.1242V56.0001H248.553Z" fill="white"/>
<path d="M87.4102 18.5147L89.2702 18.1097C89.4102 18.9997 89.6452 19.6447 89.9752 20.0447C90.3152 20.4447 90.8702 20.6447 91.6402 20.6447C92.2802 20.6447 92.7802 20.5197 93.1402 20.2697C93.5002 20.0097 93.6802 19.6597 93.6802 19.2197C93.6802 18.7797 93.5102 18.4347 93.1702 18.1847C92.8402 17.9347 92.0852 17.6297 90.9052 17.2697C89.8052 16.9297 89.0152 16.5147 88.5352 16.0247C88.0652 15.5347 87.8302 14.9397 87.8302 14.2397C87.8302 13.4397 88.1402 12.7547 88.7602 12.1847C89.3802 11.6147 90.2202 11.3297 91.2802 11.3297C92.2702 11.3297 93.1152 11.5747 93.8152 12.0647C94.5152 12.5447 94.9452 13.2597 95.1052 14.2097L93.3802 14.6297C93.2402 14.1097 93.0102 13.7047 92.6902 13.4147C92.3702 13.1247 91.9002 12.9797 91.2802 12.9797C90.7102 12.9797 90.2802 13.0947 89.9902 13.3247C89.7102 13.5547 89.5702 13.8547 89.5702 14.2247C89.5702 14.5647 89.7252 14.8347 90.0352 15.0347C90.3452 15.2347 91.0752 15.5297 92.2252 15.9197C93.4652 16.3397 94.3052 16.7797 94.7452 17.2397C95.1952 17.6997 95.4202 18.3247 95.4202 19.1147C95.4202 20.0247 95.0752 20.7797 94.3852 21.3797C93.7052 21.9797 92.7852 22.2797 91.6252 22.2797C90.4152 22.2797 89.4502 21.9647 88.7302 21.3347C88.0102 20.6947 87.5702 19.7547 87.4102 18.5147Z" fill="white"/>
<path d="M97.8629 19.3997V15.5747H96.6629V14.1047H97.9079V12.1547H99.5279V14.1047H101.523V15.5747H99.5429V19.2197C99.5429 19.6597 99.6079 19.9697 99.7379 20.1497C99.8779 20.3197 100.158 20.4047 100.578 20.4047H101.208V22.0547H100.443C99.4829 22.0547 98.8129 21.8447 98.4329 21.4247C98.0529 20.9947 97.8629 20.3197 97.8629 19.3997Z" fill="white"/>
<path d="M108.085 22.0547V21.2597H108.055C108.015 21.3197 107.955 21.3947 107.875 21.4847C107.795 21.5647 107.665 21.6747 107.485 21.8147C107.315 21.9447 107.08 22.0547 106.78 22.1447C106.49 22.2347 106.165 22.2797 105.805 22.2797C104.875 22.2797 104.175 22.0597 103.705 21.6197C103.235 21.1697 103 20.6147 103 19.9547C103 19.2747 103.205 18.7547 103.615 18.3947C104.025 18.0247 104.72 17.7197 105.7 17.4797C106.58 17.2597 107.155 17.0797 107.425 16.9397C107.695 16.7897 107.83 16.5747 107.83 16.2947C107.83 16.0247 107.705 15.7997 107.455 15.6197C107.215 15.4397 106.855 15.3497 106.375 15.3497C105.825 15.3497 105.42 15.4747 105.16 15.7247C104.91 15.9747 104.725 16.3147 104.605 16.7447L103.15 16.1897C103.32 15.5097 103.675 14.9547 104.215 14.5247C104.755 14.0947 105.46 13.8797 106.33 13.8797C107.29 13.8797 108.065 14.1247 108.655 14.6147C109.245 15.1047 109.54 15.8697 109.54 16.9097V22.0547H108.085ZM106.045 18.6947C105.485 18.8347 105.11 18.9947 104.92 19.1747C104.74 19.3547 104.65 19.5747 104.65 19.8347C104.65 20.4747 105.085 20.7947 105.955 20.7947C106.595 20.7947 107.075 20.6647 107.395 20.4047C107.725 20.1447 107.89 19.8297 107.89 19.4597V17.8697H107.86C107.82 17.9497 107.765 18.0197 107.695 18.0797C107.635 18.1397 107.465 18.2247 107.185 18.3347C106.915 18.4447 106.535 18.5647 106.045 18.6947Z" fill="white"/>
<path d="M112.14 22.0547V11.1047H113.85V17.5097H113.88L116.925 14.1047H119.1L116.22 17.2997L119.4 22.0547H117.465L114.945 18.2897H114.915L113.85 19.4597V22.0547H112.14Z" fill="white"/>
<path d="M121.137 22.0547V14.1047H122.847V22.0547H121.137ZM121.107 12.7997V11.1047H122.877V12.7997H121.107Z" fill="white"/>
<path d="M125.621 22.0547V14.1047H127.271V14.8697H127.301C127.521 14.5897 127.826 14.3547 128.216 14.1647C128.606 13.9747 129.016 13.8797 129.446 13.8797C130.326 13.8797 131.016 14.1447 131.516 14.6747C132.026 15.1947 132.281 15.9197 132.281 16.8497V22.0547H130.586V17.2997C130.586 16.0697 130.071 15.4547 129.041 15.4547C128.521 15.4547 128.106 15.6047 127.796 15.9047C127.486 16.2047 127.331 16.6097 127.331 17.1197V22.0547H125.621Z" fill="white"/>
<path d="M135.014 23.6147L136.334 22.7747C136.544 23.2347 136.799 23.5797 137.099 23.8097C137.399 24.0397 137.799 24.1547 138.299 24.1547C138.849 24.1547 139.284 24.0047 139.604 23.7047C139.924 23.4047 140.084 22.9497 140.084 22.3397V21.3197H140.054C139.874 21.5797 139.604 21.8047 139.244 21.9947C138.884 22.1847 138.469 22.2797 137.999 22.2797C136.969 22.2797 136.114 21.9047 135.434 21.1547C134.764 20.4047 134.429 19.3797 134.429 18.0797C134.429 16.7997 134.774 15.7797 135.464 15.0197C136.164 14.2597 136.999 13.8797 137.969 13.8797C138.899 13.8797 139.614 14.2097 140.114 14.8697H140.144V14.1047H141.794V22.0997C141.794 23.2497 141.469 24.1297 140.819 24.7397C140.179 25.3497 139.339 25.6547 138.299 25.6547C137.479 25.6547 136.789 25.4647 136.229 25.0847C135.669 24.7147 135.264 24.2247 135.014 23.6147ZM140.084 19.0697V17.1497C140.084 16.6797 139.914 16.2747 139.574 15.9347C139.244 15.5947 138.804 15.4247 138.254 15.4247C137.614 15.4247 137.099 15.6547 136.709 16.1147C136.329 16.5747 136.139 17.2297 136.139 18.0797C136.139 18.9297 136.329 19.5847 136.709 20.0447C137.089 20.5047 137.604 20.7347 138.254 20.7347C138.794 20.7347 139.234 20.5747 139.574 20.2547C139.914 19.9247 140.084 19.5297 140.084 19.0697Z" fill="white"/>
<path d="M148.863 22.0547V11.5547H153.048C154.128 11.5547 154.993 11.8447 155.643 12.4247C156.303 12.9947 156.632 13.7947 156.632 14.8247C156.632 15.6247 156.423 16.2847 156.003 16.8047C155.583 17.3247 155.013 17.6797 154.293 17.8697L156.558 22.0547H154.592L152.463 18.0197H150.633V22.0547H148.863ZM150.633 16.4897H152.912C154.202 16.4897 154.848 15.9347 154.848 14.8247C154.848 13.7147 154.202 13.1597 152.912 13.1597H150.633V16.4897Z" fill="white"/>
<path d="M164.058 19.4147L165.288 20.4197C164.518 21.6597 163.418 22.2797 161.988 22.2797C160.888 22.2797 159.988 21.8997 159.288 21.1397C158.598 20.3697 158.253 19.3497 158.253 18.0797C158.253 16.8097 158.598 15.7947 159.288 15.0347C159.978 14.2647 160.853 13.8797 161.913 13.8797C162.973 13.8797 163.838 14.2597 164.508 15.0197C165.188 15.7797 165.528 16.7997 165.528 18.0797V18.5897H159.978C159.998 19.2497 160.178 19.7797 160.518 20.1797C160.868 20.5697 161.348 20.7647 161.958 20.7647C162.248 20.7647 162.508 20.7247 162.738 20.6447C162.968 20.5647 163.168 20.4447 163.338 20.2847C163.518 20.1247 163.653 19.9847 163.743 19.8647C163.833 19.7447 163.938 19.5947 164.058 19.4147ZM159.993 17.2997H163.863C163.833 16.7397 163.653 16.2847 163.323 15.9347C162.993 15.5747 162.523 15.3947 161.913 15.3947C161.343 15.3947 160.888 15.5847 160.548 15.9647C160.208 16.3447 160.023 16.7897 159.993 17.2997Z" fill="white"/>
<path d="M168.914 22.0547L167.159 14.1047H168.839L169.964 19.6397H169.994L171.884 14.1047H173.429L175.199 19.6247H175.229L176.504 14.1047H178.154L176.249 22.0547H174.599L172.664 16.0847H172.634L170.549 22.0547H168.914Z" fill="white"/>
<path d="M184.714 22.0547V21.2597H184.684C184.644 21.3197 184.584 21.3947 184.504 21.4847C184.424 21.5647 184.294 21.6747 184.114 21.8147C183.944 21.9447 183.709 22.0547 183.409 22.1447C183.119 22.2347 182.794 22.2797 182.434 22.2797C181.504 22.2797 180.804 22.0597 180.334 21.6197C179.864 21.1697 179.629 20.6147 179.629 19.9547C179.629 19.2747 179.834 18.7547 180.244 18.3947C180.654 18.0247 181.349 17.7197 182.329 17.4797C183.209 17.2597 183.784 17.0797 184.054 16.9397C184.324 16.7897 184.459 16.5747 184.459 16.2947C184.459 16.0247 184.334 15.7997 184.084 15.6197C183.844 15.4397 183.484 15.3497 183.004 15.3497C182.454 15.3497 182.049 15.4747 181.789 15.7247C181.539 15.9747 181.354 16.3147 181.234 16.7447L179.779 16.1897C179.949 15.5097 180.304 14.9547 180.844 14.5247C181.384 14.0947 182.089 13.8797 182.959 13.8797C183.919 13.8797 184.694 14.1247 185.284 14.6147C185.874 15.1047 186.169 15.8697 186.169 16.9097V22.0547H184.714ZM182.674 18.6947C182.114 18.8347 181.739 18.9947 181.549 19.1747C181.369 19.3547 181.279 19.5747 181.279 19.8347C181.279 20.4747 181.714 20.7947 182.584 20.7947C183.224 20.7947 183.704 20.6647 184.024 20.4047C184.354 20.1447 184.519 19.8297 184.519 19.4597V17.8697H184.489C184.449 17.9497 184.394 18.0197 184.324 18.0797C184.264 18.1397 184.094 18.2247 183.814 18.3347C183.544 18.4447 183.164 18.5647 182.674 18.6947Z" fill="white"/>
<path d="M188.769 22.0547V14.1047H190.389V14.9447H190.419C190.579 14.6447 190.809 14.4047 191.109 14.2247C191.409 14.0447 191.729 13.9547 192.069 13.9547C192.299 13.9547 192.534 14.0047 192.774 14.1047L192.504 15.7697C192.214 15.6897 192.004 15.6497 191.874 15.6497C190.944 15.6497 190.479 16.3097 190.479 17.6297V22.0547H188.769Z" fill="white"/>
<path d="M199.714 19.0097V17.2097C199.714 16.7197 199.549 16.2997 199.219 15.9497C198.899 15.5997 198.459 15.4247 197.899 15.4247C197.259 15.4247 196.764 15.6547 196.414 16.1147C196.064 16.5647 195.889 17.2197 195.889 18.0797C195.889 18.9397 196.064 19.5997 196.414 20.0597C196.764 20.5097 197.259 20.7347 197.899 20.7347C198.439 20.7347 198.874 20.5697 199.204 20.2397C199.544 19.8997 199.714 19.4897 199.714 19.0097ZM199.834 22.0547V21.2897H199.804C199.724 21.3997 199.619 21.5147 199.489 21.6347C199.369 21.7447 199.129 21.8797 198.769 22.0397C198.419 22.1997 198.039 22.2797 197.629 22.2797C196.579 22.2797 195.739 21.8997 195.109 21.1397C194.489 20.3797 194.179 19.3597 194.179 18.0797C194.179 16.7997 194.514 15.7797 195.184 15.0197C195.864 14.2597 196.674 13.8797 197.614 13.8797C198.454 13.8797 199.144 14.2097 199.684 14.8697H199.714V11.1047H201.424V22.0547H199.834Z" fill="white"/>
<path d="M203.569 19.3997L205.129 19.0247C205.269 20.2347 205.909 20.8397 207.049 20.8397C207.579 20.8397 207.989 20.7497 208.279 20.5697C208.579 20.3797 208.729 20.1297 208.729 19.8197C208.729 19.5197 208.594 19.2997 208.324 19.1597C208.054 19.0197 207.459 18.8197 206.539 18.5597C205.609 18.2997 204.929 17.9947 204.499 17.6447C204.079 17.2847 203.869 16.8147 203.869 16.2347C203.869 15.5947 204.129 15.0447 204.649 14.5847C205.169 14.1147 205.884 13.8797 206.794 13.8797C208.544 13.8797 209.629 14.6547 210.049 16.2047L208.609 16.6247C208.309 15.7447 207.704 15.3047 206.794 15.3047C206.364 15.3047 206.029 15.3897 205.789 15.5597C205.549 15.7297 205.429 15.9297 205.429 16.1597C205.429 16.4197 205.559 16.6197 205.819 16.7597C206.089 16.8897 206.739 17.0997 207.769 17.3897C208.729 17.6597 209.384 17.9847 209.734 18.3647C210.094 18.7447 210.274 19.2397 210.274 19.8497C210.274 20.4797 210.004 21.0447 209.464 21.5447C208.934 22.0347 208.149 22.2797 207.109 22.2797C206.019 22.2797 205.184 22.0047 204.604 21.4547C204.024 20.8947 203.679 20.2097 203.569 19.3997Z" fill="white"/>
<g clip-path="url(#clip0_3056_72426)">
<mask id="mask0_3056_72426" style="mask-type:luminance" maskUnits="userSpaceOnUse" x="45" y="0" width="33" height="34">
<path d="M77.1964 0.00585938H45.5537V33.1829H77.1964V0.00585938Z" fill="white"/>
</mask>
<g mask="url(#mask0_3056_72426)">
<path d="M75.3449 12.7378C75.3638 12.6675 75.3394 12.6234 75.3488 12.5882C75.3244 12.5441 75.3338 12.5089 75.3093 12.4648V12.4493C75.3093 12.4493 75.2849 12.4206 75.251 12.4115L65.415 2.25588C65.3812 2.24684 65.3567 2.20266 65.3567 2.20266L65.3228 2.19361L65.2889 2.18457C65.255 2.17552 65.255 2.17552 65.2212 2.16648L65.1873 2.15743L65.1534 2.14839C65.1195 2.13935 65.0761 2.16543 65.0761 2.16543L51.4601 6.06187C51.4601 6.06187 51.4601 6.06187 51.4261 6.05279C51.4261 6.05279 51.4261 6.05279 51.3828 6.0789C51.3395 6.105 51.2961 6.13106 51.2867 6.16619C51.2434 6.1923 51.2339 6.22743 51.2244 6.26257L51.215 6.29765L51.2056 6.33278L47.4254 20.3849C47.416 20.42 47.4065 20.4552 47.3971 20.4903L47.3876 20.5254L47.3782 20.5605C47.3782 20.5605 47.3687 20.5957 47.4026 20.6047C47.4026 20.6047 47.4026 20.6047 47.427 20.6489C47.427 20.6489 47.4176 20.684 47.4515 20.6931C47.4759 20.7372 47.4759 20.7372 47.5004 20.7814L57.3363 30.9371C57.3363 30.9371 57.3363 30.9371 57.3702 30.9461L57.4041 30.9552C57.438 30.9642 57.4625 31.0084 57.4963 31.0174C57.5302 31.0265 57.5641 31.0355 57.6075 31.0094L57.6414 31.0185L57.6752 31.0276L71.2914 27.1311C71.3253 27.1402 71.3347 27.105 71.378 27.0789C71.378 27.0789 71.378 27.0789 71.4214 27.0528C71.4214 27.0528 71.4214 27.0528 71.4647 27.0268L71.5081 27.0007L71.5175 26.9655L71.5269 26.9304C71.5364 26.8953 71.5458 26.8602 71.5553 26.8251L75.3449 12.7378C75.3354 12.7729 75.3354 12.7729 75.3449 12.7378ZM74.3187 12.5016L68.4564 14.1751L65.811 3.75469L74.3187 12.5016ZM64.9716 3.22943L67.7069 14.1256L57.1331 11.3036L64.9716 3.22943ZM63.9809 3.26626L56.4592 10.9731L52.2223 6.60418L63.9809 3.26626ZM51.7133 7.14606L55.9502 11.515L48.4623 19.2308L51.7133 7.14606ZM56.2734 12.2037L59.0087 23.0999L48.435 20.2778L56.2734 12.2037ZM57.4315 29.9082L48.9238 21.1613L59.0569 23.8658L57.4315 29.9082ZM59.6794 22.9024L56.9441 12.0062L67.4839 14.8192L59.6794 22.9024ZM58.1093 30.0891L59.7347 24.0467L69.8679 26.7512L58.1093 30.0891ZM60.161 23.4074L67.9994 15.3333L70.7348 26.2295L60.161 23.4074ZM71.2366 25.3092L68.6251 14.8979L74.4875 13.2244L71.2366 25.3092Z" fill="white"/>
<path d="M75.3449 12.7378C75.3638 12.6675 75.3394 12.6234 75.3488 12.5882C75.3244 12.5441 75.3338 12.5089 75.3093 12.4648V12.4493C75.3093 12.4493 75.2849 12.4206 75.251 12.4115L65.415 2.25588C65.3812 2.24684 65.3567 2.20266 65.3567 2.20266L65.3228 2.19361L65.2889 2.18457C65.255 2.17552 65.255 2.17552 65.2212 2.16648L65.1873 2.15744L65.1534 2.14839C65.1195 2.13935 65.0761 2.16543 65.0761 2.16543L51.4601 6.06187C51.4601 6.06187 51.4601 6.06187 51.4261 6.05279C51.4261 6.05279 51.4261 6.05279 51.3828 6.0789C51.3395 6.105 51.2961 6.13106 51.2867 6.16619C51.2434 6.1923 51.2339 6.22743 51.2244 6.26257L51.215 6.29765L51.2056 6.33278L47.4254 20.3849C47.416 20.42 47.4065 20.4552 47.3971 20.4903L47.3876 20.5254L47.3782 20.5605C47.3782 20.5605 47.3687 20.5957 47.4026 20.6047C47.4026 20.6047 47.4026 20.6047 47.427 20.6489C47.427 20.6489 47.4176 20.684 47.4515 20.6931C47.4759 20.7372 47.4759 20.7372 47.5004 20.7814L57.3363 30.9371C57.3363 30.9371 57.3363 30.9371 57.3702 30.9461L57.4041 30.9552C57.438 30.9642 57.4625 31.0084 57.4963 31.0174C57.5302 31.0265 57.5641 31.0355 57.6075 31.0094L57.6414 31.0185L57.6752 31.0276L71.2914 27.1311C71.3253 27.1402 71.3347 27.105 71.378 27.0789C71.378 27.0789 71.378 27.0789 71.4214 27.0528C71.4214 27.0528 71.4214 27.0528 71.4647 27.0268L71.5081 27.0007L71.5175 26.9655L71.5269 26.9304C71.5364 26.8953 71.5459 26.8602 71.5553 26.8251L75.3449 12.7378ZM75.3449 12.7378C75.3354 12.7729 75.3354 12.7729 75.3449 12.7378ZM74.3187 12.5016L68.4564 14.1751L65.811 3.75469L74.3187 12.5016ZM64.9716 3.22943L67.7069 14.1256L57.1331 11.3036L64.9716 3.22943ZM63.9809 3.26626L56.4592 10.9731L52.2223 6.60418L63.9809 3.26626ZM51.7133 7.14606L55.9502 11.515L48.4623 19.2308L51.7133 7.14606ZM56.2734 12.2037L59.0087 23.0999L48.435 20.2778L56.2734 12.2037ZM57.4315 29.9082L48.9238 21.1613L59.0569 23.8658L57.4315 29.9082ZM59.6794 22.9024L56.9441 12.0062L67.4839 14.8192L59.6794 22.9024ZM58.1093 30.0891L59.7347 24.0467L69.8679 26.7512L58.1093 30.0891ZM60.161 23.4074L67.9994 15.3333L70.7348 26.2295L60.161 23.4074ZM71.2366 25.3092L68.6251 14.8978L74.4875 13.2244L71.2366 25.3092Z" stroke="white" stroke-width="0.478697" stroke-linejoin="round"/>
</g>
</g>
<path d="M65.2914 26.4871C65.2914 23.0736 68.0581 20.3065 71.4708 20.3065C74.8834 20.3065 77.6501 23.0736 77.6501 26.4871C77.6501 29.9005 74.8834 32.6676 71.4708 32.6676C68.0581 32.6676 65.2914 29.9005 65.2914 26.4871Z" fill="#0000FF" stroke="white" stroke-width="0.937315"/>
<path fill-rule="evenodd" clip-rule="evenodd" d="M74.2947 24.4263C74.5921 24.7238 74.5921 25.2062 74.2947 25.5037L71.2477 28.5512C70.9502 28.8487 70.4679 28.8487 70.1704 28.5512L68.6469 27.0275C68.3495 26.73 68.3495 26.2475 68.6469 25.95C68.9444 25.6525 69.4267 25.6525 69.7242 25.95L70.7091 26.9351L73.2174 24.4263C73.5149 24.1287 73.9972 24.1287 74.2947 24.4263Z" fill="white"/>
<defs>
<clipPath id="clip0_3056_72426">
<rect width="31.6427" height="33.1771" fill="white" transform="translate(45.5542)"/>
</clipPath>
</defs>
</svg>
