<?xml version="1.0" encoding="UTF-8"?>
<svg width="712px" height="415px" viewBox="0 0 712 415" version="1.1" xmlns="http://www.w3.org/2000/svg" xmlns:xlink="http://www.w3.org/1999/xlink">
    <!-- Generator: Sketch 62 (91390) - https://sketch.com -->
    <title>pivx_shields</title>
    <desc>Created with Sketch.</desc>
    <defs>
        <radialGradient cx="97.4469949%" cy="6.87486966%" fx="97.4469949%" fy="6.87486966%" r="147.798459%" gradientTransform="translate(0.974470,0.068749),scale(0.918848,1.000000),rotate(137.421707),translate(-0.974470,-0.068749)" id="radialGradient-1">
            <stop stop-color="#C19EFF" offset="0%"></stop>
            <stop stop-color="#7A54BE" offset="100%"></stop>
        </radialGradient>
        <path d="M255.621324,0.933562114 L358.19284,24.413376 C368.960034,26.8781113 375.690506,37.6047097 373.22577,48.3719036 C372.930286,49.6627259 372.507334,50.9210114 371.963141,52.1282344 C337.300761,129.022336 310.919465,187.560081 292.819251,227.74147 C288.890792,236.492207 282.538746,245.156196 274.857161,252.811736 C266.098773,261.811875 256.028059,269.716817 245.714781,277.030785 C225.976035,290.818348 205.083979,302.24744 184.159235,312.765674 C166.339053,321.483881 148.39065,329.600272 130.389315,336.887131 C128.320009,337.801338 123.849041,339.562568 116.976413,342.17082 L116.976413,342.170821 C102.012477,347.849829 85.2341862,346.021873 71.8442295,337.253774 C62.1988222,330.937705 55.2203365,326.103973 50.9087725,322.752576 C46.7706912,319.94952 43.3510304,316.463322 39.4262276,313.454239 C27.9573827,303.445651 17.1517509,292.69428 9.38606398,279.654922 C6.69088115,275.496424 4.85620118,270.752375 2.95143793,266.078809 C0.425864618,258.011214 -1.10801978,249.152041 0.974934735,239.213936 C1.81180039,234.941581 3.52708052,230.517416 5.5396475,226.125782 C24.505055,184.109409 52.5831243,121.85213 89.7738554,39.3539461 C92.4554429,33.4055304 97.8701178,29.1391906 104.280806,27.9236073 L247.432552,0.77942709 C250.14355,0.265372503 252.931591,0.317851045 255.621324,0.933562114 Z" id="path-2"></path>
        <filter x="-1.4%" y="-1.4%" width="100.7%" height="101.4%" filterUnits="objectBoundingBox" id="filter-3">
            <feOffset dx="-3" dy="-11" in="SourceAlpha" result="shadowOffsetInner1"></feOffset>
            <feComposite in="shadowOffsetInner1" in2="SourceAlpha" operator="arithmetic" k2="-1" k3="1" result="shadowInnerInner1"></feComposite>
            <feColorMatrix values="0 0 0 0 0.380392157   0 0 0 0 0.250980392   0 0 0 0 0.611764706  0 0 0 1 0" type="matrix" in="shadowInnerInner1"></feColorMatrix>
        </filter>
        <linearGradient x1="82.0519522%" y1="14.3560571%" x2="-0.774721641%" y2="95.5055104%" id="linearGradient-4">
            <stop stop-color="#FFFFFF" stop-opacity="0.9" offset="0%"></stop>
            <stop stop-color="#A580E6" offset="100%"></stop>
        </linearGradient>
        <path d="M225.871304,67.6999575 L226.562985,67.7064325 C240.107233,67.9003809 251.781761,71.9739199 259.560361,79.7100333 L259.655872,79.8074082 C264.795907,85.1793936 267.823089,92.3370749 268.601253,100.467972 L268.613531,100.617844 C269.273556,110.298818 266.640987,121.304062 261.305008,132.70185 C255.418338,145.116623 247.02709,156.60973 236.611127,165.917179 C229.468335,172.120411 222.734809,176.891969 215.846757,180.335429 C203.310722,187.105455 189.556473,190.624196 176.127396,190.926917 L175.305627,190.941433 L131.811464,190.956916 L129.396368,196.337394 L101.094235,258.988228 C99.7999425,261.85333 96.9475116,263.694741 93.8036284,263.694741 L81.3839779,263.694741 C76.9656999,263.694741 73.3839779,260.113019 73.3839779,255.694741 C73.3839779,254.561799 73.6246148,253.441778 74.08996,252.408816 L98.863021,197.418164 L98.863021,197.418164 L111.785391,168.683423 C113.076829,165.811725 115.932675,163.964654 119.081398,163.964595 L165.472939,163.963728 L165.472939,163.963728 L166.960478,163.954834 L172.575342,163.966844 C183.604391,163.961555 189.110676,163.433858 195.897946,161.257555 L197.278184,160.807765 C206.145814,157.872533 215.098857,151.990028 221.491803,144.782756 L222.126358,144.086052 C228.614809,136.87453 233.327914,128.344512 236.19514,119.247321 L236.322789,118.798063 C238.605924,110.589538 237.750592,103.925043 234.193164,100.617401 L234.040424,100.475385 L233.691393,100.104112 C230.378551,96.7205275 224.146289,94.9026835 215.906917,94.8564623 L212.099383,94.8960329 C210.427638,94.9112162 208.757533,94.9233486 206.986323,94.9330451 L174.131522,94.9887853 L167.09974,95.0198858 C162.526578,95.0486093 158.630627,95.0930075 154.68526,95.1609285 L154.237559,95.1701121 C149.82021,95.2607236 146.165786,91.75321 146.075175,87.3358613 C146.050875,86.1512306 146.290022,84.9759935 146.775339,83.8950642 L151.921953,72.4321821 C153.212228,69.5583948 156.068878,67.7093357 159.219031,67.7089125 L225.871304,67.6999575 L225.871304,67.6999575 Z M163.488116,116.811984 L192.639384,116.844757 C195.953091,116.848483 198.63636,119.537793 198.632635,122.851499 C198.631684,123.697215 198.451957,124.533177 198.105241,125.304555 L193.16062,136.305418 C191.547111,139.895176 187.978028,142.204683 184.042323,142.205748 L120.784686,142.222871 C116.366408,142.224067 112.783717,138.643315 112.782521,134.225037 C112.782214,133.090693 113.023143,131.969253 113.489322,130.935129 L117.73086,121.526128 C119.023775,118.658056 121.877641,116.814025 125.023666,116.813871 L163.488116,116.811984 L163.488116,116.811984 Z" id="path-5"></path>
        <filter x="-34.3%" y="-20.9%" width="168.6%" height="168.4%" filterUnits="objectBoundingBox" id="filter-6">
            <feOffset dx="0" dy="26" in="SourceAlpha" result="shadowOffsetOuter1"></feOffset>
            <feGaussianBlur stdDeviation="18" in="shadowOffsetOuter1" result="shadowBlurOuter1"></feGaussianBlur>
            <feComposite in="shadowBlurOuter1" in2="SourceAlpha" operator="out" result="shadowBlurOuter1"></feComposite>
            <feColorMatrix values="0 0 0 0 0.172651162   0 0 0 0 0.0550559213   0 0 0 0 0.382642663  0 0 0 1 0" type="matrix" in="shadowBlurOuter1"></feColorMatrix>
        </filter>
        <filter x="-19.5%" y="-6.1%" width="138.9%" height="138.8%" filterUnits="objectBoundingBox" id="filter-7">
            <feOffset dx="-3" dy="-4" in="SourceAlpha" result="shadowOffsetInner1"></feOffset>
            <feComposite in="shadowOffsetInner1" in2="SourceAlpha" operator="arithmetic" k2="-1" k3="1" result="shadowInnerInner1"></feComposite>
            <feColorMatrix values="0 0 0 0 0.602948021   0 0 0 0 0.494271537   0 0 0 0 0.800894475  0 0 0 1 0" type="matrix" in="shadowInnerInner1"></feColorMatrix>
        </filter>
    </defs>
    <g id="Page-1" stroke="none" stroke-width="1" fill="none" fill-rule="evenodd">
        <g id="PIVX" transform="translate(-991.000000, -178.000000)">
            <g id="Header" transform="translate(0.000000, -1.000000)">
                <g id="pivx_shields" transform="translate(991.000000, 179.000000)">
                    <path d="M682.232277,116.232311 L708.038952,122.125735 C710.731069,122.740528 712.415072,125.421308 711.800278,128.113425 C711.72605,128.438461 711.619498,128.755259 711.482212,129.059087 C702.768999,148.342354 696.137623,163.021851 691.588084,173.097576 C690.600827,175.291494 689.004502,177.463662 687.074051,179.382999 C684.87299,181.639445 682.34213,183.62131 679.750311,185.455012 C674.789789,188.911722 669.539429,191.777136 664.280855,194.414186 C659.802484,196.599947 655.291891,198.634826 650.767995,200.461731 C650.243472,200.692912 649.104928,201.140133 647.352363,201.803394 L647.352362,201.803392 C643.619208,203.216209 639.435803,202.761205 636.093675,200.578851 C633.649718,198.982988 631.883102,197.762712 630.793828,196.918025 C629.753891,196.215264 628.8945,195.341232 627.908162,194.586818 C625.025939,192.077542 622.310388,189.382042 620.358801,186.112915 C619.681478,185.070329 619.220407,183.880937 618.741723,182.709217 C618.107024,180.686572 617.721545,178.465469 618.24501,175.973864 C618.455322,174.902733 618.886387,173.79354 619.392163,172.692504 C624.159033,162.156949 631.216664,146.545272 640.565055,125.857473 C641.23645,124.371707 642.590087,123.306601 644.192096,123.003552 L680.189737,116.193949 C680.865968,116.066028 681.561326,116.079088 682.232277,116.232311 Z" id="Path" fill="#B68EFF" opacity="0.102417"></path>
                    <path d="M465.348415,285.348467 L504.058429,294.188602 C508.096603,295.110792 510.622607,299.131962 509.700417,303.170137 C509.589075,303.657692 509.429246,304.132888 509.223318,304.58863 C496.153499,333.513531 486.206435,355.532776 479.382126,370.646365 C477.901241,373.93724 475.506752,377.195493 472.611076,380.074499 C469.309485,383.459167 465.513195,386.431965 461.625467,389.182517 C454.184683,394.367584 446.309144,398.665704 438.421282,402.621279 C431.703727,405.899921 424.937837,408.952239 418.151993,411.692596 C417.365209,412.039368 415.657395,412.710198 413.02855,413.705089 L413.02855,413.70509 C407.428818,415.824317 401.153709,415.14181 396.140516,411.868278 C392.474579,409.474483 389.824654,407.644069 388.190741,406.377037 C386.630836,405.322897 385.34175,404.011848 383.862243,402.880227 C379.538909,399.116313 375.465581,395.073063 372.538202,390.169372 C371.522217,388.605493 370.83061,386.821406 370.112584,385.063826 C369.160535,382.029858 368.582317,378.698204 369.367515,374.960796 C369.682982,373.354099 370.32958,371.69031 371.088244,370.038756 C378.238548,354.235427 388.824992,330.817917 402.847575,299.786228 C403.854654,297.557567 405.885114,295.959905 408.288133,295.50533 L462.284605,285.290923 C463.298951,285.099041 464.341989,285.118632 465.348415,285.348467 Z" id="Path-Copy-6" fill="#B68EFF" opacity="0.072417"></path>
                    <path d="M234.975145,220.312766 L269.945217,228.287648 C273.579826,229.116515 275.854329,232.734878 275.025461,236.369487 C274.92497,236.81014 274.780476,237.239587 274.594154,237.65136 C262.793209,263.73158 253.812002,283.584958 247.650531,297.211495 C246.31362,300.17827 244.151929,303.115634 241.537777,305.711101 C238.557174,308.762431 235.129968,311.442454 231.620213,313.922118 C224.902839,318.596534 217.792977,322.471354 210.671991,326.037365 C204.607531,328.993111 198.499436,331.744822 192.373327,334.215295 C191.659493,334.529474 190.105855,335.13872 187.712414,336.043033 C182.678864,337.944858 177.040106,337.332174 172.532488,334.393648 C169.207086,332.225811 166.804582,330.569007 165.324975,329.423238 C163.916727,328.472914 162.752968,327.290984 161.417303,326.27081 C157.514293,322.877585 153.836983,319.232534 151.19421,314.811783 C150.277001,313.401922 149.652634,311.79354 149.004416,310.209055 C148.144928,307.473887 147.622925,304.47035 148.331784,301.101021 C148.616581,299.652559 149.200315,298.152628 149.88522,296.663727 C156.340911,282.415562 165.899204,261.301919 178.560101,233.322798 C179.467267,231.318071 181.294651,229.881353 183.456837,229.472909 L232.221408,220.261112 C233.133115,220.088887 234.070539,220.106471 234.975145,220.312766 Z" id="Path-Copy-4" fill="#B68EFF" opacity="0.102417"></path>
                    <path d="M608.290346,0.29038931 L640.54869,7.65716813 C643.913836,8.42565991 646.01884,11.7766353 645.250347,15.1417807 C645.157562,15.5480767 645.024372,15.9440734 644.852765,16.3238582 C633.961249,40.4279429 625.672029,58.7773136 619.985105,71.3719705 C618.751034,74.1143669 616.755627,76.8295772 614.342564,79.2287493 C611.591237,82.0493057 608.427663,84.5266377 605.187889,86.8187646 C598.987236,91.1396531 592.424287,94.7214199 585.851069,98.0177327 C580.253106,100.749934 574.614864,103.293532 568.959994,105.577164 C568.304341,105.86614 566.88116,106.425166 564.690453,107.254242 L564.690452,107.25424 C560.02401,109.020261 554.794754,108.451506 550.617094,105.723564 C547.562148,103.728735 545.353878,102.20339 543.992285,101.147531 C542.692364,100.26908 541.618125,99.1765396 540.385202,98.2335223 C536.782424,95.0969277 533.387985,91.7275522 530.948502,87.6411437 C530.101847,86.3379107 529.525508,84.8511716 528.927153,83.3865213 C528.133779,80.8582153 527.651931,78.0818363 528.306262,74.9673304 C528.569152,73.6284156 529.107983,72.2419253 529.740203,70.8656297 C535.69879,57.6961888 544.520826,38.1815978 556.206312,12.3218566 C557.045545,10.4646391 558.737595,9.13325385 560.740111,8.75444183 L605.737171,0.242436142 C606.58246,0.0825345042 607.451658,0.0988595905 608.290346,0.29038931 Z" id="Path-Copy-3" fill="#B68EFF" opacity="0.202417"></path>
                    <path d="M598.145173,273.145195 L614.274361,276.828588 C615.956922,277.212847 617.009418,278.888326 616.625174,280.57089 C616.578782,280.774037 616.512187,280.972035 616.426384,281.161926 C610.980625,293.21397 606.836015,302.388656 603.992553,308.685985 C603.375517,310.057183 602.377814,311.414789 601.171282,312.614375 C599.795619,314.024653 598.213831,315.263319 596.593945,316.409382 C593.493618,318.569827 590.212143,320.36071 586.925534,322.008866 C584.126553,323.374967 581.307432,324.646766 578.479997,325.788582 C578.152171,325.93307 577.440584,326.212581 576.345236,326.627118 L576.345238,326.627124 C574.012015,327.510135 571.397384,327.225758 569.308552,325.861785 C567.781076,324.864369 566.67694,324.101696 565.996142,323.573765 C565.346182,323.13454 564.809062,322.58827 564.192601,322.116761 C562.391212,320.548464 560.693992,318.863776 559.474251,316.820572 C559.050924,316.168955 558.762754,315.425586 558.463577,314.693261 C558.06689,313.429108 557.825965,312.040918 558.153131,310.483665 C558.284576,309.814208 558.553992,309.120963 558.870102,308.432815 C561.849396,301.848093 566.260415,292.090795 572.10316,279.160921 C572.522781,278.232317 573.368804,277.566626 574.37006,277.37722 L596.868585,273.121218 C597.29123,273.041267 597.725829,273.04943 598.145173,273.145195 Z" id="Path-Copy-2" fill="#B68EFF" opacity="0.102417"></path>
                    <path d="M180.18421,97.1827822 L200.353972,101.805663 C202.456807,102.287632 203.770781,104.383028 203.288814,106.485863 C203.23125,106.737017 203.148977,106.98186 203.043197,107.216813 C196.230965,122.347827 191.046797,133.865453 187.490691,141.769691 C186.719396,143.489921 185.472267,145.193098 183.964102,146.698034 C182.244523,148.467292 180.267289,150.021255 178.242431,151.459043 C174.367023,154.169419 170.265179,156.416163 166.156918,158.483851 C162.658191,160.197686 159.13429,161.793216 155.599996,163.225675 C155.191702,163.406284 154.307183,163.755058 152.94644,164.271999 L152.946442,164.272003 C150.021662,165.383114 146.741584,165.025576 144.124875,163.310424 C142.221133,162.062595 140.844567,161.108149 139.995178,160.447088 C139.182727,159.89606 138.511328,159.210739 137.740751,158.619209 C135.489015,156.651709 133.36749,154.538192 131.842814,151.974899 C131.313655,151.157417 130.953443,150.224826 130.579471,149.306091 C130.083612,147.720153 129.782457,145.978606 130.191414,144.024962 C130.35572,143.185097 130.69249,142.315389 131.087627,141.452077 C134.812051,133.190564 140.326427,120.948254 147.630754,104.725148 C148.154087,103.562795 149.211653,102.728916 150.464014,102.491148 L178.582922,97.152607 C179.11304,97.051961 179.658261,97.0622353 180.18421,97.1827822 Z" id="Path-Copy-7" fill="#B68EFF" opacity="0.102417"></path>
                    <path d="M40.1451731,215.145195 L56.2743609,218.828588 C57.9569217,219.212847 59.0094181,220.888326 58.625174,222.57089 C58.5787817,222.774037 58.5121868,222.972035 58.4263837,223.161926 C52.9806251,235.21397 48.8360147,244.388656 45.9925525,250.685985 C45.3755171,252.057183 44.3778135,253.414789 43.1712818,254.614375 C41.7956187,256.024653 40.2138313,257.263319 38.5939447,258.409382 C35.493618,260.569827 32.2121433,262.36071 28.9255343,264.008866 C26.1265528,265.374967 23.3074319,266.646766 20.4799971,267.788582 C20.1521712,267.93307 19.4405842,268.212581 18.3452361,268.627118 L18.3452383,268.627124 C16.012015,269.510135 13.3973842,269.225758 11.308552,267.861785 C9.78107627,266.864369 8.67693968,266.101696 7.99614227,265.573765 C7.34618186,265.13454 6.80906236,264.58827 6.1926012,264.116761 C4.39121194,262.548464 2.69399229,260.863776 1.47425089,258.820572 C1.05092374,258.168955 0.762754112,257.425586 0.463576638,256.693261 C0.0668897306,255.429108 -0.17403452,254.040918 0.15313111,252.483665 C0.284575977,251.814208 0.553991705,251.120963 0.870101702,250.432815 C3.84939566,243.848093 8.26041497,234.090795 14.1031597,221.160921 C14.5227815,220.232317 15.3688043,219.566626 16.37006,219.37722 L38.8685853,215.121218 C39.2912298,215.041267 39.7258289,215.04943 40.1451731,215.145195 Z" id="Path-Copy-8" fill="#B68EFF" opacity="0.102417"></path>
                    <path d="M307.145173,10.1451947 L323.274361,13.8285876 C324.956922,14.2128469 326.009418,15.8883262 325.625174,17.5708904 C325.578782,17.7740374 325.512187,17.9720348 325.426384,18.1619262 C319.980625,30.21397 315.836015,39.3886563 312.992553,45.6859853 C312.375517,47.0571835 311.377814,48.4147886 310.171282,49.6143746 C308.795619,51.0246528 307.213831,52.2633189 305.593945,53.4093823 C302.493618,55.5698265 299.212143,57.3607099 295.925534,59.0088664 C293.126553,60.3749672 290.307432,61.6467662 287.479997,62.7885818 C287.152171,62.9330695 286.440584,63.2125815 285.345236,63.6271176 L285.345238,63.6271235 C283.012015,64.5101355 280.397384,64.2257577 278.308552,62.8617851 C276.781076,61.864369 275.67694,61.1016957 274.996142,60.5737654 C274.346182,60.1345402 273.809062,59.5882698 273.192601,59.1167611 C271.391212,57.5484638 269.693992,55.8637761 268.474251,53.8205718 C268.050924,53.1689553 267.762754,52.4255858 267.463577,51.6932606 C267.06689,50.4291076 266.825965,49.0409181 267.153131,47.4836652 C267.284576,46.8142078 267.553992,46.1209626 267.870102,45.4328148 C270.849396,38.8480931 275.260415,29.090795 281.10316,16.1609206 C281.522781,15.2323168 282.368804,14.5666256 283.37006,14.37722 L305.868585,10.1212181 C306.29123,10.0412673 306.725829,10.0494298 307.145173,10.1451947 Z" id="Path-Copy-5" fill="#B68EFF" opacity="0.202417"></path>
                    <g id="Group-9" transform="translate(206.000000, 1.000000)">
                        <g id="Path">
                            <use fill="url(#radialGradient-1)" fill-rule="evenodd" xlink:href="#path-2"></use>
                            <use fill="black" fill-opacity="1" filter="url(#filter-3)" xlink:href="#path-2"></use>
                        </g>
                        <g id="Combined-Shape">
                            <use fill="black" fill-opacity="1" filter="url(#filter-6)" xlink:href="#path-5"></use>
                            <use fill="url(#linearGradient-4)" fill-rule="evenodd" xlink:href="#path-5"></use>
                            <use fill="black" fill-opacity="1" filter="url(#filter-7)" xlink:href="#path-5"></use>
                        </g>
                    </g>
                </g>
            </g>
        </g>
    </g>
</svg>