<?xml version="1.0" encoding="utf-8"?>
<!-- Generator: Adobe Illustrator 21.1.0, SVG Export Plug-In . SVG Version: 6.00 Build 0)  -->
<svg version="1.1" id="Layer_1" xmlns="http://www.w3.org/2000/svg" xmlns:xlink="http://www.w3.org/1999/xlink" x="0px" y="0px"
	 viewBox="0 0 16 20" style="enable-background:new 0 0 16 20;" xml:space="preserve">
<style type="text/css">
	.st0{display:none;fill:url(#SVGID_1_);}
	.st1{fill:#FFFFFF;}
</style>
<linearGradient id="SVGID_1_" gradientUnits="userSpaceOnUse" x1="-284.9" y1="393.3333" x2="-284.9" y2="394.3035" gradientTransform="matrix(50 0 0 -30 14259 11825)">
	<stop  offset="0" style="stop-color:#FF824F"/>
	<stop  offset="1" style="stop-color:#FF9D70"/>
</linearGradient>
<path class="st0" d="M4-5h20c8.3,0,15,6.7,15,15s-6.7,15-15,15H4c-8.3,0-15-6.7-15-15S-4.3-5,4-5z"/>
<path class="st1" d="M8,0C7.2,0,6.5,0.7,6.5,1.5v0.7C3.9,2.9,2,5.3,2,8v6l-2,2v1h6.3C5.7,18,6,19.2,7,19.7S9.2,20,9.7,19
	c0.2-0.3,0.3-0.7,0.3-1c0-0.4-0.1-0.7-0.3-1H16v-1l-2-2V8c0-2.7-1.9-5.1-4.5-5.8V1.5C9.5,0.7,8.8,0,8,0z M8,4c2.2,0,4,1.8,4,4v6.8
	l0.2,0.2H3.8L4,14.8V8C4,5.8,5.8,4,8,4z"/>
</svg>
