<svg xmlns="http://www.w3.org/2000/svg" width="38" height="38" viewBox="0 0 38 38">
    <path fill="#464F5F" fill-rule="nonzero" d="M34.545 0H3.455A3.454 3.454 0 0 0 0 3.455v31.09A3.454 3.454 0 0 0 3.455 38h31.09A3.454 3.454 0 0 0 38 34.545V3.455A3.454 3.454 0 0 0 34.545 0zM12.011 31.09H6.916V14.697h5.095V31.09zm-2.6-18.738a2.97 2.97 0 1 1 0-5.94 2.972 2.972 0 0 1 2.97 2.969c0 1.639-1.332 2.97-2.97 2.97zM31.099 31.09h-5.092v-7.973c0-1.902-.035-4.348-2.648-4.348-2.651 0-3.06 2.071-3.06 4.21v8.11h-5.091V14.697h4.888v2.24h.07c.68-1.289 2.341-2.648 4.82-2.648 5.16 0 6.113 3.396 6.113 7.81v8.993z"/>
</svg>
