<svg xmlns="http://www.w3.org/2000/svg" xmlns:xlink="http://www.w3.org/1999/xlink" width="2048" height="1041" viewBox="0 0 2048 1041">
    <defs>
        <linearGradient id="b" x1="9.679%" x2="90.042%" y1="56.057%" y2="41.764%">
            <stop offset="0%" stop-color="#222936"/>
            <stop offset="100%" stop-color="#354052"/>
        </linearGradient>
        <path id="a" d="M1583.066 85.536c581.896-116.968 907.928-23.304 995.743 99.414 11.038 15.425 22.058 46.8 31.871 88.23l39.32.018V1081h-34.493c-72.247-83.888-215.32-134.467-354.959-128.757-301.873 12.342-476.756 164.496-1084.92 40.25-408.58-83.47-700.133-55.948-874.458 4.078l-.012-137.285C-26.682 534.146 120.225 1.06 540.458 45.6c444.293 47.09 460.712 156.903 1042.608 39.936z"/>
    </defs>
    <g fill="none" fill-rule="evenodd" transform="translate(-361)">
        <path fill="#354052" d="M1838.444 148.104c-242.376 0-406.85 187.344-910.523 39.947-503.675-147.397-792.907-23.31-869.596 99.444C11.375 362.644-35.2 676.232 38.48 826.818c46.674 95.392 252.99 19.512 414.978 97.6 164.557 79.325 417.604 40.656 636.85 40.061 337.271-.915 689.6 102.659 903.835-88.82 353.5-315.953 86.677-727.555-155.7-727.555z" opacity=".1"/>
        <path fill="#354052" d="M2517.35 166.495c-83.448-122.754-398.168-246.84-946.227-99.444-548.058 147.397-710.426 17.736-974.16 17.736-123.122 0-128.66 73.794-100.794 169.975L353 254.77v411l259.293.016c81.25 128.36 461.855 46.896 782.132 47.694 238.566.595 513.912 39.264 692.97-40.062a359.825 359.825 0 0 1 18.707-7.659l478.898.01v-411l-26.814-.004c-11.516-36.138-26.16-66.679-40.837-88.27z" opacity=".1"/>
        <path fill="#354052" d="M2525.35 849.74c-83.448 122.755-398.168 246.842-946.227 99.445-548.058-147.397-710.426-17.736-974.16-17.736-103.402 0-123.87-72.031-111.267-169.973L361 761.467v-541l259.293-.016c81.25-128.36 461.855-46.896 782.132-47.694 238.566-.595 513.912-39.264 692.97 40.062a359.825 359.825 0 0 0 18.707 7.659l478.898-.011v541l-33.134.01c-10.325 39.251-22.41 70.454-34.517 88.264z" opacity=".1"/>
        <use fill="url(#b)" xlink:href="#a"/>
    </g>
</svg>
