<svg xmlns="http://www.w3.org/2000/svg" width="42" height="35" viewBox="0 0 42 35">
    <path fill="#464F5F" fill-rule="nonzero" d="M32.874 7.75l-15.61 13.887a3.054 3.054 0 0 0-1.003 1.853l-.531 3.77c-.07.504-.81.555-.956.066L12.73 20.45c-.233-.785.107-1.623.833-2.05L32.476 7.248c.34-.2.69.24.398.5zM40.448.074L.73 14.74c-.979.361-.972 1.69.012 2.041l9.677 3.458 3.746 11.53c.24.738 1.184 1.01 1.81.522l5.395-4.21a1.665 1.665 0 0 1 1.96-.052l9.731 6.762c.67.465 1.619.114 1.787-.661l7.127-32.815c.184-.846-.684-1.551-1.527-1.24z"/>
</svg>
