<?xml version="1.0" encoding="UTF-8"?>
<svg width="17px" height="17px" viewBox="0 0 17 17" version="1.1" xmlns="http://www.w3.org/2000/svg" xmlns:xlink="http://www.w3.org/1999/xlink">
    <title>error</title>
    <defs>
        <linearGradient x1="17.8263371%" y1="87.5030547%" x2="17.8263371%" y2="0%" id="linearGradient-1">
            <stop stop-color="#EC4F56" offset="0%"></stop>
            <stop stop-color="#FF6956" offset="100%"></stop>
        </linearGradient>
    </defs>
    <g id="Check-Status" stroke="none" stroke-width="1" fill="none" fill-rule="evenodd">
        <g id="Check-Copy" transform="translate(-1543.000000, -400.000000)" fill="url(#linearGradient-1)" fill-rule="nonzero">
            <g id="Plan-#3-Copy-3" transform="translate(481.000000, 368.000000)">
                <g id="clear" transform="translate(1062.000000, 32.000000)">
                    <path d="M0.474915469,14.3662914 C-0.113728002,14.972765 -0.106677114,15.9399885 0.490745381,16.5377997 C1.08816788,17.135611 2.05449113,17.1423951 2.66023267,16.5530307 L8.50642708,10.701301 L14.3612677,16.5615304 C14.966957,17.1518045 15.9341218,17.1452888 16.5318183,16.5469076 C17.1295147,15.9485263 17.1358193,14.9804572 16.5459673,14.3743275 L10.6915127,8.51440724 L16.5687406,2.6318469 C17.1519353,2.02466041 17.1424685,1.06200063 16.5474458,0.466422422 C15.9524231,-0.129155782 14.9906612,-0.138631457 14.384041,0.445107666 L8.50642708,6.32712712 L2.63792248,0.453066469 C2.03450643,-0.150976903 1.0561239,-0.15102878 0.452643917,0.452950597 C-0.150836069,1.05692997 -0.150887927,2.03622591 0.452528088,2.64026932 L6.32126428,8.51432997 L0.474915469,14.3662914 Z" id="error"></path>
                </g>
            </g>
        </g>
    </g>
</svg>