<?xml version="1.0" encoding="UTF-8"?>
<svg width="18px" height="18px" viewBox="0 0 18 18" version="1.1" xmlns="http://www.w3.org/2000/svg" xmlns:xlink="http://www.w3.org/1999/xlink">
    <title>search_grey</title>
    <g id="Check-Status" stroke="none" stroke-width="1" fill="none" fill-rule="evenodd">
        <g id="Check" transform="translate(-1376.000000, -337.000000)" fill="#C7CBD4" fill-rule="nonzero">
            <g id="Plan-#3-Copy" transform="translate(469.000000, 306.000000)">
                <g id="Button" transform="translate(907.000000, 18.000000)">
                    <g id="search-ios-glyph-icons-(1)" transform="translate(0.000000, 13.000000)">
                        <path d="M7.70629399,0 C3.46543821,0 0,3.46543821 0,7.70629399 C0,11.9471498 3.46543821,15.412588 7.70629399,15.412588 C9.36507249,15.412588 10.9009587,14.8770879 12.1614952,13.9776915 L15.7888722,17.6050684 C16.1110166,17.9406015 16.5893853,18.0757633 17.0394869,17.9584262 C17.4895885,17.8410891 17.8410891,17.4895885 17.9584262,17.0394869 C18.0757633,16.5893853 17.9406015,16.1110166 17.6050684,15.7888722 L13.9776915,12.1614952 C14.8770879,10.9009587 15.412588,9.36507249 15.412588,7.70629399 C15.412588,3.46543821 11.9471498,0 7.70629399,0 Z M7.70629399,2.56876466 C10.5588866,2.56876466 12.8438233,4.85370138 12.8438233,7.70629399 C12.8438233,10.5588866 10.5588866,12.8438233 7.70629399,12.8438233 C4.85370138,12.8438233 2.56876466,10.5588866 2.56876466,7.70629399 C2.56876466,4.85370138 4.85370138,2.56876466 7.70629399,2.56876466 Z" id="search_grey"></path>
                    </g>
                </g>
            </g>
        </g>
    </g>
</svg>