<?xml version="1.0" encoding="UTF-8"?>
<svg width="180px" height="78px" viewBox="0 0 180 78" version="1.1" xmlns="http://www.w3.org/2000/svg" xmlns:xlink="http://www.w3.org/1999/xlink">
    <title>MSN-logo</title>
    <g id="Newsroom" stroke="none" stroke-width="1" fill="none" fill-rule="evenodd">
        <g transform="translate(-649.000000, -2919.000000)" fill="#FFFFFF" fill-rule="nonzero" id="Group-6-Copy-6">
            <g transform="translate(469.000000, 2788.000000)">
                <g id="MSN-logo" transform="translate(180.000000, 131.000000)">
                    <path d="M21.258,0.455625 C21.519,0.52425 21.78,0.5985 22.039875,0.678375 C22.579875,0.87525 23.11425,1.09125 23.643,1.3185 C23.81625,1.409625 23.9895,1.4985 24.165,1.58625 C24.31575,1.66725 24.465375,1.7505 24.613875,1.836 C27.53325,3.4515 29.916,5.934375 31.63275,8.778375 C32.164875,9.648 32.637375,10.553625 33.06825,11.478375 C33.21,11.8215 33.36075,12.160125 33.4935,12.50775 C33.575625,12.69 33.654375,12.8745 33.7275,13.062375 C33.780375,13.201875 33.831,13.343625 33.883875,13.48425 C34.063875,14.014125 34.2405,14.54625 34.40025,15.082875 C35.596125,19.009125 36.023625,23.13225 36.0472816,27.223875 C36.052875,33.16275 35.308125,39.09375 33.955875,44.872875 C33.82875,45.47925 33.64875,46.072125 33.507,46.674 C33.352875,47.354625 33.148125,48.022875 32.9445,48.688875 C32.916375,48.808125 32.889375,48.927375 32.8635,49.048875 C32.814,49.192875 32.770125,49.34025 32.722875,49.4865 C32.554125,50.095125 32.34375,50.691375 32.166,51.296625 C32.103,51.4935 32.03775,51.68925 31.975875,51.886125 C31.636125,52.821 31.329,53.767125 30.95775,54.689625 C30.648375,55.524375 30.306375,56.34675 29.9655,57.169125 C29.9025,57.308625 29.842875,57.450375 29.779875,57.592125 C29.673,57.85425 29.5605,58.116375 29.43675,58.372875 C29.352375,58.570875 29.264625,58.77 29.176875,58.968 L28.535625,60.282 C28.40625,60.553125 28.26675,60.81975 28.13175,61.08975 C27.864,61.61175 27.601875,62.13825 27.311625,62.649 C26.49375,64.12275 25.630875,65.575125 24.652125,66.949875 C23.695875,68.3685 22.6035,69.68925 21.470625,70.9695 C20.8755,71.5905 20.28375,72.217125 19.632375,72.779625 L19.634625,72.844875 L19.5525,72.842625 C19.519875,72.87525 19.4535,72.93825 19.420875,72.96975 C19.200375,73.162125 18.984375,73.359 18.757125,73.5435 C17.989875,74.176875 17.18325,74.766375 16.329375,75.279375 C16.167375,75.3795 16.00425,75.477375 15.841125,75.576375 C13.858875,76.728375 11.63025,77.497875 9.333,77.639625 C7.9245,77.751 6.49125,77.5845 5.16375,77.095125 C4.705875,76.885875 4.248,76.67775 3.81375,76.4235 C3.483,76.188375 3.15675,75.945375 2.847375,75.682125 C2.748375,75.591 2.649375,75.499875 2.550375,75.409875 C2.51775,75.378375 2.451375,75.31425 2.417625,75.28275 L2.431125,75.196125 L2.307375,75.209625 L2.305125,75.132 C2.0205,74.831625 1.783125,74.491875 1.546875,74.154375 C1.4175,73.917 1.287,73.681875 1.1565,73.44675 C0.253125,71.65125 0.02475,69.597 0.109125,67.611375 C0.1575,66.51225 0.31725,65.421 0.554625,64.34775 C0.75825,63.558 0.97425,62.7705 1.26675,62.008875 C1.3275,61.844625 1.389375,61.6815 1.449,61.518375 C1.62675,61.102125 1.7955,60.683625 1.98225,60.273 C2.27475,59.661 2.599875,59.065875 2.928375,58.474125 L2.95425,58.460625 C3.00825,58.357125 3.061125,58.25475 3.115125,58.1535 C3.493125,57.55275 3.879,56.955375 4.293,56.37825 C4.51575,56.07 4.750875,55.77075 4.97925,55.468125 C5.787,54.4185 6.694875,53.45325 7.633125,52.520625 C8.040375,52.138125 8.4375,51.739875 8.883,51.40125 C8.951625,51.32925 9.02025,51.25725 9.09,51.186375 C9.2385,51.064875 9.387,50.94225 9.53775,50.823 C9.70425,50.6925 9.86625,50.5575 10.02825,50.4225 C10.245375,50.25825 10.463625,50.095125 10.681875,49.933125 C11.16225,49.59225 11.649375,49.262625 12.15,48.952125 C12.276,48.879 12.403125,48.807 12.53025,48.735 C12.816,48.873375 13.095,49.024125 13.372875,49.179375 C13.483125,49.24125 13.5945,49.303125 13.705875,49.366125 C14.05575,49.550625 14.403375,49.737375 14.756625,49.914 C15.350625,50.22675 15.942375,50.540625 16.549875,50.824125 C17.1855,51.13125 17.814375,51.454125 18.4635,51.730875 C18.56475,51.77475 18.667125,51.8175 18.7695,51.8625 C19.00125,51.973875 19.234125,52.08525 19.467,52.19775 C19.83375,52.354125 20.201625,52.50825 20.566125,52.671375 C20.80125,52.765875 21.036375,52.86375 21.270375,52.965 C22.012875,53.285625 22.78125,53.55 23.531625,53.85375 C23.686875,53.857125 23.44725,53.692875 23.4,53.679375 C22.912875,53.433 22.47075,53.110125 22.030875,52.790625 C21.76425,52.606125 21.502125,52.417125 21.24,52.227 C20.874375,51.94125 20.498625,51.669 20.151,51.36075 L20.1105,51.363 C19.902375,51.170625 19.688625,50.986125 19.477125,50.799375 L19.43775,50.8005 C18.586125,50.065875 17.7615,49.300875 16.972875,48.497625 C16.457625,47.96325 15.93,47.440125 15.44175,46.879875 C15.035625,46.41975 14.643,45.94725 14.257125,45.47025 C13.74975,44.843625 13.2795,44.188875 12.80475,43.538625 C12.4965,43.099875 12.1905,42.66 11.899125,42.211125 C11.43,41.470875 10.958625,40.73175 10.54575,39.958875 C10.5165,39.904875 10.456875,39.798 10.4265,39.745125 C10.321875,39.54825 10.216125,39.351375 10.10475,39.157875 C9.986625,38.937375 9.871875,38.714625 9.756,38.494125 C9.657,38.293875 9.55575,38.09475 9.453375,37.897875 C9.383625,37.749375 9.316125,37.602 9.246375,37.454625 C9.014625,36.970875 8.807625,36.477 8.587125,35.98875 C8.526375,35.845875 8.467875,35.703 8.40825,35.560125 C8.1135,34.8075 7.80075,34.061625 7.5555,33.291 C7.50375,33.145875 7.45425,33.00075 7.401375,32.857875 C6.307875,29.54925 5.614875,26.107875 5.367375,22.6305 C5.085,18.595125 5.28975,14.463 6.5385,10.589625 C7.19325,8.575875 8.139375,6.643125 9.439875,4.96575 C10.0935,4.147875 10.8225,3.38625 11.633625,2.7225 C12.560625,1.953 13.6125,1.3365 14.725125,0.878625 C16.78275,0.048375 19.112625,-0.15975 21.258,0.455625 Z M55.01925,21.722625 C55.821375,21.8205 56.601,22.242375 57.027375,22.94325 C57.106125,23.0985 57.184875,23.252625 57.265875,23.40675 C57.524625,24.202125 57.628125,25.041375 57.605625,25.876125 C57.567375,28.8675 56.698875,31.777875 55.566,34.522875 C55.48725,34.71075 55.405125,34.896375 55.323,35.083125 C55.123875,35.5455 54.898875,35.9955 54.68175,36.45 C54.594,36.63 54.500625,36.806625 54.414,36.98775 C54.31725,37.182375 54.221625,37.377 54.122625,37.569375 C53.9775,37.84275 53.839125,38.1195 53.695125,38.392875 C53.38575,38.91375 53.105625,39.4515 52.79175,39.970125 C52.664625,40.181625 52.53975,40.395375 52.414875,40.609125 C52.29,40.800375 52.171875,40.995 52.0515,41.187375 C52.041375,41.20875 52.02,41.250375 52.009875,41.270625 C51.70725,41.734125 51.402375,42.195375 51.102,42.66 C50.950125,42.883875 50.79825,43.10775 50.641875,43.329375 C49.611375,44.845875 48.517875,46.321875 47.381625,47.761875 L47.36475,47.77875 C47.23425,47.935125 47.1015,48.08925 46.965375,48.24 L46.96875,48.28275 C46.391625,48.994875 45.78075,49.678875 45.208125,50.3955 C45.016875,50.610375 44.81775,50.817375 44.62425,51.03 C43.94925,51.81975 43.243875,52.583625 42.5295,53.3385 C42.582375,55.873125 42.267375,58.408875 41.634,60.8625 C41.452875,61.536375 41.270625,62.2125 41.0355,62.870625 C40.964625,63.0945 40.892625,63.3195 40.8105,63.541125 C40.608,64.0845 40.397625,64.623375 40.177125,65.16 C39.398625,66.961125 38.4615,68.698125 37.3275,70.300125 C36.230625,71.802 34.9785,73.23975 33.382125,74.22525 C33.330375,74.2545 33.22575,74.314125 33.174,74.343375 C33.0705,74.3985 32.967,74.45475 32.864625,74.512125 C32.12775,74.85975 31.298625,75.087 30.483,74.92725 C30.0015,74.858625 29.58075,74.59425 29.22075,74.280375 L29.1828333,74.2435417 L29.1015,74.163375 C28.90125,73.91025 28.735875,73.632375 28.58625,73.34775 C27.925875,71.631 28.01925,69.72975 28.28925,67.942125 C28.459125,66.807 28.7325,65.691 29.039625,64.58625 C29.10375,64.355625 29.17575,64.12725 29.24325,63.89775 C29.28825,63.748125 29.33325,63.60075 29.38275,63.4545 C29.539125,62.919 29.723625,62.391375 29.907,61.864875 C30.254625,60.9705 30.594375,60.07275 30.95325,59.182875 C31.08375,58.831875 31.228875,58.487625 31.361625,58.138875 C31.491,57.8115 31.61025,57.481875 31.74525,57.157875 C31.80825,57.0015 31.872375,56.847375 31.9365,56.69325 C32.01525,56.49525 32.09175,56.29725 32.171625,56.100375 C32.31675,55.729125 32.457375,55.35675 32.608125,54.988875 L32.862375,54.35325 C33.0885,53.78625 33.309,53.217 33.544125,52.655625 C33.607125,52.500375 33.672375,52.347375 33.73425,52.19325 C33.81075,52.003125 33.886125,51.813 33.960375,51.622875 C34.147125,51.174 34.315875,50.71725 34.507125,50.270625 C34.659,49.894875 34.81425,49.521375 34.974,49.150125 C35.082,48.888 35.186625,48.623625 35.290125,48.360375 C35.371125,48.1725 35.44875,47.98575 35.5275,47.797875 C35.6175,47.584125 35.703,47.36925 35.789625,47.154375 C35.982,46.70325 36.16875,46.249875 36.370125,45.80325 C36.477,45.538875 36.585,45.2745 36.700875,45.014625 C36.826875,44.699625 36.964125,44.39025 37.090125,44.0775 C37.215,43.81875 37.328625,43.554375 37.438875,43.288875 C37.607625,42.92775 37.76175,42.559875 37.915875,42.192 C38.04075,41.932125 38.15775,41.668875 38.273625,41.4045 C38.32425,41.28075 38.376,41.158125 38.428875,41.036625 C38.710125,40.411125 38.9925,39.78675 39.2895,39.169125 C39.504375,38.71125 39.695625,38.241 39.93075,37.79325 C40.017375,37.614375 40.10175,37.436625 40.186125,37.25775 C40.609125,36.343125 41.047875,35.43525 41.5305,34.549875 C42.63525,32.5845 43.842375,30.675375 45.19125,28.8675 C45.595125,28.371375 45.96975,27.851625 46.375875,27.35775 C46.560375,27.13275 46.755,26.915625 46.95075,26.699625 C46.983375,26.667 47.048625,26.60175 47.080125,26.569125 L47.077875,26.485875 L47.131875,26.479125 C47.49525,26.073 47.871,25.67925 48.25575,25.2945 C48.32325,25.2225 48.391875,25.1505 48.461625,25.079625 C48.84525,24.697125 49.2435,24.32925 49.642875,23.963625 L49.672125,23.949 C49.869,23.79375 50.063625,23.632875 50.265,23.48325 C50.412375,23.36625 50.55975,23.24925 50.707125,23.13225 C51.228,22.788 51.76125,22.458375 52.322625,22.183875 C53.163,21.80475 54.095625,21.576375 55.01925,21.722625 Z M82.337625,30.042 C83.9475,28.999125 85.8285,28.40175 87.741,28.2825 C89.25525,28.17225 90.804375,28.305 92.241,28.819125 C92.473875,28.908 92.70675,28.999125 92.94075,29.09025 C93.076875,29.16 93.214125,29.226375 93.353625,29.295 C93.9465,29.608875 94.505625,29.982375 95.03325,30.396375 C95.769,31.01175 96.429375,31.7205 96.964875,32.51925 C97.138125,32.799375 97.300125,33.087375 97.461,33.3765 C97.522875,33.499125 97.587,33.624 97.651125,33.748875 C97.842375,34.201125 98.024625,34.65675 98.1855,35.1225 C98.238375,35.004375 98.292375,34.88625 98.350875,34.7715 C98.61525,34.304625 98.904375,33.852375 99.205875,33.408 C99.369,33.188625 99.52875,32.967 99.687375,32.74425 C99.846,32.567625 100.00125,32.387625 100.15425,32.205375 C100.251,32.083875 100.353375,31.964625 100.45575,31.847625 C100.762875,31.548375 101.062125,31.240125 101.395125,30.970125 C101.534625,30.852 101.67525,30.735 101.817,30.616875 C102.214125,30.31875 102.625875,30.03975 103.055625,29.788875 C103.384125,29.5965 103.721625,29.422125 104.068125,29.26575 C104.612625,29.037375 105.16725,28.836 105.733125,28.6695 C105.8895,28.632375 106.047,28.59525 106.205625,28.55475 C108.36,28.117125 110.6145,28.130625 112.748625,28.67175 C112.88925,28.7145 113.034375,28.753875 113.1795,28.7955 C113.927625,29.04975 114.649875,29.381625 115.324875,29.793375 C115.464375,29.881125 115.605,29.968875 115.74675,30.05775 C115.93575,30.207375 116.1225,30.3615 116.31375,30.511125 C116.634375,30.796875 116.935875,31.104 117.223875,31.422375 L117.244125,31.45275 C117.273375,31.48875 117.334125,31.561875 117.363375,31.597875 C117.511875,31.78125 117.6525,31.969125 117.792,32.160375 C118.504125,33.195375 118.99125,34.35975 119.367,35.553375 C119.87775,37.456875 120.1095,39.429 120.1095,41.39775 C120.1185,48.3165 120.110625,55.23525 120.112875,62.154 C118.344375,62.1564207 116.57475,62.157375 114.80625,62.154 C114.81075,55.911375 114.8085,49.66875 114.807375,43.426125 C114.8175,41.57325 114.708375,39.70575 114.2685,37.900125 C113.979375,36.817875 113.578875,35.74125 112.88025,34.851375 C112.65975,34.603875 112.43025,34.365375 112.194,34.133625 L112.096125,34.15275 L112.096125,34.077375 C111.925125,33.958125 111.758625,33.834375 111.594375,33.708375 C111.2085,33.485625 110.800125,33.303375 110.383875,33.148125 C108.55575,32.599125 106.50375,32.482125 104.7195,33.2505 C104.414625,33.395625 104.115375,33.54975 103.827375,33.72525 C103.671,33.834375 103.514625,33.94575 103.359375,34.05375 C103.161375,34.209 102.969,34.371 102.771,34.522875 L102.7755,34.54425 C102.144375,35.139375 101.58075,35.80425 101.1015,36.527625 C101.046375,36.622125 100.99125,36.716625 100.936125,36.811125 C100.8225,36.995625 100.7145,37.182375 100.611,37.3725 C100.198125,38.14875 99.89325,38.97675 99.64575,39.819375 C99.100125,41.87925 99.253125,44.02125 99.232875,46.128375 C99.237375,51.471 99.22275,56.813625 99.239625,62.1564207 C97.466625,62.155125 95.69475,62.1585 93.92175,62.154 C93.922875,55.64925 93.92625,49.143375 93.920625,42.6375 C93.9285,40.726125 93.7485,38.782125 93.063375,36.98325 C92.971125,36.775125 92.876625,36.56925 92.7855,36.36225 C92.1375,34.983 90.981,33.856875 89.575875,33.264 C89.406,33.208875 89.2395,33.1515 89.071875,33.09975 L89.00775,33.06375 C87.42375,32.6385 85.701375,32.54175 84.12525,33.05475 C83.62125,33.229125 83.129625,33.442875 82.6785,33.72975 C82.521,33.8355 82.36575,33.942375 82.209375,34.048125 C81.991125,34.22475 81.77625,34.403625 81.565875,34.588125 L81.50175,34.58025 L81.50625,34.705125 L81.423,34.69725 C81.385875,34.7355 81.311625,34.812 81.273375,34.85025 L81.282375,34.930125 L81.210375,34.930125 C80.523,35.679375 79.950375,36.529875 79.506,37.4445 C79.25175,38.00025 79.04025,38.572875 78.870375,39.159 C78.213375,41.38425 78.36525,43.72425 78.350625,46.013625 C78.34725,51.3945 78.35625,56.775375 78.346125,62.1564207 C76.579875,62.154 74.813625,62.1585 73.0485,62.154 C73.031625,51.109875 73.045125,40.064625 73.04175,29.0205 C74.81025,29.014875 76.579875,29.01825 78.3495,29.01825 C78.352875,30.772125 78.343875,32.524875 78.355125,34.27875 C78.39225,34.268625 78.4665,34.24725 78.5025,34.236 C78.984,33.37425 79.599375,32.60025 80.224875,31.83975 C80.52075,31.545 80.818875,31.25025 81.127125,30.96675 C81.340875,30.798 81.549,30.6225 81.761625,30.4515 C81.952875,30.315375 82.143,30.17475 82.337625,30.042 Z M134.650125,28.44225 C137.66625,27.898875 140.826375,28.227375 143.6805,29.334375 C143.938125,29.446875 144.198,29.557125 144.4545,29.674125 C144.523125,29.707875 144.65925,29.775375 144.727875,29.809125 C144.734625,31.559625 144.725625,33.31125 144.732375,35.06175 C144.45,34.885125 144.165375,34.716375 143.88075,34.547625 C143.434125,34.31025 142.983,34.0785 142.513875,33.89175 C141.854625,33.60825 141.17175,33.386625 140.48325,33.190875 C138.501,32.718375 136.360125,32.56425 134.411625,33.265125 C134.145,33.399 133.875,33.52275 133.612875,33.66225 C133.5915,33.6735 133.547625,33.694875 133.525125,33.705 C132.787125,34.180875 132.1785,34.8435 131.79825,35.636625 C131.317875,36.777375 131.28975,38.102625 131.745375,39.254625 C131.8185,39.405375 131.893875,39.556125 131.96925,39.709125 C132.118875,39.9285 132.27075,40.149 132.429375,40.366125 C132.924375,40.92525 133.52625,41.37525 134.1585,41.770125 C134.325,41.869125 134.4915,41.96925 134.659125,42.0705 C135.2565,42.377625 135.856125,42.68475 136.4805,42.939 C136.69425,43.034625 136.909125,43.129125 137.12175,43.23375 C137.45925,43.383375 137.802375,43.522875 138.144375,43.664625 C138.402,43.774875 138.659625,43.8885 138.916125,44.006625 C139.303125,44.170875 139.68225,44.355375 140.063625,44.533125 C140.21775,44.613 140.373,44.688375 140.531625,44.764875 C140.895,44.962875 141.262875,45.154125 141.622875,45.361125 C141.715125,45.417375 141.8085,45.473625 141.904125,45.531 C142.5285,45.941625 143.14275,46.373625 143.681625,46.895625 C144.351,47.51775 144.912375,48.24675 145.34325,49.05225 C146.606625,51.679125 146.541375,54.891 145.265625,57.501 C144.880875,58.222125 144.40725,58.887 143.870625,59.50125 C143.6535,59.698125 143.436375,59.893875 143.22375,60.093 C141.481125,61.6545 139.183875,62.44875 136.89675,62.764875 C133.801875,63.15525 130.586625,62.90775 127.659375,61.786125 C127.065375,61.545375 126.496125,61.250625 125.937,60.939 C125.892,59.036625 125.924625,57.130875 125.919,55.227375 C126.378,55.566 126.860625,55.868625 127.341,56.176875 C127.643625,56.349 127.95075,56.5155 128.260125,56.678625 C128.509875,56.806875 128.766375,56.923875 129.02175,57.0465 C129.130875,57.08925 129.24225,57.133125 129.355875,57.17925 C129.5415,57.254625 129.727125,57.331125 129.916125,57.4065 C132.03225,58.195125 134.34525,58.47525 136.582875,58.138875 C137.266875,58.024125 137.935125,57.819375 138.565125,57.529125 C138.808125,57.3795 139.05,57.2265 139.2885,57.065625 C139.395375,56.98125 139.5045,56.89575 139.613625,56.811375 C140.7105,55.74825 140.94,54.102375 140.62725,52.662375 C140.463,52.2045 140.254875,51.7635 139.9905,51.355125 C139.2885,50.459625 138.362625,49.77675 137.370375,49.235625 C137.277,49.185 137.18475,49.1355 137.093625,49.087125 C136.59075,48.832875 136.0845,48.58425 135.57825,48.339 C135.4275,48.272625 135.277875,48.20625 135.1305,48.13875 C134.41275,47.8035 133.682625,47.496375 132.969375,47.152125 C132.787125,47.066625 132.604875,46.983375 132.427125,46.8945 C132.0615,46.692 131.6925,46.497375 131.319,46.310625 C130.294125,45.7245 129.29625,45.068625 128.458125,44.2305 C128.1915,43.948125 127.92375,43.66575 127.668375,43.374375 C127.557,43.209 127.441125,43.047 127.32975,42.883875 C127.24875,42.762375 127.166625,42.63975 127.087875,42.5205 C126.87525,42.130125 126.69075,41.72625 126.522,41.315625 C126.4185,41.000625 126.3195,40.6845 126.232875,40.366125 C125.86725,38.741625 125.868375,37.024875 126.32625,35.418375 C126.36225,35.30925 126.39825,35.199 126.433125,35.08875 C126.480375,34.945875 126.529875,34.803 126.581625,34.660125 C126.750375,34.246125 126.941625,33.841125 127.153125,33.447375 C127.297125,33.211125 127.44675,32.97825 127.593,32.743125 C127.888875,32.33475 128.210625,31.948875 128.5605,31.584375 C128.653875,31.492125 128.74725,31.39875 128.842875,31.3065 C129.468375,30.711375 130.172625,30.202875 130.921875,29.772 C131.266125,29.593125 131.616,29.421 131.96925,29.25675 C132.831,28.891125 133.736625,28.64025 134.650125,28.44225 Z M163.22625,29.341125 C166.136625,28.04625 169.520625,27.927 172.564875,28.807875 C173.503125,29.10825 174.384,29.559375 175.194,30.1185 C175.424625,30.2985 175.6485,30.48975 175.881375,30.670875 C176.623875,31.3335 177.25275,32.115375 177.77025,32.963625 C177.845625,33.10425 177.9255,33.24375 178.007625,33.38325 C178.155,33.683625 178.306875,33.982875 178.450875,34.2855 C179.571375,36.8775 179.81325,39.73725 179.808811,42.53175 C179.787375,49.0725 179.83125,55.614375 179.79075,62.155125 C178.025625,62.157375 176.2605,62.154 174.495375,62.157375 C174.47625,55.836 174.4965,49.514625 174.48525,43.194375 C174.457125,40.906125 174.24225,38.547 173.23875,36.45675 C172.931625,35.884125 172.585125,35.33175 172.155375,34.842375 C172.13175,34.810875 172.08225,34.74675 172.058625,34.71525 C171.687375,34.371 171.300375,34.043625 170.886375,33.7545 C170.589375,33.591375 170.287875,33.44175 169.98525,33.294375 C169.87725,33.2505 169.7715,33.20775 169.668,33.163875 C168.21675,32.65425 166.642875,32.628375 165.132,32.828625 L165.0735,32.862375 C164.525625,32.954625 163.99575,33.125625 163.472625,33.310125 C163.0125,33.5115 162.565875,33.742125 162.129375,33.9885 C161.34075,34.5375 160.60725,35.16975 160.002,35.920125 C159.58575,36.44775 159.193125,36.997875 158.884875,37.5975 C158.82975,37.697625 158.77575,37.8 158.724,37.90125 C158.232375,38.934 157.887,40.0365 157.734,41.1705 C157.530375,42.512625 157.5945,43.871625 157.5855,45.223875 C157.581,50.868 157.59225,56.51325 157.579875,62.157375 C155.81025,62.154 154.040625,62.1585 152.271,62.155125 C152.271,51.11325 152.274375,40.071375 152.26875,29.0295 C154.040625,29.00475 155.8125,29.0205 157.584375,29.019375 C157.593375,30.886875 157.5675,32.75325 157.599,34.619625 C157.789125,34.362 157.989375,34.11 158.151375,33.831 C158.344875,33.5385 158.55525,33.258375 158.758875,32.97375 C158.898375,32.799375 159.0435,32.6295 159.1785,32.450625 L159.1965,32.445 C159.802875,31.728375 160.488,31.080375 161.23725,30.5145 C161.719875,30.155625 162.2385,29.85075 162.766125,29.56275 C162.918,29.4885 163.071,29.415375 163.22625,29.341125 Z" id="Combined-Shape"></path>
                </g>
            </g>
        </g>
    </g>
</svg>