<?xml version="1.0" encoding="UTF-8"?>
<svg width="14px" height="14px" viewBox="0 0 14 14" version="1.1" xmlns="http://www.w3.org/2000/svg" xmlns:xlink="http://www.w3.org/1999/xlink">
    <!-- Generator: sketchtool 49.2 (51160) - http://www.bohemiancoding.com/sketch -->
    <title>FDB5C331-A1F3-435F-A0CE-95360CD6FE95</title>
    <desc>Created with sketchtool.</desc>
    <defs></defs>
    <g id="Page-3" stroke="none" stroke-width="1" fill="none" fill-rule="evenodd">
        <g id="Logos" transform="translate(-78.000000, -324.000000)" fill="#23B852" fill-rule="nonzero">
            <g id="Group-2" transform="translate(50.000000, 50.000000)">
                <g id="Group-4">
                    <g id="zcoin-xzc" transform="translate(28.000000, 274.000000)">
                        <path d="M9.11186441,9.43220339 L11.7457627,9.43220339 L11.7457627,11.7338983 L3.83220339,11.7338983 L13.6559322,1.91016949 C13.9762712,1.58983051 14.0711864,1.10338983 13.9050847,0.688135593 C13.7271186,0.272881356 13.3237288,7.10542736e-15 12.8610169,7.10542736e-15 L1.12711864,7.10542736e-15 C0.498305085,6.15703345e-15 0,0.498305085 0,1.12711864 L0,9.43220339 L4.87627119,4.5559322 L2.24237288,4.5559322 L2.24237288,2.24237288 L10.1440678,2.24237288 L0.33220339,12.0661017 C0.0118644068,12.3864407 -0.0830508475,12.8728814 0.0830508475,13.2881356 C0.261016949,13.7033898 0.66440678,13.9762712 1.12711864,13.9762712 L12.8610169,13.9762712 C13.4779661,13.9762712 13.9881356,13.4779661 13.9881356,12.8491525 L13.9881356,4.5559322 L9.11186441,9.43220339 Z" id="XMLID_856_"></path>
                    </g>
                </g>
            </g>
        </g>
    </g>
</svg>