<?xml version="1.0" encoding="UTF-8"?>
<svg width="344px" height="28px" viewBox="0 0 344 28" version="1.1" xmlns="http://www.w3.org/2000/svg" xmlns:xlink="http://www.w3.org/1999/xlink">
    <title>CRYPTO NEWS BTC 2</title>
    <g id="Newsroom" stroke="none" stroke-width="1" fill="none" fill-rule="evenodd">
        <g id="Newsroom-Copy-3" transform="translate(-264.000000, -5362.000000)" fill="#FFFFFF" fill-rule="nonzero">
            <g id="CRYPTO-NEWS-BTC" transform="translate(264.368000, 5362.684000)">
                <path d="M18.72,8.784 C18.528,8.04 18.264,7.356 17.928,6.732 C17.592,6.108 17.16,5.568 16.632,5.112 C16.104,4.656 15.486,4.302 14.778,4.05 C14.07,3.798 13.248,3.672 12.312,3.672 C10.944,3.672 9.762,3.948 8.766,4.5 C7.77,5.052 6.96,5.79 6.336,6.714 C5.712,7.638 5.25,8.688 4.95,9.864 C4.65,11.04 4.5,12.24 4.5,13.464 C4.5,14.688 4.65,15.888 4.95,17.064 C5.25,18.24 5.712,19.29 6.336,20.214 C6.96,21.138 7.77,21.876 8.766,22.428 C9.762,22.98 10.944,23.256 12.312,23.256 C13.32,23.256 14.208,23.082 14.976,22.734 C15.744,22.386 16.404,21.906 16.956,21.294 C17.508,20.682 17.94,19.968 18.252,19.152 C18.564,18.336 18.768,17.46 18.864,16.524 L23.256,16.524 C23.16,18.06 22.83,19.464 22.266,20.736 C21.702,22.008 20.94,23.106 19.98,24.03 C19.02,24.954 17.892,25.668 16.596,26.172 C15.3,26.676 13.872,26.928 12.312,26.928 C10.392,26.928 8.67,26.574 7.146,25.866 C5.622,25.158 4.332,24.192 3.276,22.968 C2.22,21.744 1.41,20.316 0.846,18.684 C0.282,17.052 0,15.312 0,13.464 C0,11.64 0.282,9.912 0.846,8.28 C1.41,6.648 2.22,5.22 3.276,3.996 C4.332,2.772 5.622,1.8 7.146,1.08 C8.67,0.36 10.392,0 12.312,0 C13.752,0 15.108,0.198 16.38,0.594 C17.652,0.99 18.774,1.566 19.746,2.322 C20.718,3.078 21.504,3.996 22.104,5.076 C22.704,6.156 23.076,7.392 23.22,8.784 L18.72,8.784 Z" id="Path"></path>
                <path d="M27.36,0.612 L39.636,0.612 C42.468,0.612 44.592,1.224 46.008,2.448 C47.424,3.672 48.132,5.376 48.132,7.56 C48.132,8.784 47.952,9.798 47.592,10.602 C47.232,11.406 46.812,12.054 46.332,12.546 C45.852,13.038 45.378,13.392 44.91,13.608 C44.442,13.824 44.1,13.968 43.884,14.04 L43.884,14.112 C44.268,14.16 44.682,14.28 45.126,14.472 C45.57,14.664 45.984,14.97 46.368,15.39 C46.752,15.81 47.07,16.356 47.322,17.028 C47.574,17.7 47.7,18.54 47.7,19.548 C47.7,21.06 47.814,22.434 48.042,23.67 C48.27,24.906 48.624,25.788 49.104,26.316 L44.28,26.316 C43.944,25.764 43.746,25.152 43.686,24.48 C43.626,23.808 43.596,23.16 43.596,22.536 C43.596,21.36 43.524,20.346 43.38,19.494 C43.236,18.642 42.972,17.934 42.588,17.37 C42.204,16.806 41.682,16.392 41.022,16.128 C40.362,15.864 39.516,15.732 38.484,15.732 L31.86,15.732 L31.86,26.316 L27.36,26.316 L27.36,0.612 Z M31.86,12.312 L39.24,12.312 C40.68,12.312 41.772,11.97 42.516,11.286 C43.26,10.602 43.632,9.576 43.632,8.208 C43.632,7.392 43.512,6.726 43.272,6.21 C43.032,5.694 42.702,5.292 42.282,5.004 C41.862,4.716 41.382,4.524 40.842,4.428 C40.302,4.332 39.744,4.284 39.168,4.284 L31.86,4.284 L31.86,12.312 Z" id="Shape"></path>
                <polygon id="Path" points="59.4 16.236 49.752 0.612 54.972 0.612 61.776 12.132 68.472 0.612 73.512 0.612 63.9 16.236 63.9 26.316 59.4 26.316"></polygon>
                <path d="M76.032,0.612 L87.372,0.612 C89.196,0.612 90.684,0.876 91.836,1.404 C92.988,1.932 93.876,2.592 94.5,3.384 C95.124,4.176 95.55,5.04 95.778,5.976 C96.006,6.912 96.12,7.776 96.12,8.568 C96.12,9.36 96.006,10.218 95.778,11.142 C95.55,12.066 95.124,12.924 94.5,13.716 C93.876,14.508 92.988,15.162 91.836,15.678 C90.684,16.194 89.196,16.452 87.372,16.452 L80.532,16.452 L80.532,26.316 L76.032,26.316 L76.032,0.612 Z M80.532,12.78 L87.12,12.78 C87.624,12.78 88.14,12.708 88.668,12.564 C89.196,12.42 89.682,12.186 90.126,11.862 C90.57,11.538 90.93,11.106 91.206,10.566 C91.482,10.026 91.62,9.348 91.62,8.532 C91.62,7.692 91.5,6.996 91.26,6.444 C91.02,5.892 90.696,5.454 90.288,5.13 C89.88,4.806 89.412,4.584 88.884,4.464 C88.356,4.344 87.792,4.284 87.192,4.284 L80.532,4.284 L80.532,12.78 Z" id="Shape"></path>
                <polygon id="Path" points="97.596 0.612 118.404 0.612 118.404 4.5 110.232 4.5 110.232 26.316 105.732 26.316 105.732 4.5 97.596 4.5"></polygon>
                <path d="M132.336,3.672 C130.968,3.672 129.786,3.948 128.79,4.5 C127.794,5.052 126.984,5.79 126.36,6.714 C125.736,7.638 125.274,8.688 124.974,9.864 C124.674,11.04 124.524,12.24 124.524,13.464 C124.524,14.688 124.674,15.888 124.974,17.064 C125.274,18.24 125.736,19.29 126.36,20.214 C126.984,21.138 127.794,21.876 128.79,22.428 C129.786,22.98 130.968,23.256 132.336,23.256 C133.704,23.256 134.886,22.98 135.882,22.428 C136.878,21.876 137.688,21.138 138.312,20.214 C138.936,19.29 139.398,18.24 139.698,17.064 C139.998,15.888 140.148,14.688 140.148,13.464 C140.148,12.24 139.998,11.04 139.698,9.864 C139.398,8.688 138.936,7.638 138.312,6.714 C137.688,5.79 136.878,5.052 135.882,4.5 C134.886,3.948 133.704,3.672 132.336,3.672 Z M132.336,0 C134.256,0 135.978,0.36 137.502,1.08 C139.026,1.8 140.316,2.772 141.372,3.996 C142.428,5.22 143.238,6.648 143.802,8.28 C144.366,9.912 144.648,11.64 144.648,13.464 C144.648,15.312 144.366,17.052 143.802,18.684 C143.238,20.316 142.428,21.744 141.372,22.968 C140.316,24.192 139.026,25.158 137.502,25.866 C135.978,26.574 134.256,26.928 132.336,26.928 C130.416,26.928 128.694,26.574 127.17,25.866 C125.646,25.158 124.356,24.192 123.3,22.968 C122.244,21.744 121.434,20.316 120.87,18.684 C120.306,17.052 120.024,15.312 120.024,13.464 C120.024,11.64 120.306,9.912 120.87,8.28 C121.434,6.648 122.244,5.22 123.3,3.996 C124.356,2.772 125.646,1.8 127.17,1.08 C128.694,0.36 130.416,0 132.336,0 Z" id="Shape"></path>
                <polygon id="Path" points="158.58 0.612 163.332 0.612 175.068 19.548 175.14 19.548 175.14 0.612 179.424 0.612 179.424 26.316 174.672 26.316 162.972 7.416 162.864 7.416 162.864 26.316 158.58 26.316"></polygon>
                <polygon id="Path" points="184.752 0.612 203.256 0.612 203.256 4.5 189.252 4.5 189.252 11.232 202.212 11.232 202.212 14.904 189.252 14.904 189.252 22.428 203.508 22.428 203.508 26.316 184.752 26.316"></polygon>
                <polygon id="Path" points="204.912 0.612 209.484 0.612 214.128 20.268 214.2 20.268 219.384 0.612 223.992 0.612 229.032 20.268 229.104 20.268 233.892 0.612 238.464 0.612 231.372 26.316 226.8 26.316 221.652 6.66 221.58 6.66 216.324 26.316 211.68 26.316"></polygon>
                <path d="M244.368,17.748 C244.368,18.732 244.536,19.572 244.872,20.268 C245.208,20.964 245.676,21.534 246.276,21.978 C246.876,22.422 247.566,22.746 248.346,22.95 C249.126,23.154 249.972,23.256 250.884,23.256 C251.868,23.256 252.708,23.142 253.404,22.914 C254.1,22.686 254.664,22.392 255.096,22.032 C255.528,21.672 255.84,21.258 256.032,20.79 C256.224,20.322 256.32,19.848 256.32,19.368 C256.32,18.384 256.098,17.658 255.654,17.19 C255.21,16.722 254.724,16.392 254.196,16.2 C253.284,15.864 252.222,15.546 251.01,15.246 C249.798,14.946 248.304,14.556 246.528,14.076 C245.424,13.788 244.506,13.41 243.774,12.942 C243.042,12.474 242.46,11.952 242.028,11.376 C241.596,10.8 241.29,10.188 241.11,9.54 C240.93,8.892 240.84,8.232 240.84,7.56 C240.84,6.264 241.11,5.142 241.65,4.194 C242.19,3.246 242.904,2.46 243.792,1.836 C244.68,1.212 245.688,0.75 246.816,0.45 C247.944,0.15 249.084,0 250.236,0 C251.58,0 252.846,0.174 254.034,0.522 C255.222,0.87 256.266,1.392 257.166,2.088 C258.066,2.784 258.78,3.642 259.308,4.662 C259.836,5.682 260.1,6.864 260.1,8.208 L255.6,8.208 C255.48,6.552 254.916,5.382 253.908,4.698 C252.9,4.014 251.616,3.672 250.056,3.672 C249.528,3.672 248.988,3.726 248.436,3.834 C247.884,3.942 247.38,4.122 246.924,4.374 C246.468,4.626 246.09,4.968 245.79,5.4 C245.49,5.832 245.34,6.372 245.34,7.02 C245.34,7.932 245.622,8.646 246.186,9.162 C246.75,9.678 247.488,10.068 248.4,10.332 C248.496,10.356 248.874,10.458 249.534,10.638 C250.194,10.818 250.932,11.016 251.748,11.232 C252.564,11.448 253.362,11.658 254.142,11.862 C254.922,12.066 255.48,12.216 255.816,12.312 C256.656,12.576 257.388,12.936 258.012,13.392 C258.636,13.848 259.158,14.37 259.578,14.958 C259.998,15.546 260.31,16.176 260.514,16.848 C260.718,17.52 260.82,18.192 260.82,18.864 C260.82,20.304 260.526,21.534 259.938,22.554 C259.35,23.574 258.576,24.408 257.616,25.056 C256.656,25.704 255.564,26.178 254.34,26.478 C253.116,26.778 251.868,26.928 250.596,26.928 C249.132,26.928 247.752,26.748 246.456,26.388 C245.16,26.028 244.032,25.476 243.072,24.732 C242.112,23.988 241.344,23.034 240.768,21.87 C240.192,20.706 239.892,19.332 239.868,17.748 L244.368,17.748 Z" id="Path"></path>
                <path d="M279.252,11.376 L286.596,11.376 C287.676,11.376 288.576,11.07 289.296,10.458 C290.016,9.846 290.376,8.964 290.376,7.812 C290.376,6.516 290.052,5.604 289.404,5.076 C288.756,4.548 287.82,4.284 286.596,4.284 L279.252,4.284 L279.252,11.376 Z M274.752,0.612 L287.244,0.612 C289.548,0.612 291.396,1.14 292.788,2.196 C294.18,3.252 294.876,4.848 294.876,6.984 C294.876,8.28 294.558,9.39 293.922,10.314 C293.286,11.238 292.38,11.952 291.204,12.456 L291.204,12.528 C292.788,12.864 293.988,13.614 294.804,14.778 C295.62,15.942 296.028,17.4 296.028,19.152 C296.028,20.16 295.848,21.102 295.488,21.978 C295.128,22.854 294.564,23.61 293.796,24.246 C293.028,24.882 292.044,25.386 290.844,25.758 C289.644,26.13 288.216,26.316 286.56,26.316 L274.752,26.316 L274.752,0.612 Z M279.252,22.644 L287.208,22.644 C288.576,22.644 289.638,22.29 290.394,21.582 C291.15,20.874 291.528,19.872 291.528,18.576 C291.528,17.304 291.15,16.326 290.394,15.642 C289.638,14.958 288.576,14.616 287.208,14.616 L279.252,14.616 L279.252,22.644 Z" id="Shape"></path>
                <polygon id="Path" points="297.648 0.612 318.456 0.612 318.456 4.5 310.284 4.5 310.284 26.316 305.784 26.316 305.784 4.5 297.648 4.5"></polygon>
                <path d="M338.796,8.784 C338.604,8.04 338.34,7.356 338.004,6.732 C337.668,6.108 337.236,5.568 336.708,5.112 C336.18,4.656 335.562,4.302 334.854,4.05 C334.146,3.798 333.324,3.672 332.388,3.672 C331.02,3.672 329.838,3.948 328.842,4.5 C327.846,5.052 327.036,5.79 326.412,6.714 C325.788,7.638 325.326,8.688 325.026,9.864 C324.726,11.04 324.576,12.24 324.576,13.464 C324.576,14.688 324.726,15.888 325.026,17.064 C325.326,18.24 325.788,19.29 326.412,20.214 C327.036,21.138 327.846,21.876 328.842,22.428 C329.838,22.98 331.02,23.256 332.388,23.256 C333.396,23.256 334.284,23.082 335.052,22.734 C335.82,22.386 336.48,21.906 337.032,21.294 C337.584,20.682 338.016,19.968 338.328,19.152 C338.64,18.336 338.844,17.46 338.94,16.524 L343.332,16.524 C343.236,18.06 342.906,19.464 342.342,20.736 C341.778,22.008 341.016,23.106 340.056,24.03 C339.096,24.954 337.968,25.668 336.672,26.172 C335.376,26.676 333.948,26.928 332.388,26.928 C330.468,26.928 328.746,26.574 327.222,25.866 C325.698,25.158 324.408,24.192 323.352,22.968 C322.296,21.744 321.486,20.316 320.922,18.684 C320.358,17.052 320.076,15.312 320.076,13.464 C320.076,11.64 320.358,9.912 320.922,8.28 C321.486,6.648 322.296,5.22 323.352,3.996 C324.408,2.772 325.698,1.8 327.222,1.08 C328.746,0.36 330.468,0 332.388,0 C333.828,0 335.184,0.198 336.456,0.594 C337.728,0.99 338.85,1.566 339.822,2.322 C340.794,3.078 341.58,3.996 342.18,5.076 C342.78,6.156 343.152,7.392 343.296,8.784 L338.796,8.784 Z" id="Path"></path>
            </g>
        </g>
    </g>
</svg>