<?xml version="1.0" encoding="UTF-8"?>
<svg width="460px" height="460px" viewBox="0 0 460 460" version="1.1" xmlns="http://www.w3.org/2000/svg"
>
  <!-- Generator: sketchtool 44.1 (41455) - http://www.bohemiancoding.com/sketch -->
  <title>11FF5278-CAAD-4313-ABC9-10B699B14AAC</title>
  <desc>Created with sketchtool.</desc>
  <defs>
    <linearGradient x1="79.1481323%" y1="0%" x2="79.1481319%" y2="51.6681282%" id="linearGradient-1">
      <stop stop-color="#F0F2F5" offset="0%"></stop>
      <stop stop-color="#FFFFFF" offset="100%"></stop>
    </linearGradient>
  </defs>
  <g id="Page-3" stroke="none" stroke-width="1" fill="none" fill-rule="evenodd">
    <g id="Launch" transform="translate(-230.000000, -220.000000)" fill="url(#linearGradient-1)">
      <g id="Group" transform="translate(230.000000, 220.000000)">
        <path
          d="M0.159666782,396.270833 C0.638667129,395.951389 1.11766748,395.791667 1.43700104,395.472222 C3.51266921,393.395833 5.58833738,391.319444 7.66400555,389.243056 C7.98333912,388.923611 8.46233947,388.444444 8.94133981,387.965278 C9.42034016,388.604167 9.89934051,389.083333 10.3783409,389.722222 C10.3783409,389.722222 10.3783409,389.881944 10.2186741,390.041667 C7.18500521,393.076389 3.99166956,396.270833 0.958000694,399.305556 C0.638667129,399.625 0.319333565,399.625 0,399.944444 C0.159666782,398.666667 0.159666782,397.388889 0.159666782,396.270833 Z M0.159666782,212.270833 C0.638667129,211.951389 1.11766748,211.791667 1.43700104,211.472222 C3.51266921,209.395833 5.58833738,207.319444 7.66400555,205.243056 C7.98333912,204.923611 8.46233947,204.444444 8.94133981,203.965278 C9.42034016,204.604167 9.89934051,205.083333 10.3783409,205.722222 C10.3783409,205.722222 10.3783409,205.881944 10.2186741,206.041667 C7.18500521,209.076389 3.99166956,212.270833 0.958000694,215.305556 C0.798333912,215.625 0.479000347,215.625 0.159666782,215.944444 C0.159666782,214.666667 0.159666782,213.388889 0.159666782,212.270833 Z M0.159666782,28.2708333 C0.638667129,27.9513889 1.11766748,27.7916667 1.43700104,27.4722222 C3.51266921,25.3958333 5.58833738,23.3194444 7.66400555,21.2430556 C8.1430059,20.7638889 8.46233947,20.4444444 9.10100659,19.9652778 C9.58000694,20.6041667 10.0590073,21.0833333 10.5380076,21.7222222 C10.5380076,21.7222222 10.5380076,21.8819444 10.3783409,22.0416667 C7.34467199,25.0763889 4.15133634,28.2708333 1.11766748,31.3055556 C0.798333912,31.625 0.479000347,31.625 0.159666782,31.9444444 C0.159666782,30.6666667 0.159666782,29.3888889 0.159666782,28.2708333 Z M0.159666782,304.270833 C0.638667129,303.951389 1.11766748,303.791667 1.43700104,303.472222 C3.51266921,301.395833 5.58833738,299.319444 7.66400555,297.243056 C7.98333912,296.923611 8.46233947,296.444444 8.94133981,295.965278 C9.42034016,296.604167 9.89934051,297.083333 10.3783409,297.722222 C10.3783409,297.722222 10.3783409,297.881944 10.2186741,298.041667 C7.18500521,301.076389 3.99166956,304.270833 0.958000694,307.305556 C0.638667129,307.625 0.319333565,307.625 0,307.944444 C0.159666782,306.666667 0.159666782,305.388889 0.159666782,304.270833 Z M0.159666782,120.270833 C0.638667129,119.951389 1.11766748,119.791667 1.43700104,119.472222 C3.51266921,117.395833 5.58833738,115.319444 7.66400555,113.243056 C7.98333912,112.923611 8.46233947,112.444444 8.94133981,111.965278 C9.42034016,112.604167 9.73967372,113.243056 10.2186741,114.041667 C10.3783409,113.881944 10.2186741,114.041667 10.2186741,114.201389 C7.18500521,117.236111 3.99166956,120.430556 0.958000694,123.465278 C0.638667129,123.784722 0.319333565,123.784722 0,124.104167 C0.159666782,122.666667 0.159666782,121.388889 0.159666782,120.270833 Z M124.380423,0 C120.867754,3.35416667 117.355085,6.70833333 113.842416,10.3819444 C113.523082,9.90277778 113.044082,9.42361111 112.405415,8.625 C112.884415,7.98611111 113.523082,7.50694444 114.161749,6.86805556 C116.397084,4.63194444 118.632419,2.23611111 120.867754,1.41861831e-15 C121.985422,0 123.103089,0 124.380423,0 Z M32.4123568,0 C28.8996876,3.35416667 25.3870184,6.70833333 21.8743492,10.3819444 C21.5550156,9.90277778 21.0760153,9.26388889 20.5970149,8.625 C21.0760153,8.14583333 21.5550156,7.66666667 22.1936827,7.02777778 C24.4290177,4.79166667 26.6643527,2.39583333 28.8996876,0.159722222 C30.0173551,0 31.1350226,0 32.4123568,0 Z M400.284623,0 C396.771954,3.35416667 393.259285,6.70833333 389.746616,10.3819444 C389.427282,9.90277778 388.948282,9.26388889 388.469281,8.625 C388.948282,8.14583333 389.427282,7.66666667 390.065949,7.02777778 C392.301284,4.79166667 394.536619,2.39583333 396.771954,0.159722222 C397.889622,0 399.007289,0 400.284623,0 Z M308.316557,0 C304.803888,3.35416667 301.291218,6.70833333 297.778549,10.3819444 C297.459216,9.90277778 296.980215,9.42361111 296.341548,8.625 C296.820548,7.98611111 297.459216,7.50694444 298.097883,6.86805556 C300.333218,4.63194444 302.568553,2.23611111 304.803888,1.41861831e-15 C305.921555,0 307.039222,0 308.316557,0 Z M216.34849,0 C212.835821,3.35416667 209.323152,6.70833333 205.810482,10.3819444 C205.491149,9.90277778 205.012149,9.42361111 204.373481,8.625 C204.852482,7.98611111 205.491149,7.50694444 206.129816,6.86805556 C208.365151,4.63194444 210.600486,2.23611111 212.835821,1.41861831e-15 C213.953488,0 215.071156,0 216.34849,0 Z M428.545644,460 C432.058313,456.645833 435.411316,453.291667 438.923985,449.777778 C439.402985,450.256944 439.881985,450.736111 440.360986,451.375 C440.041652,451.694444 439.722319,452.173611 439.402985,452.493056 C437.327317,454.569444 435.251649,456.645833 433.175981,458.722222 C432.856647,459.041667 432.537313,459.520833 432.058313,460 C430.940646,460 429.663311,460 428.545644,460 Z M60.6733773,460 C64.1860465,456.645833 67.5390489,453.291667 71.0517182,449.9375 C71.3710517,450.416667 71.8500521,450.895833 72.3290524,451.534722 C72.1693856,451.694444 71.8500521,452.173611 71.5307185,452.493056 C69.4550503,454.569444 67.3793822,456.645833 65.303714,458.722222 C64.9843804,459.041667 64.6650469,459.520833 64.1860465,460 C63.068379,460 61.7910448,460 60.6733773,460 Z M152.641444,460 C156.154113,456.645833 159.507116,453.291667 163.019785,449.777778 C163.498785,450.256944 163.977785,450.736111 164.456786,451.375 C164.137452,451.694444 163.818119,452.173611 163.498785,452.493056 C161.423117,454.569444 159.347449,456.645833 157.271781,458.722222 C156.952447,459.041667 156.633114,459.520833 156.154113,460 C155.036446,460 153.759111,460 152.641444,460 Z M244.609511,460 C247.962513,456.645833 251.475182,453.291667 254.987851,449.777778 C255.307185,450.256944 255.786185,450.895833 256.265186,451.534722 C256.105519,451.694444 255.786185,452.173611 255.466852,452.493056 C253.391184,454.569444 251.315515,456.645833 249.239847,458.722222 C248.920514,459.041667 248.60118,459.520833 248.12218,460 C247.004512,460 245.727178,460 244.609511,460 Z M336.577577,460 C339.93058,456.645833 343.443249,453.291667 346.955918,449.777778 C347.434918,450.256944 347.913919,450.736111 348.392919,451.375 C348.073586,451.694444 347.754252,452.173611 347.434918,452.493056 C345.35925,454.569444 343.283582,456.645833 341.207914,458.722222 C340.88858,459.041667 340.569247,459.520833 340.090246,460 C338.972579,460 337.695245,460 336.577577,460 Z M460,432.048611 C459.361333,432.6875 458.722666,433.166667 458.083999,433.805556 C456.00833,435.881944 453.772995,438.118056 451.537661,440.354167 C451.05866,439.715278 450.57966,439.076389 450.260326,438.4375 C453.453662,435.083333 456.806664,431.729167 460,428.375 C460,429.652778 460,430.930556 460,432.048611 Z M460,340.048611 C459.361333,340.6875 458.722666,341.166667 458.083999,341.805556 C456.00833,343.881944 453.772995,346.118056 451.537661,348.354167 C451.05866,347.715278 450.57966,347.076389 450.260326,346.4375 C453.453662,343.083333 456.806664,339.729167 460,336.375 C460,337.652778 460,338.930556 460,340.048611 Z M460,156.048611 C459.361333,156.6875 458.722666,157.166667 458.083999,157.805556 C456.00833,159.881944 453.772995,162.118056 451.537661,164.354167 C451.05866,163.715278 450.57966,163.076389 450.100659,162.597222 C453.453662,159.243056 456.646998,155.888889 460,152.375 C460,153.652778 460,154.930556 460,156.048611 Z M460,248.048611 C459.361333,248.6875 458.722666,249.166667 458.083999,249.805556 C456.00833,251.881944 453.772995,254.118056 451.537661,256.354167 C451.05866,255.715278 450.57966,255.076389 450.260326,254.4375 C453.453662,251.083333 456.806664,247.729167 460,244.375 C460,245.652778 460,246.930556 460,248.048611 Z M460,64.0486111 C459.361333,64.6875 458.722666,65.1666667 458.083999,65.8055556 C456.00833,67.8819444 453.772995,70.1180556 451.537661,72.3541667 C451.05866,71.7152778 450.57966,71.0763889 450.100659,70.5972222 C453.453662,67.2430556 456.646998,63.8888889 460,60.375 C460,61.6527778 460,62.9305556 460,64.0486111 Z M0.159666782,336.055556 C0.479000347,336.375 0.958000694,336.694444 1.27733426,337.013889 C4.31100312,340.048611 7.18500521,342.923611 10.2186741,345.958333 C10.3783409,346.118056 10.5380076,346.277778 10.6976744,346.597222 C10.0590073,347.076389 9.58000694,347.555556 8.94133981,348.194444 C8.46233947,347.875 8.1430059,347.395833 7.82367234,347.076389 C5.74800417,345 3.67233599,342.923611 1.59666782,340.847222 C1.11766748,340.368056 0.638667129,340.208333 0.159666782,339.729167 C0.159666782,338.611111 0.159666782,337.333333 0.159666782,336.055556 Z M0.159666782,60.0555556 C0.479000347,60.375 0.958000694,60.6944444 1.27733426,61.0138889 C4.31100312,64.0486111 7.18500521,66.9236111 10.2186741,69.9583333 C10.3783409,70.1180556 10.5380076,70.2777778 10.6976744,70.5972222 C10.0590073,71.0763889 9.58000694,71.5555556 8.94133981,72.1944444 C8.46233947,71.875 8.1430059,71.3958333 7.82367234,71.0763889 C5.74800417,69 3.67233599,66.9236111 1.59666782,64.8472222 C1.11766748,64.3680556 0.638667129,64.2083333 0.159666782,63.7291667 C0.159666782,62.6111111 0.159666782,61.3333333 0.159666782,60.0555556 Z M0.159666782,244.055556 C0.479000347,244.375 0.958000694,244.694444 1.27733426,245.013889 C4.31100312,248.048611 7.18500521,250.923611 10.2186741,253.958333 C10.3783409,254.118056 10.5380076,254.277778 10.6976744,254.597222 C10.0590073,255.076389 9.58000694,255.555556 8.94133981,256.194444 C8.46233947,255.875 8.1430059,255.395833 7.82367234,255.076389 C5.74800417,253 3.67233599,250.923611 1.59666782,248.847222 C1.11766748,248.368056 0.638667129,248.208333 0.159666782,247.729167 C0.159666782,246.611111 0.159666782,245.333333 0.159666782,244.055556 Z M0.159666782,152.055556 C0.479000347,152.375 0.958000694,152.694444 1.27733426,153.013889 C4.31100312,156.048611 7.18500521,158.923611 10.2186741,161.958333 C10.3783409,162.118056 10.5380076,162.277778 10.6976744,162.597222 C10.0590073,163.076389 9.58000694,163.555556 8.94133981,164.194444 C8.46233947,163.875 8.1430059,163.395833 7.82367234,163.076389 C5.74800417,161 3.67233599,158.923611 1.59666782,156.847222 C1.11766748,156.368056 0.638667129,156.208333 0.159666782,155.729167 C0.159666782,154.611111 0.159666782,153.333333 0.159666782,152.055556 Z M0.159666782,428.055556 C0.479000347,428.375 0.958000694,428.694444 1.27733426,429.013889 C4.31100312,432.048611 7.18500521,434.923611 10.2186741,437.958333 C10.3783409,438.118056 10.5380076,438.277778 10.6976744,438.597222 C10.0590073,439.076389 9.58000694,439.555556 8.94133981,440.194444 C8.46233947,439.875 8.1430059,439.395833 7.82367234,439.076389 C5.74800417,437 3.67233599,434.923611 1.59666782,432.847222 C1.11766748,432.368056 0.638667129,432.208333 0.159666782,431.729167 C0.159666782,430.611111 0.159666782,429.333333 0.159666782,428.055556 Z M156.154113,0 C156.473447,0.479166667 156.79278,0.958333333 157.271781,1.4375 C159.666782,3.83333333 162.061784,6.22916667 164.616453,8.78472222 C163.977785,9.26388889 163.339118,9.74305556 162.860118,10.2222222 C162.860118,10.2222222 162.700451,10.2222222 162.700451,10.2222222 C159.507116,7.02777778 156.31378,3.83333333 153.120444,0.638888889 C152.960778,0.479166667 152.960778,0.319444444 152.801111,0.159722222 C153.759111,0 155.036446,0 156.154113,0 Z M432.058313,0 C432.377647,0.479166667 432.69698,0.958333333 433.175981,1.4375 C435.570982,3.83333333 437.965984,6.22916667 440.520653,8.78472222 C439.881985,9.26388889 439.243318,9.74305556 438.604651,10.2222222 C438.604651,10.2222222 438.444984,10.2222222 438.444984,10.2222222 C435.251649,7.02777778 432.058313,3.83333333 428.864977,0.638888889 C428.705311,0.479166667 428.705311,0.319444444 428.545644,0.159722222 C429.663311,0 430.940646,0 432.058313,0 Z M340.090246,0 C340.40958,0.479166667 340.728914,0.958333333 341.207914,1.4375 C343.602916,3.83333333 345.997917,6.22916667 348.552586,8.78472222 C347.913919,9.26388889 347.275252,9.74305556 346.636585,10.2222222 C346.636585,10.2222222 346.476918,10.2222222 346.476918,10.2222222 C343.283582,7.02777778 340.090246,3.83333333 336.896911,0.638888889 C336.737244,0.479166667 336.737244,0.319444444 336.577577,0.159722222 C337.695245,0 338.972579,0 340.090246,0 Z M64.1860465,0 C64.5053801,0.479166667 64.8247136,0.958333333 65.303714,1.4375 C67.6987157,3.83333333 70.0937175,6.22916667 72.648386,8.78472222 C72.0097188,9.26388889 71.3710517,9.74305556 70.8920514,10.2222222 C70.8920514,10.2222222 70.7323846,10.2222222 70.7323846,10.2222222 C67.5390489,7.02777778 64.3457133,3.83333333 61.1523776,0.638888889 C60.8330441,0.479166667 60.6733773,0.159722222 60.6733773,0 C61.7910448,0 63.068379,0 64.1860465,0 Z M248.12218,0 C248.441513,0.479166667 248.760847,0.958333333 249.239847,1.4375 C251.634849,3.83333333 254.029851,6.22916667 256.584519,8.78472222 C255.945852,9.26388889 255.307185,9.74305556 254.668518,10.2222222 C254.668518,10.2222222 254.508851,10.2222222 254.508851,10.2222222 C251.315515,7.02777778 248.12218,3.83333333 244.928844,0.638888889 C244.769177,0.479166667 244.769177,0.319444444 244.609511,0.159722222 C245.727178,0 247.004512,0 248.12218,0 Z M28.7400208,460 C25.8660187,457.125 23.1516834,454.409722 20.2776814,451.375 C20.9163485,450.895833 21.5550156,450.416667 22.1936827,449.9375 C22.1936827,449.9375 22.3533495,449.9375 22.5130163,450.097222 C25.5466852,453.131944 28.580354,456.166667 31.6140229,459.201389 C31.7736897,459.361111 31.9333565,459.680556 32.0930233,459.840278 C30.9753558,460 29.8576883,460 28.7400208,460 Z M120.708087,460 C117.834085,457.125 115.11975,454.409722 112.245748,451.375 C112.884415,450.895833 113.363415,450.416667 114.002083,449.777778 C114.161749,449.777778 114.321416,449.9375 114.481083,450.097222 C117.514752,453.131944 120.548421,456.166667 123.58209,459.201389 C123.741756,459.361111 123.901423,459.680556 124.06109,459.840278 C122.943422,460 121.825755,460 120.708087,460 Z M212.676154,460 C209.802152,457.125 207.087817,454.409722 204.213815,451.375 C204.852482,450.895833 205.331482,450.416667 205.970149,449.777778 C206.129816,449.777778 206.289483,449.9375 206.44915,450.097222 C209.482818,453.131944 212.516487,456.166667 215.550156,459.201389 C215.709823,459.361111 215.86949,459.680556 216.029157,459.840278 C214.911489,460 213.793822,460 212.676154,460 Z M304.644221,460 C301.770219,457.125 299.055883,454.409722 296.181881,451.375 C296.820548,450.895833 297.299549,450.416667 297.938216,449.777778 C298.097883,449.777778 298.257549,449.9375 298.417216,450.097222 C301.450885,453.131944 304.484554,456.166667 307.518223,459.201389 C307.67789,459.361111 307.837556,459.680556 307.997223,459.840278 C306.879556,460 305.761888,460 304.644221,460 Z M396.612287,460 C393.738285,457.125 391.02395,454.409722 388.149948,451.375 C388.788615,450.895833 389.427282,450.416667 390.065949,449.9375 C390.065949,449.9375 390.225616,449.9375 390.385283,450.097222 C393.418952,453.131944 396.452621,456.166667 399.486289,459.201389 C399.645956,459.361111 399.805623,459.680556 399.96529,459.840278 C398.847622,460 397.729955,460 396.612287,460 Z M460,123.944444 C457.125998,121.069444 454.251996,118.034722 451.218327,115.159722 C450.739327,114.680556 450.260326,114.520833 449.621659,114.041667 C450.57966,113.243056 451.05866,112.763889 451.697327,112.125 C454.411663,114.840278 457.125998,117.555556 460,120.270833 C460,121.388889 460,122.666667 460,123.944444 Z M460,215.944444 C457.125998,213.069444 454.251996,210.034722 451.218327,207.159722 C450.739327,206.680556 450.260326,206.361111 449.621659,205.881944 C450.419993,205.083333 451.05866,204.604167 451.697327,204.125 C454.411663,206.840278 457.125998,209.555556 460,212.270833 C460,213.388889 460,214.666667 460,215.944444 Z M460,31.9444444 C457.125998,29.0694444 454.251996,26.0347222 451.218327,23.1597222 C450.739327,22.6805556 450.260326,22.5208333 449.621659,22.0416667 C450.57966,21.2430556 451.05866,20.7638889 451.697327,20.125 C454.411663,22.8402778 457.125998,25.5555556 460,28.2708333 C460,29.3888889 460,30.6666667 460,31.9444444 Z M460,399.944444 C457.125998,397.069444 454.251996,394.034722 451.218327,391.159722 C450.739327,390.680556 450.260326,390.520833 449.621659,390.041667 C450.57966,389.243056 451.05866,388.763889 451.697327,388.125 C454.411663,390.840278 457.125998,393.555556 460,396.270833 C460,397.388889 460,398.666667 460,399.944444 Z M460,307.944444 C457.125998,305.069444 454.251996,302.034722 451.218327,299.159722 C450.739327,298.680556 450.260326,298.361111 449.621659,297.881944 C450.419993,297.083333 451.05866,296.604167 451.697327,296.125 C454.411663,298.840278 457.125998,301.555556 460,304.270833 C460,305.388889 460,306.666667 460,307.944444 Z M336.737244,276.159722 C340.090246,272.805556 343.443249,269.451389 346.955918,266.097222 C347.115585,266.256944 347.434918,266.416667 347.594585,266.736111 C347.913919,267.055556 348.073586,267.215278 348.392919,267.694444 C345.518917,270.569444 342.804582,273.284722 339.770913,276.319444 C342.644915,279.194444 345.518917,282.069444 348.392919,284.944444 C347.754252,285.583333 347.275252,286.0625 346.796251,286.381944 C343.443249,282.708333 340.090246,279.354167 336.737244,276.159722 Z M304.803888,276 C301.770219,273.125 299.055883,270.25 296.181881,267.375 C296.820548,266.736111 297.459216,266.256944 297.778549,265.9375 C301.131552,269.291667 304.484554,272.645833 307.67789,275.840278 C304.484554,279.034722 300.971885,282.548611 297.459216,286.0625 C297.139882,285.743056 296.660882,285.104167 296.181881,284.465278 C299.055883,281.909722 301.770219,279.034722 304.803888,276 Z M244.769177,276.159722 C248.12218,272.805556 251.475182,269.451389 254.987851,265.9375 C255.147518,265.9375 255.307185,266.256944 255.626519,266.416667 C255.945852,266.736111 256.105519,266.895833 256.424852,267.375 C253.55085,270.25 250.836515,272.965278 247.802846,276 C250.676848,278.875 253.55085,281.75 256.424852,284.625 C255.786185,285.104167 255.147518,285.583333 254.668518,285.902778 C251.475182,282.708333 248.12218,279.354167 244.769177,276.159722 Z M212.676154,276.159722 C209.802152,273.284722 206.92815,270.409722 204.054148,267.534722 C204.692815,266.895833 205.171815,266.256944 205.650816,265.9375 C209.163485,269.451389 212.516487,272.805556 215.86949,276.159722 C215.390489,277.118056 208.684485,283.826389 205.810482,286.381944 C205.331482,285.902778 204.692815,285.423611 204.054148,284.784722 C207.087817,281.909722 209.802152,279.034722 212.676154,276.159722 Z M164.616453,284.784722 C163.977785,285.263889 163.498785,285.743056 162.700451,286.222222 C159.347449,282.868056 155.994446,279.513889 152.641444,276.159722 C156.154113,272.645833 159.507116,269.291667 163.019785,265.777778 C163.179452,265.9375 163.498785,266.097222 163.658452,266.416667 C163.977785,266.736111 164.137452,266.895833 164.456786,267.375 C161.582784,270.25 158.868448,272.965278 155.83478,276 C158.868448,279.034722 161.582784,281.75 164.616453,284.784722 Z M112.245748,267.375 C112.884415,266.736111 113.363415,266.256944 113.682749,265.9375 C117.195418,269.291667 120.548421,272.645833 123.901423,276.159722 C123.422423,276.958333 115.279417,285.104167 113.842416,286.222222 C113.682749,286.0625 113.363415,285.902778 113.203749,285.743056 C112.884415,285.423611 112.565082,285.104167 112.245748,284.625 C113.682749,283.1875 115.11975,281.75 116.556751,280.3125 C117.993752,278.875 119.430753,277.597222 120.867754,276 C117.993752,273.284722 115.11975,270.409722 112.245748,267.375 Z M71.0517182,265.9375 C71.3710517,266.416667 71.8500521,266.895833 72.4887192,267.534722 C69.7743839,270.25 66.9003818,273.125 64.0263797,276 C66.9003818,278.875 69.7743839,281.75 72.648386,284.625 C72.0097188,285.104167 71.3710517,285.583333 70.8920514,285.902778 C67.6987157,282.548611 64.3457133,279.034722 60.9927109,275.680556 C64.1860465,272.805556 67.5390489,269.451389 71.0517182,265.9375 Z M20.2776814,267.534722 C20.9163485,266.895833 21.3953488,266.256944 21.7146824,265.9375 C25.2273516,269.451389 28.580354,272.805556 31.7736897,276.159722 C28.580354,279.513889 25.0676848,282.868056 21.5550156,286.381944 C21.2356821,286.0625 20.7566817,285.423611 20.1180146,284.784722 C22.8323499,282.069444 25.706352,279.194444 28.580354,276.319444 C26.0256855,273.125 23.1516834,270.409722 20.2776814,267.534722 Z M113.842416,82.0972222 C117.195418,85.4513889 120.548421,88.8055556 123.901423,92.1597222 C120.708087,95.3541667 117.195418,98.7083333 113.682749,102.222222 C113.363415,101.743056 112.884415,101.263889 112.405415,100.465278 C115.11975,97.75 117.834085,95.0347222 120.867754,92 C119.430753,90.5625 117.993752,89.125 116.556751,87.6875 C115.11975,86.25 113.682749,84.8125 112.086081,83.2152778 C112.884415,82.8958333 113.363415,82.4166667 113.842416,82.0972222 Z M31.9333565,184.159722 C28.580354,187.513889 25.2273516,190.868056 21.7146824,194.381944 C21.3953488,193.902778 20.7566817,193.423611 20.2776814,192.784722 C23.1516834,189.909722 26.0256855,187.034722 28.8996876,184.159722 C26.0256855,181.284722 23.1516834,178.409722 20.2776814,175.534722 C20.9163485,174.895833 21.3953488,174.416667 21.7146824,174.097222 C25.2273516,177.451389 28.580354,180.805556 31.9333565,184.159722 Z M72.4887192,192.625 C71.8500521,193.263889 71.3710517,193.743056 71.0517182,194.222222 C67.5390489,190.708333 64.1860465,187.354167 60.8330441,184 C64.0263797,180.805556 67.5390489,177.451389 71.0517182,174.097222 C71.3710517,174.416667 71.6903853,174.895833 72.3290524,175.694444 C69.6147171,178.409722 66.9003818,181.125 63.8667129,184.159722 C66.9003818,187.034722 69.6147171,189.75 72.4887192,192.625 Z M123.741756,184.159722 C120.548421,187.354167 117.195418,190.708333 113.682749,194.222222 C113.363415,193.743056 112.884415,193.263889 112.245748,192.625 C114.960083,189.909722 117.834085,187.034722 120.708087,184.159722 C120.06942,182.881944 118.951753,182.083333 117.993752,181.125 C117.035751,180.166667 116.077751,179.208333 115.279417,178.409722 C114.321416,177.451389 113.363415,176.493056 112.405415,175.375 C113.044082,174.895833 113.523082,174.416667 113.842416,174.097222 C117.035751,177.451389 120.548421,180.965278 123.741756,184.159722 Z M163.019785,194.222222 C159.666782,190.868056 156.154113,187.354167 152.960778,184.159722 C156.154113,180.965278 159.666782,177.611111 163.179452,174.097222 C163.498785,174.416667 163.977785,175.055556 164.616453,175.694444 C161.902117,178.409722 159.028115,181.284722 156.154113,184.159722 C159.028115,187.034722 161.902117,189.909722 164.776119,192.784722 C163.977785,193.263889 163.339118,193.743056 163.019785,194.222222 Z M215.86949,184.159722 C212.516487,187.513889 209.163485,190.868056 205.650816,194.381944 C205.331482,193.902778 204.852482,193.423611 204.213815,192.625 C206.92815,189.909722 209.802152,187.034722 212.676154,184.159722 C209.802152,181.284722 206.92815,178.409722 204.054148,175.534722 C204.692815,174.895833 205.171815,174.416667 205.491149,174.097222 C209.163485,177.451389 212.516487,180.805556 215.86949,184.159722 Z M152.801111,92 C156.154113,88.6458333 159.507116,85.2916667 162.860118,81.9375 C163.339118,82.4166667 163.818119,82.8958333 164.456786,83.6944444 C161.742451,86.4097222 158.868448,89.2847222 155.994446,92.1597222 C158.868448,95.0347222 161.742451,97.9097222 164.616453,100.784722 C163.977785,101.263889 163.498785,101.902778 163.019785,102.222222 C159.507116,98.7083333 156.154113,95.3541667 152.801111,92 Z M82.3880597,21.5625 C82.86706,21.0833333 83.1863936,20.4444444 83.665394,19.8055556 C86.6990628,22.8402778 89.4133981,25.5555556 92.447067,28.5902778 C95.3210691,25.7152778 98.1950712,22.8402778 101.069073,19.9652778 C101.548074,20.6041667 102.027074,21.2430556 102.346407,21.5625 C98.9934051,24.9166667 95.6404026,28.2708333 92.2874002,31.625 C89.0940646,28.2708333 85.7410621,24.9166667 82.3880597,21.5625 Z M174.19646,21.5625 C174.515793,21.0833333 174.994793,20.6041667 175.473794,19.9652778 C178.507463,23 181.221798,25.7152778 184.255467,28.75 C187.129469,25.875 190.003471,23 192.877473,20.125 C193.356473,20.7638889 193.835474,21.2430556 194.474141,22.0416667 C191.280805,25.3958333 187.768136,28.75 184.5748,32.1041667 C181.062131,28.2708333 177.709129,24.9166667 174.19646,21.5625 Z M276.223533,31.4652778 C273.030198,28.2708333 269.517529,24.9166667 266.164526,21.4027778 C266.48386,21.0833333 267.122527,20.6041667 267.761194,19.9652778 C270.475529,22.6805556 273.349531,25.5555556 276.223533,28.4305556 C279.257202,25.7152778 281.811871,22.6805556 285.005207,19.9652778 C285.484207,20.4444444 286.122874,20.9236111 286.601874,21.4027778 C283.089205,24.9166667 279.576536,28.2708333 276.223533,31.4652778 Z M368.351267,28.5902778 C371.225269,25.7152778 374.099271,22.8402778 376.973273,19.9652778 C377.452274,20.6041667 377.931274,21.2430556 378.250607,21.5625 C374.897605,24.7569444 371.544603,28.2708333 368.1916,31.625 C364.998264,28.4305556 361.645262,25.0763889 358.29226,21.5625 C358.611593,21.0833333 359.25026,20.6041667 359.729261,19.9652778 C362.603263,22.8402778 365.317598,25.5555556 368.351267,28.5902778 Z M212.676154,92.1597222 C209.802152,89.2847222 206.92815,86.4097222 204.054148,83.5347222 C204.692815,82.8958333 205.171815,82.2569444 205.650816,81.9375 C209.163485,85.4513889 212.516487,88.8055556 215.86949,92.1597222 C215.390489,92.9583333 207.40715,101.104167 205.810482,102.222222 C205.331482,101.743056 204.852482,101.263889 204.213815,100.625 C207.087817,97.9097222 209.802152,95.0347222 212.676154,92.1597222 Z M244.769177,92 C248.12218,88.6458333 251.475182,85.2916667 254.828185,81.9375 C255.307185,82.4166667 255.626519,83.0555556 256.265186,83.6944444 C253.55085,86.4097222 250.836515,89.2847222 247.802846,92.1597222 C250.676848,95.0347222 253.55085,97.9097222 256.424852,100.944444 C255.786185,101.423611 255.307185,101.902778 254.828185,102.381944 C251.475182,98.7083333 248.12218,95.3541667 244.769177,92 Z M244.769177,184 C247.962513,180.805556 251.315515,177.451389 254.828185,173.9375 C255.307185,174.416667 255.786185,174.895833 256.424852,175.534722 C253.55085,178.409722 250.836515,181.284722 247.802846,184.159722 C250.676848,187.034722 253.391184,189.909722 256.424852,192.784722 C255.786185,193.263889 255.147518,193.743056 254.828185,194.0625 C251.634849,190.708333 248.12218,187.354167 244.769177,184 Z M307.837556,92.1597222 C304.484554,95.5138889 301.131552,98.8680556 297.618882,102.381944 C297.139882,101.902778 296.660882,101.263889 296.181881,100.625 C298.896217,97.9097222 301.770219,95.0347222 304.644221,92.1597222 C301.770219,89.2847222 298.896217,86.4097222 296.022215,83.5347222 C296.660882,83.0555556 297.299549,82.5763889 297.778549,82.2569444 C301.131552,85.4513889 304.484554,88.8055556 307.837556,92.1597222 Z M304.803888,184.159722 C301.929885,181.284722 299.055883,178.409722 296.181881,175.534722 C296.820548,174.895833 297.299549,174.416667 297.618882,173.9375 C301.131552,177.451389 304.484554,180.805556 307.837556,184 C304.484554,187.354167 301.131552,190.708333 297.618882,194.222222 C297.299549,193.902778 296.660882,193.263889 296.181881,192.625 C299.055883,189.75 301.770219,187.034722 304.803888,184.159722 Z M339.770913,92 C342.644915,94.875 345.518917,97.75 348.552586,100.784722 C347.913919,101.263889 347.275252,101.743056 346.796251,102.222222 C345.838251,101.743056 337.695245,93.7569444 336.577577,92.1597222 C339.93058,88.8055556 343.443249,85.4513889 346.796251,81.9375 C347.115585,82.2569444 347.594585,82.8958333 348.233252,83.5347222 C345.518917,86.4097222 342.804582,89.125 339.770913,92 Z M389.586949,102.222222 C389.267615,101.902778 388.628948,101.263889 388.149948,100.625 C391.02395,97.75 393.897952,94.875 396.771954,92 C393.897952,89.125 391.02395,86.25 388.149948,83.375 C388.788615,82.7361111 389.267615,82.2569444 389.586949,81.9375 C393.099618,85.4513889 396.452621,88.8055556 399.805623,92 C396.452621,95.3541667 393.099618,98.7083333 389.586949,102.222222 Z M440.520653,100.784722 C439.881985,101.263889 439.402985,101.743056 438.923985,102.0625 C435.570982,98.7083333 432.058313,95.1944444 428.864977,92 C432.058313,88.8055556 435.411316,85.4513889 438.923985,81.9375 C439.243318,82.2569444 439.722319,82.8958333 440.360986,83.5347222 C437.64665,86.25 434.772648,89.125 431.898646,92 C434.772648,95.0347222 437.486984,97.75 440.520653,100.784722 Z M348.392919,192.625 C347.754252,193.263889 347.275252,193.902778 346.955918,194.222222 C343.443249,190.708333 340.090246,187.354167 336.737244,184 C340.090246,180.805556 343.443249,177.451389 346.955918,173.9375 C347.275252,174.256944 347.754252,174.895833 348.392919,175.534722 C345.678584,178.25 342.804582,181.125 339.93058,184 C342.804582,187.034722 345.518917,189.75 348.392919,192.625 Z M428.864977,184 C432.058313,180.805556 435.411316,177.451389 438.923985,173.9375 C439.243318,174.416667 439.722319,174.895833 440.360986,175.534722 C437.64665,178.25 434.772648,181.125 431.898646,184 C433.175981,185.597222 434.772648,186.875 436.209649,188.3125 C437.64665,189.75 439.083652,191.1875 440.520653,192.625 C439.881985,193.263889 439.402985,193.743056 438.923985,194.0625 C435.411316,190.868056 432.21798,187.354167 428.864977,184 Z M388.149948,175.375 C388.788615,174.736111 389.427282,174.416667 389.746616,174.097222 C393.099618,177.451389 396.452621,180.805556 400.124957,184.319444 C396.931621,187.513889 393.578619,190.868056 390.065949,194.381944 C389.427282,193.902778 388.948282,193.263889 388.309615,192.625 C391.183617,189.75 394.057619,186.875 396.931621,184 C393.897952,181.284722 391.02395,178.409722 388.149948,175.375 Z M368.1916,215.784722 C364.838598,212.430556 361.485595,209.076389 358.132593,205.5625 C358.611593,205.083333 359.090594,204.604167 359.888927,204.125 C362.603263,206.840278 365.477265,209.715278 368.351267,212.590278 C371.225269,209.715278 374.099271,206.840278 376.973273,203.965278 C377.61194,204.604167 378.090941,205.083333 378.410274,205.5625 C375.057272,208.916667 371.704269,212.270833 368.1916,215.784722 Z M83.665394,72.3541667 C83.1863936,71.7152778 82.7073933,71.2361111 82.3880597,70.7569444 C85.7410621,67.4027778 89.0940646,64.0486111 92.6067338,60.5347222 C95.8000694,63.7291667 99.1530719,67.0833333 102.665741,70.5972222 C102.027074,71.0763889 101.548074,71.5555556 100.74974,72.1944444 C98.0354044,69.4791667 95.1614023,66.7638889 92.2874002,63.7291667 C89.5730649,66.4444444 86.6990628,69.3194444 83.665394,72.3541667 Z M175.633461,72.1944444 C174.994793,71.5555556 174.515793,71.0763889 174.19646,70.7569444 C177.709129,67.2430556 181.062131,63.8888889 184.5748,60.375 C187.768136,63.5694444 191.280805,66.9236111 194.633808,70.5972222 C193.995141,71.2361111 193.51614,71.7152778 192.877473,72.1944444 C190.003471,69.3194444 187.289136,66.6041667 184.255467,63.5694444 C181.541132,66.4444444 178.667129,69.3194444 175.633461,72.1944444 Z M276.3832,63.5694444 C273.509198,66.4444444 270.635196,69.3194444 267.761194,72.1944444 C267.122527,71.5555556 266.803193,70.9166667 266.324193,70.4375 C269.677195,67.0833333 273.030198,63.7291667 276.223533,60.5347222 C279.416869,63.7291667 282.769872,67.0833333 286.282541,70.5972222 C285.963207,70.9166667 285.484207,71.3958333 284.84554,72.0347222 C282.131204,69.3194444 279.257202,66.6041667 276.3832,63.5694444 Z M359.729261,72.1944444 C359.090594,71.5555556 358.611593,71.0763889 358.29226,70.5972222 C361.645262,67.2430556 364.998264,63.8888889 368.351267,60.5347222 C371.544603,63.7291667 374.897605,67.2430556 378.569941,70.7569444 C378.250607,71.0763889 377.61194,71.5555556 376.973273,72.0347222 C374.258938,69.3194444 371.384936,66.4444444 368.510934,63.5694444 C365.317598,66.6041667 362.603263,69.3194444 359.729261,72.1944444 Z M266.164526,113.402778 C266.48386,113.083333 266.96286,112.444444 267.601527,111.805556 C270.475529,114.680556 273.349531,117.555556 276.223533,120.430556 C279.097536,117.555556 281.971538,114.680556 284.84554,111.805556 C285.484207,112.444444 285.963207,112.923611 286.282541,113.402778 C282.929538,116.756944 279.576536,120.111111 276.223533,123.465278 C273.030198,120.270833 269.677195,116.916667 266.164526,113.402778 Z M368.351267,120.590278 C371.225269,117.555556 374.099271,114.840278 376.973273,111.805556 C377.452274,112.604167 377.931274,113.243056 378.250607,113.722222 C375.057272,116.916667 371.704269,120.270833 368.351267,123.465278 C365.157931,120.270833 361.804929,116.916667 358.29226,113.402778 C358.611593,113.083333 359.090594,112.604167 359.729261,111.965278 C362.443596,114.840278 365.317598,117.555556 368.351267,120.590278 Z M267.761194,256.194444 C267.122527,255.555556 266.643527,255.076389 266.164526,254.756944 C269.677195,251.243056 273.030198,247.888889 276.223533,244.694444 C279.416869,247.888889 282.769872,251.402778 286.442208,254.916667 C286.122874,255.076389 285.484207,255.555556 284.685873,256.034722 C282.131204,253.479167 279.257202,250.604167 276.3832,247.729167 C273.349531,250.604167 270.635196,253.319444 267.761194,256.194444 Z M368.351267,244.534722 C371.704269,247.888889 375.057272,251.243056 378.569941,254.756944 C378.090941,255.236111 377.452274,255.715278 376.813606,256.194444 C374.099271,253.479167 371.225269,250.604167 368.351267,247.729167 C365.477265,250.604167 362.603263,253.479167 359.729261,256.354167 C359.25026,255.715278 358.77126,255.236111 358.29226,254.756944 C361.645262,251.243056 364.998264,247.888889 368.351267,244.534722 Z M101.069073,111.965278 C101.548074,112.444444 101.867407,112.763889 102.346407,113.083333 C102.506074,113.243056 102.665741,113.402778 102.665741,113.402778 C99.1530719,116.916667 95.8000694,120.270833 92.6067338,123.465278 C89.4133981,120.270833 85.9007289,116.916667 82.3880597,113.402778 C82.7073933,113.083333 83.3460604,112.604167 83.9847275,112.125 C86.6990628,114.840278 89.5730649,117.555556 92.447067,120.590278 C95.3210691,117.555556 98.1950712,114.840278 101.069073,111.965278 Z M175.793127,111.805556 C178.667129,114.680556 181.381465,117.555556 184.255467,120.430556 C187.289136,117.715278 190.003471,114.680556 193.03714,111.965278 C193.51614,112.444444 194.154807,112.923611 194.633808,113.402778 C191.121138,116.756944 187.768136,120.111111 184.255467,123.625 C181.062131,120.430556 177.709129,117.076389 174.19646,113.5625 C174.356126,113.243056 174.515793,113.083333 174.67546,112.923611 C174.835127,112.763889 175.15446,112.444444 175.793127,111.805556 Z M31.9333565,92.3194444 C28.7400208,95.5138889 25.3870184,98.8680556 21.8743492,102.381944 C21.3953488,101.902778 20.9163485,101.423611 20.2776814,100.784722 C23.1516834,97.9097222 26.0256855,95.0347222 28.8996876,92.1597222 C26.0256855,89.2847222 23.1516834,86.4097222 20.2776814,83.5347222 C20.9163485,83.0555556 21.3953488,82.5763889 21.8743492,82.0972222 C25.2273516,85.4513889 28.580354,88.8055556 31.9333565,92.3194444 Z M71.0517182,81.9375 C71.3710517,82.2569444 71.8500521,82.7361111 72.4887192,83.375 C69.6147171,86.25 66.740715,89.125 63.8667129,92 C66.740715,94.875 69.6147171,97.75 72.4887192,100.784722 C71.8500521,101.263889 71.3710517,101.743056 70.8920514,102.222222 C67.5390489,98.8680556 64.1860465,95.3541667 60.8330441,92.1597222 C64.1860465,88.8055556 67.5390489,85.4513889 71.0517182,81.9375 Z M101.069073,203.965278 C101.70774,204.604167 102.186741,205.083333 102.665741,205.5625 C99.1530719,209.076389 95.8000694,212.430556 92.6067338,215.625 C89.4133981,212.430556 85.9007289,209.076389 82.3880597,205.5625 C82.7073933,205.243056 83.1863936,204.763889 83.8250607,204.125 C86.6990628,207 89.4133981,209.715278 92.447067,212.75 C95.3210691,209.715278 98.0354044,206.840278 101.069073,203.965278 Z M174.19646,205.402778 C174.67546,205.083333 175.15446,204.604167 175.793127,203.965278 C178.507463,206.680556 181.381465,209.555556 184.255467,212.430556 C185.852135,210.993056 187.129469,209.555556 188.56647,208.118056 C190.003471,206.680556 191.440472,205.243056 192.877473,203.805556 C193.51614,204.444444 193.995141,204.923611 194.314474,205.402778 C190.961472,208.756944 187.448802,212.270833 184.255467,215.465278 C181.062131,212.270833 177.709129,208.916667 174.19646,205.402778 Z M276.223533,215.625 C272.870531,212.270833 269.517529,208.916667 266.004859,205.5625 C266.48386,205.083333 267.122527,204.763889 267.761194,204.125 C270.475529,206.840278 273.349531,209.715278 276.223533,212.590278 C279.097536,209.715278 281.971538,206.840278 284.84554,203.965278 C285.32454,204.604167 285.80354,205.243056 286.282541,205.722222 C283.089205,208.916667 279.576536,212.270833 276.223533,215.625 Z M192.877473,256.194444 C190.003471,253.319444 187.289136,250.444444 184.415134,247.569444 C182.818466,249.006944 181.541132,250.444444 180.104131,251.881944 C178.667129,253.319444 177.230128,254.756944 175.633461,256.194444 C174.994793,255.555556 174.515793,255.076389 174.19646,254.756944 C177.709129,251.243056 181.062131,247.888889 184.415134,244.534722 C185.053801,244.854167 193.196807,252.840278 194.474141,254.597222 C194.314474,254.756944 194.154807,255.076389 193.995141,255.236111 C193.835474,255.555556 193.51614,255.715278 192.877473,256.194444 Z M102.346407,162.756944 C102.027074,163.236111 101.548074,163.715278 100.909406,164.354167 C98.0354044,161.479167 95.1614023,158.604167 92.2874002,155.729167 C89.4133981,158.604167 86.539396,161.479167 83.665394,164.354167 C83.1863936,163.715278 82.7073933,163.076389 82.2283929,162.597222 C85.5813953,159.243056 88.9343978,155.888889 92.2874002,152.534722 C95.6404026,155.888889 98.9934051,159.243056 102.346407,162.756944 Z M184.415134,152.534722 C187.608469,155.888889 190.961472,159.243056 194.474141,162.916667 C194.154807,163.236111 193.51614,163.555556 192.877473,164.194444 C190.003471,161.638889 187.289136,158.604167 184.255467,155.729167 C181.381465,158.604167 178.507463,161.479167 175.633461,164.354167 C175.15446,163.715278 174.67546,163.076389 174.19646,162.756944 C177.709129,159.243056 181.062131,155.888889 184.415134,152.534722 Z M267.601527,164.354167 C267.122527,163.715278 266.643527,163.076389 266.324193,162.756944 C269.677195,159.402778 273.030198,156.048611 276.542867,152.534722 C277.341201,153.013889 285.32454,160.840278 286.601874,162.597222 C286.122874,163.076389 285.643874,163.555556 284.84554,164.194444 C283.408539,162.756944 281.971538,161.319444 280.694203,160.041667 C279.257202,158.604167 277.979868,157.166667 276.542867,155.729167 C274.946199,157.166667 273.509198,158.604167 272.072197,160.041667 C270.635196,161.319444 269.198195,162.756944 267.601527,164.354167 Z M378.410274,162.756944 C378.090941,163.076389 377.452274,163.395833 376.813606,163.875 C375.695939,163.236111 374.897605,162.118056 373.939604,161.159722 C372.981604,160.201389 372.023603,159.243056 371.225269,158.444444 C370.267268,157.486111 369.309268,156.527778 368.1916,155.409722 C365.317598,158.284722 362.443596,161.159722 359.569594,164.034722 C358.930927,163.395833 358.451926,162.916667 357.972926,162.4375 C361.485595,158.923611 364.838598,155.569444 368.1916,152.215278 C371.544603,155.888889 374.897605,159.243056 378.410274,162.756944 Z M83.665394,256.354167 C83.0267268,255.715278 82.5477265,255.236111 82.2283929,254.916667 C85.7410621,251.402778 89.0940646,248.048611 92.6067338,244.694444 C93.2454009,245.013889 101.22874,253 102.665741,254.756944 C102.186741,255.236111 101.70774,255.715278 100.909406,256.194444 C98.0354044,253.319444 95.3210691,250.604167 92.2874002,247.569444 C89.4133981,250.604167 86.6990628,253.319444 83.665394,256.354167 Z M428.545644,276.319444 C432.058313,272.805556 435.411316,269.451389 438.923985,265.9375 C439.243318,266.256944 439.722319,266.895833 440.201319,267.534722 C437.64665,270.409722 434.612982,272.965278 431.898646,276 C434.772648,278.875 437.64665,281.75 440.520653,284.625 C439.881985,285.104167 439.243318,285.583333 438.444984,286.0625 C435.251649,283.027778 431.898646,279.673611 428.545644,276.319444 Z M92.2874002,307.625 C89.0940646,304.430556 85.7410621,300.916667 82.2283929,297.402778 C82.7073933,296.923611 83.1863936,296.444444 83.8250607,295.805556 C86.6990628,298.680556 89.5730649,301.555556 92.447067,304.430556 C95.3210691,301.555556 98.1950712,298.680556 101.069073,295.805556 C101.548074,296.444444 101.867407,297.083333 102.186741,297.5625 C98.9934051,300.916667 95.6404026,304.270833 92.2874002,307.625 Z M174.036793,297.402778 C174.515793,296.923611 174.994793,296.444444 175.793127,295.965278 C178.507463,298.680556 181.381465,301.555556 184.255467,304.430556 C187.289136,301.715278 189.843804,298.680556 193.03714,295.965278 C193.51614,296.444444 194.154807,296.923611 194.474141,297.402778 C190.961472,300.916667 187.608469,304.270833 184.255467,307.625 C183.457133,307.145833 175.314127,299.159722 174.036793,297.402778 Z M276.223533,307.465278 C273.030198,304.270833 269.677195,300.916667 266.164526,297.402778 C266.643527,297.083333 267.122527,296.604167 267.761194,295.965278 C270.475529,298.680556 273.349531,301.555556 276.223533,304.430556 C277.820201,302.993056 279.097536,301.555556 280.534537,300.118056 C281.971538,298.680556 283.248872,297.243056 284.84554,295.805556 C285.484207,296.444444 285.963207,296.923611 286.442208,297.243056 C282.929538,300.756944 279.576536,304.111111 276.223533,307.465278 Z M358.132593,297.243056 C358.451926,296.923611 358.930927,296.444444 359.569594,295.805556 C362.443596,298.680556 365.317598,301.395833 368.1916,304.430556 C371.065602,301.555556 373.939604,298.680556 376.813606,295.805556 C377.292607,296.444444 377.771607,297.083333 378.090941,297.402778 C374.737938,300.756944 371.384936,304.111111 368.031933,307.305556 C365.157931,304.270833 361.804929,300.916667 358.132593,297.243056 Z M92.447067,339.569444 C89.5730649,342.604167 86.6990628,345.319444 83.8250607,348.194444 C83.3460604,347.555556 82.86706,346.916667 82.3880597,346.597222 C85.7410621,343.243056 89.0940646,339.888889 92.2874002,336.534722 C95.4807359,339.729167 98.9934051,343.243056 102.506074,346.756944 C102.186741,346.916667 101.548074,347.395833 100.74974,347.875 C98.1950712,345.319444 95.3210691,342.604167 92.447067,339.569444 Z M175.633461,348.354167 C175.15446,347.715278 174.67546,347.076389 174.19646,346.597222 C177.549462,343.243056 180.902464,339.888889 184.255467,336.534722 C187.608469,339.888889 190.961472,343.243056 194.474141,346.756944 C194.154807,347.076389 193.51614,347.555556 192.877473,348.194444 C190.003471,345.319444 187.289136,342.604167 184.255467,339.569444 C181.381465,342.604167 178.667129,345.319444 175.633461,348.354167 Z M396.771954,276.159722 C393.897952,273.284722 391.02395,270.409722 388.149948,267.534722 C388.788615,266.895833 389.267615,266.416667 389.586949,265.9375 C393.099618,269.451389 396.452621,272.805556 399.96529,276.159722 C396.612287,279.513889 393.259285,282.868056 389.746616,286.381944 C389.267615,285.902778 388.788615,285.423611 388.149948,284.784722 C391.02395,281.75 393.738285,279.034722 396.771954,276.159722 Z M376.494273,348.034722 C373.939604,345.319444 371.065602,342.604167 368.1916,339.729167 C365.317598,342.604167 362.603263,345.319444 359.569594,348.354167 C359.090594,347.715278 358.611593,347.076389 358.29226,346.597222 C361.485595,343.402778 364.998264,339.888889 368.1916,336.694444 C371.384936,339.888889 374.897605,343.402778 378.410274,346.916667 C378.090941,347.076389 377.452274,347.395833 376.494273,348.034722 Z M184.255467,396.430556 C187.129469,393.555556 189.843804,390.680556 192.717806,387.805556 C193.51614,388.444444 193.995141,389.083333 194.474141,389.402778 C190.961472,392.756944 187.608469,396.270833 184.0958,399.625 C183.297466,399.145833 175.314127,391.159722 174.036793,389.5625 C174.515793,389.083333 174.994793,388.604167 175.793127,388.125 C178.507463,390.680556 181.381465,393.555556 184.255467,396.430556 Z M21.7146824,378.222222 C21.2356821,377.902778 20.7566817,377.423611 20.1180146,376.784722 C22.9920167,373.909722 25.8660187,371.034722 28.7400208,368.159722 C25.8660187,365.284722 22.9920167,362.409722 20.1180146,359.534722 C20.7566817,359.055556 21.3953488,358.576389 21.8743492,358.256944 C25.0676848,361.451389 28.580354,364.965278 31.7736897,368.159722 C28.580354,371.354167 25.2273516,374.708333 21.7146824,378.222222 Z M71.2113849,357.9375 C71.5307185,358.256944 72.0097188,358.736111 72.648386,359.375 C69.7743839,362.25 67.0600486,364.965278 64.0263797,368 C66.9003818,370.875 69.6147171,373.75 72.648386,376.625 C72.0097188,377.104167 71.3710517,377.583333 71.0517182,377.902778 C67.6987157,374.548611 64.3457133,371.194444 61.1523776,368 C64.1860465,364.965278 67.5390489,361.611111 71.2113849,357.9375 Z M123.901423,368 C120.708087,371.194444 117.195418,374.708333 113.682749,378.222222 C113.363415,377.902778 112.884415,377.263889 112.245748,376.625 C115.11975,373.75 117.834085,371.034722 120.867754,368 C117.993752,365.125 115.11975,362.25 112.245748,359.375 C112.884415,358.736111 113.363415,358.256944 113.842416,357.777778 C117.195418,361.451389 120.548421,364.805556 123.901423,368 Z M155.83478,368.159722 C158.868448,371.194444 161.582784,373.909722 164.456786,376.784722 C163.818119,377.423611 163.339118,377.902778 163.019785,378.222222 C159.507116,374.708333 156.154113,371.354167 152.960778,368.159722 C156.154113,364.965278 159.507116,361.611111 163.019785,358.097222 C163.339118,358.416667 163.818119,358.895833 164.297119,359.534722 C161.582784,362.25 158.868448,365.125 155.83478,368.159722 Z M204.213815,359.534722 C204.373481,359.215278 204.533148,359.055556 204.692815,358.895833 C205.012149,358.576389 205.331482,358.256944 205.650816,357.9375 C209.003818,361.451389 212.356821,364.805556 215.709823,368.319444 C212.516487,371.513889 209.163485,374.868056 205.650816,378.381944 C205.171815,377.902778 204.692815,377.423611 204.054148,376.784722 C206.92815,373.909722 209.802152,371.034722 212.676154,368.159722 C209.802152,365.125 207.087817,362.409722 204.213815,359.534722 Z M244.769177,368 C248.12218,364.805556 251.475182,361.451389 254.987851,357.9375 C255.307185,358.416667 255.786185,358.895833 256.424852,359.534722 C253.710517,362.25 250.836515,365.125 247.962513,368 C250.836515,370.875 253.710517,373.75 256.584519,376.625 C255.945852,377.104167 255.307185,377.583333 254.987851,377.902778 C251.634849,374.708333 248.12218,371.354167 244.769177,368 Z M297.778549,378.381944 C297.299549,377.902778 296.980215,377.263889 296.341548,376.625 C299.055883,373.909722 301.770219,371.194444 304.803888,368.159722 C303.366886,366.722222 301.929885,365.284722 300.492884,363.847222 C299.055883,362.409722 297.618882,361.131944 296.022215,359.534722 C296.660882,358.895833 297.139882,358.416667 297.459216,357.9375 C300.971885,361.451389 304.324887,364.805556 307.67789,368.159722 C307.358556,368.958333 299.375217,377.104167 297.778549,378.381944 Z M276.3832,336.534722 C279.736203,339.888889 283.089205,343.243056 286.601874,346.756944 C286.122874,347.076389 285.484207,347.555556 284.685873,348.034722 C282.131204,345.479167 279.257202,342.604167 276.3832,339.729167 C273.509198,342.604167 270.635196,345.479167 267.761194,348.354167 C267.282194,347.715278 266.803193,347.236111 266.324193,346.756944 C269.677195,343.243056 273.030198,339.888889 276.3832,336.534722 Z M389.586949,378.222222 C389.267615,377.743056 388.788615,377.263889 388.309615,376.465278 C391.02395,373.75 393.897952,370.875 396.771954,368 C393.897952,365.125 391.02395,362.25 388.149948,359.375 C388.788615,358.736111 389.427282,358.256944 389.746616,357.9375 C393.099618,361.291667 396.452621,364.645833 399.805623,368 C396.452621,371.354167 393.099618,374.708333 389.586949,378.222222 Z M438.923985,357.9375 C439.083652,358.097222 439.402985,358.416667 439.722319,358.736111 C439.881985,358.895833 440.041652,359.215278 440.360986,359.534722 C437.486984,362.409722 434.772648,365.125 431.73898,368.159722 C434.612982,371.034722 437.486984,373.909722 440.360986,376.944444 C439.722319,377.423611 439.243318,377.902778 438.764318,378.381944 C435.411316,375.027778 432.058313,371.673611 428.705311,368.319444 C432.058313,364.805556 435.411316,361.451389 438.923985,357.9375 Z M92.2874002,399.625 C89.0940646,396.430556 85.7410621,393.076389 82.2283929,389.5625 C82.5477265,389.083333 83.1863936,388.604167 83.665394,387.965278 C86.539396,390.840278 89.4133981,393.715278 92.2874002,396.590278 C95.1614023,393.715278 98.0354044,390.840278 100.909406,387.965278 C101.548074,388.604167 101.867407,389.083333 102.186741,389.5625 C98.9934051,392.756944 95.6404026,396.270833 92.2874002,399.625 Z M276.223533,399.625 C273.030198,396.430556 269.677195,392.916667 266.164526,389.402778 C266.643527,388.923611 267.122527,388.444444 267.761194,387.805556 C270.635196,390.680556 273.509198,393.555556 276.3832,396.430556 C279.257202,393.555556 282.131204,390.680556 285.005207,387.805556 C285.484207,388.444444 285.963207,389.083333 286.442208,389.5625 C283.089205,392.916667 279.576536,396.270833 276.223533,399.625 Z M368.351267,396.590278 C371.225269,393.715278 374.099271,390.840278 376.973273,387.965278 C377.452274,388.604167 377.931274,389.243056 378.250607,389.5625 C374.897605,392.756944 371.544603,396.270833 368.1916,399.625 C364.998264,396.430556 361.645262,393.076389 358.132593,389.5625 C358.451926,389.083333 359.090594,388.604167 359.569594,387.965278 C362.603263,390.840278 365.317598,393.555556 368.351267,396.590278 Z M92.447067,428.694444 C95.6404026,431.888889 99.1530719,435.243056 102.665741,438.756944 C102.186741,439.076389 101.70774,439.555556 101.069073,440.194444 C98.1950712,437.319444 95.4807359,434.604167 92.447067,431.569444 C89.5730649,434.444444 86.6990628,437.159722 83.8250607,440.194444 C83.1863936,439.715278 82.7073933,439.076389 82.3880597,438.756944 C85.7410621,435.402778 89.0940646,432.048611 92.447067,428.694444 Z M175.793127,440.194444 C175.15446,439.555556 174.67546,439.076389 174.356126,438.597222 C177.709129,435.243056 181.062131,431.729167 184.415134,428.375 C187.768136,431.729167 191.121138,435.083333 194.474141,438.756944 C194.154807,439.076389 193.51614,439.555556 192.877473,440.034722 C190.003471,437.159722 187.289136,434.444444 184.415134,431.569444 C181.381465,434.604167 178.667129,437.319444 175.793127,440.194444 Z M267.601527,440.354167 C267.122527,439.715278 266.643527,439.076389 266.324193,438.756944 C269.677195,435.402778 273.030198,432.048611 276.542867,428.694444 C277.181534,429.013889 285.164873,436.840278 286.601874,438.756944 C286.122874,439.236111 285.484207,439.715278 284.84554,440.194444 C282.131204,437.479167 279.257202,434.604167 276.223533,431.729167 C273.349531,434.604167 270.635196,437.319444 267.601527,440.354167 Z M368.351267,428.534722 C371.704269,431.888889 375.057272,435.243056 378.569941,438.756944 C378.090941,439.236111 377.452274,439.555556 376.813606,440.194444 C374.099271,437.479167 371.225269,434.604167 368.351267,431.729167 C365.477265,434.604167 362.603263,437.479167 359.729261,440.354167 C359.25026,439.715278 358.77126,439.076389 358.451926,438.597222 C361.645262,435.243056 364.998264,431.888889 368.351267,428.534722 Z M339.770913,368.159722 C342.644915,371.034722 345.518917,373.909722 348.392919,376.944444 C347.754252,377.423611 347.115585,377.902778 346.636585,378.222222 C343.283582,374.868056 339.93058,371.513889 336.577577,368.159722 C339.93058,364.805556 343.283582,361.451389 346.796251,358.097222 C347.115585,358.416667 347.594585,359.055556 348.233252,359.694444 C345.518917,362.409722 342.804582,365.125 339.770913,368.159722 Z M230.2395,166.111111 C233.113502,163.236111 235.827838,160.520833 238.70184,157.645833 C239.340507,158.284722 239.819507,158.923611 240.298507,159.243056 C236.945505,162.597222 233.592503,165.951389 230.399167,169.145833 C227.205831,165.951389 223.852829,162.597222 220.34016,159.083333 C220.659493,158.763889 221.138494,158.284722 221.777161,157.805556 C224.651163,160.520833 227.365498,163.236111 230.2395,166.111111 Z M322.367234,166.270833 C325.241236,163.395833 327.955571,160.680556 330.98924,157.805556 C331.46824,158.444444 331.947241,158.923611 332.426241,159.402778 C329.073238,162.756944 325.720236,166.111111 322.367234,169.305556 C319.173898,166.111111 315.820896,162.916667 312.467893,159.402778 C312.787227,159.083333 313.425894,158.604167 314.064561,158.125 C316.619229,160.520833 319.333565,163.236111 322.367234,166.270833 Z M414.494967,169.465278 C410.982298,165.951389 407.629295,162.597222 404.276293,159.243056 C404.595627,158.923611 405.234294,158.444444 405.872961,157.805556 C408.587296,160.520833 411.461298,163.395833 414.3353,166.270833 C417.209302,163.395833 419.923638,160.680556 422.79764,157.805556 C423.27664,158.444444 423.75564,159.083333 424.234641,159.5625 C424.394308,159.5625 424.553974,159.722222 424.713641,159.722222 C421.200972,163.076389 417.847969,166.270833 414.494967,169.465278 Z M128.53176,251.243056 C128.851093,250.923611 129.330094,250.444444 129.809094,249.805556 C132.683096,252.680556 135.397431,255.395833 138.271434,258.270833 C141.145436,255.395833 143.859771,252.680556 146.733773,249.805556 C147.37244,250.444444 147.85144,250.923611 148.330441,251.402778 C144.817772,254.756944 141.624436,258.111111 138.4311,261.305556 C135.237765,257.951389 131.884762,254.597222 128.53176,251.243056 Z M36.4040264,251.5625 C36.8830267,250.923611 37.3620271,250.444444 38.0006942,249.805556 C40.8746963,252.680556 43.5890316,255.395833 46.4630337,258.270833 C49.3370358,255.395833 52.0513711,252.680556 54.9253731,249.805556 C55.4043735,250.444444 55.8833738,251.083333 56.2027074,251.5625 C52.849705,254.916667 49.6563693,258.111111 46.3033669,261.465278 C45.505033,260.826389 38.3200278,253.958333 36.4040264,251.5625 Z M54.9253731,65.8055556 C55.5640403,66.4444444 56.0430406,66.9236111 56.3623742,67.2430556 C52.849705,70.7569444 49.6563693,73.9513889 46.3033669,77.3055556 C43.1100312,74.1111111 39.7570288,70.9166667 36.4040264,67.4027778 C36.7233599,67.0833333 37.2023603,66.6041667 37.8410274,65.8055556 C40.7150295,68.6805556 43.4293648,71.3958333 46.3033669,74.2708333 C49.177369,71.3958333 52.0513711,68.6805556 54.9253731,65.8055556 Z M138.271434,77.1458333 C135.078098,73.9513889 131.725095,70.5972222 128.372093,67.2430556 C128.851093,66.9236111 129.330094,66.4444444 130.128428,65.8055556 C132.842763,68.5208333 135.557098,71.2361111 138.4311,74.1111111 C141.305102,71.2361111 144.019438,68.5208333 147.053107,65.6458333 C147.532107,66.2847222 148.011107,66.7638889 148.490108,67.2430556 C144.977438,70.5972222 141.624436,73.9513889 138.271434,77.1458333 Z M230.2395,77.1458333 C227.046165,73.9513889 223.693162,70.5972222 220.34016,67.2430556 C220.81916,66.9236111 221.29816,66.4444444 222.096494,65.8055556 C224.81083,68.5208333 227.525165,71.2361111 230.399167,74.1111111 C233.273169,71.2361111 235.987504,68.5208333 238.861506,65.6458333 C239.500174,66.2847222 239.819507,66.7638889 240.298507,67.0833333 C236.785838,70.5972222 233.432836,73.9513889 230.2395,77.1458333 Z M26.6643527,330.465278 C26.0256855,331.104167 25.5466852,331.583333 25.0676848,331.902778 C21.7146824,328.548611 18.36168,325.194444 15.0086775,321.840278 C15.4876779,321.041667 22.3533495,313.854167 25.0676848,311.777778 C25.5466852,312.416667 26.0256855,312.895833 26.5046859,313.694444 C23.7903506,316.409722 21.0760153,319.125 18.2020132,322 C21.0760153,324.875 23.7903506,327.75 26.6643527,330.465278 Z M110.17008,322.159722 C113.044082,325.034722 115.758417,327.75 118.632419,330.625 C117.993752,331.263889 117.514752,331.743056 117.035751,332.222222 C113.682749,328.868056 110.329747,325.513889 107.136411,322.319444 C110.329747,319.125 113.682749,315.770833 117.195418,312.256944 C117.514752,312.576389 117.993752,313.055556 118.472753,313.854167 C115.918084,316.409722 113.044082,319.284722 110.17008,322.159722 Z M202.138146,322.159722 C205.012149,325.034722 207.726484,327.75 210.600486,330.625 C209.961819,331.263889 209.482818,331.743056 209.163485,332.222222 C205.810482,328.868056 202.45748,325.513889 199.264144,322.159722 C202.45748,318.965278 205.810482,315.611111 209.163485,312.256944 C209.482818,312.576389 209.961819,313.215278 210.600486,313.854167 C207.886151,316.409722 205.171815,319.125 202.138146,322.159722 Z M291.072544,322 C294.26588,318.805556 297.618882,315.451389 301.131552,311.9375 C301.450885,312.416667 301.929885,313.055556 302.408886,313.854167 C299.854217,316.409722 296.980215,319.284722 294.26588,322.159722 C297.139882,325.034722 299.854217,327.75 302.728219,330.625 C302.089552,331.104167 301.450885,331.583333 300.971885,332.0625 C297.618882,328.708333 294.425547,325.354167 291.072544,322 Z M386.233947,322 C389.107949,324.875 391.822284,327.590278 394.696286,330.465278 C394.057619,330.944444 393.418952,331.423611 393.099618,331.743056 C389.906283,328.548611 386.55328,325.194444 383.200278,321.840278 C386.393613,318.645833 389.746616,315.291667 393.259285,311.777778 C393.578619,312.256944 393.897952,312.895833 394.376952,313.694444 C391.822284,316.409722 388.948282,319.284722 386.233947,322 Z M312.467893,67.2430556 C312.787227,66.9236111 313.266227,66.4444444 313.904894,65.8055556 C316.619229,68.5208333 319.333565,71.2361111 322.207567,74.1111111 C325.081569,71.2361111 327.795904,68.5208333 330.829573,65.6458333 C331.308573,66.2847222 331.787574,66.9236111 332.266574,67.4027778 C328.913572,70.7569444 325.560569,74.1111111 322.367234,77.1458333 C319.173898,73.9513889 315.820896,70.5972222 312.467893,67.2430556 Z M414.175633,77.1458333 C410.982298,73.9513889 407.629295,70.5972222 404.276293,67.2430556 C404.755293,66.9236111 405.234294,66.4444444 405.872961,65.8055556 C408.587296,68.5208333 411.461298,71.3958333 414.3353,74.2708333 C417.209302,71.3958333 419.923638,68.6805556 422.79764,65.8055556 C423.436307,66.2847222 423.915307,66.9236111 424.234641,67.2430556 C420.721972,70.5972222 417.528636,73.9513889 414.175633,77.1458333 Z M302.728219,238.625 C302.089552,239.263889 301.450885,239.583333 301.131552,239.902778 C297.778549,236.548611 294.425547,233.194444 291.232211,230 C294.425547,226.805556 297.778549,223.611111 301.131552,220.097222 C301.450885,220.416667 301.929885,220.895833 302.728219,221.534722 C299.854217,224.409722 297.139882,227.125 294.26588,230 C296.980215,232.875 299.694551,235.590278 302.728219,238.625 Z M18.2020132,230.159722 C21.0760153,233.034722 23.7903506,235.75 26.6643527,238.465278 C26.0256855,239.104167 25.5466852,239.583333 25.2273516,240.0625 C21.8743492,236.708333 18.5213468,233.354167 15.1683443,230.159722 C18.36168,226.965278 21.7146824,223.611111 25.0676848,220.256944 C25.3870184,220.576389 25.8660187,221.055556 26.6643527,221.694444 C23.9500174,224.409722 21.2356821,227.125 18.2020132,230.159722 Z M210.760153,238.625 C210.121486,239.263889 209.642485,239.743056 209.323152,240.0625 C205.970149,236.548611 202.617147,233.354167 199.264144,230 C202.45748,226.805556 205.810482,223.451389 209.163485,220.097222 C209.482818,220.416667 210.121486,220.895833 210.760153,221.534722 C207.886151,224.409722 205.171815,227.125 202.297813,230 C205.012149,232.875 207.726484,235.590278 210.760153,238.625 Z M146.89344,341.805556 C147.532107,342.444444 148.011107,342.923611 148.490108,343.243056 C144.977438,346.756944 141.624436,350.111111 138.4311,353.305556 C135.237765,350.111111 131.884762,346.756944 128.372093,343.243056 C128.851093,342.923611 129.330094,342.444444 130.128428,341.805556 C132.842763,344.520833 135.557098,347.236111 138.4311,350.111111 C141.305102,347.555556 143.859771,344.520833 146.89344,341.805556 Z M220.34016,343.243056 C220.81916,342.763889 221.29816,342.284722 221.936827,341.645833 C224.81083,344.520833 227.525165,347.236111 230.399167,350.111111 C233.432836,347.395833 235.987504,344.520833 239.021173,341.645833 C239.500174,342.284722 239.979174,342.763889 240.298507,343.243056 C236.945505,346.597222 233.592503,349.951389 230.399167,353.145833 C227.046165,350.111111 223.693162,346.756944 220.34016,343.243056 Z M330.829573,341.645833 C331.308573,342.284722 331.787574,342.923611 332.266574,343.402778 C328.913572,346.756944 325.560569,350.111111 322.5269,353.145833 C319.333565,349.951389 315.980562,346.597222 312.467893,343.083333 C312.787227,342.763889 313.266227,342.284722 313.904894,341.805556 C316.778896,344.520833 319.493232,347.395833 322.367234,350.270833 C325.081569,347.395833 327.955571,344.680556 330.829573,341.645833 Z M422.637973,341.645833 C423.27664,342.444444 423.75564,342.923611 424.234641,343.402778 C420.881638,346.756944 417.528636,350.111111 414.3353,353.305556 C411.141965,350.111111 407.788962,346.756944 404.276293,343.243056 C404.755293,342.923611 405.234294,342.444444 406.032628,341.805556 C408.746963,344.520833 411.461298,347.236111 414.3353,350.111111 C415.772301,348.833333 417.209302,347.395833 418.486637,345.958333 C419.763971,344.680556 421.200972,343.243056 422.637973,341.645833 Z M18.36168,138.159722 C21.2356821,141.034722 23.9500174,143.75 26.8240194,146.625 C26.1853523,147.263889 25.706352,147.583333 25.3870184,147.902778 C22.034016,144.548611 18.6810135,141.194444 15.4876779,138 C18.5213468,134.965278 21.8743492,131.611111 25.3870184,128.097222 C25.706352,128.416667 26.3450191,128.895833 26.9836862,129.694444 C23.9500174,132.569444 21.2356821,135.284722 18.36168,138.159722 Z M106.976744,230.159722 C110.329747,226.805556 113.682749,223.451389 117.035751,219.9375 C117.514752,220.416667 117.834085,221.055556 118.472753,221.694444 C115.758417,224.409722 113.044082,227.125 110.17008,230 C113.044082,232.875 115.758417,235.590278 118.632419,238.465278 C117.993752,239.104167 117.514752,239.583333 117.035751,240.0625 C113.682749,236.708333 110.329747,233.354167 106.976744,230.159722 Z M107.296078,138 C110.489413,134.805556 113.842416,131.451389 117.195418,128.097222 C117.674419,128.576389 118.153419,129.055556 118.792086,129.694444 C115.918084,132.569444 113.203749,135.284722 110.17008,138.159722 C113.044082,141.034722 115.758417,143.75 118.632419,146.625 C117.993752,147.104167 117.514752,147.583333 117.195418,147.902778 C113.842416,144.548611 110.489413,141.194444 107.296078,138 Z M383.040611,230 C386.233947,226.805556 389.586949,223.451389 393.099618,219.9375 C393.418952,220.416667 393.897952,220.895833 394.536619,221.694444 C391.822284,224.409722 389.107949,227.125 386.233947,230 C389.107949,232.875 391.822284,235.590278 394.696286,238.465278 C394.057619,238.944444 393.578619,239.423611 393.099618,239.902778 C389.746616,236.708333 386.393613,233.354167 383.040611,230 Z M202.138146,138.159722 C205.012149,141.034722 207.726484,143.75 210.600486,146.625 C209.961819,147.104167 209.482818,147.583333 209.003818,147.902778 C205.650816,144.548611 202.45748,141.194444 199.104478,138 C202.138146,134.965278 205.491149,131.611111 209.003818,128.097222 C209.323152,128.416667 209.802152,128.895833 210.600486,129.694444 C207.886151,132.409722 205.171815,135.125 202.138146,138.159722 Z M404.276293,251.243056 C404.595627,250.923611 405.234294,250.444444 405.872961,249.805556 C408.587296,252.520833 411.461298,255.395833 414.3353,258.270833 C417.209302,255.395833 419.923638,252.680556 422.79764,249.805556 C423.27664,250.444444 423.75564,251.083333 424.074974,251.402778 C420.881638,254.597222 417.528636,257.951389 414.3353,261.145833 C410.982298,257.951389 407.788962,254.597222 404.276293,251.243056 Z M294.106213,138.159722 C296.980215,141.034722 299.694551,143.75 302.568553,146.625 C301.929885,147.104167 301.291218,147.583333 300.812218,148.0625 C297.618882,144.868056 294.26588,141.513889 291.072544,138.319444 C294.26588,135.125 297.618882,131.770833 301.131552,128.256944 C301.450885,128.576389 301.929885,129.055556 302.408886,129.854167 C299.854217,132.409722 296.980215,135.284722 294.106213,138.159722 Z M312.308226,251.083333 C312.62756,250.923611 313.10656,250.444444 313.904894,249.965278 C314.862895,250.604167 315.661229,251.5625 316.619229,252.520833 C317.57723,253.479167 318.535231,254.277778 319.333565,255.236111 C320.291565,256.194444 321.089899,257.152778 322.0479,258.270833 C325.081569,255.236111 327.795904,252.520833 330.669906,249.645833 C331.308573,250.284722 331.787574,250.923611 332.106907,251.402778 C328.753905,254.756944 325.400902,258.111111 322.207567,261.305556 C319.173898,257.951389 315.820896,254.597222 312.308226,251.083333 Z M394.536619,146.465278 C393.897952,147.263889 393.578619,147.743056 393.099618,148.222222 C389.586949,144.708333 386.233947,141.513889 383.040611,138.319444 C386.393613,134.965278 389.746616,131.611111 393.099618,128.256944 C393.418952,128.576389 393.897952,129.055556 394.536619,129.694444 C391.662617,132.409722 388.948282,135.284722 386.07428,138.159722 C388.948282,140.875 391.662617,143.75 394.536619,146.465278 Z M220.34016,251.243056 C220.659493,250.923611 221.29816,250.444444 221.936827,249.805556 C224.651163,252.520833 227.525165,255.236111 230.399167,258.270833 C233.273169,255.395833 235.987504,252.680556 238.861506,249.805556 C239.500174,250.444444 239.979174,250.923611 240.298507,251.243056 C236.945505,254.597222 233.592503,257.951389 230.2395,261.145833 C227.205831,257.951389 223.852829,254.597222 220.34016,251.243056 Z M15.1683443,46 C18.36168,42.8055556 21.7146824,39.4513889 25.2273516,35.9375 C25.5466852,36.4166667 26.0256855,36.8958333 26.5046859,37.6944444 C23.7903506,40.4097222 21.0760153,43.125 18.2020132,46 C21.0760153,48.875 23.7903506,51.5902778 26.6643527,54.4652778 C26.0256855,54.9444444 25.3870184,55.4236111 25.0676848,55.9027778 C21.8743492,52.7083333 18.5213468,49.3541667 15.1683443,46 Z M36.4040264,343.243056 C36.8830267,342.923611 37.3620271,342.444444 38.0006942,341.805556 C40.8746963,344.680556 43.5890316,347.395833 46.4630337,350.270833 C49.3370358,347.395833 52.0513711,344.680556 54.9253731,341.805556 C55.4043735,342.444444 55.8833738,343.083333 56.2027074,343.5625 C53.0093717,346.756944 49.6563693,350.111111 46.4630337,353.305556 C43.269698,350.111111 39.9166956,346.756944 36.4040264,343.243056 Z M117.195418,36.0972222 C117.514752,36.4166667 117.993752,36.8958333 118.792086,37.5347222 C115.918084,40.4097222 113.203749,43.125 110.329747,46 C113.203749,48.875 115.918084,51.5902778 118.792086,54.4652778 C118.153419,54.9444444 117.674419,55.4236111 117.355085,55.7430556 C114.002083,52.3888889 110.64908,49.0347222 107.455745,45.8402778 C110.329747,42.8055556 113.842416,39.6111111 117.195418,36.0972222 Z M209.163485,36.0972222 C209.642485,36.5763889 210.121486,37.0555556 210.760153,37.6944444 C207.886151,40.5694444 205.171815,43.2847222 202.297813,46.1597222 C205.171815,49.0347222 207.886151,51.75 210.760153,54.625 C210.121486,55.1041667 209.482818,55.5833333 209.003818,55.9027778 C205.810482,52.7083333 202.45748,49.3541667 199.104478,46 C202.297813,42.8055556 205.650816,39.6111111 209.163485,36.0972222 Z M25.2273516,403.9375 C25.706352,404.416667 26.0256855,404.895833 26.6643527,405.534722 C23.9500174,408.25 21.0760153,411.125 18.2020132,414 C21.0760153,416.875 23.7903506,419.590278 26.6643527,422.465278 C26.1853523,423.104167 25.5466852,423.583333 25.2273516,423.902778 C21.7146824,420.548611 18.36168,417.194444 15.1683443,413.840278 C18.36168,410.805556 21.7146824,407.451389 25.2273516,403.9375 Z M117.195418,404.097222 C117.514752,404.416667 117.993752,405.055556 118.632419,405.694444 C115.918084,408.409722 113.044082,411.284722 110.17008,414.159722 C113.044082,417.034722 115.758417,419.75 118.632419,422.625 C118.153419,423.263889 117.514752,423.743056 117.195418,424.0625 C113.842416,420.708333 110.489413,417.354167 107.136411,414 C110.329747,410.965278 113.682749,407.611111 117.195418,404.097222 Z M301.291218,404.097222 C301.610552,404.416667 302.089552,404.895833 302.728219,405.694444 C299.854217,408.569444 297.139882,411.284722 294.26588,414.159722 C297.139882,417.034722 299.854217,419.75 302.728219,422.625 C302.089552,423.263889 301.610552,423.743056 301.131552,424.222222 C297.618882,420.708333 294.425547,417.513889 291.232211,414.319444 C294.425547,410.965278 297.778549,407.611111 301.291218,404.097222 Z M382.880944,414.159722 C386.233947,410.805556 389.586949,407.451389 392.939951,404.097222 C393.418952,404.576389 393.897952,405.055556 394.536619,405.694444 C391.662617,408.569444 388.948282,411.284722 386.07428,414.159722 C388.948282,417.034722 391.662617,419.75 394.536619,422.625 C393.897952,423.263889 393.418952,423.743056 392.939951,424.222222 C389.586949,420.708333 386.233947,417.354167 382.880944,414.159722 Z M210.600486,422.625 C209.961819,423.263889 209.482818,423.743056 209.163485,424.222222 C205.650816,420.708333 202.45748,417.513889 199.104478,414.159722 C202.297813,410.965278 205.650816,407.611111 209.163485,404.097222 C209.482818,404.576389 209.961819,405.055556 210.440819,405.854167 C207.886151,408.409722 205.012149,411.284722 202.138146,414.159722 C205.012149,416.875 207.726484,419.75 210.600486,422.625 Z M302.568553,54.625 C301.929885,55.2638889 301.450885,55.7430556 301.131552,56.2222222 C297.618882,52.7083333 294.425547,49.3541667 291.072544,46.1597222 C294.26588,42.9652778 297.618882,39.6111111 301.131552,36.0972222 C301.450885,36.5763889 301.929885,37.0555556 302.408886,37.8541667 C299.694551,40.5694444 296.980215,43.2847222 294.106213,46.1597222 C296.980215,48.875 299.694551,51.75 302.568553,54.625 Z M383.040611,46.1597222 C386.393613,42.8055556 389.746616,39.4513889 393.099618,36.0972222 C393.578619,36.5763889 393.897952,37.2152778 394.536619,37.8541667 C391.822284,40.5694444 389.107949,43.2847222 386.233947,46.1597222 C389.107949,49.0347222 391.822284,51.75 394.696286,54.625 C394.057619,55.2638889 393.578619,55.7430556 393.099618,56.2222222 C389.586949,52.7083333 386.233947,49.3541667 383.040611,46.1597222 Z M54.9253731,157.805556 C55.5640403,158.444444 56.0430406,158.923611 56.3623742,159.402778 C53.0093717,162.756944 49.6563693,166.111111 46.4630337,169.305556 C43.269698,166.111111 39.9166956,162.756944 36.4040264,159.243056 C36.8830267,158.923611 37.5216939,158.604167 38.3200278,157.965278 C40.8746963,160.520833 43.5890316,163.236111 46.4630337,166.111111 C49.3370358,163.555556 51.8917043,160.520833 54.9253731,157.805556 Z M138.271434,169.465278 C134.918431,166.270833 131.725095,162.916667 128.212426,159.402778 C128.691427,158.923611 129.330094,158.604167 130.128428,157.965278 C132.683096,160.520833 135.557098,163.395833 138.4311,166.270833 C141.305102,163.395833 144.019438,160.680556 146.89344,157.805556 C147.532107,158.444444 148.011107,158.923611 148.490108,159.402778 C144.977438,162.756944 141.624436,166.111111 138.271434,169.465278 Z M46.3033669,445.305556 C43.1100312,442.111111 39.7570288,438.756944 36.2443596,435.402778 C36.7233599,434.923611 37.3620271,434.444444 38.0006942,433.965278 C40.7150295,436.680556 43.4293648,439.395833 46.3033669,442.270833 C49.177369,439.395833 51.8917043,436.680556 54.7657064,433.805556 C55.2447067,434.444444 55.723707,435.083333 56.0430406,435.402778 C52.849705,438.597222 49.4967025,441.951389 46.3033669,445.305556 Z M146.733773,433.805556 C147.37244,434.444444 147.85144,434.923611 148.330441,435.402778 C144.817772,438.916667 141.464769,442.111111 138.4311,445.305556 C135.237765,442.111111 131.884762,438.756944 128.372093,435.243056 C128.691427,434.923611 129.170427,434.604167 129.968761,433.965278 C132.683096,436.520833 135.397431,439.395833 138.271434,442.270833 C141.145436,439.395833 144.019438,436.520833 146.733773,433.805556 Z M220.34016,435.243056 C220.659493,434.923611 221.29816,434.444444 221.936827,433.965278 C224.651163,436.680556 227.365498,439.395833 230.2395,442.270833 C233.113502,439.395833 235.827838,436.680556 238.70184,433.805556 C239.18084,434.444444 239.65984,435.083333 239.979174,435.5625 C236.626171,438.756944 233.273169,442.111111 230.079833,445.305556 C227.205831,441.951389 223.852829,438.597222 220.34016,435.243056 Z M330.829573,433.645833 C331.46824,434.284722 331.947241,434.763889 332.266574,435.083333 C328.913572,438.4375 325.560569,441.791667 322.367234,444.986111 C319.173898,441.791667 315.820896,438.4375 312.467893,435.083333 C312.787227,434.763889 313.425894,434.284722 314.064561,433.645833 C316.778896,436.361111 319.652898,439.236111 322.5269,442.111111 C325.081569,439.395833 327.795904,436.680556 330.829573,433.645833 Z M414.3353,442.270833 C417.209302,439.395833 419.923638,436.680556 422.79764,433.645833 C423.436307,434.284722 423.915307,434.923611 424.234641,435.402778 C420.881638,438.756944 417.528636,442.111111 414.3353,445.145833 C411.141965,441.951389 407.788962,438.597222 404.276293,435.083333 C404.595627,434.763889 405.074627,434.284722 405.713294,433.805556 C408.587296,436.520833 411.301631,439.236111 414.3353,442.270833 Z M46.3033669,106.694444 C49.6563693,110.048611 53.0093717,113.402778 56.522041,116.756944 C56.0430406,117.236111 55.5640403,117.715278 54.9253731,118.354167 C52.2110378,115.479167 49.4967025,112.763889 46.6227005,109.888889 C43.7486984,112.763889 40.8746963,115.479167 38.0006942,118.354167 C37.5216939,117.715278 37.0426935,117.236111 36.5636932,116.597222 C37.0426935,115.798611 43.7486984,108.930556 46.3033669,106.694444 Z M442.436654,322 C439.562652,319.125 436.848317,316.409722 433.814648,313.534722 C434.453315,312.895833 435.091982,312.416667 435.730649,311.777778 C439.083652,315.131944 442.436654,318.486111 445.789656,321.680556 C442.276987,325.194444 438.923985,328.548611 435.570982,332.0625 C435.091982,331.583333 434.612982,331.104167 433.974314,330.465278 C436.68865,327.75 439.402985,325.034722 442.436654,322 Z M138.4311,109.888889 C135.557098,112.763889 132.842763,115.479167 129.968761,118.354167 C129.48976,117.715278 129.01076,117.236111 128.691427,116.756944 C132.044429,113.5625 135.397431,110.208333 138.590767,106.854167 C141.624436,109.888889 144.977438,113.243056 148.490108,116.756944 C148.170774,117.076389 147.532107,117.555556 146.89344,118.194444 C144.019438,115.638889 141.305102,112.923611 138.4311,109.888889 Z M230.399167,110.048611 C227.525165,112.923611 224.81083,115.638889 222.096494,118.513889 C221.29816,117.875 220.81916,117.236111 220.34016,116.756944 C223.852829,113.402778 227.205831,110.048611 230.399167,106.854167 C233.592503,110.048611 236.945505,113.402778 240.458174,116.756944 C240.138841,117.076389 239.65984,117.715278 239.021173,118.354167 C235.987504,115.638889 233.273169,112.763889 230.399167,110.048611 Z M322.367234,106.854167 C325.560569,110.048611 328.913572,113.402778 332.426241,116.756944 C331.947241,117.236111 331.46824,117.715278 330.829573,118.194444 C328.115238,115.479167 325.241236,112.604167 322.367234,109.729167 C319.493232,112.604167 316.778896,115.319444 313.904894,118.194444 C313.425894,117.555556 312.946893,116.916667 312.467893,116.4375 C315.661229,113.402778 319.014231,110.208333 322.367234,106.854167 Z M414.3353,107.013889 C417.528636,110.208333 420.881638,113.5625 424.234641,116.916667 C423.915307,117.236111 423.27664,117.715278 422.637973,118.354167 C419.763971,115.638889 417.049636,112.763889 414.175633,109.888889 C411.301631,112.763889 408.587296,115.479167 405.713294,118.354167 C405.074627,117.875 404.595627,117.236111 404.116626,116.756944 C407.629295,113.5625 410.982298,110.208333 414.3353,107.013889 Z M74.5643874,138 C71.6903853,135.125 68.97605,132.409722 65.9423811,129.534722 C66.5810482,129.055556 67.2197154,128.576389 67.6987157,128.097222 C68.6567164,128.576389 76.0013884,135.923611 77.5980562,137.840278 C74.2450538,141.194444 70.8920514,144.548611 67.5390489,147.902778 C67.2197154,147.583333 66.9003818,146.944444 66.2617147,146.145833 C68.8163832,143.75 71.6903853,141.034722 74.5643874,138 Z M169.566123,138.159722 C166.372787,141.354167 163.019785,144.708333 159.666782,148.0625 C159.187782,147.583333 158.708782,147.104167 158.070115,146.465278 C160.78445,143.75 163.498785,141.034722 166.372787,138.159722 C163.498785,135.284722 160.78445,132.569444 157.910448,129.694444 C158.549115,129.215278 159.028115,128.576389 159.507116,128.256944 C163.019785,131.611111 166.372787,134.965278 169.566123,138.159722 Z M261.53419,138.159722 C258.340854,141.354167 254.987851,144.708333 251.634849,148.222222 C251.315515,147.902778 250.676848,147.263889 250.038181,146.625 C252.912183,143.75 255.626519,141.034722 258.500521,138.159722 C255.626519,135.284722 252.912183,132.569444 249.878514,129.694444 C250.676848,129.055556 251.315515,128.576389 251.634849,128.256944 C254.828185,131.451389 258.340854,134.805556 261.53419,138.159722 Z M343.602916,148.0625 C343.123915,147.583333 342.485248,147.104167 342.006248,146.465278 C344.88025,143.590278 347.594585,140.875 350.468587,138 C347.594585,135.125 344.88025,132.409722 342.006248,129.375 C342.644915,128.895833 343.283582,128.416667 343.762582,128.097222 C346.955918,131.291667 350.308921,134.645833 353.661923,138 C350.308921,141.354167 346.955918,144.708333 343.602916,148.0625 Z M435.411316,148.0625 C434.932315,147.583333 434.453315,147.104167 433.814648,146.465278 C436.68865,143.590278 439.402985,140.875 442.276987,138 C439.402985,135.125 436.68865,132.409722 433.814648,129.534722 C434.293648,128.895833 434.932315,128.416667 435.251649,127.9375 C438.604651,131.291667 441.957654,134.645833 445.310656,138 C442.276987,141.354167 438.923985,144.548611 435.411316,148.0625 Z M54.7657064,210.354167 C52.0513711,207.479167 49.3370358,204.763889 46.4630337,201.888889 C43.5890316,204.763889 40.7150295,207.479167 37.8410274,210.354167 C37.3620271,209.715278 36.8830267,209.236111 36.4040264,208.597222 C36.8830267,207.798611 43.5890316,200.930556 46.1437001,198.694444 C49.4967025,202.048611 52.6900382,205.402778 56.2027074,208.916667 C56.0430406,209.236111 55.4043735,209.715278 54.7657064,210.354167 Z M148.330441,208.916667 C148.011107,209.236111 147.37244,209.715278 146.733773,210.354167 C144.019438,207.638889 141.305102,204.923611 138.4311,202.048611 C135.557098,204.923611 132.842763,207.638889 129.968761,210.513889 C129.330094,209.875 129.01076,209.395833 128.53176,208.916667 C131.884762,205.5625 135.237765,202.208333 138.4311,199.013889 C141.464769,202.048611 144.817772,205.402778 148.330441,208.916667 Z M240.458174,208.916667 C239.979174,209.395833 239.500174,209.875 238.861506,210.513889 C235.987504,207.638889 233.273169,204.923611 230.399167,202.048611 C227.525165,204.923611 224.81083,207.638889 221.936827,210.673611 C221.29816,209.875 220.81916,209.236111 220.180493,208.4375 C223.373829,205.243056 226.726831,201.888889 230.079833,198.694444 C233.592503,202.048611 236.945505,205.402778 240.458174,208.916667 Z M332.266574,208.916667 C331.787574,209.236111 331.308573,209.715278 330.669906,210.354167 C327.955571,207.638889 325.081569,204.763889 322.207567,202.048611 C319.333565,204.923611 316.619229,207.638889 313.745227,210.513889 C313.10656,210.034722 312.62756,209.395833 312.14856,209.076389 C315.661229,205.722222 319.014231,202.368056 322.207567,199.173611 C325.560569,202.048611 328.913572,205.402778 332.266574,208.916667 Z M424.234641,208.916667 C423.75564,209.236111 423.27664,209.715278 422.478306,210.194444 C419.763971,207.479167 417.049636,204.763889 414.175633,201.888889 C411.301631,204.763889 408.587296,207.479167 405.713294,210.354167 C405.074627,209.875 404.595627,209.236111 404.116626,208.756944 C407.629295,205.402778 410.982298,202.048611 414.175633,198.854167 C417.528636,202.208333 420.881638,205.5625 424.234641,208.916667 Z M67.6987157,240.222222 C67.2197154,239.743056 66.740715,239.263889 66.2617147,238.465278 C68.97605,235.75 71.6903853,233.034722 74.5643874,230.159722 C71.6903853,227.284722 68.97605,224.569444 65.9423811,221.694444 C66.740715,221.215278 67.3793822,220.736111 68.3373829,220.097222 C71.3710517,223.291667 74.7240541,226.645833 77.9173898,229.840278 C74.4047206,233.354167 71.0517182,236.708333 67.6987157,240.222222 Z M166.532454,230 C163.658452,227.125 160.78445,224.409722 157.910448,221.534722 C158.549115,221.055556 159.028115,220.576389 159.507116,220.097222 C162.860118,223.451389 166.21312,226.805556 169.246789,230 C166.21312,233.194444 162.860118,236.548611 159.507116,239.902778 C159.187782,239.423611 158.708782,238.944444 158.229781,238.145833 C160.78445,235.75 163.658452,233.034722 166.532454,230 Z M258.340854,46.1597222 C255.466852,43.2847222 252.752516,40.5694444 249.718848,37.6944444 C250.517182,37.0555556 250.996182,36.5763889 251.475182,36.2569444 C254.828185,39.6111111 258.181187,42.9652778 261.374523,46.1597222 C258.181187,49.3541667 254.828185,52.7083333 251.475182,56.0625 C251.155849,55.5833333 250.676848,55.1041667 250.038181,54.3055556 C252.752516,51.75 255.626519,48.875 258.340854,46.1597222 Z M350.468587,230 C347.594585,227.125 344.720583,224.409722 341.846581,221.534722 C342.485248,221.055556 342.964249,220.576389 343.443249,220.256944 C346.796251,223.611111 350.149254,226.965278 353.342589,230.159722 C350.308921,233.194444 346.955918,236.548611 343.443249,240.0625 C343.123915,239.743056 342.644915,239.104167 342.006248,238.465278 C344.720583,235.75 347.594585,233.034722 350.468587,230 Z M445.470323,230.159722 C442.276987,233.354167 438.923985,236.708333 435.570982,240.0625 C435.091982,239.583333 434.612982,239.104167 433.974314,238.465278 C436.68865,235.75 439.402985,233.034722 442.276987,230.159722 C439.402985,227.284722 436.68865,224.569444 433.814648,221.694444 C434.453315,221.215278 434.932315,220.576389 435.411316,220.256944 C438.923985,223.611111 442.276987,226.965278 445.470323,230.159722 Z M46.4630337,382.854167 C49.6563693,386.048611 53.0093717,389.402778 56.522041,392.756944 C56.0430406,393.236111 55.5640403,393.715278 54.9253731,394.194444 C52.2110378,391.479167 49.4967025,388.763889 46.6227005,385.729167 C43.7486984,388.604167 40.8746963,391.319444 38.160361,394.194444 C37.5216939,393.555556 37.0426935,393.076389 36.7233599,392.597222 C39.7570288,389.402778 43.1100312,386.208333 46.4630337,382.854167 Z M138.4311,382.854167 C141.624436,386.048611 144.977438,389.402778 148.490108,392.916667 C148.011107,393.395833 147.532107,393.875 146.89344,394.354167 C144.179104,391.638889 141.464769,388.763889 138.590767,385.888889 C135.716765,388.763889 132.842763,391.479167 129.968761,394.354167 C129.48976,393.715278 129.01076,393.076389 128.53176,392.597222 C131.725095,389.402778 135.078098,386.208333 138.4311,382.854167 Z M221.936827,394.513889 C221.29816,393.875 220.659493,393.395833 220.180493,392.916667 C223.693162,389.5625 227.046165,386.208333 230.2395,382.854167 C233.432836,386.048611 236.785838,389.402778 240.298507,392.916667 C239.979174,393.236111 239.340507,393.875 238.70184,394.513889 C235.827838,391.638889 233.113502,388.923611 230.2395,386.048611 C227.525165,388.923611 224.81083,391.638889 221.936827,394.513889 Z M332.106907,392.916667 C331.787574,393.236111 331.308573,393.875 330.829573,394.354167 C327.955571,391.479167 325.081569,388.763889 322.207567,385.888889 C319.333565,388.763889 316.619229,391.479167 313.745227,394.354167 C313.10656,393.715278 312.62756,393.236111 312.308226,392.756944 C315.661229,389.402778 319.014231,386.208333 322.0479,383.013889 C325.400902,386.208333 328.753905,389.5625 332.106907,392.916667 Z M414.175633,385.888889 C411.301631,388.763889 408.587296,391.479167 405.713294,394.354167 C405.074627,393.715278 404.595627,393.236111 404.116626,392.916667 C407.469629,389.5625 410.822631,386.208333 414.175633,382.854167 C417.368969,386.048611 420.721972,389.402778 424.074974,392.756944 C423.75564,393.076389 423.116973,393.555556 422.478306,394.194444 C419.923638,391.638889 417.209302,388.763889 414.175633,385.888889 Z M36.5636932,24.5972222 C39.9166956,21.2430556 43.269698,18.0486111 46.4630337,14.8541667 C49.6563693,18.0486111 53.0093717,21.4027778 56.522041,24.9166667 C56.2027074,25.2361111 55.723707,25.875 55.0850399,26.5138889 C52.2110378,23.6388889 49.4967025,20.9236111 46.6227005,18.0486111 C43.7486984,20.9236111 41.0343631,23.6388889 38.160361,26.6736111 C37.3620271,25.7152778 36.8830267,25.2361111 36.5636932,24.5972222 Z M56.2027074,300.756944 C55.8833738,301.236111 55.4043735,301.715278 54.9253731,302.513889 C52.0513711,299.638889 49.3370358,296.763889 46.4630337,293.888889 C43.5890316,296.763889 40.8746963,299.479167 38.0006942,302.354167 C37.5216939,301.715278 37.0426935,301.236111 36.7233599,300.756944 C39.9166956,297.5625 43.269698,294.208333 46.6227005,291.013889 C49.4967025,294.208333 52.849705,297.5625 56.2027074,300.756944 Z M138.271434,293.888889 C135.397431,296.763889 132.683096,299.479167 129.809094,302.354167 C129.170427,301.715278 128.691427,301.236111 128.372093,300.756944 C131.725095,297.402778 135.078098,294.048611 138.271434,290.854167 C141.464769,294.048611 144.658105,297.402778 148.170774,300.916667 C147.85144,301.236111 147.37244,301.715278 146.733773,302.194444 C144.019438,299.638889 141.145436,296.763889 138.271434,293.888889 Z M230.2395,293.888889 C227.365498,296.763889 224.651163,299.638889 221.777161,302.354167 C221.29816,301.715278 220.81916,301.236111 220.180493,300.597222 C223.373829,297.402778 226.726831,294.048611 229.920167,290.854167 C233.273169,294.208333 236.626171,297.5625 240.138841,301.076389 C239.979174,301.236111 239.819507,301.395833 239.500174,301.715278 C239.18084,302.034722 238.861506,302.194444 238.542173,302.513889 C235.987504,299.638889 233.273169,296.763889 230.2395,293.888889 Z M313.745227,302.513889 C313.10656,301.875 312.62756,301.395833 312.14856,300.756944 C315.501562,297.402778 318.854564,294.048611 322.0479,290.854167 C325.400902,294.208333 328.753905,297.5625 332.266574,301.076389 C332.266574,301.236111 331.947241,301.395833 331.787574,301.715278 C331.46824,302.034722 331.148907,302.194444 330.829573,302.513889 C328.115238,299.798611 325.400902,296.923611 322.5269,294.048611 C319.493232,296.763889 316.619229,299.479167 313.745227,302.513889 Z M67.6987157,424.0625 C67.2197154,423.583333 66.5810482,423.104167 65.9423811,422.625 C67.3793822,421.1875 68.8163832,419.75 70.2533842,418.3125 C71.6903853,417.034722 72.9677195,415.597222 74.5643874,414.159722 C71.6903853,411.284722 68.97605,408.569444 66.1020479,405.534722 C66.740715,405.055556 67.2197154,404.416667 67.6987157,404.097222 C71.0517182,407.451389 74.4047206,410.805556 77.757723,414.159722 C74.4047206,417.354167 71.0517182,420.708333 67.6987157,424.0625 Z M424.553974,300.597222 C423.75564,301.236111 423.27664,301.715278 422.637973,302.194444 C419.923638,299.479167 417.209302,296.763889 414.3353,293.888889 C411.461298,296.763889 408.746963,299.479167 405.872961,302.354167 C405.234294,301.715278 404.91496,301.236111 404.595627,300.756944 C407.948629,297.402778 411.301631,294.048611 414.814301,290.534722 C417.847969,293.729167 421.200972,297.083333 424.553974,300.597222 Z M159.507116,424.0625 C159.187782,423.743056 158.708782,423.263889 158.070115,422.625 C160.78445,419.590278 163.658452,417.034722 166.532454,414 C163.818119,411.125 160.944117,408.409722 158.070115,405.534722 C158.708782,405.055556 159.347449,404.736111 160.145783,404.097222 C163.339118,407.131944 166.692121,410.486111 169.885456,413.680556 C166.21312,417.194444 162.860118,420.548611 159.507116,424.0625 Z M258.500521,230.159722 C255.626519,227.284722 252.912183,224.569444 250.038181,221.694444 C250.676848,221.055556 251.155849,220.576389 251.634849,220.256944 C254.987851,223.611111 258.340854,227.125 261.53419,230.319444 C258.340854,233.513889 254.987851,236.868056 251.634849,240.222222 C251.315515,239.743056 250.836515,239.263889 250.357515,238.465278 C252.752516,235.75 255.626519,233.034722 258.500521,230.159722 Z M249.878514,405.534722 C250.517182,405.055556 250.996182,404.576389 251.634849,404.097222 C252.59285,404.576389 259.937522,411.923611 261.53419,413.840278 C258.181187,417.194444 254.828185,420.548611 251.475182,423.902778 C251.155849,423.583333 250.836515,422.944444 250.197848,422.305556 C252.59285,419.75 255.466852,417.034722 258.340854,414 C255.626519,411.284722 252.912183,408.409722 249.878514,405.534722 Z M146.574106,26.3541667 C143.859771,23.6388889 141.145436,20.9236111 138.4311,18.0486111 C135.557098,20.9236111 132.842763,23.6388889 129.968761,26.5138889 C129.330094,26.0347222 128.851093,25.3958333 128.372093,25.0763889 C131.884762,21.7222222 135.237765,18.3680556 138.4311,15.1736111 C141.624436,18.3680556 144.977438,21.7222222 148.330441,25.0763889 C147.85144,25.2361111 147.37244,25.7152778 146.574106,26.3541667 Z M350.468587,414 C347.594585,411.125 344.720583,408.409722 341.846581,405.534722 C342.485248,405.055556 343.123915,404.576389 343.602916,404.256944 C346.796251,407.451389 350.149254,410.805556 353.342589,414.159722 C350.308921,417.354167 346.955918,420.708333 343.602916,424.0625 C343.283582,423.583333 342.804582,423.104167 342.165915,422.465278 C344.720583,419.75 347.594585,417.034722 350.468587,414 Z M220.180493,24.9166667 C223.693162,21.4027778 227.046165,18.0486111 230.2395,15.0138889 C233.592503,18.2083333 236.945505,21.5625 240.298507,25.0763889 C239.819507,25.3958333 239.340507,25.875 238.70184,26.5138889 C235.987504,23.7986111 233.113502,20.9236111 230.2395,18.0486111 C227.365498,20.9236111 224.651163,23.6388889 221.777161,26.5138889 C221.29816,25.875 220.81916,25.3958333 220.180493,24.9166667 Z M445.62999,414 C442.276987,417.354167 438.923985,420.708333 435.570982,424.0625 C435.251649,423.583333 434.772648,422.944444 434.133981,422.305556 C436.68865,419.75 439.402985,417.034722 442.436654,414 C439.562652,411.125 436.848317,408.409722 433.974314,405.534722 C434.453315,404.895833 434.932315,404.416667 435.411316,403.9375 C436.528983,404.576389 443.554321,411.604167 445.62999,414 Z M322.207567,17.8888889 C319.333565,20.7638889 316.619229,23.6388889 313.745227,26.3541667 C313.266227,25.7152778 312.787227,25.2361111 312.308226,24.4375 C315.501562,21.2430556 318.854564,17.8888889 322.207567,14.5347222 C325.560569,18.0486111 328.913572,21.4027778 332.266574,24.9166667 C331.947241,25.2361111 331.46824,25.7152778 330.829573,26.3541667 C327.955571,23.6388889 325.241236,20.7638889 322.207567,17.8888889 Z M414.3353,15.0138889 C417.528636,18.2083333 420.881638,21.5625 424.234641,24.9166667 C423.915307,25.2361111 423.27664,25.7152778 422.637973,26.3541667 C419.763971,23.6388889 417.049636,20.7638889 414.175633,17.8888889 C411.301631,20.7638889 408.587296,23.4791667 405.713294,26.3541667 C405.074627,25.875 404.595627,25.2361111 404.116626,24.7569444 C407.629295,21.5625 410.982298,18.2083333 414.3353,15.0138889 Z M77.4383894,46.1597222 C74.2450538,49.3541667 70.8920514,52.7083333 67.5390489,56.0625 C67.2197154,55.5833333 66.740715,55.1041667 66.1020479,54.4652778 C68.8163832,51.75 71.5307185,49.0347222 74.4047206,46.1597222 C71.5307185,43.2847222 68.8163832,40.5694444 65.9423811,37.6944444 C66.5810482,37.2152778 67.0600486,36.7361111 67.5390489,36.4166667 C70.8920514,39.6111111 74.2450538,42.9652778 77.4383894,46.1597222 Z M67.6987157,332.0625 C67.2197154,331.583333 66.740715,331.104167 66.1020479,330.465278 C68.97605,327.590278 71.6903853,324.875 74.5643874,322 C71.6903853,319.125 68.97605,316.409722 65.9423811,313.534722 C66.740715,312.895833 67.2197154,312.416667 68.1777161,311.777778 C71.3710517,315.131944 74.7240541,318.486111 78.0770566,321.680556 C74.4047206,325.354167 71.0517182,328.708333 67.6987157,332.0625 Z M169.406456,46.1597222 C166.21312,49.3541667 163.019785,52.7083333 159.507116,56.0625 C159.187782,55.5833333 158.708782,55.1041667 158.070115,54.4652778 C160.78445,51.75 163.498785,49.0347222 166.372787,46.1597222 C163.498785,43.2847222 160.78445,40.5694444 157.910448,37.6944444 C158.549115,37.2152778 159.028115,36.7361111 159.507116,36.2569444 C162.860118,39.6111111 166.21312,42.9652778 169.406456,46.1597222 Z M158.070115,313.534722 C158.708782,313.055556 159.347449,312.576389 159.826449,312.097222 C163.019785,315.451389 166.372787,318.805556 169.566123,322 C166.372787,325.194444 163.019785,328.548611 159.666782,331.902778 C159.347449,331.423611 158.868448,330.944444 158.389448,330.145833 C161.103783,327.430556 163.818119,324.715278 166.692121,321.840278 C163.658452,319.284722 160.78445,316.409722 158.070115,313.534722 Z M341.846581,37.5347222 C342.485248,37.0555556 342.964249,36.5763889 343.443249,36.2569444 C346.796251,39.6111111 350.149254,42.9652778 353.342589,46.1597222 C350.149254,49.3541667 346.955918,52.7083333 343.443249,56.0625 C343.123915,55.7430556 342.644915,55.1041667 342.006248,54.4652778 C344.720583,51.75 347.434918,49.0347222 350.308921,46.1597222 C347.594585,43.2847222 344.88025,40.4097222 341.846581,37.5347222 Z M251.634849,332.0625 C251.155849,331.583333 250.676848,331.104167 250.038181,330.625 C252.912183,327.75 255.626519,325.034722 258.500521,322.159722 C257.223186,320.5625 255.786185,319.284722 254.349184,318.006944 C252.912183,316.569444 251.475182,315.291667 249.878514,313.694444 C250.676848,313.055556 251.315515,312.736111 251.794516,312.416667 C254.987851,315.611111 258.340854,318.965278 261.53419,322.159722 C258.181187,325.354167 254.828185,328.708333 251.634849,332.0625 Z M435.411316,56.0625 C435.091982,55.5833333 434.612982,55.1041667 434.133981,54.3055556 C436.68865,51.75 439.402985,48.875 442.276987,46 C439.402985,43.125 436.68865,40.4097222 433.814648,37.375 C434.453315,36.8958333 434.932315,36.4166667 435.411316,36.0972222 C438.764318,39.4513889 442.11732,42.8055556 445.310656,46 C442.276987,49.1944444 438.923985,52.5486111 435.411316,56.0625 Z M343.443249,332.0625 C343.123915,331.743056 342.644915,331.263889 342.006248,330.625 C343.283582,329.027778 344.720583,327.75 346.157584,326.472222 C347.594585,325.034722 349.031586,323.756944 350.468587,322.159722 C347.594585,319.284722 344.88025,316.569444 341.846581,313.534722 C342.485248,313.055556 342.964249,312.576389 343.602916,312.097222 C344.560916,312.576389 351.905588,319.923611 353.502256,321.840278 C350.149254,325.194444 346.796251,328.548611 343.443249,332.0625 Z"
          id="pattern_dash"></path>
      </g>
    </g>
  </g>
</svg>
