<?xml version="1.0" encoding="UTF-8"?>
<svg width="18px" height="18px" viewBox="0 0 18 18" version="1.1" xmlns="http://www.w3.org/2000/svg"
>
  <!-- Generator: sketchtool 44.1 (41455) - http://www.bohemiancoding.com/sketch -->
  <title>06404922-8E35-438B-A60E-746A36D1D638</title>
  <desc>Created with sketchtool.</desc>
  <defs></defs>
  <g id="Page-3" stroke="none" stroke-width="1" fill="none" fill-rule="evenodd">
    <g id="Sidebar" transform="translate(-460.000000, -121.000000)" fill-rule="nonzero" fill="#D3DCE8">
      <g id="Group-4" transform="translate(100.000000, 90.000000)">
        <path
          d="M375,31.03125 C374.234835,31.03125 373.483027,31.329473 372.90625,31.90625 L362,42.78125 L361.78125,43 L361.71875,43.3125 L361.03125,46.8125 L360.71875,48.28125 L362.1875,47.96875 L365.6875,47.28125 L366,47.21875 L366.21875,47 L377.09375,36.09375 C378.247303,34.940197 378.247303,33.059803 377.09375,31.90625 C376.516973,31.329473 375.765165,31.03125 375,31.03125 Z M375,32.96875 C375.234835,32.96875 375.464277,33.089277 375.6875,33.3125 C376.133947,33.758947 376.133947,34.241053 375.6875,34.6875 L365,45.375 L363.28125,45.71875 L363.625,44 L374.25,33.34375 L374.3125,33.3125 C374.535723,33.089277 374.765165,32.96875 375,32.96875 Z"
          id="icon_edit"></path>
      </g>
    </g>
  </g>
</svg>
