<?xml version="1.0" encoding="UTF-8"?>
<svg width="340px" height="65px" viewBox="0 0 340 65" version="1.1" xmlns="http://www.w3.org/2000/svg" xmlns:xlink="http://www.w3.org/1999/xlink">
    <title>cryptonews 2</title>
    <g id="Newsroom" stroke="none" stroke-width="1" fill="none" fill-rule="evenodd">
        <g id="Newsroom-Copy-3" transform="translate(-1382.000000, -5342.000000)" fill="#FFFFFF" fill-rule="nonzero">
            <g id="cryptonews" transform="translate(1382.000000, 5342.000000)">
                <polygon id="Path" opacity="0.9" points="58.0778846 16.302834 58.0778846 48.802704 29.0931026 65 29.0931026 54.1667028 48.4162179 43.3334056 38.7547692 37.9694068 29.0931026 43.3334056 29.0931026 32.5001083 38.7547692 27.1361095 48.4162179 21.6668111"></polygon>
                <path d="M58.0778846,16.3025307 L48.4164359,21.7716774 L29.0933205,10.8332972 L9.66155769,21.6665944 L0,16.3025307 L29.0933205,0 L58.0778846,16.3025307 Z M29.0933205,21.6665944 L19.4316756,27.1358929 L29.0933205,32.6049747 L38.7547692,27.1358929 L29.0933205,21.6665944 Z" id="Shape"></path>
                <path d="M29.0933205,54.1667028 L29.0933205,65 L0,48.802704 L9.66155769,43.3334056 L29.0933205,54.1667028 Z M19.3231154,27.1361095 L19.3231154,37.9694068 L28.9847821,43.4387052 L28.9847821,32.5001083 L19.3231154,27.1361095 Z" id="Shape" opacity="0.8"></path>
                <path d="M93.5758462,44.8056506 C91.2961026,43.6486545 89.4507308,41.9658101 88.1480513,39.7571175 C86.8453718,37.6535078 86.194141,35.2344326 86.194141,32.4998917 C86.194141,29.7651341 86.8453718,27.3460588 88.1480513,25.2426659 C89.4507308,23.1390562 91.2961026,21.4561685 93.5758462,20.194046 C95.8555897,19.0370932 98.4609487,18.406032 101.391923,18.406032 C103.780205,18.406032 106.059949,18.8267322 108.014077,19.6681544 C109.967987,20.5095766 111.596282,21.6665294 113.0075,23.2441392 L108.882385,26.9255102 C107.037013,24.8219006 104.648731,23.7699874 101.826295,23.7699874 C100.089244,23.7699874 98.5694872,24.1907527 97.1582692,24.9269836 C95.7470513,25.6632145 94.7699872,26.7151276 94.0102179,27.9772067 C93.2502308,29.3445855 92.8160769,30.8170473 92.8160769,32.4998917 C92.8160769,34.1827361 93.2502308,35.6551978 94.0102179,37.0225766 C94.7699872,38.3897387 95.8555897,39.3363522 97.1582692,40.0725831 C98.5694872,40.808814 100.089244,41.2295792 101.826295,41.2295792 C104.648731,41.2295792 107.037013,40.1778827 108.882385,37.9689734 L113.0075,41.6503445 C111.704821,43.2278892 109.967987,44.3848854 108.014077,45.2264159 C106.059949,46.0677298 103.780205,46.488495 101.391923,46.488495 C98.5694872,46.593578 95.9641282,45.9626468 93.5758462,44.8056506 Z" id="Path"></path>
                <path d="M124.948692,25.6634311 C126.251372,25.1375829 127.66259,24.9272002 129.290885,24.9272002 L129.290885,30.5015817 C128.639654,30.5015817 128.096962,30.3964987 127.879667,30.3964987 C126.034295,30.3964987 124.731615,30.9223469 123.646013,31.8689604 C122.668949,32.8155739 122.126256,34.2880357 122.126256,36.2863457 L122.126256,46.1730294 L115.829936,46.1730294 L115.829936,25.2426659 L121.800641,25.2426659 L121.800641,27.9772067 C122.668949,26.9255102 123.646013,26.1892794 124.948692,25.6634311 Z" id="Path"></path>
                <path d="M154.150333,25.2424492 L144.380128,47.4348919 C143.403282,49.8539672 142.209141,51.5368115 140.689167,52.4834251 C139.277949,53.4300386 137.432577,53.9558868 135.36991,53.9558868 C134.284308,53.9558868 133.090167,53.7455042 132.004782,53.4300386 C130.919179,53.114573 130.050654,52.588508 129.290885,52.0626598 L131.57041,47.7503575 C132.004782,48.1711228 132.656013,48.4865884 133.198923,48.696971 C133.850154,48.9073536 134.501603,49.0126533 135.044295,49.0126533 C135.912821,49.0126533 136.564051,48.8022707 137.106962,48.3815054 C137.649654,47.9607401 138.083808,47.3298089 138.518179,46.3831954 L138.952333,46.2778957 L129.6165,25.2424492 L136.021359,25.2424492 L142.100385,39.4414352 L148.179628,25.2424492 L154.150333,25.2424492 Z" id="Path"></path>
                <path d="M174.016577,26.1892794 C175.644872,27.1358929 176.947551,28.292889 177.924615,29.9757334 C178.901679,31.5532782 179.335833,33.4465052 179.335833,35.6551978 C179.335833,37.8641071 178.901679,39.6520345 177.924615,41.3348789 C176.947551,42.9126403 175.75341,44.1747194 174.016577,45.1213329 C172.388282,45.9626468 170.542692,46.488495 168.588782,46.488495 C165.874885,46.488495 163.703679,45.6471812 162.075385,43.9643368 L162.075385,53.6406379 L155.779064,53.6406379 L155.779064,25.2426659 L161.749769,25.2426659 L161.749769,27.6617411 C163.269526,25.8738138 165.549269,24.9272002 168.480244,24.9272002 C170.542692,24.9272002 172.279744,25.3479655 174.016577,26.1892794 Z M171.411218,39.8624171 C172.388282,38.810504 172.930974,37.4433419 172.930974,35.6551978 C172.930974,33.8672704 172.388282,32.4998917 171.411218,31.4481952 C170.434154,30.3964987 169.022936,29.8704338 167.503179,29.8704338 C165.874885,29.8704338 164.572205,30.3964987 163.595141,31.4481952 C162.618077,32.4998917 162.075385,33.8672704 162.075385,35.6551978 C162.075385,37.4433419 162.618077,38.810504 163.595141,39.8624171 C164.572205,40.9141136 165.983423,41.4399619 167.503179,41.4399619 C169.022936,41.4399619 170.325615,40.9141136 171.411218,39.8624171 Z" id="Shape"></path>
                <path d="M196.379205,45.1213329 C195.727974,45.5420982 194.967987,45.8575638 194.099679,46.0679464 C193.231154,46.2783291 192.25409,46.3836287 191.277244,46.3836287 C188.671885,46.3836287 186.717756,45.7524808 185.306538,44.4904017 C183.895321,43.2281059 183.24409,41.3350955 183.24409,38.9158036 L183.24409,30.2914157 L179.878744,30.2914157 L179.878744,25.6634311 L183.24409,25.6634311 L183.24409,20.6150063 L189.540192,20.6150063 L189.540192,25.6634311 L194.859449,25.6634311 L194.859449,30.2914157 L189.540192,30.2914157 L189.540192,38.8107206 C189.540192,39.6522512 189.757269,40.388482 190.191641,40.8090306 C190.625795,41.3350955 191.277244,41.5452615 192.145551,41.5452615 C193.122615,41.5452615 193.991141,41.3350955 194.642372,40.8090306 L196.379205,45.1213329 Z" id="Path"></path>
                <path d="M202.350128,45.0160333 C200.504538,44.0694198 199.093321,42.8073406 198.116256,41.2297959 C197.13941,39.5469515 196.5965,37.7588075 196.5965,35.6551978 C196.5965,33.5518048 197.13941,31.7636608 198.116256,30.0808164 C199.093321,28.397972 200.504538,27.1358929 202.350128,26.294579 C204.1955,25.3479655 206.149628,24.9272002 208.429154,24.9272002 C210.708897,24.9272002 212.771564,25.3479655 214.508397,26.294579 C216.353987,27.2409759 217.656667,28.5032717 218.742051,30.0808164 C219.718462,31.7636608 220.261154,33.5518048 220.261154,35.6551978 C220.261154,37.7588075 219.718462,39.5469515 218.742051,41.2297959 C217.765205,42.9126403 216.353987,44.1747194 214.508397,45.0160333 C212.771564,45.9626468 210.708897,46.3834121 208.429154,46.3834121 C206.149628,46.3834121 204.086962,45.9626468 202.350128,45.0160333 Z M212.337192,39.8624171 C213.314256,38.8107206 213.857167,37.4433419 213.857167,35.6551978 C213.857167,33.8672704 213.314256,32.4998917 212.337192,31.4481952 C211.360346,30.3964987 209.949128,29.8704338 208.429154,29.8704338 C206.800859,29.8704338 205.498179,30.3964987 204.412577,31.4481952 C203.326974,32.4998917 202.892821,33.8672704 202.892821,35.6551978 C202.892821,37.4433419 203.435731,38.8107206 204.412577,39.8624171 C205.498179,40.9141136 206.800859,41.4399619 208.429154,41.4399619 C210.057667,41.4399619 211.360346,40.9141136 212.337192,39.8624171 Z" id="Shape"></path>
                <polygon id="Path" points="257.170769 18.9318152 257.170769 46.1728128 251.852821 46.1728128 237.847436 29.6600511 237.847436 46.1728128 231.444103 46.1728128 231.444103 18.9318152 236.762051 18.9318152 250.767436 35.4448152 250.767436 18.9318152"></polygon>
                <path d="M283.442308,37.3380422 L267.157179,37.3380422 C267.484103,38.6001213 268.135769,39.6518178 269.221154,40.3880487 C270.306538,41.1242796 271.716667,41.5450448 273.346923,41.5450448 C274.432308,41.5450448 275.517692,41.3346622 276.385128,41.0191966 C277.254744,40.703731 278.013205,40.1776661 278.773846,39.4414352 L282.138974,42.9124236 C280.077179,45.1211163 277.145769,46.2781124 273.237949,46.2781124 C270.849231,46.2781124 268.678462,45.8573471 266.832436,44.9107336 C264.98641,43.9641201 263.467308,42.702041 262.490897,41.1242796 C261.512308,39.4414352 260.969615,37.6535078 260.969615,35.5498982 C260.969615,33.5515882 261.512308,31.6583611 262.490897,29.9755167 C263.467308,28.2926724 264.877436,27.0305932 266.614487,26.0839797 C268.351538,25.1373662 270.306538,24.7166009 272.477308,24.7166009 C274.539103,24.7166009 276.494103,25.1373662 278.231154,26.0839797 C279.968205,26.9252936 281.271538,28.1875894 282.247949,29.8704338 C283.224359,31.5532782 283.658077,33.4462885 283.658077,35.5498982 C283.551282,35.8653638 283.551282,36.3914287 283.442308,37.3380422 Z M268.787436,30.6066646 C267.808846,31.3428955 267.266154,32.394592 267.050385,33.7619708 L277.688462,33.7619708 C277.470513,32.394592 276.927821,31.3428955 275.95141,30.6066646 C274.975,29.8704338 273.780641,29.4496685 272.368333,29.4496685 C270.958205,29.4496685 269.763846,29.8704338 268.787436,30.6066646 Z" id="Shape"></path>
                <polygon id="Path" points="321.00359 25.2424492 313.185769 46.1728128 307.216154 46.1728128 302.329744 33.2359059 297.336538 46.1728128 291.366923 46.1728128 283.442308 25.2424492 289.302949 25.2424492 294.405128 39.3361355 299.725256 25.2424492 305.045385 25.2424492 310.147564 39.3361355 315.356538 25.2424492"></polygon>
                <path d="M324.584487,45.7522642 C322.847436,45.3317156 321.546282,44.8056506 320.460897,44.1747194 L322.522692,39.8624171 C323.499103,40.4933484 324.693462,40.9141136 325.996795,41.3348789 C327.406923,41.7556441 328.710256,41.8607271 330.01359,41.8607271 C332.618077,41.8607271 334.030385,41.2297959 334.030385,39.9675001 C334.030385,39.3365689 333.703462,38.9158036 332.945,38.705421 C332.184359,38.4950383 331.098974,38.1795727 329.577692,38.0742731 C327.842821,37.8641071 326.321538,37.5484248 325.236154,37.1278762 C324.041795,36.812194 323.065385,36.1812627 322.195769,35.3397322 C321.328333,34.4984183 320.894615,33.2361225 320.894615,31.6585778 C320.894615,30.291199 321.328333,29.1342029 322.088974,28.1875894 C322.847436,27.2409759 324.041795,26.399662 325.563077,25.7685141 C327.082179,25.2426659 328.819231,24.9272002 330.881026,24.9272002 C332.400128,24.9272002 333.92141,25.1375829 335.440513,25.4530485 C336.959615,25.7685141 338.153974,26.1892794 339.239359,26.8204273 L337.177564,31.1327296 C335.331538,30.0808164 333.160769,29.5549682 330.99,29.5549682 C329.686667,29.5549682 328.601282,29.7653508 327.949615,30.0808164 C327.297949,30.3964987 326.973205,30.9223469 326.973205,31.4481952 C326.973205,32.0793431 327.297949,32.4998917 328.05859,32.8155739 C328.819231,33.0257399 329.904615,33.3414222 331.532692,33.5518048 C333.269744,33.8672704 334.788846,34.1827361 335.874231,34.4984183 C336.959615,34.813884 337.938205,35.4450318 338.805641,36.2863457 C339.675256,37.1278762 340,38.2846557 340,39.8624171 C340,41.1244963 339.566282,42.2814924 338.805641,43.3331889 C338.045,44.385102 336.852821,45.1213329 335.331538,45.6471812 C333.812436,46.1730294 331.96641,46.488495 329.904615,46.488495 C328.05859,46.3834121 326.321538,46.1730294 324.584487,45.7522642 Z" id="Path"></path>
            </g>
        </g>
    </g>
</svg>