<svg xmlns="http://www.w3.org/2000/svg" width="180" height="44" viewBox="0 0 180 44">
    <g fill="none" fill-rule="nonzero">
        <path fill="#000130" d="M47.296 15.55h18.222v3.375h-7.165v18.972h-3.94V18.925H47.28V15.55h.016zm17.444 6.166h3.368v3.123h.063c.111-.442.318-.868.62-1.278.302-.41.667-.804 1.096-1.135a5.852 5.852 0 0 1 1.43-.836 4.402 4.402 0 0 1 1.604-.315c.414 0 .715.015.874.031.16.016.318.047.493.063v3.438a11.549 11.549 0 0 0-.779-.11 6.647 6.647 0 0 0-.778-.048c-.604 0-1.176.127-1.716.363-.54.237-1 .6-1.398 1.057-.397.473-.715 1.04-.953 1.735-.239.693-.35 1.482-.35 2.38v7.697h-3.59V21.716h.016zm26.054 16.18h-3.527v-2.254h-.063c-.445.82-1.096 1.466-1.97 1.955-.874.489-1.764.741-2.67.741-2.144 0-3.7-.52-4.654-1.577-.953-1.056-1.43-2.65-1.43-4.778V21.716h3.59v9.92c0 1.42.27 2.429.827 3.012.54.584 1.318.883 2.303.883.763 0 1.383-.11 1.89-.347.51-.236.922-.536 1.224-.93.318-.379.54-.852.683-1.388.143-.536.207-1.12.207-1.75v-9.384h3.59v16.165zm6.117-5.188c.111 1.041.508 1.767 1.191 2.192.7.41 1.526.631 2.495.631.333 0 .715-.031 1.144-.079a4.832 4.832 0 0 0 1.207-.3c.381-.141.683-.362.937-.646.239-.284.35-.647.334-1.104a1.519 1.519 0 0 0-.508-1.12c-.318-.3-.715-.52-1.208-.71a12.19 12.19 0 0 0-1.684-.457c-.635-.126-1.27-.268-1.922-.41a18.351 18.351 0 0 1-1.938-.536 5.934 5.934 0 0 1-1.669-.851 3.753 3.753 0 0 1-1.175-1.357c-.302-.552-.445-1.23-.445-2.05 0-.883.222-1.608.651-2.208.43-.6.985-1.072 1.637-1.435a7.62 7.62 0 0 1 2.208-.773c.81-.142 1.589-.22 2.32-.22.841 0 1.652.094 2.414.268a6.25 6.25 0 0 1 2.081.867c.62.394 1.128.915 1.542 1.546.413.63.667 1.403.778 2.302h-3.75c-.174-.852-.555-1.435-1.175-1.719-.62-.3-1.335-.442-2.129-.442-.254 0-.556.016-.905.064-.35.047-.668.126-.985.236-.302.11-.556.284-.779.505-.206.22-.318.504-.318.867 0 .442.16.789.461 1.057.302.268.7.489 1.192.678a12.19 12.19 0 0 0 1.684.457c.635.126 1.286.268 1.954.41.651.142 1.287.332 1.922.537a5.819 5.819 0 0 1 1.684.851c.493.363.89.804 1.192 1.34.301.537.46 1.215.46 2.004 0 .962-.222 1.766-.667 2.444a5.265 5.265 0 0 1-1.716 1.624 8.102 8.102 0 0 1-2.351.915c-.858.19-1.716.284-2.558.284-1.032 0-1.986-.11-2.86-.347-.873-.237-1.636-.584-2.271-1.04a5.172 5.172 0 0 1-1.51-1.751c-.365-.694-.556-1.53-.587-2.492h3.622v-.032zm11.852-10.992h2.716V16.86h3.59v4.857h3.242v2.665h-3.241v8.643c0 .378.016.694.047.977.032.269.112.505.223.694.111.19.286.332.524.426.238.095.54.142.953.142.254 0 .509 0 .763-.016.254-.015.508-.047.762-.11v2.76c-.397.047-.794.079-1.16.126a9.356 9.356 0 0 1-1.16.063c-.952 0-1.715-.095-2.287-.268-.572-.174-1.032-.442-1.35-.789-.334-.347-.54-.772-.667-1.293a9.655 9.655 0 0 1-.207-1.782v-9.541h-2.717v-2.697h-.031zm12.09 0h3.4v2.192h.063c.508-.946 1.207-1.608 2.113-2.018a7.006 7.006 0 0 1 2.939-.615c1.287 0 2.399.22 3.352.678a6.545 6.545 0 0 1 2.383 1.845c.636.788 1.096 1.703 1.414 2.744.318 1.04.477 2.16.477 3.343 0 1.088-.143 2.145-.43 3.154a8.415 8.415 0 0 1-1.286 2.713c-.572.789-1.303 1.404-2.192 1.877-.89.473-1.923.71-3.13.71a8.839 8.839 0 0 1-1.573-.143 6.961 6.961 0 0 1-1.51-.457 5.457 5.457 0 0 1-1.334-.804 5.009 5.009 0 0 1-1.032-1.136h-.064v8.075h-3.59V21.716zm12.55 8.106a8 8 0 0 0-.286-2.129 5.723 5.723 0 0 0-.858-1.83 4.36 4.36 0 0 0-1.413-1.277 3.987 3.987 0 0 0-1.955-.489c-1.509 0-2.653.52-3.415 1.562-.763 1.04-1.144 2.428-1.144 4.163 0 .82.095 1.577.302 2.271.206.694.492 1.293.905 1.798a4.28 4.28 0 0 0 1.43 1.183c.556.3 1.208.441 1.938.441.826 0 1.51-.173 2.082-.504a4.383 4.383 0 0 0 1.398-1.293 5.354 5.354 0 0 0 .794-1.814c.143-.678.222-1.372.222-2.082zm6.34-14.272h3.59v3.375h-3.59V15.55zm0 6.166h3.59v16.18h-3.59v-16.18zm6.799-6.166h3.59v22.347h-3.59V15.55zm14.6 22.788c-1.303 0-2.462-.22-3.48-.646a7.684 7.684 0 0 1-2.589-1.767 7.68 7.68 0 0 1-1.604-2.696c-.366-1.041-.556-2.192-.556-3.438 0-1.23.19-2.366.556-3.407a7.68 7.68 0 0 1 1.604-2.697c.7-.757 1.573-1.34 2.59-1.766 1.017-.426 2.176-.646 3.48-.646 1.302 0 2.462.22 3.478.646a7.684 7.684 0 0 1 2.59 1.766 7.68 7.68 0 0 1 1.605 2.697c.365 1.041.556 2.177.556 3.407 0 1.246-.191 2.397-.556 3.438a7.68 7.68 0 0 1-1.605 2.696c-.7.757-1.573 1.34-2.59 1.767-1.016.426-2.176.646-3.479.646zm0-2.823c.794 0 1.493-.173 2.081-.504a4.417 4.417 0 0 0 1.446-1.31c.381-.535.651-1.15.842-1.829.175-.678.27-1.372.27-2.081 0-.694-.095-1.372-.27-2.066a5.377 5.377 0 0 0-.842-1.83 4.371 4.371 0 0 0-1.446-1.293c-.588-.331-1.287-.505-2.08-.505-.795 0-1.494.174-2.082.505a4.551 4.551 0 0 0-1.446 1.293c-.381.537-.651 1.136-.842 1.83a8.383 8.383 0 0 0-.27 2.066c0 .71.095 1.403.27 2.081a5.52 5.52 0 0 0 .842 1.83c.381.536.858.978 1.446 1.309.588.347 1.287.504 2.081.504zm9.278-13.799h2.717V16.86h3.59v4.857h3.241v2.665h-3.24v8.643c0 .378.015.694.047.977.032.269.111.505.222.694.112.19.286.332.525.426.238.095.54.142.953.142.254 0 .508 0 .762-.016.255-.015.509-.047.763-.11v2.76c-.397.047-.794.079-1.16.126a9.356 9.356 0 0 1-1.16.063c-.953 0-1.715-.095-2.287-.268-.572-.174-1.033-.442-1.35-.789-.334-.347-.54-.772-.668-1.293a9.655 9.655 0 0 1-.206-1.782v-9.541h-2.717v-2.697h-.032z"/>
        <path fill="#00B67A" d="M43.102 15.55h-16.46L21.56 0l-5.1 15.55L0 15.534l13.33 9.62-5.1 15.534 13.329-9.604 13.313 9.604-5.084-15.534z"/>
        <path fill="#005128" d="M30.932 28.671l-1.144-3.517-8.23 5.93z"/>
    </g>
</svg>
