<?xml version="1.0" encoding="UTF-8"?>
<svg width="46px" height="46px" viewBox="0 0 46 46" version="1.1" xmlns="http://www.w3.org/2000/svg"
>
  <!-- Generator: Sketch 51.3 (57544) - http://www.bohemiancoding.com/sketch -->
  <title>step_4_active</title>
  <desc>Created with Sketch.</desc>
  <defs></defs>
  <g id="Page-3" stroke="none" stroke-width="1" fill="none" fill-rule="evenodd">
    <g id="Update-Step-2" transform="translate(-1197.000000, -130.000000)">
      <g id="step_4_active" transform="translate(1197.000000, 130.000000)">
        <path
          d="M23,0 C10.3184067,0 0,10.3184067 0,23 C0,35.6815932 10.3184067,46 23,46 C35.6815932,46 46,35.6815932 46,23 C46,10.3184067 35.6815932,0 23,0 Z"
          id="Shape" fill="#FFFFFF" fill-rule="nonzero"></path>
        <polygon id="4" fill="#6078F0"
                 points="27.6 26.5 29.725 26.5 29.725 28.675 27.6 28.675 27.6 32 25.275 32 25.275 28.675 16.35 28.675 16.35 26.5 22.625 14.5 25.125 14.5 18.85 26.5 25.275 26.5 25.275 21.55 27.6 21.55"></polygon>
      </g>
    </g>
  </g>
</svg>
