<svg xmlns="http://www.w3.org/2000/svg" xmlns:xlink="http://www.w3.org/1999/xlink" width="2048" height="1028" viewBox="0 0 2048 1028">
    <defs>
        <linearGradient id="prefix__b" x1="50%" x2="50%" y1="0%" y2="71.319%">
            <stop offset="0%" stop-color="#232348"/>
            <stop offset="100%" stop-color="#0D0D2A"/>
        </linearGradient>
        <linearGradient id="prefix__d" x1="30.569%" x2="27.348%" y1="52.479%" y2="60.917%">
            <stop offset="0%" stop-color="#FFF"/>
            <stop offset="100%" stop-color="#FFF" stop-opacity="0"/>
        </linearGradient>
        <path id="prefix__a" d="M0 0H2048V1028H0z"/>
    </defs>
    <g fill="none" fill-rule="evenodd">
        <mask id="prefix__c" fill="#fff">
            <use xlink:href="#prefix__a"/>
        </mask>
        <path fill="url(#prefix__b)" d="M1178.173 64.968c605.835-141.945 945.28-28.28 1036.707 120.642 11.492 18.72 22.965 56.795 33.183 107.07l40.937.022V1273h-35.912c-75.22-101.801-224.178-163.18-369.562-156.252-314.292 14.978-496.37 199.622-1129.552 48.846-425.39-101.295-728.937-67.895-910.434 4.949l-.012-166.6C-497.798 609.372-344.848-37.548 92.673 16.504c462.57 57.146 479.666 190.408 1085.5 48.464z" mask="url(#prefix__c)"/>
        <path fill="#FFF" fill-rule="nonzero" d="M2327.4-23c-327.08 35.856-594.58 127.19-802.5 274-207.92 146.812-420.22 176.12-636.9 87.923V-23h1439.4z" mask="url(#prefix__c)" opacity=".03" transform="matrix(-1 0 0 1 3215.4 0)"/>
        <path fill="url(#prefix__d)" fill-rule="nonzero" d="M1330-158v639.537c-210.018 121.07-417.757 142.544-623.217 64.423-308.19-117.182-547.313-94.195-768.716 101.368C-209.534 777.703-385.223 844.594-589 848V742.665C-203.152 716.2-170.282 345.177 63.12 223.404 296.522 101.631 506.1 147.25 776.143 147.25 1046.188 147.25 1313.29-67.248 1330-158zm-.072 230.97c-29.853 48-85.634 85.483-167.344 112.45-122.564 40.449-213.059 75.556-167.811 169.393 45.247 93.838 251.493 73.824 335.155-31.736V72.97z" mask="url(#prefix__c)" opacity=".03" transform="scale(-1 1) rotate(-15 0 3159.227)"/>
    </g>
</svg>
