<svg xmlns="http://www.w3.org/2000/svg" xmlns:xlink="http://www.w3.org/1999/xlink" width="122" height="25" viewBox="0 0 122 25">
    <defs>
        <linearGradient id="67bz0u6knb" x1="100%" x2="0%" y1="0%" y2="100%">
            <stop offset="0%" stop-color="#21D4FD"/>
            <stop offset="100%" stop-color="#B721FF"/>
        </linearGradient>
        <rect id="nh8fh7t4ba" width="25" height="25" x="0" y="0" rx="12.5"/>
    </defs>
    <g fill="none" fill-rule="evenodd">
        <g>
            <g>
                <g transform="translate(-470 -38) translate(470 38)">
                    <mask id="7a4fp44uxc" fill="#fff">
                        <use xlink:href="#nh8fh7t4ba"/>
                    </mask>
                    <use fill="#FFF" xlink:href="#nh8fh7t4ba"/>
                    <path fill="url(#67bz0u6knb)" d="M25 0v25h-.409l-7.242-13.897-.026-.048-.027-.047-2.013-3.86c-.374-.72-1.117-1.17-1.928-1.17h-2.948c-.088 0-.174.021-.251.062-.266.138-.37.467-.231.733l9.223 17.698.002-.003.277.532H5.52l6.1-11.705.038-.091c.076-.246-.032-.52-.268-.642-.078-.04-.164-.062-.252-.062H8.19l-.173.007c-.742.059-1.407.495-1.755 1.162L.358 25H0V0h25z" mask="url(#7a4fp44uxc)"/>
                </g>
                <path fill="#354052" fill-rule="nonzero" d="M48.652 19.84h-3.177l-.89-2.67h-5.909l-.89 2.67h-3.155l5.19-14.837h3.621l5.21 14.837zm-7.01-11.467l-2.034 6.062h4.067l-2.033-6.062zM53.069 19.84h-2.733V4.367h2.733V19.84zm5.602 0h-2.732V4.367h2.732V19.84zm8.758-10.895c1.165 0 2.118.382 2.86 1.166.762.784 1.143 1.844 1.143 3.222v6.507H68.7v-6.168c0-1.42-.826-2.183-2.097-2.183-1.42 0-2.33.869-2.33 2.628v5.723h-2.732V9.242h2.732v1.187c.657-.996 1.716-1.484 3.156-1.484zm15.727 9.58c-1.08 1.082-2.415 1.611-3.982 1.611-1.568 0-2.902-.53-3.982-1.61-1.08-1.081-1.61-2.417-1.61-3.985 0-1.569.53-2.883 1.61-3.964 1.08-1.08 2.414-1.632 3.982-1.632 1.567 0 2.901.551 3.982 1.632 1.08 1.081 1.63 2.395 1.63 3.964 0 1.568-.55 2.904-1.63 3.985zm-6.037-1.886c.55.551 1.229.827 2.055.827.826 0 1.503-.276 2.054-.827.55-.55.826-1.25.826-2.098 0-.848-.275-1.547-.826-2.099-.55-.55-1.228-.826-2.054-.826-.826 0-1.504.275-2.055.826-.53.552-.805 1.251-.805 2.099 0 .848.276 1.547.805 2.098zm17.993-6.147v-5.49h2.732V19.84h-2.732v-1.25c-.805 1.038-1.949 1.546-3.431 1.546-1.42 0-2.648-.53-3.664-1.61-.996-1.081-1.504-2.417-1.504-3.985 0-1.569.508-2.883 1.504-3.964 1.016-1.08 2.245-1.632 3.664-1.632 1.482 0 2.626.509 3.431 1.547zm-5.041 6.21c.572.552 1.27.827 2.118.827.847 0 1.546-.275 2.097-.826.55-.573.826-1.293.826-2.162 0-.87-.275-1.59-.826-2.14-.55-.573-1.25-.849-2.097-.849s-1.546.276-2.118.848c-.55.551-.826 1.272-.826 2.14 0 .87.275 1.59.826 2.163zm20.937-1.038h-7.985c.36 1.336 1.356 1.993 2.986 1.993 1.038 0 1.843-.36 2.373-1.06l2.202 1.272c-1.037 1.504-2.584 2.267-4.617 2.267-1.758 0-3.156-.53-4.215-1.59-1.059-1.059-1.588-2.394-1.588-4.005 0-1.59.53-2.925 1.567-3.985 1.038-1.08 2.393-1.61 4.024-1.61 1.546 0 2.838.53 3.834 1.61 1.017 1.081 1.525 2.395 1.525 3.985 0 .36-.042.72-.106 1.123zm-8.027-2.12h5.4c-.317-1.44-1.376-2.14-2.626-2.14-1.461 0-2.457.784-2.774 2.14zm12.93-1.292c0 .572.848.89 1.928 1.165 1.546.318 3.558 1.06 3.537 3.328 0 1.081-.403 1.929-1.229 2.522-.804.573-1.821.87-3.028.87-2.182 0-3.665-.848-4.448-2.523l2.372-1.335c.318.911.995 1.378 2.076 1.378.974 0 1.461-.297 1.461-.912 0-.572-.847-.89-1.927-1.166-1.568-.402-3.538-1.06-3.538-3.264 0-1.038.382-1.865 1.144-2.458.784-.615 1.737-.912 2.88-.912 1.716 0 3.2.806 4.025 2.247l-2.33 1.272c-.339-.721-.91-1.081-1.694-1.081-.7 0-1.229.339-1.229.869z" transform="translate(-470 -38) translate(470 38)"/>
            </g>
        </g>
    </g>
</svg>
