<svg xmlns="http://www.w3.org/2000/svg" width="280" height="66" viewBox="0 0 280 66">
    <g fill="none" fill-rule="evenodd">
        <g fill="#FFF" fill-rule="nonzero">
            <g>
                <g>
                    <g>
                        <path d="M40.647 48.067L28.98 53.153v-.513c-2.24.56-4.76.887-7.093 1.027-11.014-.094-19.694-5.88-19.834-12.694v-2.52c3.594 5.227 10.967 8.774 19.834 8.634 2.986.14 6.066-.327 8.633-1.027l1.027-2.52c-3.034.933-6.394 1.54-9.66 1.54-11.014 0-19.694-5.74-19.834-12.693v-2.054c3.594 4.854 10.967 8.354 19.834 8.12 4.013.234 7.886-.606 11.2-2.053l.513-2.52c-3.22 1.68-7.373 2.66-11.667 2.52C10.92 36.54 2.24 30.8 2.1 23.707v-2.054c3.593 4.947 10.967 8.494 19.833 8.634 5.04-.14 9.8-1.494 13.72-3.547l.514-3.033c-3.547 2.613-8.727 4.34-14.234 4.573C10.92 28.047 2.24 22.26 2.1 15.073c.093-6.86 8.82-12.6 19.833-12.693 6.534.093 12.647 2.38 16.24 6.113l.374.607h2.566l-.373-.607c-3.593-4.9-10.827-8.12-18.807-8.12C9.707.327 0 7 0 15.027V41.44c.42 7.84 9.893 14.234 21.84 14.234 7.887.046 15.027-3.08 18.807-7.607z" transform="translate(-599 -1240) translate(469 1096) translate(130 144)"/>
                        <path d="M35.887 65.94l4.106-17.453-11.806 5.133 7.186-30.24H21.56l3.593-14.887h44.1L65.66 23.38H51.287l-3.08 8.213L64.12 24.92 35.887 65.94zm7.186-21L41.02 55.207l16.94-25.62-13.86 6.16 6.16-14.374h13.86l2.567-10.78h-40.04l-2.567 10.78h13.86l-6.673 28.7 11.806-5.133z" transform="translate(-599 -1240) translate(469 1096) translate(130 144)"/>
                    </g>
                    <path d="M98.513 18.48v.047c.047 1.633-.466 2.893-1.493 3.826-1.027.934-2.427 1.4-4.247 1.4-1.82 0-3.313-.606-4.433-1.773-1.12-1.167-1.68-2.707-1.68-4.573v-3.034c0-1.866.56-3.406 1.633-4.573 1.12-1.167 2.567-1.773 4.34-1.773 1.867 0 3.314.466 4.387 1.353 1.073.933 1.587 2.193 1.54 3.827v.046h-2.987c0-.98-.233-1.726-.7-2.193-.466-.467-1.213-.7-2.193-.7-.933 0-1.633.373-2.147 1.12-.513.747-.793 1.68-.793 2.847v3.08c0 1.166.28 2.146.793 2.893.56.747 1.307 1.12 2.287 1.12.933 0 1.587-.233 2.053-.7.467-.467.7-1.213.7-2.193h2.94v-.047zm16.894-1.213c0 1.866-.607 3.453-1.774 4.666-1.166 1.214-2.706 1.82-4.62 1.82-1.913 0-3.406-.606-4.62-1.82-1.166-1.213-1.773-2.8-1.773-4.666v-2.754c0-1.866.607-3.406 1.773-4.666 1.167-1.214 2.707-1.867 4.574-1.867 1.913 0 3.453.607 4.62 1.867 1.213 1.213 1.773 2.8 1.773 4.666v2.754h.047zm-3.08-2.8c0-1.214-.28-2.147-.887-2.94-.607-.747-1.4-1.167-2.473-1.167-1.027 0-1.867.373-2.427 1.167-.56.746-.887 1.726-.887 2.94v2.753c0 1.213.28 2.193.887 2.987.56.746 1.4 1.166 2.427 1.166 1.073 0 1.866-.373 2.473-1.166.607-.747.887-1.774.887-2.987v-2.753zm11.013 9.053h-3.08V8.213h3.08V23.52zm17.687 0h-3.08l-6.16-10.313h-.047V23.52h-3.08V8.213h3.08l6.16 10.314h.047V8.213h3.08V23.52zm15.446-12.927h-4.386V23.52h-3.08V10.593h-4.294v-2.38h11.76v2.38zm12.694 6.207h-5.694v4.387h6.767v2.333h-9.8V8.213h9.8v2.38h-6.72v3.827h5.693v2.38h-.046zm8.54 4.387h6.86v2.333h-9.94V8.213h3.08v12.974zm19.926-4.387h-5.693v4.387h6.767v2.333h-9.8V8.213h9.8v2.38h-6.72v3.827h5.693v2.38h-.047zm17.22 4.667c-.466.606-1.166 1.166-2.146 1.633-.934.467-2.147.7-3.64.7-1.867 0-3.36-.56-4.527-1.727-1.167-1.166-1.773-2.66-1.773-4.526v-3.22c0-1.867.56-3.36 1.726-4.527 1.12-1.167 2.614-1.773 4.387-1.773 1.867 0 3.313.466 4.293 1.353s1.494 2.053 1.447 3.547v.046h-2.893c0-.793-.234-1.446-.7-1.913-.467-.467-1.167-.7-2.054-.7-.933 0-1.68.373-2.286 1.073-.56.747-.84 1.68-.84 2.8v3.22c0 1.167.28 2.1.886 2.847.607.747 1.4 1.073 2.38 1.073.747 0 1.307-.093 1.727-.233.42-.14.747-.327.98-.56v-2.987h-2.94v-2.146h6.02v6.02h-.047zm7.934-4.06v6.113h-3.08V8.213h5.32c1.726 0 3.126.42 4.106 1.214.98.793 1.494 1.913 1.494 3.313 0 .793-.187 1.447-.607 2.053-.42.56-1.027 1.027-1.82 1.4.887.28 1.54.7 1.96 1.354.373.606.607 1.4.607 2.333V21c0 .42.046.887.186 1.353.094.467.327.794.607 1.027v.233h-3.173c-.28-.233-.467-.606-.56-1.12-.094-.513-.14-1.026-.14-1.493v-1.073c0-.747-.187-1.354-.607-1.774-.42-.42-1.027-.653-1.773-.653h-2.52v-.093zm0-2.334h2.193c.84 0 1.493-.186 1.913-.56.42-.373.654-.886.654-1.633 0-.7-.234-1.26-.654-1.68-.42-.42-1.026-.607-1.866-.607h-2.24v4.48zm20.86 5.18H238.7l-1.027 3.314h-3.22l5.18-15.307h3.127l5.133 15.307h-3.22l-1.026-3.314zm-4.2-2.426h3.453l-1.68-5.414h-.047l-1.726 5.414zm15.26.14v5.553h-3.08V8.213h5.88c1.773 0 3.126.467 4.153 1.354 1.027.886 1.493 2.1 1.493 3.546 0 1.447-.513 2.66-1.493 3.547-1.027.887-2.38 1.353-4.153 1.353h-2.8v-.046zm0-2.334h2.8c.84 0 1.493-.233 1.96-.7.42-.466.653-1.073.653-1.773 0-.747-.233-1.353-.653-1.82-.42-.467-1.074-.7-1.96-.7h-2.8v4.993zM280 23.52h-3.08v-6.347h-6.253v6.347h-3.08V8.213h3.08v6.58h6.253v-6.58H280V23.52z" transform="translate(-599 -1240) translate(469 1096) translate(130 144)"/>
                    <g>
                        <path d="M5.46 12.6H3.547V2.52H.093V.887h8.82V2.52H5.46V12.6zm12.833 0H16.38V7.14c0-.7-.14-1.213-.42-1.54-.28-.327-.7-.513-1.307-.513-.793 0-1.353.233-1.726.7-.374.466-.56 1.26-.56 2.38v4.386H10.5V.093h1.867v3.174c0 .513-.047 1.026-.094 1.633h.14c.234-.42.607-.747 1.074-.98.466-.233.98-.373 1.586-.373 2.147 0 3.22 1.073 3.22 3.266V12.6zm6.487.14c-1.4 0-2.473-.42-3.22-1.213-.793-.794-1.167-1.914-1.167-3.314 0-1.446.374-2.566 1.074-3.406.7-.84 1.726-1.26 2.986-1.26 1.167 0 2.1.373 2.754 1.073.7.7 1.026 1.68 1.026 2.94v1.027h-5.926c.046.84.28 1.54.7 1.96.42.466 1.073.7 1.866.7.514 0 1.027-.047 1.447-.14.467-.094.933-.28 1.447-.514v1.54c-.467.234-.934.374-1.4.467-.42.093-.98.14-1.587.14zm-.327-7.747c-.606 0-1.073.187-1.446.56-.374.374-.56.934-.654 1.68h4.014c0-.746-.187-1.306-.514-1.68-.326-.373-.793-.56-1.4-.56zm14.607.14h-2.147V12.6H35V5.133h-1.447v-.886L35 3.687v-.56c0-1.027.233-1.82.747-2.334.513-.513 1.26-.746 2.24-.746.653 0 1.306.093 1.96.326l-.514 1.447c-.466-.14-.886-.233-1.353-.233-.42 0-.747.14-.933.373-.187.28-.28.653-.28 1.167v.56h2.146v1.446h.047zm7.793 7.467l-.28-1.167h-.093c-.28.42-.653.747-1.12.98-.467.234-1.027.374-1.633.374-1.074 0-1.867-.28-2.427-.794-.56-.513-.793-1.353-.793-2.426V3.733h1.913v5.46c0 .7.14 1.167.42 1.54.28.327.7.514 1.307.514.793 0 1.353-.234 1.726-.7.374-.467.56-1.26.56-2.38V3.733h1.914V12.6h-1.494zm7.467-1.4c.467 0 .933-.093 1.4-.233v1.4c-.187.093-.467.186-.793.233-.327.047-.654.093-1.027.093-1.773 0-2.66-.933-2.66-2.8v-4.76h-1.213v-.84l1.306-.7.654-1.866h1.166v1.96h2.52v1.446h-2.52v4.76c0 .467.094.794.327 1.027.14.187.467.28.84.28zm9.38 1.4l-.28-1.167h-.093c-.28.42-.654.747-1.12.98-.467.234-1.027.374-1.634.374-1.073 0-1.866-.28-2.426-.794-.514-.513-.794-1.353-.794-2.426V3.733h1.914v5.46c0 .7.14 1.167.42 1.54.28.327.7.514 1.306.514.794 0 1.354-.234 1.727-.7.373-.467.56-1.26.56-2.38V3.733h1.913V12.6H63.7zm8.68-9.053c.373 0 .7.046.933.093l-.186 1.773c-.28-.046-.56-.093-.84-.093-.747 0-1.354.233-1.82.747-.467.513-.7 1.12-.7 1.913v4.62H67.9V3.733h1.493l.234 1.54h.093c.28-.513.7-.933 1.167-1.26.42-.28.933-.466 1.493-.466zm6.113 9.193c-1.4 0-2.473-.42-3.22-1.213-.793-.794-1.166-1.914-1.166-3.314 0-1.446.373-2.566 1.073-3.406.7-.84 1.727-1.26 2.987-1.26 1.166 0 2.1.373 2.753 1.073.7.7 1.027 1.68 1.027 2.94v1.027H76.02c.047.84.28 1.54.7 1.96.42.466 1.073.7 1.867.7.513 0 1.026-.047 1.446-.14.467-.094.934-.28 1.447-.514v1.54c-.467.234-.933.374-1.4.467-.467.093-.98.14-1.587.14zm-.326-7.747c-.607 0-1.074.187-1.447.56-.373.374-.56.934-.653 1.68h4.013c0-.746-.187-1.306-.513-1.68-.374-.373-.84-.56-1.4-.56zM96.18 8.12c0 1.447-.373 2.567-1.12 3.407-.747.793-1.773 1.213-3.08 1.213-.84 0-1.54-.187-2.193-.56-.654-.373-1.12-.933-1.447-1.633-.327-.7-.513-1.494-.513-2.427 0-1.447.373-2.567 1.12-3.36.746-.793 1.773-1.213 3.126-1.213 1.26 0 2.287.42 3.034 1.26.746.84 1.073 1.913 1.073 3.313zm-6.44 0c0 2.053.747 3.08 2.287 3.08 1.493 0 2.24-1.027 2.24-3.08 0-2.007-.747-3.033-2.24-3.033-.794 0-1.354.28-1.727.793s-.56 1.26-.56 2.24zm13.067-2.987h-2.147V12.6h-1.913V5.133H97.3v-.886l1.447-.56v-.56c0-1.027.233-1.82.746-2.334.514-.513 1.26-.746 2.24-.746.654 0 1.307.093 1.96.326l-.513 1.447c-.467-.14-.887-.233-1.353-.233-.42 0-.747.14-.934.373-.186.233-.28.653-.28 1.167v.56h2.147v1.446h.047zM116.06 12.6h-1.913V7.14c0-.7-.14-1.167-.374-1.54-.233-.327-.653-.513-1.213-.513-.747 0-1.26.233-1.587.7-.326.466-.513 1.26-.513 2.38V12.6h-1.867V3.733h1.494l.28 1.167h.093c.233-.42.607-.747 1.073-.98.467-.233.98-.327 1.54-.327 1.354 0 2.287.467 2.707 1.4h.14c.28-.42.653-.793 1.12-1.026.467-.234 1.027-.374 1.633-.374 1.074 0 1.82.28 2.334.794.466.513.746 1.353.746 2.426V12.6h-1.866V7.14c0-.7-.14-1.167-.374-1.54-.28-.327-.653-.513-1.213-.513-.747 0-1.26.233-1.587.7-.326.466-.513 1.166-.513 2.1V12.6h-.14zm16.053-4.48c0 1.447-.373 2.567-1.12 3.407-.746.793-1.773 1.213-3.08 1.213-.84 0-1.54-.187-2.193-.56-.653-.373-1.12-.933-1.447-1.633-.326-.7-.513-1.494-.513-2.427 0-1.447.373-2.567 1.12-3.36.747-.793 1.773-1.213 3.127-1.213 1.26 0 2.286.42 3.033 1.26.7.84 1.073 1.913 1.073 3.313zm-6.44 0c0 2.053.747 3.08 2.287 3.08 1.493 0 2.24-1.027 2.24-3.08 0-2.007-.747-3.033-2.24-3.033-.793 0-1.353.28-1.727.793-.373.513-.56 1.26-.56 2.24zM142.1 12.6h-1.913V7.14c0-.7-.14-1.213-.42-1.54-.28-.327-.7-.513-1.307-.513-.793 0-1.4.233-1.727.7-.326.466-.56 1.26-.56 2.38V12.6h-1.866V3.733h1.493l.28 1.167h.093c.28-.42.654-.747 1.12-.98.467-.233 1.027-.327 1.634-.327 2.146 0 3.173 1.074 3.173 3.267v5.74zm6.487.14c-1.4 0-2.474-.42-3.22-1.213-.794-.794-1.167-1.914-1.167-3.314 0-1.446.373-2.566 1.073-3.406.7-.84 1.727-1.26 2.987-1.26 1.167 0 2.1.373 2.753 1.073.7.7 1.027 1.68 1.027 2.94v1.027h-5.927c.047.84.28 1.54.7 1.96.42.466 1.074.7 1.867.7.513 0 1.027-.047 1.447-.14.42-.094.933-.28 1.446-.514v1.54c-.466.234-.933.374-1.4.467-.466.093-.98.14-1.586.14zm-.374-7.747c-.606 0-1.073.187-1.446.56-.374.374-.56.934-.654 1.68h4.014c0-.746-.187-1.306-.514-1.68-.326-.373-.793-.56-1.4-.56zm4.294-1.26h2.053l1.82 5.04c.28.7.467 1.4.56 2.007h.047c.046-.28.14-.653.28-1.073.14-.42.793-2.427 2.053-5.974h2.053l-3.78 10.034c-.7 1.82-1.82 2.753-3.453 2.753-.42 0-.84-.047-1.213-.14v-1.493c.28.046.606.093.98.093.886 0 1.54-.513 1.913-1.587l.327-.84-3.64-8.82z" transform="translate(-599 -1240) translate(469 1096) translate(130 144) translate(86.8 35.933)"/>
                    </g>
                </g>
            </g>
        </g>
    </g>
</svg>
