<?xml version="1.0" encoding="UTF-8"?>
<svg width="360px" height="672px" viewBox="0 0 360 672" version="1.1" xmlns="http://www.w3.org/2000/svg" xmlns:xlink="http://www.w3.org/1999/xlink">
    <!-- Generator: Sketch 64 (93537) - https://sketch.com -->
    <title>main_mobile</title>
    <desc>Created with Sketch.</desc>
    <defs>
        <linearGradient x1="64.6544218%" y1="0%" x2="35.6179169%" y2="94.8500838%" id="linearGradient-1">
            <stop stop-color="#5B96FD" offset="0%"></stop>
            <stop stop-color="#9548FE" offset="100%"></stop>
        </linearGradient>
        <path d="M528.71905,0.497156091 C529.146836,0.614425012 529.573924,0.732080729 530.000308,0.850122481 L530.007858,633.363785 C513.722209,634.862598 496.071742,633.978706 477.095725,630.264521 C299.616395,596.005044 291.2951,657.442005 193.119653,658.401578 C185.612447,658.470856 177.866694,657.943789 170.001614,656.827001 L170,0.5 Z" id="path-2"></path>
    </defs>
    <g id="main_mobile" stroke="none" stroke-width="1" fill="none" fill-rule="evenodd">
        <g id="Block-1" transform="translate(-170.000000, -1.000000)">
            <g id="header_2020_mobile_bg">
                <g id="bg">
                    <g id="Group-2" transform="translate(0.000000, 0.164440)">
                        <path d="M55.1932998,428.620877 C6.56662522,631.904869 156.504255,705.300461 249.036248,685.565573 C341.289675,665.835249 337.88077,603.764295 511.241442,603.529013 C684.245041,603.764295 703.565783,383.602397 605.689282,306.855921 C508.255571,229.833595 103.891137,225.387074 55.1932998,428.620877 Z" id="Bg-Copy" fill="#648EFC" opacity="0.3" transform="translate(355.146951, 473.264957) rotate(15.000000) translate(-355.146951, -473.264957) "></path>
                        <path d="M36.6932998,424.370877 C-11.9333748,627.654869 138.004255,701.050461 230.536248,681.315573 C322.789675,661.585249 319.38077,599.514295 492.741442,599.279013 C665.745041,599.514295 685.065783,379.352397 587.189282,302.605921 C489.755571,225.583595 85.3911374,221.137074 36.6932998,424.370877 Z" id="Bg-Copy-3" fill="#A75CE7" opacity="0.3" transform="translate(336.646951, 469.014957) rotate(7.000000) translate(-336.646951, -469.014957) "></path>
                        <mask id="mask-3" fill="white">
                            <use xlink:href="#path-2"></use>
                        </mask>
                        <use id="Combined-Shape" fill="url(#linearGradient-1)" xlink:href="#path-2"></use>
                        <g id="background" mask="url(#mask-3)">
                            <g transform="translate(-35.000000, -65.000000)">
                                <g id="Group-22" transform="translate(0.000000, 148.000000)" opacity="0.2">
                                    <path d="M63.5567741,63.3434731 C97.7036602,22.5505106 139.339079,21.6499786 188.463031,60.6418769 C330.078724,173.048647 111.600453,397.907431 322.104351,456.704508 C383.563141,473.870922 421.783559,548.111482 436.765605,679.426186 L94.6068822,679.426186 L63.5567741,63.3434731 Z" id="Rectangle-2" fill="#A96AFF" fill-rule="nonzero" transform="translate(250.161190, 355.742146) rotate(12.000000) translate(-250.161190, -355.742146) "></path>
                                </g>
                                <g id="Group-20" opacity="0.8" transform="translate(374.000000, 0.250000)">
                                    <g id="Group" transform="translate(0.000000, 0.585560)" fill="#4FC9F5" fill-rule="nonzero">
                                        <path d="M22.3936813,64 L461,64 L461,797 L161.098813,797 C128.911434,762.432562 133.905463,671.145653 176.080901,523.139273 C214.744352,387.457515 165.448452,392.799353 47.5249248,287.084118 C-5.90700354,239.183847 -14.2840847,164.822475 22.3936813,64 Z" id="Rectangle-2-Copy" opacity="0.14"></path>
                                        <path d="M117.71036,22 L425.42011,22 L425.42011,631.901707 L215.021469,631.901707 C192.440048,607.167464 195.943535,541.849146 225.53193,435.946753 C252.656473,338.862945 218.072292,257.264781 135.341734,181.622584 C97.8559715,147.348605 91.9788469,94.141077 117.71036,22 Z" id="Rectangle-2-Copy-4" opacity="0.2" transform="translate(263.710055, 326.950854) rotate(-9.000000) translate(-263.710055, -326.950854) "></path>
                                    </g>
                                </g>
                            </g>
                        </g>
                    </g>
                </g>
            </g>
        </g>
    </g>
</svg>