<?xml version="1.0" encoding="utf-8"?>
<!-- Generator: Adobe Illustrator 22.1.0, SVG Export Plug-In . SVG Version: 6.00 Build 0)  -->
<svg version="1.1" id="Слой_1" xmlns="http://www.w3.org/2000/svg" x="0px"
     y="0px"
     viewBox="0 0 12 12" style="enable-background:new 0 0 12 12;" xml:space="preserve">
<style type="text/css">
	.st0{fill:#7F8FA4;}
</style>
  <g>
	<path class="st0" d="M11.9,5.7L6.3,0.1C6.2,0.1,6.1,0,6,0C5.9,0,5.8,0.1,5.7,0.1L0.1,5.7C0,5.9,0,6.1,0.1,6.3
		c0.1,0.1,0.2,0.1,0.3,0.1s0.2,0,0.3-0.1l4.9-4.9v10.1C5.6,11.8,5.8,12,6,12c0.2,0,0.4-0.2,0.4-0.4V1.4l4.9,4.9
		c0.2,0.2,0.4,0.2,0.6,0S12,5.9,11.9,5.7z"/>
</g>
</svg>
