<?xml version="1.0" encoding="UTF-8"?>
<svg width="335px" height="84px" viewBox="0 0 335 84" version="1.1" xmlns="http://www.w3.org/2000/svg" xmlns:xlink="http://www.w3.org/1999/xlink">
    <title>btc 2</title>
    <g id="Newsroom" stroke="none" stroke-width="1" fill="none" fill-rule="evenodd">
        <g id="Newsroom-Copy-3" transform="translate(-269.000000, -4967.000000)" fill="#000000" fill-rule="nonzero">
            <g id="btc" transform="translate(269.000000, 4967.000000)">
                <g id="Frame-47383">
                    <path d="M39.8728505,0.0749042819 C39.2470938,0.138262417 38.6200406,0.188210159 37.9921261,0.224712846 L36.7884625,0.374521409 C36.305258,0.397790311 35.8260095,0.473134525 35.3591119,0.599234255 L35.133425,0.599234255 L34.5315932,0.749042819 L33.9297614,0.823947101 L33.7793034,0.823947101 C33.7040745,0.749042819 33.6288455,0.823947101 33.5536165,0.898851383 L32.8013267,1.04865995 L32.1994949,1.19846851 L32.049037,1.19846851 L31.898579,1.27337279 L31.3719762,1.42318136 L30.6196864,1.6478942 L30.2435415,1.72279848 L29.9426256,1.87260705 L29.6417097,1.94751133 L29.5664808,1.94751133 L29.0398779,2.09731989 L28.5885041,2.24712846 L28.4380461,2.32203274 L28.2875882,2.32203274 L28.0619012,2.4718413 L27.6857563,2.54674558 L27.3096115,2.69655415 L26.8582376,2.84636271 L26.6325507,2.99617128 L25.9554899,3.22088412 L25.4288871,3.44559697 L25.1279711,3.59540553 L25.0527422,3.67030981 L24.8270552,3.74521409 L24.5261393,3.82011838 L24.3756814,3.96992694 L24.2252234,4.04483122 L23.8490785,4.19463979 L23.5481626,4.26954407 L22.8711019,4.71896976 L22.6454149,4.79387404 L22.1188121,5.09349117 L21.7426672,5.24329973 L21.6674382,5.31820401 L21.5922093,5.3931083 L21.3665223,5.46801258 L21.1408354,5.61782114 L20.9151485,5.69272542 L20.0876297,6.14215112 L19.8619428,6.36686396 L19.7867138,6.44176824 L19.4105689,6.66648109 L19.0344241,6.89119393 L18.7335082,7.0410025 L18.3573633,7.26571534 L18.2821343,7.34061963 L18.1316763,7.56533247 L17.5298445,7.8649496 L17.0032417,8.23947101 L16.8527837,8.46418385 L16.7775548,8.6888967 L16.7023258,8.61399242 C16.8527837,8.38927957 16.5518678,8.53908814 16.2509519,8.83870526 L15.7995781,9.21322667 L15.4986622,9.43793952 L15.1977463,9.66265236 C12.6560063,11.956868 10.3154252,14.4627594 8.20145146,17.1530806 L7.7500776,17.6025062 L7.4491617,18.1268362 L7.29870375,18.2766448 L7.22347477,18.4264533 L7.14824579,18.5762619 L6.62164296,19.2504004 L6.54641398,19.4751133 L6.39595603,19.7747304 L6.24549808,19.8496347 L6.1702691,19.9994433 L5.94458217,20.448869 L5.71889524,20.8233904 L5.64366626,20.8982946 L5.34275036,21.4975289 L5.26752138,21.6473375 L5.19229241,21.7222418 L5.04183445,21.9469546 L4.44000264,23.1454231 L4.21431571,23.5199445 L4.06385776,23.9693702 L4.06385776,24.1191788 C3.98862878,24.1191788 3.91339981,24.1940831 3.53725493,24.8682216 L3.38679697,25.3925516 L3.23633902,25.6921687 L3.16111004,25.767073 L3.16111004,25.8419773 L3.08588107,26.0666901 L2.86019414,26.5910201 C2.59134898,27.0868837 2.38901139,27.6157275 2.25836233,28.16401 L2.18313335,28.4636271 L2.0326754,28.8381485 L1.88221745,29.2875742 L1.88221745,29.5122871 L1.80698847,29.5871913 L1.65653052,30.1115213 L1.50607256,30.560947 C1.43084359,30.560947 1.28038563,31.2350856 1.35561461,31.4597984 L1.20515666,31.609607 L1.20515666,31.8343198 L1.12992768,31.9841284 L0.979469729,32.6582669 L0.829011776,33.2575012 L0.829011776,33.7069269 C0.7537828,33.7069269 0.678553824,33.8567354 0.603324847,34.2312568 L0.528095871,34.8304911 L0.528095871,34.9802996 C0.603324847,35.0552039 0.528095871,35.2050125 0.452866894,35.2050125 L0.302408942,36.3285767 L0.151950989,37.3772367 L0.0767220125,37.8266624 L0.0767220125,38.3509923 C-0.076268599,41.5731542 -0.000155841506,44.8020475 0.302408942,48.0136447 C0.377637918,48.5379747 0.452866894,48.7626875 0.528095871,48.7626875 L0.603324847,48.9874004 C0.528095871,49.2121132 0.7537828,50.7101988 0.829011776,50.7851031 L1.05469871,51.8337631 L1.12992768,52.1333802 L1.28038563,52.6577102 C1.35561461,53.1071359 1.43084359,53.2569444 1.58130154,53.3318487 L1.88221745,53.4816573 L2.0326754,53.5565616 L2.18313335,53.6314658 L2.3335913,53.7063701 C2.3335913,53.7812744 2.18313335,53.7812744 1.73175949,53.5565616 L1.43084359,53.5565616 L1.50607256,53.5565616 L1.65653052,54.0808915 L1.80698847,54.5303172 L1.88221745,54.6052215 L1.88221745,54.8299343 L2.0326754,55.27936 L2.18313335,55.7287857 L2.3335913,56.1782114 L2.55927823,56.6276371 L2.70973619,57.0021585 C2.70973619,57.1519671 2.78496516,57.2268714 2.86019414,57.2268714 L2.93542311,57.5264885 L3.08588107,58.0508185 L3.23633902,58.3504356 L3.311568,58.6500527 L3.46202595,59.0245741 C3.46202595,59.1743827 3.53725493,59.0994784 3.76294186,58.8747656 L3.98862878,58.724957 L3.83817083,58.9496699 C3.53725493,59.1743827 3.53725493,59.249287 3.76294186,59.4739998 L3.83817083,59.6987127 L3.91339981,59.9234255 L4.06385776,60.0732341 L4.06385776,59.9234255 L4.13908674,59.773617 L4.13908674,60.0732341 C4.06385776,60.2979469 4.06385776,60.2979469 4.21431571,60.5975641 L4.44000264,60.9720855 L4.66568957,61.4964154 L5.04183445,62.0956497 L5.34275036,62.6948839 L5.56843729,63.0694054 L5.79412422,63.3690225 L5.86935319,63.6686396 L5.94458217,63.7435439 C6.01981115,63.7435439 6.09504012,63.8184482 6.09504012,63.9682567 L6.32072705,64.1929696 L6.39595603,64.2678739 L6.69687193,64.8671081 L6.84732989,65.0169167 L7.07301682,65.4663424 L7.22347477,65.6910552 L7.67484863,66.3651938 L8.20145146,67.1142366 L8.50236737,67.488758 L8.87851225,67.9381837 L9.10419918,68.1628965 L9.32988611,68.5374179 L10.1574048,69.5111736 C10.4853317,69.8367464 10.7871689,70.1873699 11.0601526,70.5598335 L12.1133582,71.5335892 L13.1665639,72.6571534 L13.6179378,73.0316748 C14.4265213,73.7592264 15.2808476,74.4347337 16.175723,75.0540905 C16.3261809,74.9042819 16.2509519,74.7544733 16.025265,74.6795691 C15.7995781,74.6795691 15.6491201,74.5297605 15.6491201,74.4548562 L15.950036,74.4548562 C16.175723,74.4548562 16.3261809,74.5297605 16.4014099,74.6795691 L16.4014099,75.0540905 L16.2509519,75.2788033 L16.6270968,75.5784204 L17.0784707,75.9529418 L17.2289286,76.0278461 L17.7555315,76.4023675 L18.3573633,76.7768889 L18.6582792,77.0016018 L18.9591951,77.1514104 L19.109653,77.3012189 L19.5610269,77.5259318 L19.8619428,77.7506446 L20.0124008,77.9004532 L20.3133167,78.0502617 L20.3885456,78.0502617 L20.5390036,77.9004532 C20.6894615,77.9004532 20.7646905,78.0502617 20.6142326,78.0502617 C20.4637746,78.125166 20.6894615,78.2749746 21.0656064,78.4996874 C21.6104096,78.738257 22.1382371,79.0135448 22.6454149,79.3236345 L22.7206439,79.3985388 L23.0215598,79.5483474 L23.3224757,79.6981559 L23.6986206,79.9228688 L24.0747655,80.0726773 L24.3004524,80.2224859 C24.5261393,80.2224859 24.9775132,80.4471988 25.504116,80.7468159 C25.9554899,80.8966244 26.0307189,80.9715287 26.0307189,80.8217202 L26.1059478,80.6719116 L26.1811768,80.8217202 C26.1059478,80.9715287 26.2564058,81.046433 26.4820927,81.046433 L26.7077797,81.1962416 L26.9334666,81.2711459 L27.3096115,81.4209544 L27.8362143,81.6456673 L28.2123592,81.7205715 L28.2875882,81.7954758 L28.3628171,81.7954758 L28.814191,81.9452844 L29.3407938,82.1699972 L29.8673967,82.3198058 L30.1683126,82.3947101 L30.3939995,82.3947101 L30.6196864,82.4696144 L30.9206023,82.5445187 L31.2215182,82.6194229 L31.3719762,82.6943272 L31.5976631,82.7692315 L32.3499529,82.9190401 L33.2527006,83.1437529 L33.6288455,83.1437529 C33.6288455,83.2186572 33.7793034,83.2935615 34.1554483,83.3684658 L34.6820511,83.44337 L34.9077381,83.5182743 L35.208654,83.5182743 L36.2618597,83.6680829 L37.3150653,83.8178914 C41.2264545,84.1369744 45.1609596,84.036525 49.0507856,83.5182743 L49.3517015,83.5182743 L49.5773885,83.44337 L50.2544493,83.2935615 L51.081968,83.1437529 L51.9094867,82.9939443 L52.8122345,82.7692315 L53.3388373,82.6194229 L53.7149822,82.4696144 L54.392043,82.3198058 C54.7580266,82.2412793 55.1121058,82.1153682 55.4452486,81.9452844 L55.7461645,81.8703801 L56.0470804,81.7954758 L56.1223094,81.7205715 L56.4232253,81.6456673 L56.8745992,81.4958587 L57.325973,81.2711459 C57.6268889,81.1962416 57.8525759,81.1213373 58.6800946,80.6719116 L59.1314685,80.522103 L59.3571554,80.4471988 L59.8085293,80.2224859 L60.1094452,80.0726773 L60.1846741,79.9977731 L60.9369639,79.6981559 L61.1626508,79.5483474 L62.2158565,79.0240174 L62.5167724,78.8742088 C63.1686039,78.5426921 63.7969699,78.1672998 64.3974968,77.7506446 L64.9240997,77.4510275 L64.9993286,77.3012189 L65.0745576,77.3012189 L65.3754735,77.1514104 L65.6763894,77.0016018 L66.4286792,76.3274633 L66.5791371,76.3274633 L66.7295951,76.252559 C66.7295951,76.1776547 66.8048241,76.1027504 66.955282,76.1027504 L67.1809689,75.8031333 L67.2561979,75.728229 C67.4066559,75.728229 68.0084877,75.3537076 68.0084877,75.203899 L68.1589456,75.1289947 L68.4598615,74.9791862 L68.6855485,74.7544733 L69.3626093,74.2301434 L69.9644411,73.6309091 L70.340586,73.331292 L70.7919598,72.9567706 L70.9424178,72.806962 L71.0928757,72.5822492 C71.8117361,72.0032682 72.4673384,71.3504955 73.0488291,70.6347378 L73.1992871,70.4849293 L73.424974,70.1853121 L73.8011189,69.8107907 L73.8763478,69.8107907 L73.9515768,69.7358864 L74.2524927,69.2864608 C74.4781797,69.1366522 74.5534086,68.9868436 74.4781797,68.9119393 L74.4029507,68.5374179 L74.5534086,68.6872265 L74.6286376,68.8370351 L75.0047825,68.4625137 L75.2304694,68.2378008 L75.3809274,68.013088 C75.3809274,67.9381837 75.6066143,67.5636623 75.9827592,67.1891409 L76.2836751,66.7397152 L76.65982,66.2153852 L77.1111938,65.6161509 L77.4873387,65.091821 L77.7130256,64.6423953 L77.8634836,64.4925867 L77.9387126,64.4176824 C77.8634836,64.3427781 77.9387126,64.1929696 78.0139415,64.1180653 L78.1643995,63.8933525 L78.3148574,63.6686396 L78.3148574,63.4439268 L78.3900864,63.2192139 L78.4653154,63.3690225 L78.5405444,63.2941182 L78.7662313,62.9195968 L78.9166893,62.6199797 L79.3680631,61.9458411 C79.4432921,61.646224 79.59375,61.4215112 79.668979,61.4215112 L79.819437,61.0469897 L80.0451239,60.6724683 L80.1955819,60.3728512 L80.2708108,60.0732341 L80.3460398,59.9983298 L80.3460398,59.6987127 L80.5717267,59.5489041 L80.6469557,59.3241913 L80.7974137,58.9496699 L81.0231006,58.5002442 L81.0983296,58.2755313 L81.1735586,58.0508185 L81.2487875,57.8261056 L81.3240165,57.6762971 L81.4744745,57.3766799 L81.7001614,56.7025414 L81.9258483,56.1782114 L82.0010773,55.9534986 L82.0763063,55.8785943 L82.0763063,55.7287857 L82.2267642,55.27936 L82.3772222,54.8299343 L82.5276801,54.3805087 L82.6781381,53.7812744 C82.828596,53.7812744 82.6781381,53.6314658 82.5276801,53.7063701 L82.4524511,53.6314658 L82.5276801,53.3318487 L82.6029091,53.2569444 L82.6781381,53.406753 L82.7533671,53.5565616 L82.903825,53.0322316 L83.054283,52.4329973 L83.2047409,51.9086674 L83.3551989,51.3094331 L83.3551989,51.0847203 C83.2799699,51.009816 83.3551989,50.8600074 83.4304278,50.8600074 L83.4304278,50.4105817 L83.5808858,49.8862517 L83.7313437,49.3619218 L83.8818017,48.088549 L84.1074886,46.7402719 L84.1827176,45.3919948 L84.2579466,44.2684306 C84.4441538,38.8108637 83.6806027,33.3623657 82.0010773,28.16401 L81.8506193,27.8643929 L81.7001614,27.3400629 L81.5497034,26.9655415 L81.4744745,26.7408286 L81.3240165,26.5161158 C81.3240165,26.3663072 81.0983296,25.6921687 80.6469557,24.9431259 L80.4212688,24.3438916 L80.3460398,24.1191788 L80.2708108,24.0442745 L80.2708108,23.9693702 L80.1203529,23.6697531 L79.9698949,23.370136 L79.744208,22.9956145 L79.59375,22.6210931 L79.1423762,21.8720503 L78.9919182,21.6473375 L78.9166893,21.4975289 L78.8414603,21.3477203 L78.7662313,21.1979118 L78.5405444,20.7484861 L78.3148574,20.3739647 L78.0891705,19.9994433 L77.7130256,19.4751133 L77.4121097,18.9507833 L77.2616518,18.6511662 L77.1864228,18.5762619 L77.0359648,18.4264533 L76.8855069,18.2017405 L76.8102779,18.1268362 L76.584591,17.7523148 L76.3589041,17.4526977 L76.2084461,17.2279848 L76.0579882,17.003272 L75.9075302,16.8534634 L75.7570723,16.7036549 L75.3809274,16.1793249 L75.0800115,15.7298992 L74.8543245,15.5051864 C74.7038666,15.4302821 74.7038666,15.3553778 74.7038666,15.2804735 L74.4029507,14.9808564 L74.1020348,14.606335 C74.1020348,14.4565264 73.5754319,14.082005 73.424974,14.082005 L73.274516,14.0071007 L73.349745,13.9321964 L73.500203,13.9321964 L72.8231422,13.3329622 C72.7479132,13.3329622 72.5222263,13.1082493 72.5974552,13.0333451 C72.5974552,12.9584408 72.0708524,12.4341108 71.9956234,12.5090151 L71.8451655,12.4341108 L71.7699365,12.2843022 C71.8451655,12.2093979 71.3185626,11.685068 71.1681047,11.685068 L71.0928757,11.6101637 C71.1681047,11.4603551 70.4158149,10.7862166 70.340586,10.8611209 C70.265357,11.0109294 70.190128,10.9360252 70.190128,10.7862166 L69.8892121,10.4116952 C69.5882962,10.1120781 69.5882962,10.1120781 69.5130672,10.2618866 C69.4378382,10.3367909 69.4378382,10.3367909 69.4378382,10.1869823 C69.4378382,10.0371738 69.1369223,9.58774808 68.9864644,9.58774808 L68.7607774,9.43793952 C68.3649825,9.07545425 67.936925,8.74952895 67.4818848,8.46418385 L67.1809689,8.23947101 L67.030511,8.08966244 L66.955282,8.01475816 L66.5791371,7.79004532 L66.2029923,7.56533247 L66.0525343,7.41552391 L65.8268474,7.26571534 L65.6763894,7.19081106 C65.3511338,6.87240877 64.968237,6.61824598 64.5479548,6.44176824 L64.0965809,6.29195968 L64.0213519,6.29195968 C64.0965809,6.2170554 63.2690622,5.61782114 62.8929173,5.46801258 L62.5920014,5.31820401 L62.5167724,5.24329973 L62.2158565,5.09349117 L61.9149406,4.94368261 L61.8397116,4.94368261 L61.7644826,4.86877832 L61.3883378,4.64406548 L61.0874219,4.49425691 L60.711277,4.34444835 L60.4103611,4.19463979 L60.0342162,3.96992694 C59.8837582,3.82011838 59.7333003,3.82011838 59.6580713,3.82011838 L59.4323844,3.67030981 L59.2819264,3.59540553 L58.9810105,3.52050125 L58.5296367,3.37069269 L58.4544077,3.2957884 L58.1534918,3.22088412 L57.9278048,3.14597984 L57.9278048,3.07107556 L57.55166,2.92126699 L57.0250571,2.69655415 L56.7993702,2.62164987 L56.7241412,2.54674558 C56.6489123,2.62164987 56.4984543,2.54674558 56.3479963,2.4718413 L56.0470804,2.39693702 L55.9718515,2.39693702 L55.8213935,2.32203274 L55.6709356,2.24712846 L55.2195617,2.09731989 L54.5425009,1.87260705 L53.9406691,1.72279848 L53.4892952,1.57298992 L52.8874634,1.42318136 L52.3608606,1.27337279 L52.2104026,1.19846851 L52.1351737,1.27337279 L52.0599447,1.34827707 L51.9847157,1.27337279 L51.3828839,1.04865995 L50.7058231,0.898851383 C50.6305941,0.749042819 50.4801362,0.823947101 50.5553652,0.898851383 L50.4801362,1.04865995 L50.3296782,0.898851383 C50.2544493,0.749042819 50.2544493,0.749042819 49.9535334,0.749042819 L49.6526174,0.749042819 L49.4269305,0.674138537 L49.2012436,0.599234255 L48.9003277,0.599234255 L48.6746408,0.524329973 L47.4709771,0.374521409 L46.2673135,0.224712846 C45.2724202,0.0688018654 44.2637053,0.018583804 43.2581545,0.0749042819 C43.3333834,0 43.1829255,0 42.1297198,0 L39.8728505,0.0749042819 L39.8728505,0.0749042819 Z M53.9406691,2.77145843 C53.8654401,2.92126699 53.4892952,3.14597984 53.5645242,2.99617128 L54.0158981,2.54674558 L53.9406691,2.69655415 L53.9406691,2.77145843 Z M50.1039913,2.84636271 L49.5773885,3.07107556 C49.5021595,3.07107556 49.8783044,2.77145843 50.0287623,2.77145843 L50.1039913,2.84636271 Z M55.6709356,2.92126699 L55.5204776,2.99617128 L55.5204776,2.92126699 C55.5957066,2.77145843 55.7461645,2.77145843 55.6709356,2.92126699 Z M46.2673135,3.2957884 L45.8911686,3.67030981 C45.7407107,3.74521409 45.8159397,3.82011838 46.0416266,3.82011838 L46.6434584,3.89502266 C47.0196033,3.89502266 47.0196033,3.89502266 47.0196033,3.74521409 L47.0948323,3.52050125 L47.1700612,3.67030981 C47.0948323,3.89502266 47.2452902,3.96992694 47.6966641,3.96992694 L47.99758,4.04483122 L48.2232669,4.04483122 L48.5241828,4.1197355 L49.3517015,4.26954407 L50.1039913,4.41935263 L50.3296782,4.34444835 L50.4801362,4.19463979 L50.4801362,4.34444835 C50.4801362,4.49425691 50.4801362,4.49425691 51.006739,4.64406548 L51.6837998,4.79387404 L51.9847157,4.79387404 L52.1351737,4.86877832 L52.5113185,4.94368261 L52.8122345,5.09349117 L52.9626924,5.16839545 L53.1883793,5.16839545 L53.3388373,5.24329973 L53.6397532,5.31820401 L53.9406691,5.3931083 L54.0158981,5.46801258 L54.316814,5.61782114 L54.8434168,5.76762971 L55.3700197,5.91743827 L55.8966225,6.14215112 L56.3479963,6.29195968 L56.7241412,6.44176824 L56.9498282,6.51667253 L57.55166,6.81628965 L58.1534918,7.0410025 L58.3791787,7.11590678 L58.4544077,7.19081106 L58.6800946,7.26571534 L58.9810105,7.41552391 L59.2066974,7.49042819 L59.5076134,7.64023675 L59.8837582,7.8649496 L60.2599031,8.08966244 L60.4103611,8.16456673 L60.560819,8.23947101 L60.9369639,8.46418385 L61.3883378,8.6888967 L61.5387957,8.83870526 L61.6140247,8.91360955 L61.9149406,9.06341811 L62.1406275,9.13832239 L62.2158565,9.13832239 L62.8176883,9.58774808 L62.9681463,9.66265236 L63.0433752,9.73755665 L63.3442911,9.88736521 C63.4947491,10.0371738 63.6452071,10.0371738 63.720436,10.0371738 C63.795665,10.0371738 63.870894,10.0371738 63.795665,10.1120781 C63.795665,10.2618866 64.0965809,10.4865995 64.2470389,10.4865995 L64.6231837,10.7862166 L65.0745576,11.160738 L65.3754735,11.3105466 C66.1555697,12.0634703 66.9849043,12.764111 67.8580297,13.4078665 L68.1589456,13.6325793 L68.2341746,13.4827707 L68.3846326,13.7823879 C69.0930552,14.6221286 69.87335,15.3990556 70.7167308,16.1044206 C70.6415019,16.1044206 70.7167308,16.2542292 70.9424178,16.4040377 L71.2433337,16.7785591 L71.3185626,16.8534634 L71.3937916,16.9283677 C71.7869754,17.3633799 72.1633926,17.813131 72.5222263,18.2766448 C72.8231422,18.6511662 72.8983711,18.6511662 72.9736001,18.5762619 C73.0488291,18.4264533 73.1240581,18.5013576 73.0488291,18.7260705 L73.0488291,18.9507833 L73.1240581,19.0256876 L73.7258899,19.8496347 L73.8011189,19.924539 C73.8011189,20.1492518 74.1020348,20.5237732 74.1772637,20.448869 L74.2524927,20.5237732 L74.4781797,21.0481032 L74.5534086,21.1230075 L74.7038666,21.4975289 L75.0047825,21.8720503 C75.0800115,22.0967632 75.3056984,22.1716674 75.3056984,22.0218589 L75.3809274,21.9469546 L75.4561563,22.0967632 L75.3056984,22.2465717 L75.3056984,22.3963803 L75.5313853,22.845806 L75.7570723,23.0705188 L75.9827592,23.4450402 L76.434133,24.3438916 L76.509362,24.4937002 L76.65982,24.7933173 L76.9607359,25.3925516 L77.1864228,25.8419773 L77.3368808,26.1415944 L77.7130256,27.11535 L78.0139415,27.8643929 L78.1643995,28.16401 L78.2396285,28.2389143 L78.3148574,28.4636271 L78.3900864,28.9130528 L78.5405444,29.2126699 L78.6910023,29.5871913 C78.7719616,29.892889 78.872472,30.1931187 78.9919182,30.4860427 L79.0671472,30.9354684 L79.2176052,31.3848941 L79.4432921,32.1339369 L79.59375,32.6582669 L79.744208,33.2575012 L79.894666,33.9316397 L79.9698949,34.3061611 L80.2708108,36.0289596 L80.4212688,37.0776195 C80.4356462,37.6792905 80.4858872,38.2795808 80.5717267,38.8753223 L80.6469557,39.4745566 C80.7073429,41.9735911 80.632004,44.4740488 80.4212688,46.9649847 L80.2708108,48.1634533 L79.9698949,49.7364432 L79.894666,50.1109646 L79.744208,50.7101988 L79.59375,51.3843374 L79.59375,51.6090502 L79.668979,51.9086674 L79.59375,51.9086674 C79.4432921,51.7588588 79.4432921,51.7588588 79.4432921,52.0584759 L79.4432921,52.4329973 C79.5185211,52.5079016 79.5185211,52.5079016 79.5185211,52.358093 L79.59375,52.1333802 C79.744208,52.1333802 79.668979,52.5079016 79.59375,52.6577102 C79.4432921,52.7326145 79.3680631,52.7326145 79.3680631,52.5828059 L79.2928341,52.5079016 L79.2928341,52.6577102 L79.2176052,52.8075187 L79.1423762,53.1071359 L78.9166893,53.6314658 L78.8414603,53.8561787 L78.8414603,54.0059872 L78.6910023,54.4554129 L78.5405444,54.9048386 L78.3900864,55.2044558 L78.3148574,55.5789772 L78.2396285,55.8785943 L78.1643995,55.9534986 L78.0139415,56.1782114 L77.8634836,56.6276371 L77.5625677,57.2268714 L77.2616518,57.9759142 L77.1111938,58.3504356 L76.9607359,58.724957 L76.8102779,59.0245741 L76.7350489,59.1743827 L75.6818433,61.121894 L75.3056984,61.7211283 L75.1552404,62.0207454 L75.0800115,62.0956497 L75.0047825,62.170554 L74.7790956,62.5450754 L74.5534086,62.9945011 L74.4029507,63.1443096 L74.3277217,63.2941182 L74.1020348,63.5937353 L73.9515768,63.8933525 L73.8011189,64.043161 C73.6506609,64.1929696 73.5754319,64.4176824 73.5754319,64.567491 C73.5754319,64.6423953 73.5754319,64.7172996 73.500203,64.6423953 L73.1240581,64.9420124 C72.8983711,65.2416295 72.8983711,65.2416295 72.9736001,65.3914381 C73.1240581,65.4663424 73.1240581,65.4663424 72.9736001,65.4663424 C72.8231422,65.4663424 72.2965393,65.9157681 72.2213104,66.2153852 L72.1460814,66.2902895 L71.9203945,66.440098 L71.5442496,66.964428 L71.2433337,67.3389494 C68.9547201,69.7215343 66.4628212,71.9019333 63.795665,73.855622 L63.4195201,74.0803348 L63.3442911,74.1552391 L63.1938332,74.3050476 L62.8176883,74.4548562 L62.4415434,74.7544733 C62.2910855,74.7544733 62.2158565,74.8293776 62.2158565,74.9042819 L62.1406275,74.9791862 L61.6892537,75.203899 L61.3131088,75.4286119 L61.0874219,75.5035162 L60.711277,75.8031333 L59.8085293,76.252559 L59.4323844,76.4023675 L59.0562395,76.6270804 L58.7553236,76.7768889 L57.0250571,77.600836 L56.7241412,77.600836 L56.6489123,77.6757403 L56.2727674,77.8255489 L55.8213935,78.0502617 L55.5204776,78.125166 L55.2195617,78.2000703 L54.9186458,78.3498789 L54.7681878,78.3498789 L54.4672719,78.4996874 L54.316814,78.5745917 C54.316814,78.7244003 54.316814,78.7244003 54.166356,78.649496 L53.8654401,78.649496 L53.4892952,78.7993046 L53.1883793,78.8742088 L52.8122345,78.9491131 C52.6617765,78.9491131 52.6617765,78.9491131 52.7370055,79.0240174 C52.8122345,79.0989217 52.8122345,79.173826 52.5865475,79.173826 C52.1351737,79.0989217 51.9847157,79.173826 51.9847157,79.3236345 L51.9094867,79.3236345 L51.7590288,79.2487302 C51.6837998,79.2487302 51.6085708,79.3236345 51.6837998,79.3985388 L51.6085708,79.4734431 C51.3828839,79.3985388 50.8562811,79.4734431 50.93151,79.6232517 L50.2544493,79.6232517 L50.0287623,79.6981559 L49.2012436,79.8479645 L48.4489538,79.9977731 C47.3298504,80.1954406 46.1990367,80.3205443 45.0636499,80.3722945 C42.2516571,80.5115477 39.432856,80.4113107 36.6380045,80.0726773 L36.2618597,80.0726773 L35.8857148,79.9977731 L35.4343409,79.9228688 C35.133425,79.8479645 35.058196,79.8479645 35.058196,79.9977731 C35.058196,80.1475816 35.058196,80.0726773 34.9077381,79.9228688 L34.5315932,79.7730602 L34.2306773,79.6981559 L34.0802193,79.6232517 L33.7793034,79.6232517 L33.3279296,79.4734431 L32.8013267,79.3236345 L32.1994949,79.173826 L31.5976631,79.0989217 L31.3719762,79.0240174 L31.2215182,78.9491131 L30.6949154,78.7993046 L30.2435415,78.649496 L29.9426256,78.4996874 L29.4160228,78.3498789 L28.88942,78.125166 L28.4380461,77.9753575 L27.9114433,77.7506446 L27.4600694,77.600836 L27.3848404,77.5259318 L27.1591535,77.5259318 L26.4820927,77.3012189 L26.1059478,77.0765061 L25.504116,76.7768889 L25.2032001,76.6270804 L25.1279711,76.5521761 L25.0527422,76.5521761 L24.7518263,76.4023675 L24.4509104,76.252559 L24.2252234,76.1027504 L23.9995365,76.0278461 L23.8490785,75.9529418 L23.6986206,75.8780376 L22.7958729,75.3537076 L22.419728,75.1289947 L22.26927,75.0540905 L22.0435831,74.9042819 L21.8931252,74.7544733 L21.5169803,74.5297605 L21.0656064,74.3050476 L20.9151485,74.1552391 L20.8399195,74.0803348 L20.5390036,73.9305262 L20.2380877,73.7807177 L20.0876297,73.7807177 L18.7335082,72.6571534 L18.5830502,72.5073449 L18.4325922,72.3575363 L17.9059894,71.9830149 L17.3041576,71.6084935 L17.1536997,71.3837806 L17.0032417,71.2339721 L16.3261809,70.6347378 L15.7243491,70.1853121 L15.5738911,70.1104079 C15.5738911,69.9605993 15.0472883,69.4362693 14.8968304,69.4362693 L14.8216014,69.2864608 L14.6711434,69.2115565 L14.5959145,69.1366522 C14.5959145,68.9868436 14.2197696,68.6123222 14.1445406,68.6872265 L14.0693116,68.6123222 L13.6179378,68.013088 L13.0161059,67.488758 C12.865648,67.5636623 12.790419,67.488758 12.940877,67.3389494 L12.940877,67.2640451 L12.790419,67.0393323 L12.6399611,66.8895237 C12.4895031,66.8895237 12.3390452,66.6648109 12.3390452,66.5899066 L12.0381293,66.1404809 L11.6619844,65.6161509 L11.5115264,65.4663424 L11.3610685,65.3165338 L11.0601526,64.9420124 C10.8344656,64.6423953 10.6840077,64.567491 10.6840077,64.8671081 L10.6087787,65.0169167 C10.4583208,65.1667253 10.4583208,65.0169167 10.6087787,64.7172996 L10.7592367,64.4176824 L10.4583208,64.1180653 L10.2326338,63.8184482 L9.93171792,63.2941182 L9.25465713,62.170554 L9.10419918,62.0207454 L8.95374123,61.7960326 L8.80328327,61.4964154 L8.65282532,61.1967983 L8.42713839,60.8222769 L8.20145146,60.4477555 L8.12622249,60.3728512 L8.05099351,60.2979469 L7.7500776,59.6238084 L7.59961965,59.3241913 L7.4491617,59.0245741 L7.37393272,58.9496699 L7.37393272,58.8747656 L7.22347477,58.5751484 C7.07301682,58.1257228 6.92255886,57.8261056 6.77210091,57.9010099 L6.69687193,57.6762971 L6.69687193,57.4515842 C6.62164296,57.5264885 6.54641398,57.4515842 6.54641398,57.2268714 L6.471185,56.9272542 C6.32072705,56.85235 6.32072705,56.7774457 6.39595603,56.7025414 L6.39595603,56.6276371 L6.24549808,56.32802 L6.09504012,55.9534986 L6.01981115,55.8785943 C6.09504012,55.7287857 5.94458217,55.5040729 5.49320831,55.3542643 L4.8913765,54.9797429 C4.8913765,54.8299343 5.26752138,54.9797429 5.56843729,55.1295515 L5.86935319,55.27936 L5.71889524,54.9797429 L5.49320831,54.3805087 L5.41797934,54.0059872 L5.41797934,53.8561787 L5.34275036,53.7812744 L5.26752138,53.5565616 L5.04183445,53.0322316 L4.96660548,52.6577102 L4.96660548,52.5079016 L4.81614752,51.9835716 L4.5904606,51.2345288 L4.44000264,50.6352946 L4.36477367,50.1858689 L4.28954469,49.961156 L4.28954469,49.7364432 L4.21431571,49.5117303 C4.21431571,49.2870175 4.21431571,49.2870175 4.13908674,49.3619218 L3.98862878,49.4368261 C3.83817083,49.3619218 3.91339981,49.1372089 3.98862878,49.1372089 C4.13908674,49.0623046 4.13908674,48.6877832 4.06385776,48.612879 L4.06385776,48.3881661 L3.98862878,48.1634533 C3.76143434,47.028214 3.63556197,45.8751863 3.6124839,44.7178563 C3.50565136,41.8162064 3.63143182,38.9106945 3.98862878,36.0289596 L4.13908674,35.1301082 L4.28954469,34.2312568 L4.28954469,34.0814483 L4.36477367,33.9316397 L4.51523162,33.2575012 L4.66568957,32.6582669 L4.81614752,32.1339369 L4.96660548,31.609607 L5.04183445,31.4597984 L5.04183445,31.2350856 L5.19229241,30.7107556 L5.34275036,30.2613299 L5.49320831,29.8868085 L5.64366626,29.2875742 L5.86935319,28.7632442 L6.01981115,28.3138186 L6.24549808,27.8643929 L6.39595603,27.4149672 L6.54641398,27.0404458 L6.77210091,26.5161158 L6.92255886,26.2914029 C7.8781537,24.3174194 8.9326869,22.3924528 10.0821759,20.5237732 L10.3830918,20.1492518 L10.9849236,19.3253047 L11.5867554,18.5013576 C11.5115264,18.4264533 11.7372134,18.2017405 11.8876713,18.2017405 L11.9629003,18.1268362 L12.1885872,17.6774105 L12.4895031,17.3028891 L12.5647321,17.2279848 L12.71519,17.1530806 L13.0913349,16.7036549 C14.7969076,14.9535416 16.5790529,13.2790574 18.4325922,11.685068 L18.6582792,11.4603551 L18.8839661,11.2356423 L19.4105689,11.0109294 C19.6893666,10.7359473 19.9913949,10.4853433 20.3133167,10.2618866 L20.7646905,10.0371738 L20.9903774,9.81246093 L21.1408354,9.66265236 C21.2160644,9.73755665 21.5922093,9.5128438 21.8178962,9.28813096 L22.26927,9.06341811 L22.494957,8.91360955 L22.7206439,8.76380098 C23.0215598,8.6888967 23.4729337,8.38927957 23.4729337,8.23947101 L23.5481626,8.23947101 C23.5481626,8.31437529 23.7738496,8.23947101 24.3004524,7.93985388 L25.1279711,7.49042819 L25.3536581,7.34061963 L25.9554899,7.11590678 L27.3096115,6.51667253 L27.5352984,6.44176824 L27.9114433,6.29195968 L28.4380461,6.06724683 L28.9646489,5.84253399 L29.3407938,5.76762971 L29.7169387,5.61782114 L30.1683126,5.46801258 L30.3187705,5.3931083 L30.6196864,5.31820401 L31.1462893,5.16839545 L31.4472052,5.09349117 L32.124266,4.86877832 L32.8013267,4.71896976 L33.4783875,4.5691612 L34.1554483,4.41935263 L35.8104858,4.1197355 L36.2618597,4.04483122 L38.5187289,3.82011838 L38.9701028,3.74521409 C39.1205608,3.59540553 45.2893368,3.59540553 45.4397948,3.74521409 C45.5150237,3.82011838 45.6654817,3.74521409 45.9663976,3.37069269 C46.4930004,2.84636271 46.7186874,2.77145843 46.2673135,3.2957884 L46.2673135,3.2957884 Z M52.7370055,3.14597984 C52.7370055,3.22088412 52.5865475,3.2957884 52.5865475,3.14597984 L52.8122345,2.99617128 L52.7370055,3.07107556 L52.7370055,3.14597984 Z M45.3645658,3.44559697 L45.1388789,3.59540553 L45.5150237,3.22088412 L45.3645658,3.44559697 Z M55.0691037,3.37069269 L54.5425009,3.89502266 L54.8434168,3.59540553 L55.0691037,3.37069269 Z M50.6305941,3.52050125 L50.4801362,3.59540553 C50.4801362,3.52050125 50.6305941,3.2957884 50.7058231,3.37069269 L50.6305941,3.44559697 L50.6305941,3.52050125 Z M53.7149822,4.86877832 L53.4892952,5.01858689 L53.6397532,4.79387404 L53.7902111,4.71896976 L53.6397532,4.86877832 L53.7149822,4.86877832 Z M61.1626508,6.14215112 L61.0121929,6.29195968 C60.786506,6.36686396 60.786506,6.36686396 60.9369639,6.2170554 C61.0874219,6.06724683 61.1626508,5.99234255 61.1626508,6.14215112 Z M60.636048,6.66648109 L60.4103611,6.89119393 L60.1094452,7.0410025 L60.3351321,6.81628965 C60.560819,6.59157681 60.636048,6.59157681 60.636048,6.66648109 Z M20.344778,9.43793952 C20.2380877,9.5128438 20.2380877,9.43793952 20.2380877,9.36303524 L20.344778,9.28813096 L20.344778,9.43793952 Z M16.4017104,11.0858337 C16.4017104,11.4603551 16.3262689,11.4603551 16.3262689,11.0858337 C16.2508275,10.8611209 16.3262689,10.7113123 16.4017104,10.7113123 L16.4017104,11.0858337 Z M16.4328712,11.9846851 C16.3261809,12.0595894 16.3261809,12.0595894 16.3261809,11.8348765 C16.3261809,11.6101637 16.3261809,11.6101637 16.4328712,11.685068 L16.4328712,11.9846851 Z M16.5081002,12.2843022 L16.4014099,12.2843022 L16.5081002,12.1344937 L16.5081002,12.2843022 Z M16.5081002,12.5839194 L16.4014099,12.5839194 L16.5081002,12.4341108 L16.5081002,12.5839194 Z M16.5081002,13.1082493 C16.4014099,13.1831536 16.4014099,13.1082493 16.4014099,13.0333451 L16.5081002,12.9584408 L16.5081002,13.1082493 Z M80.904104,44.0437178 L80.7974137,44.0437178 L80.904104,43.8939092 L80.904104,44.0437178 Z M80.979333,44.4931434 C80.979333,44.642952 80.979333,44.642952 80.8726426,44.5680477 L80.8726426,44.3433349 L80.979333,44.4931434 Z M2.63450721,46.4406548 L2.55927823,46.4406548 L2.40882028,46.3657505 C2.40882028,46.2159419 2.55927823,46.2908462 2.63450721,46.3657505 L2.63450721,46.4406548 Z M1.80698847,50.7101988 C1.73175949,50.7851031 1.73175949,50.7851031 1.80698847,50.7101988 L1.88221745,50.5603903 L1.80698847,50.7101988 Z M2.63450721,51.1596245 L2.48404926,51.3094331 C2.40882028,51.3843374 2.40882028,51.3843374 2.48404926,51.3094331 L2.63450721,51.1596245 Z M5.14852478,53.5565616 L5.04183445,53.5565616 L5.14852478,53.406753 L5.14852478,53.5565616 Z M2.63450721,53.8561787 L2.63450721,53.9625078 L2.40882028,53.8561787 L2.63450721,53.8561787 Z M3.08588107,54.1557958 C3.01065209,54.1557958 2.78496516,54.0059872 2.86019414,53.931083 L3.01065209,54.0059872 L3.08588107,54.1557958 Z M3.38679697,54.2307001 L3.311568,54.3056044 L3.23633902,54.2307001 L3.311568,54.1557958 L3.38679697,54.2307001 Z M4.99806683,54.5303172 C4.8913765,54.6052215 4.8913765,54.5303172 4.8913765,54.4554129 L4.99806683,54.3805087 L4.99806683,54.5303172 Z M4.36477367,54.6052215 L4.81614752,54.9797429 L4.36477367,54.8299343 L4.06385776,54.6801258 L3.83817083,54.5303172 C3.83817083,54.3805087 3.83817083,54.3805087 4.36477367,54.6052215 Z M4.84760888,55.6538814 C4.74091855,55.7287857 4.74091855,55.6538814 4.74091855,55.5789772 L4.84760888,55.5040729 L4.84760888,55.6538814 Z M4.74113103,56.0284029 L4.66568957,56.1782114 L4.66568957,56.0284029 C4.74113103,55.8785943 4.81657248,55.8785943 4.74113103,56.0284029 Z M4.51523162,57.5264885 C4.51523162,57.8261056 4.44000264,57.9010099 4.44000264,57.6013928 L4.5904606,57.3017757 L4.51523162,57.5264885 Z M4.44000264,58.1257228 L4.36477367,58.5002442 C4.28954469,58.5002442 4.28954469,58.2755313 4.44000264,57.9759142 L4.44000264,58.1257228 Z M4.28954469,59.0994784 L4.28954469,59.0245741 L4.39623502,58.8747656 L4.28954469,59.0994784 Z M13.3922508,68.9119393 L13.3922508,69.4362693 L13.3170219,69.4362693 C13.2417929,69.2864608 13.1665639,69.4362693 13.2417929,69.6609822 C13.3170219,69.885695 13.4674798,69.8107907 13.5427088,69.5860779 C13.5427088,69.2864608 13.6931667,69.0617479 13.6931667,69.2864608 L13.8436247,69.5111736 C13.9940826,69.6609822 13.9940826,69.885695 13.8436247,70.4849293 C13.7683957,70.7096421 13.7683957,70.7096421 13.7683957,70.3351207 C13.7683957,70.1104079 13.7683957,69.9605993 13.6931667,70.0355036 L13.6179378,70.1853121 L13.6179378,70.3351207 L13.5427088,70.2602164 C13.4674798,70.0355036 13.0913349,70.1853121 13.1665639,70.410025 L13.0913349,70.4849293 L12.790419,70.4849293 L12.865648,70.410025 L12.940877,70.1853121 L12.865648,69.9605993 L12.865648,69.361365 L13.0161059,69.0617479 C13.0913349,68.9868436 13.1665639,68.8370351 13.0913349,68.7621308 L13.1665639,68.6872265 L13.3170219,68.6872265 C13.3170219,68.5374179 13.3922508,68.5374179 13.3922508,68.6123222 L13.3922508,68.9119393 Z M12.6399611,69.5111736 L12.5647321,69.7358864 L12.4895031,69.885695 C12.4142741,69.8107907 12.4895031,69.5860779 12.5647321,69.5111736 L12.6399611,69.5111736 Z M12.5647321,70.410025 C12.5647321,70.6347378 12.5647321,70.7096421 12.6399611,70.6347378 L12.6399611,70.7845464 L12.4895031,71.0841635 L12.4895031,71.1590678 C12.4142741,71.2339721 12.3390452,71.0841635 12.4142741,70.5598335 C12.4142741,70.0355036 12.5647321,69.9605993 12.5647321,70.410025 Z M13.8436247,71.0092592 L13.4674798,71.3837806 L13.5427088,71.2339721 L13.6931667,70.934355 L13.7683957,70.934355 L13.8436247,71.0092592 Z M42.7315516,81.2715443 L42.6563226,81.2715443 C42.6563226,81.1963583 42.7315516,81.1211722 42.8067806,81.1963583 L42.7315516,81.2715443 Z" id="Shape"></path>
                    <path d="M40.9260562,11.9097808 L40.3994534,11.9846851 C38.8787851,11.9710692 37.362395,12.1472178 35.8857148,12.5090151 L35.6600278,12.5839194 L35.058196,12.7337279 L34.4563642,12.8835365 L34.0049904,13.0333451 C33.7793034,13.0333451 33.7040745,13.0333451 33.7793034,13.1082493 L33.8545324,13.1831536 L33.1774716,13.1831536 L32.6508688,13.4078665 L32.1994949,13.557675 L31.82335,13.7074836 L31.3719762,13.9321964 L30.9958313,14.082005 C30.7701444,14.082005 30.6949154,14.082005 30.7701444,14.1569093 L30.8453734,14.3067178 L30.6949154,14.2318136 C30.6196864,14.1569093 30.4692285,14.2318136 30.1683126,14.3816221 L29.7169387,14.5314307 L29.5664808,14.606335 L29.4912518,14.6812393 L29.1903359,14.8310478 L28.88942,14.9808564 L28.814191,14.9808564 L28.738962,15.0557607 L28.4380461,15.2055692 L28.1371302,15.3553778 L27.7609853,15.5051864 L27.3848404,15.7298992 L27.0086956,15.954612 C26.8582376,16.1044206 26.7077797,16.1044206 26.6325507,16.1044206 L26.3316348,16.3291335 L25.8802609,16.5538463 L25.729803,16.7036549 L25.579345,16.8534634 L25.3536581,17.003272 L24.9775132,17.2279848 L24.1499945,17.7523148 L23.5481626,18.2017405 L23.3977047,18.3515491 C23.3224757,18.5013576 23.2472467,18.5762619 23.0967888,18.5762619 L22.9463308,18.8009748 L22.8711019,18.875879 L22.6454149,19.0256876 L22.494957,19.1754962 L22.1940411,19.4751133 L22.0435831,19.5500176 C19.913272,21.3965707 18.0634171,23.5412147 16.5518678,25.9168815 L16.2509519,26.4412115 L16.100494,26.8157329 L15.950036,26.9655415 L15.7995781,27.1902543 L15.7243491,27.4149672 L15.6491201,27.4898715 L15.5738911,27.5647757 L15.5738911,27.63968 C15.7243491,27.7894886 15.6491201,27.8643929 15.5738911,27.8643929 L15.2729752,28.0891057 C15.1225173,28.3138186 15.1225173,28.3138186 15.1977463,28.3887228 C15.3482042,28.3887228 15.4234332,28.6134357 15.2729752,28.6134357 L15.1977463,28.5385314 L15.1225173,28.4636271 L15.0472883,28.6134357 L14.9720593,28.7632442 L14.7463724,29.1377657 L14.5959145,29.5122871 L14.2949985,30.1864256 L13.9188537,30.9354684 L13.9188537,31.2350856 L13.8436247,31.3099898 L13.7683957,31.5347027 L13.5427088,32.0590327 L13.3170219,32.6582669 L13.2417929,33.0327883 L13.1665639,33.1076926 L13.1665639,33.1825969 L13.0161059,33.5571183 L12.865648,34.1563525 L12.865648,34.6057782 C12.790419,34.6057782 12.71519,34.6806825 12.6399611,34.9802996 L12.5647321,35.3548211 L12.5647321,35.5795339 C12.6399611,35.6544382 12.5647321,35.8042467 12.4895031,35.8042467 L12.3390452,36.6281938 L12.1885872,37.3772367 L12.1133582,37.6768538 L12.1133582,38.1262795 C11.1776053,46.0247295 13.3031269,53.9811251 18.0564474,60.3728512 L18.4325922,60.5226598 L18.2821343,60.5975641 C18.2069053,60.5975641 18.2069053,60.6724683 18.4325922,60.8222769 L18.7335082,61.121894 L19.33534,61.8709368 L19.9371718,62.5450754 C20.4926875,63.1887165 21.096236,63.7896601 21.7426672,64.3427781 L23.4729337,65.7659595 L23.5481626,65.6161509 L23.7738496,65.9906724 C23.6986206,66.0655766 23.7738496,66.0655766 23.8490785,66.1404809 L24.1499945,66.3651938 L24.5261393,66.5150023 L24.6013683,66.6648109 L24.6765973,66.7397152 C24.7518263,66.6648109 24.9775132,66.8146195 25.2784291,67.0393323 L25.8802609,67.488758 L26.0307189,67.5636623 L26.6325507,67.9381837 L26.9334666,68.0879922 L27.6105274,68.5374179 L27.9866722,68.7621308 L28.4380461,68.9119393 L28.814191,69.1366522 C29.703409,69.6197376 30.6351079,70.0208955 31.5976631,70.3351207 L31.973808,70.4849293 L32.4251819,70.6347378 L32.9517847,70.7845464 L33.1022426,70.8594507 L33.1774716,70.8594507 L33.7040745,71.0092592 L34.1554483,71.1590678 L34.8325091,71.3088764 L35.3591119,71.4586849 L35.5847989,71.5335892 L35.8104858,71.5335892 L36.5627756,71.6833978 L37.3150653,71.8332063 L38.4435,71.9830149 L39.6471636,72.1328235 C42.0575743,72.1304546 44.4668916,72.0304997 46.8691453,71.8332063 L47.6966641,71.6833978 L48.5241828,71.5335892 L48.7498697,71.4586849 L48.9003277,71.4586849 L49.4269305,71.3088764 L50.0287623,71.1590678 L50.4801362,71.0092592 L50.7058231,70.934355 L50.7058231,70.8594507 L50.7810521,70.8594507 C50.8562811,70.934355 51.232426,70.8594507 51.3828839,70.7845464 L51.8342578,70.6347378 L52.2104026,70.4849293 L52.3608606,70.410025 L52.5113185,70.410025 L52.7370055,70.2602164 L53.3388373,70.1104079 L53.9406691,69.8107907 L54.241585,69.6609822 L54.316814,69.5860779 L54.7681878,69.5111736 L56.5736833,68.5374179 L57.2507441,68.1628965 L57.401202,68.0879922 L57.476431,68.013088 C57.55166,68.0879922 57.9278048,67.7883751 57.9278048,67.6385666 C57.8525759,67.5636623 57.9278048,67.5636623 58.0030338,67.5636623 C58.2287208,67.6385666 58.5296367,67.488758 58.5296367,67.4138537 L58.8305526,67.1891409 L59.2066974,66.964428 L59.4323844,66.8146195 L59.5076134,66.5899066 C59.5076134,66.440098 59.6580713,66.3651938 59.7333003,66.5150023 L60.0342162,66.3651938 C60.1846741,66.2902895 60.2599031,66.1404809 60.1846741,66.0655766 C60.1846741,65.9906724 60.2599031,65.9157681 60.4103611,66.0655766 C60.4103611,66.1404809 60.48559,66.1404809 60.560819,65.9906724 L60.711277,65.8408638 L61.3131088,65.3914381 C62.0127458,64.7122787 62.7405948,64.0625409 63.4947491,63.4439268 L64.0965809,62.8446925 L64.3974968,62.4701711 L65.6011604,61.0469897 L65.8268474,60.8222769 L66.0525343,60.5975641 L66.2029923,60.3728512 L66.3534502,60.1481384 L66.7295951,59.5489041 C66.8048241,59.3241913 67.030511,59.249287 67.030511,59.1743827 L67.3314269,58.724957 L67.7075718,58.200627 L68.0084877,57.7512013 C68.3768901,57.2682341 68.6803719,56.7394332 68.9112354,56.1782114 L69.4378382,55.0546472 C69.7004903,54.4494814 69.9763958,53.850104 70.265357,53.2569444 L70.340586,52.882423 L70.340586,52.8075187 C70.4158149,52.8075187 70.4910439,52.7326145 70.4910439,52.5079016 L70.6415019,52.2082845 L70.6415019,52.1333802 L70.7167308,51.9086674 L70.8671888,51.4592417 L71.0176467,51.1596245 L71.0928757,51.009816 L71.3185626,50.2607732 L71.3185626,50.0360603 L71.3937916,49.8862517 C71.4690206,49.7364432 71.6194786,48.8375918 71.5442496,48.6877832 L71.6194786,48.612879 C71.7699365,48.6877832 71.7699365,48.612879 71.8451655,48.3132618 C71.9027392,47.9164541 71.927898,47.5156508 71.9203945,47.1147933 C71.9956234,47.3395062 72.0708524,47.1896976 71.9956234,46.8900805 L72.0708524,46.6653676 L72.2965393,44.4182392 L72.3717683,43.9688135 L72.4469973,42.0213021 C72.4854249,41.2441148 72.4349479,40.4650972 72.2965393,39.6992694 C72.2827018,38.8671543 72.1818523,38.0387375 71.9956234,37.2274281 L71.7699365,35.9540553 L71.7699365,35.7293425 L71.6947075,35.5046296 L71.5442496,34.8304911 L71.3937916,34.3061611 L71.2433337,33.6320226 L71.0176467,32.957884 L70.8671888,32.6582669 L70.7167308,32.0590327 L70.5662729,31.5347027 L70.03967,30.4860427 L70.03967,30.1864256 L69.9644411,30.1115213 L69.8139831,29.8119042 L69.6635252,29.5122871 L69.5130672,29.1377657 L69.2873803,28.7632442 L69.1369223,28.4636271 L68.9864644,28.2389143 L68.9112354,28.0142014 L68.7607774,27.7145843 L68.6855485,27.4898715 L68.6103195,27.4149672 L68.1589456,26.5910201 L67.8580297,26.1415944 L67.7075718,25.8419773 L67.5571138,25.6921687 L67.4818848,25.5423601 L67.2561979,25.4674558 C67.10574,25.4674558 67.030511,25.3176473 67.1809689,25.3176473 C67.2561979,25.242743 67.030511,24.7933173 66.955282,24.7933173 L66.7295951,24.5686045 C66.7295951,24.4187959 66.5039082,24.1191788 66.2782212,23.8944659 L65.9773053,23.4450402 L65.8268474,23.2952317 L65.6763894,23.1454231 C64.2867685,21.5346597 62.7505769,20.055248 61.0874219,18.7260705 L60.9369639,18.7260705 L60.8617349,18.5013576 L60.8617349,18.3515491 L60.786506,18.2766448 L60.1846741,17.8272191 C59.8085293,17.527602 59.6580713,17.4526977 59.5828423,17.527602 L59.4323844,17.4526977 C59.5076134,17.3777934 59.3571554,17.3028891 59.2066974,17.1530806 L58.9810105,17.0781763 L58.7553236,17.1530806 C58.6048656,17.1530806 58.6048656,17.1530806 58.6800946,17.0781763 C58.9057815,16.9283677 58.8305526,16.8534634 58.6048656,16.7036549 C57.9961054,16.366064 57.3941543,16.0164415 56.7993702,15.6549949 L56.3479963,15.4302821 L56.0470804,15.2804735 L55.7461645,15.1306649 L55.4452486,14.9808564 L55.3700197,14.9059521 L54.6929589,14.606335 L54.392043,14.4565264 L53.8654401,14.2318136 L52.8122345,13.9321964 C52.8122345,14.0071007 52.7370055,13.9321964 52.8122345,13.9321964 C52.8122345,13.7823879 52.7370055,13.7823879 52.4360896,13.7074836 L51.9847157,13.557675 L51.6085708,13.4078665 L51.081968,13.2580579 L51.006739,13.2580579 L50.8562811,13.1831536 L50.3296782,13.0333451 L49.8030754,12.8835365 L49.2012436,12.7337279 L48.6746408,12.5839194 L48.3737248,12.5839194 L48.1480379,12.5090151 L47.6214351,12.3592065 C47.0196033,12.3592065 46.6434584,12.2843022 46.5682294,12.2093979 L46.1168556,12.1344937 L45.7407107,12.1344937 C45.6654817,11.9846851 41.0012852,11.8348765 40.9260562,11.9097808 L40.9260562,11.9097808 Z M43.6342993,12.1344937 L43.4838414,12.2843022 C43.4086124,12.3592065 43.4086124,12.3592065 43.4838414,12.2843022 L43.6342993,12.1344937 Z M46.0416266,12.5090151 C46.0416266,12.6588236 45.7407107,12.8835365 45.7407107,12.7337279 L46.0416266,12.4341108 L46.0416266,12.5090151 Z M43.2896158,12.6588236 L43.1829255,12.6588236 L43.2896158,12.5090151 L43.2896158,12.6588236 Z M42.7315516,13.1082493 L42.6563226,13.1831536 L42.5810937,13.1082493 L42.7315516,13.0333451 L42.7315516,13.1082493 Z M45.3645658,13.1831536 L45.2893368,13.3329622 L45.2141078,13.2580579 L45.2893368,13.1831536 L45.3645658,13.1831536 Z M43.1829255,13.557675 L42.8820096,13.8572922 C42.8067806,13.8572922 42.8820096,13.7074836 43.1076965,13.557675 L43.4086124,13.2580579 L43.1829255,13.557675 Z M42.4306357,13.4078665 L42.4306357,13.4827707 L42.3554067,13.557675 L42.2801778,13.6325793 C42.2049488,13.8572922 41.678346,14.3816221 41.678346,14.3067178 C41.603117,14.2318136 41.7535749,13.8572922 41.8288039,13.8572922 L42.1297198,13.557675 L42.5058647,13.3329622 L42.4306357,13.4078665 Z M44.687505,13.8572922 L44.3865891,14.1569093 L44.9131919,13.6325793 L44.687505,13.9321964 L44.687505,13.8572922 Z M42.3554067,14.4565264 L42.2049488,14.5314307 L42.2801778,14.4565264 C42.4306357,14.3067178 42.5058647,14.3067178 42.3554067,14.4565264 Z M44.0856732,14.5314307 L43.7847573,14.7561435 L44.1609022,14.3067178 L44.0856732,14.5314307 Z M42.7315516,15.8048035 C42.5058647,16.1793249 42.2801778,16.3291335 42.2801778,16.1793249 L43.0324675,15.5051864 L42.7315516,15.8048035 Z M55.2195617,16.6287506 L55.0691037,16.8534634 L54.9186458,17.003272 L55.0691037,16.5538463 C55.1443327,16.4040377 55.2947907,16.3291335 55.2947907,16.4040377 L55.2195617,16.6287506 Z M37.0141494,16.9283677 L39.1957897,16.9283677 L39.1957897,24.4937002 L42.4306357,24.4937002 L42.4306357,20.8233904 C42.5112428,19.5262898 42.5112428,18.2254683 42.4306357,16.9283677 L47.1700612,16.9283677 L47.1700612,20.7484861 C47.1700612,24.5686045 47.1700612,24.5686045 47.4709771,24.6435087 C50.2090894,24.8863943 52.8699787,25.6761207 55.2947907,26.9655415 L55.5204776,27.1902543 C55.7461645,27.2651586 55.8966225,27.3400629 56.4984543,27.8643929 L56.7993702,28.0891057 L56.9498282,28.2389143 C57.0250571,28.4636271 57.401202,28.8381485 57.55166,28.8381485 L57.6268889,28.9879571 L57.7773469,29.2875742 C58.1309356,29.7843213 58.3862495,30.3435876 58.5296367,30.9354684 L58.6048656,31.0103727 L58.6048656,31.1601813 L58.6800946,31.3099898 L58.7553236,31.4597984 L58.8305526,32.7331712 C58.8882822,33.8202309 58.7611104,34.9091886 58.4544077,35.9540553 L58.2287208,36.4783853 L58.2287208,36.7780024 L58.0782628,36.8529067 L58.0030338,37.0776195 L57.9278048,37.2274281 L57.7773469,37.3772367 L57.6268889,37.6768538 L57.55166,37.8266624 L57.401202,37.9764709 C56.8673953,38.6653398 56.2335355,39.2712189 55.5204776,39.7741737 L54.9186458,40.2235994 L55.0691037,40.2985037 L55.2947907,40.4483122 L55.7461645,40.5981208 L56.0470804,40.6730251 L56.3479963,40.8228336 L56.6489123,40.9726422 L56.7241412,41.0475465 L57.9278048,41.721685 L58.3039497,41.9463979 L58.3791787,42.0962064 L58.4544077,42.1711107 C58.5296367,42.1711107 59.2819264,42.9201535 59.5076134,43.2946749 C59.7333003,43.5193878 59.7333003,43.5193878 59.8085293,43.4444835 C59.8085293,43.2946749 59.8837582,43.2946749 59.9589872,43.3695792 C60.0342162,43.5193878 60.0342162,43.5193878 59.8837582,43.5193878 C59.8085293,43.5942921 59.8085293,43.5942921 59.9589872,43.8190049 L60.1846741,44.2684306 L60.3351321,44.4931434 L60.48559,44.7178563 L60.560819,44.9425691 L60.786506,45.3919948 L60.9369639,45.8414205 L60.9369639,45.9163248 L61.0121929,46.1410376 C61.3851223,47.9476247 61.3594541,49.8133123 60.9369639,51.6090502 L60.9369639,51.9086674 C61.0121929,51.9835716 61.0121929,51.9835716 60.8617349,51.9835716 L60.786506,52.2831888 L60.560819,52.7326145 L60.48559,53.0322316 L60.3351321,53.406753 L60.1094452,53.931083 L59.8837582,54.2307001 L59.8085293,54.3805087 L59.7333003,54.6801258 L59.4323844,55.0546472 C59.2819264,55.3542643 57.9278048,56.7774457 57.55166,57.0770628 L57.0250571,57.3766799 L56.7241412,57.6762971 L56.6489123,57.7512013 C56.6489123,57.6013928 56.5736833,57.6013928 56.4232253,57.7512013 L56.1975384,57.8261056 L55.6709356,58.0508185 L54.316814,58.6500527 C54.0911271,58.6500527 54.0158981,58.724957 54.0158981,58.7998613 L53.7902111,58.7998613 L53.0379214,58.9496699 L52.2856316,59.0994784 L52.0599447,59.1743827 L51.8342578,59.1743827 C50.3407031,59.3994168 48.8308578,59.4996388 47.3205192,59.4739998 C47.1700612,59.6238084 47.1700612,59.8485212 47.1700612,63.3690225 L47.1700612,67.1891409 L42.6563226,67.1891409 L42.6563226,67.3389494 C42.6563226,67.488758 42.6563226,67.488758 42.5810937,67.4138537 L42.5058647,67.1142366 L42.4306357,63.2941182 L42.4306357,59.4739998 L40.8508272,59.3990955 L39.2710187,59.4739998 L39.1957897,63.3690225 L39.1957897,67.1891409 L34.5315932,67.1891409 L34.5315932,63.2941182 L34.4563642,59.4739998 L30.0930836,59.3990955 C28.5379652,59.3635077 26.9820439,59.3884949 25.4288871,59.4739998 L25.504116,54.6052215 L27.5352984,54.5303172 C29.4912518,54.5303172 29.4912518,54.5303172 29.8673967,54.3805087 C30.2435415,54.1557958 30.6949154,53.7063701 30.6949154,53.5565616 L30.8453734,53.2569444 C31.0076382,45.8176203 31.0577965,38.3762909 30.9958313,30.9354684 C30.9206023,30.560947 30.8453734,30.4111385 30.6949154,30.2613299 L30.6196864,30.036617 L30.4692285,29.8868085 L30.2435415,29.7369999 C30.2435415,29.5871913 29.7169387,29.4373828 29.4160228,29.4373828 L29.2655648,29.3624785 L27.3096115,29.3624785 L25.2032001,29.2875742 C25.0527422,29.2875742 25.0527422,29.1377657 25.0527422,26.8906372 L25.0527422,24.4937002 L34.5315932,24.4937002 L34.5315932,20.6735818 C34.5315932,17.3028891 34.5315932,16.8534634 34.6820511,16.8534634 L37.0141494,16.9283677 L37.0141494,16.9283677 Z M58.9057815,17.6774105 C58.6919272,17.961319 58.4386309,18.213522 58.1534918,18.4264533 L58.9057815,17.6025062 L58.9057815,17.6774105 L58.9057815,17.6774105 Z M29.7169387,17.8272191 L29.6417097,18.0519319 C29.5664808,18.2766448 29.5664808,18.2766448 29.5664808,18.0519319 L29.6417097,17.8272191 L29.7169387,17.8272191 Z M57.6268889,19.2504004 L57.2507441,19.5500176 L57.401202,19.400209 C57.7021179,19.1005919 57.9278048,18.9507833 57.6268889,19.2504004 Z M59.0562395,19.2504004 L58.6800946,19.6249219 L58.9057815,19.400209 L59.0562395,19.2504004 Z M57.1755151,19.3253047 L57.0250571,19.5500176 L57.325973,19.1754962 L57.1755151,19.400209 L57.1755151,19.3253047 Z M58.3791787,20.0743475 L58.2287208,20.1492518 L58.3039497,19.9994433 C58.4544077,19.8496347 58.5296367,19.8496347 58.3791787,20.0743475 Z M57.8525759,20.5237732 C57.55166,20.8233904 57.476431,20.8233904 57.7773469,20.5237732 L58.0782628,20.2990604 L57.8525759,20.5237732 Z M54.4672719,22.3963803 L54.392043,22.4712846 L54.316814,22.3963803 L54.4672719,22.321476 L54.4672719,22.3963803 Z M62.5920014,22.9956145 L62.5167724,23.1019437 L62.4415434,23.1019437 L62.5167724,22.9956145 L62.5920014,22.9956145 Z M58.9810105,25.6172644 L58.9057815,25.6921687 L58.8305526,25.6172644 L58.9810105,25.5423601 L58.9810105,25.6172644 Z M20.0876297,41.8714936 L19.8619428,42.0213021 C19.7867138,41.9463979 20.0124008,41.721685 20.0876297,41.721685 L20.0876297,41.8714936 Z M63.6766684,42.6205364 L63.5699781,42.6205364 L63.6766684,42.4707278 L63.6766684,42.6205364 Z M13.6931667,45.3170905 L13.6179378,45.4668991 L13.6179378,45.3170905 C13.7683957,45.167282 13.7683957,45.167282 13.6931667,45.3170905 Z M61.9149406,50.3360759 L61.8397116,50.3360759 C61.8397116,50.2608899 61.9149406,50.1857038 61.9901696,50.2608899 L61.9149406,50.3360759 Z M17.6803025,51.2345288 L17.6050735,51.3094331 L17.5298445,51.2345288 L17.6050735,51.0847203 L17.6803025,51.2345288 Z M62.1406275,51.9086674 L62.0653986,51.9835716 L61.9901696,51.9086674 L62.0653986,51.8337631 L62.1406275,51.9086674 Z M21.7426672,55.8785943 L21.6674382,55.9534986 L21.5922093,55.8785943 L21.7426672,55.80369 L21.7426672,55.8785943 Z M22.570186,56.6276371 L22.494957,56.7025414 L22.419728,56.6276371 L22.494957,56.5527328 L22.570186,56.6276371 Z M22.7958729,56.7774457 L22.7206439,56.85235 L22.6454149,56.7774457 L22.6454149,56.7025414 L22.7206439,56.7774457 L22.7958729,56.7774457 Z M23.0215598,57.1519671 L22.9463308,57.2268714 L22.8711019,57.1519671 L23.0215598,57.0770628 L23.0215598,57.1519671 Z M24.9022842,58.9496699 L24.8270552,59.0245741 L24.7518263,58.9496699 L24.8270552,58.7998613 L24.9022842,58.9496699 Z M20.6894615,60.6724683 L20.3133167,60.9720855 L20.6142326,60.6724683 L20.9903774,60.2979469 L20.6894615,60.6724683 Z M40.0985374,60.8971812 C40.0985374,61.0469897 40.0985374,61.0469897 40.0233085,60.9720855 L39.9480795,60.8222769 C40.0233085,60.6724683 40.0985374,60.7473726 40.0985374,60.8971812 Z M41.603117,61.7960326 L41.452659,61.8709368 L41.37743,61.7960326 L41.527888,61.7211283 L41.603117,61.7960326 Z M32.5756398,65.7659595 L32.7260978,65.7659595 L32.8013267,65.8408638 C32.8013267,65.9906724 32.5004108,65.9157681 32.4251819,65.7659595 L32.5004108,65.6910552 L32.5756398,65.7659595 Z M36.1114017,67.3389494 L36.0361727,67.4138537 L35.9609437,67.3389494 L35.9609437,67.2640451 L36.0361727,67.3389494 L36.1114017,67.3389494 Z M28.0619012,67.5636623 L27.9114433,67.6385666 C27.8362143,67.6385666 27.8362143,67.5636623 27.9866722,67.488758 C28.1371302,67.3389494 28.2123592,67.3389494 28.0619012,67.5636623 Z" id="Shape"></path>
                    <path d="M39.2710187,29.6620956 L39.1957897,34.4559697 L39.1957897,39.1000352 L42.5058647,39.1000352 C43.8118987,39.0664965 45.1165289,38.9915543 46.4177715,38.8753223 C46.8691453,38.7255137 47.5462061,38.3509923 47.99758,38.0513752 C48.1480379,37.8266624 48.3737248,37.6768538 48.4489538,37.6768538 L48.5994118,37.5270452 L48.9003277,37.1525238 L49.1260146,36.7030981 L49.2764726,36.403481 C49.5021595,36.1787682 49.5773885,35.8042467 49.6526174,35.2799168 L49.7278464,34.9802996 L49.7278464,33.1825969 L49.6526174,32.957884 L49.3517015,32.1339369 L49.2012436,31.8343198 L48.9755567,31.609607 L48.9003277,31.4597984 C48.8250987,31.3099898 48.2984959,30.9354684 48.1480379,30.9354684 L47.922351,30.7107556 L47.6214351,30.560947 L47.3957482,30.4860427 C47.3205192,30.3362342 47.2452902,30.3362342 47.1700612,30.4111385 L47.0948323,30.4111385 L46.7186874,30.1864256 L46.2673135,30.036617 L44.0856732,29.7369999 L43.5590704,29.6620956 L39.2710187,29.6620956 L39.2710187,29.6620956 Z M44.5370471,31.4597984 L44.4618181,31.5661275 L44.3865891,31.5661275 L44.4618181,31.4597984 L44.5370471,31.4597984 Z M44.4180505,32.2837455 C44.3113601,32.3586498 44.3113601,32.2837455 44.3113601,32.2088412 L44.4180505,32.1339369 L44.4180505,32.2837455 Z M44.319483,33.6320226 L44.2361311,33.7818311 L44.2361311,33.482214 C44.2361311,33.1825969 44.4028348,33.3324054 44.319483,33.6320226 Z M44.2361311,34.2316553 L44.1609022,34.2316553 C44.1609022,34.1564693 44.2361311,34.0812832 44.3113601,34.1564693 L44.2361311,34.2316553 Z M43.3648448,35.3548211 L43.2581545,35.3548211 L43.3648448,35.2050125 L43.3648448,35.3548211 Z M44.1609022,35.2799168 L44.0856732,35.3548211 L44.0104442,35.2799168 L44.1609022,35.2050125 L44.1609022,35.2799168 Z M43.5590704,35.879151 L43.4838414,35.9540553 L43.4086124,35.879151 L43.3333834,35.6544382 C43.3333834,35.5046296 43.3333834,35.5046296 43.4086124,35.6544382 L43.5590704,35.879151 Z M42.1297198,35.6544382 L41.9792619,35.879151 L41.7535749,36.0289596 L41.9040329,35.8042467 L42.1297198,35.6544382 Z M43.8599863,36.7030981 C43.8599863,36.8529067 43.7095283,36.7780024 43.7095283,36.5532896 L43.6342993,36.1787682 L43.7095283,36.3285767 L43.8599863,36.7030981 Z M44.0419056,38.276088 C44.0419056,38.4258966 44.0419056,38.4258966 43.9352152,38.3509923 L43.9352152,38.1262795 L44.0419056,38.276088 Z M44.762734,38.5757052 L44.687505,38.4258966 C44.612276,38.3509923 44.612276,38.3509923 44.687505,38.4258966 L44.762734,38.5008009 L44.762734,38.5757052 Z M39.1957897,48.8375918 L39.2710187,54.0059872 C41.8297331,54.0794059 44.3905172,54.0294112 46.9443743,53.8561787 C47.3957482,53.8561787 47.771893,53.7812744 47.771893,53.7063701 L48.1480379,53.6314658 L48.5994118,53.4816573 L48.8250987,53.406753 L49.5021595,53.0322316 L49.5773885,52.9573273 C49.5773885,53.1071359 50.4801362,52.358093 50.8562811,51.9835716 L51.3076549,51.3094331 C51.3076549,51.1596245 51.3828839,51.0847203 51.4581129,51.0847203 L51.6085708,50.7101988 L51.7590288,50.4105817 L51.9094867,49.961156 L52.0599447,49.3619218 C52.1018404,48.6370823 52.0766579,47.9099419 51.9847157,47.1896976 L51.9094867,47.039889 L51.9094867,46.8900805 L51.8342578,46.6653676 L51.6837998,46.4406548 L51.4581129,46.1410376 L51.232426,45.8414205 L51.081968,45.5418034 L50.8562811,45.4668991 L50.6305941,45.3170905 L50.3296782,45.167282 L50.2544493,45.0923777 C50.2544493,45.0174734 49.7278464,44.7178563 49.2764726,44.5680477 L48.9755567,44.4182392 L48.5241828,44.2684306 L47.99758,44.118622 L47.771893,44.118622 L47.6214351,44.0437178 C47.3957482,43.8939092 45.5902527,43.8190049 42.4306357,43.8190049 L39.1957897,43.8190049 L39.1957897,48.8375918 L39.1957897,48.8375918 Z M42.3116391,44.7927606 L42.2049488,44.7927606 L42.3116391,44.642952 L42.3116391,44.7927606 Z M39.603396,45.5418034 C39.4967056,45.6167077 39.4967056,45.5418034 39.4967056,45.3919948 C39.4967056,45.3170905 39.4967056,45.2421863 39.603396,45.3170905 L39.603396,45.5418034 Z M42.537326,45.8414205 C42.537326,45.9912291 42.537326,45.9912291 42.4306357,45.9163248 L42.4306357,45.6167077 L42.537326,45.8414205 Z M40.7755982,48.2383575 L40.7003693,48.3446867 L40.6251403,48.3446867 L40.7003693,48.2383575 L40.7755982,48.2383575 Z" id="Shape"></path>
                </g>
                <g id="Bitcoin-Insider" transform="translate(112.000000, 30.000000)">
                    <path d="M0,1.43147208 L6.95442084,1.43147208 C10.123395,1.43147208 12.4237034,1.88071066 13.8553461,2.77918782 C15.2869888,3.67766497 16.0028101,5.10659898 16.0028101,7.06598985 C16.0028101,8.39593909 15.6894791,9.48730964 15.062817,10.3401015 C14.4361549,11.1928934 13.6031528,11.7055838 12.5638108,11.8781726 L12.5638108,12.0304569 C13.9801691,12.3451777 15.0016792,12.9340102 15.6283413,13.7969543 C16.2550034,14.6598985 16.5683345,15.8071066 16.5683345,17.2385787 C16.5683345,19.2690355 15.8321339,20.8527919 14.3597327,21.9898477 C12.8873315,23.1269036 10.8876171,23.6954315 8.36058944,23.6954315 L0,23.6954315 L0,1.43147208 Z M4.73817683,10.248731 L7.48937629,10.248731 C8.77326936,10.248731 9.70307288,10.0507614 10.2787868,9.65482234 C10.8545008,9.25888325 11.1423578,8.60406091 11.1423578,7.69035533 C11.1423578,6.83756345 10.8290267,6.22588832 10.2023646,5.85532995 C9.57570254,5.48477157 8.58476125,5.29949239 7.22954078,5.29949239 L4.73817683,5.29949239 L4.73817683,10.248731 Z M4.73817683,13.9949239 L4.73817683,19.7969543 L7.825634,19.7969543 C9.12990633,19.7969543 10.0928261,19.5482234 10.7143934,19.0507614 C11.3359607,18.5532995 11.6467443,17.7918782 11.6467443,16.7664975 C11.6467443,14.9187817 10.3220928,13.9949239 7.67278958,13.9949239 L4.73817683,13.9949239 Z" id="Shape"></path>
                    <path d="M20.465867,2.26903553 C20.465867,0.756345178 21.3116061,0 23.0030843,0 C24.6945625,0 25.5403016,0.756345178 25.5403016,2.26903553 C25.5403016,2.98984772 25.3288668,3.55076142 24.9059973,3.95177665 C24.4831277,4.35279188 23.8488234,4.55329949 23.0030843,4.55329949 C21.3116061,4.55329949 20.465867,3.79187817 20.465867,2.26903553 Z M25.3263194,23.6954315 L20.6645648,23.6954315 L20.6645648,6.67005076 L25.3263194,6.67005076 L25.3263194,23.6954315 Z" id="Shape"></path>
                    <path d="M37.4163125,20.2994924 C38.2314828,20.2994924 39.209687,20.1218274 40.3509253,19.7664975 L40.3509253,23.2233503 C39.1893077,23.7411168 37.7627599,24 36.0712817,24 C34.2065798,24 32.848812,23.5304569 31.9979781,22.5913706 C31.1471442,21.6522843 30.7217272,20.2436548 30.7217272,18.3654822 L30.7217272,10.1573604 L28.4901988,10.1573604 L28.4901988,8.1928934 L31.0579849,6.63959391 L32.4030158,3.04568528 L35.3834818,3.04568528 L35.3834818,6.67005076 L40.167512,6.67005076 L40.167512,10.1573604 L35.3834818,10.1573604 L35.3834818,18.3654822 C35.3834818,19.0253807 35.5694425,19.5126904 35.9413639,19.8274112 C36.3132854,20.142132 36.8049349,20.2994924 37.4163125,20.2994924 Z" id="Path"></path>
                    <path d="M50.7443454,24 C45.4253598,24 42.765867,21.0913706 42.765867,15.2741117 C42.765867,12.3807107 43.4893306,10.1700508 44.9362577,8.64213198 C46.3831848,7.1142132 48.456774,6.35025381 51.1570254,6.35025381 C53.1338131,6.35025381 54.9068083,6.73604061 56.476011,7.50761421 L55.1004112,11.1015228 C54.3667581,10.8071066 53.684053,10.5659898 53.0522961,10.3781726 C52.4205392,10.1903553 51.7887823,10.0964467 51.1570254,10.0964467 C48.731894,10.0964467 47.5193283,11.8121827 47.5193283,15.2436548 C47.5193283,18.5736041 48.731894,20.2385787 51.1570254,20.2385787 C52.0537126,20.2385787 52.8841672,20.1192893 53.6483893,19.8807107 C54.4126114,19.642132 55.1768334,19.2690355 55.9410555,18.7614213 L55.9410555,22.7360406 C55.1870231,23.213198 54.4253484,23.5431472 53.6560315,23.7258883 C52.8867146,23.9086294 51.9161526,24 50.7443454,24 Z" id="Path"></path>
                    <path d="M63.6138451,15.1522843 C63.6138451,16.8375635 63.8915125,18.1116751 64.4468472,18.9746193 C65.0021819,19.8375635 65.9065113,20.2690355 67.1598355,20.2690355 C68.4029701,20.2690355 69.2971099,19.8401015 69.842255,18.9822335 C70.3874,18.1243655 70.6599726,16.8477157 70.6599726,15.1522843 C70.6599726,13.4670051 70.3848526,12.2030457 69.8346127,11.3604061 C69.2843729,10.5177665 68.3825908,10.0964467 67.1292666,10.0964467 C65.8861321,10.0964467 64.9894448,10.5152284 64.4392049,11.3527919 C63.888965,12.1903553 63.6138451,13.4568528 63.6138451,15.1522843 Z M75.4287183,15.1522843 C75.4287183,17.9238579 74.6950651,20.0913706 73.2277587,21.6548223 C71.7604524,23.2182741 69.717432,24 67.0986977,24 C65.4581677,24 64.0112406,23.642132 62.7579164,22.9263959 C61.5045922,22.2106599 60.5416724,21.1827411 59.869157,19.8426396 C59.1966415,18.5025381 58.8603838,16.9390863 58.8603838,15.1522843 C58.8603838,12.3705584 59.5889422,10.2081218 61.0460589,8.66497462 C62.5031757,7.12182741 64.5512908,6.35025381 67.1904044,6.35025381 C68.8309344,6.35025381 70.2778615,6.70558376 71.5311857,7.41624365 C72.7845099,8.12690355 73.7474297,9.14720812 74.4199452,10.4771574 C75.0924606,11.8071066 75.4287183,13.3654822 75.4287183,15.1522843 Z" id="Shape"></path>
                    <path d="M79.0816998,2.26903553 C79.0816998,0.756345178 79.9274389,0 81.6189171,0 C83.3103952,0 84.1561343,0.756345178 84.1561343,2.26903553 C84.1561343,2.98984772 83.9446996,3.55076142 83.52183,3.95177665 C83.0989605,4.35279188 82.4646562,4.55329949 81.6189171,4.55329949 C79.9274389,4.55329949 79.0816998,3.79187817 79.0816998,2.26903553 Z M83.9421522,23.6954315 L79.2803975,23.6954315 L79.2803975,6.67005076 L83.9421522,6.67005076 L83.9421522,23.6954315 Z" id="Shape"></path>
                    <path d="M104.606717,23.6954315 L99.9449623,23.6954315 L99.9449623,13.751269 C99.9449623,12.5228426 99.7258853,11.6015228 99.2877313,10.9873096 C98.8495773,10.3730964 98.1515878,10.0659898 97.1937629,10.0659898 C95.8894905,10.0659898 94.94695,10.5 94.3661412,11.3680203 C93.7853324,12.2360406 93.494928,13.6751269 93.494928,15.6852792 L93.494928,23.6954315 L88.8331734,23.6954315 L88.8331734,6.67005076 L92.3944483,6.67005076 L93.0211103,8.84771574 L93.2809459,8.84771574 C93.8006169,8.02538071 94.5164382,7.4035533 95.4284099,6.9822335 C96.3403815,6.56091371 97.3771761,6.35025381 98.5387937,6.35025381 C100.525771,6.35025381 102.033836,6.8857868 103.062988,7.95685279 C104.092141,9.02791878 104.606717,10.5736041 104.606717,12.5939086 L104.606717,23.6954315 Z" id="Path"></path>
                    <polygon id="Path" points="117.904181 23.6954315 117.904181 1.43147208 122.642358 1.43147208 122.642358 23.6954315"></polygon>
                    <path d="M143.673749,23.6954315 L139.011995,23.6954315 L139.011995,13.751269 C139.011995,12.5228426 138.792918,11.6015228 138.354764,10.9873096 C137.91661,10.3730964 137.21862,10.0659898 136.260795,10.0659898 C134.956523,10.0659898 134.013982,10.5 133.433173,11.3680203 C132.852365,12.2360406 132.56196,13.6751269 132.56196,15.6852792 L132.56196,23.6954315 L127.900206,23.6954315 L127.900206,6.67005076 L131.46148,6.67005076 L132.088143,8.84771574 L132.347978,8.84771574 C132.867649,8.02538071 133.58347,7.4035533 134.495442,6.9822335 C135.407414,6.56091371 136.444208,6.35025381 137.605826,6.35025381 C139.592803,6.35025381 141.100868,6.8857868 142.130021,7.95685279 C143.159173,9.02791878 143.673749,10.5736041 143.673749,12.5939086 L143.673749,23.6954315 Z" id="Path"></path>
                    <path d="M160.394928,18.6395939 C160.394928,20.3857868 159.786098,21.715736 158.568437,22.6294416 C157.350777,23.5431472 155.529381,24 153.104249,24 C151.861115,24 150.801394,23.9162437 149.925086,23.748731 C149.048778,23.5812183 148.228513,23.3350254 147.464291,23.0101523 L147.464291,19.1725888 C148.330409,19.5786802 149.306066,19.9187817 150.391261,20.1928934 C151.476456,20.4670051 152.431734,20.6040609 153.257094,20.6040609 C154.948572,20.6040609 155.794311,20.1167513 155.794311,19.142132 C155.794311,18.7766497 155.682225,18.4796954 155.458053,18.251269 C155.233882,18.0228426 154.846676,17.7639594 154.296436,17.4746193 C153.746196,17.1852792 153.012543,16.8477157 152.095476,16.4619289 C150.781014,15.9137056 149.815547,15.4060914 149.199075,14.9390863 C148.582602,14.4720812 148.134259,13.9365482 147.854044,13.3324873 C147.573829,12.7284264 147.433722,11.9847716 147.433722,11.1015228 C147.433722,9.58883249 148.022173,8.41878173 149.199075,7.59137056 C150.375977,6.76395939 152.044528,6.35025381 154.204729,6.35025381 C156.263034,6.35025381 158.265296,6.79695431 160.211515,7.69035533 L158.805346,11.0406091 C157.949417,10.6751269 157.149532,10.3756345 156.405689,10.142132 C155.661846,9.90862944 154.902719,9.79187817 154.128307,9.79187817 C152.752707,9.79187817 152.064907,10.1624365 152.064907,10.9035533 C152.064907,11.319797 152.286532,11.680203 152.729781,11.9847716 C153.173029,12.2893401 154.143592,12.7411168 155.641467,13.3401015 C156.976308,13.8781726 157.954512,14.3807107 158.57608,14.8477157 C159.197647,15.3147208 159.65618,15.8527919 159.951679,16.4619289 C160.247178,17.071066 160.394928,17.7969543 160.394928,18.6395939 Z" id="Path"></path>
                    <path d="M163.833927,2.26903553 C163.833927,0.756345178 164.679666,0 166.371145,0 C168.062623,0 168.908362,0.756345178 168.908362,2.26903553 C168.908362,2.98984772 168.696927,3.55076142 168.274058,3.95177665 C167.851188,4.35279188 167.216884,4.55329949 166.371145,4.55329949 C164.679666,4.55329949 163.833927,3.79187817 163.833927,2.26903553 Z M168.69438,23.6954315 L164.032625,23.6954315 L164.032625,6.67005076 L168.69438,6.67005076 L168.69438,23.6954315 Z" id="Shape"></path>
                    <path d="M178.996093,24 C176.988737,24 175.411892,23.2233503 174.265559,21.6700508 C173.119225,20.1167513 172.546059,17.964467 172.546059,15.213198 C172.546059,12.4213198 173.129415,10.2461929 174.296127,8.68781726 C175.46284,7.12944162 177.070254,6.35025381 179.118369,6.35025381 C181.26838,6.35025381 182.90891,7.18274112 184.039959,8.84771574 L184.192803,8.84771574 C183.958442,7.5786802 183.841261,6.44670051 183.841261,5.45177665 L183.841261,0 L188.5183,0 L188.5183,23.6954315 L184.941741,23.6954315 L184.039959,21.4873096 L183.841261,21.4873096 C182.78154,23.1624365 181.166484,24 178.996093,24 Z M180.631528,20.2994924 C181.823715,20.2994924 182.697475,19.9543147 183.25281,19.2639594 C183.808145,18.5736041 184.111286,17.4010152 184.162234,15.7461929 L184.162234,15.2436548 C184.162234,13.4162437 183.879472,12.106599 183.313948,11.3147208 C182.748424,10.5228426 181.82881,10.1269036 180.555106,10.1269036 C179.515764,10.1269036 178.708236,10.5659898 178.132522,11.4441624 C177.556808,12.322335 177.268951,13.5989848 177.268951,15.2741117 C177.268951,16.9492386 177.559356,18.2055838 178.140164,19.0431472 C178.720973,19.8807107 179.551428,20.2994924 180.631528,20.2994924 Z" id="Shape"></path>
                    <path d="M200.470733,9.65482234 C199.48234,9.65482234 198.707928,9.96700508 198.147498,10.5913706 C197.587069,11.215736 197.266095,12.1015228 197.184578,13.248731 L203.726319,13.248731 C203.70594,12.1015228 203.405346,11.215736 202.824537,10.5913706 C202.243729,9.96700508 201.459127,9.65482234 200.470733,9.65482234 Z M201.127964,24 C198.376765,24 196.226753,23.2436548 194.67793,21.7309645 C193.129107,20.2182741 192.354695,18.0761421 192.354695,15.3045685 C192.354695,12.4517766 193.070516,10.2461929 194.502159,8.68781726 C195.933802,7.12944162 197.913137,6.35025381 200.440164,6.35025381 C202.855106,6.35025381 204.735093,7.03553299 206.080123,8.40609137 C207.425154,9.77664975 208.09767,11.6700508 208.09767,14.0862944 L208.09767,16.3401015 L197.077587,16.3401015 C197.128536,17.6598985 197.520836,18.6903553 198.254489,19.4314721 C198.988143,20.1725888 200.017295,20.5431472 201.341947,20.5431472 C202.371099,20.5431472 203.344208,20.4365482 204.261275,20.2233503 C205.178341,20.0101523 206.136166,19.6700508 207.13475,19.2030457 L207.13475,22.7969543 C206.31958,23.2030457 205.448366,23.5050761 204.52111,23.7030457 C203.593854,23.9010152 202.462806,24 201.127964,24 Z" id="Shape"></path>
                    <path d="M221.425703,6.35025381 C222.057459,6.35025381 222.582225,6.39593909 223,6.48730964 L222.648458,10.8426396 C222.271442,10.7411168 221.812908,10.6903553 221.272858,10.6903553 C219.785172,10.6903553 218.626102,11.071066 217.795648,11.8324873 C216.965193,12.5939086 216.549966,13.6598985 216.549966,15.0304569 L216.549966,23.6954315 L211.888211,23.6954315 L211.888211,6.67005076 L215.418917,6.67005076 L216.106717,9.53299492 L216.335984,9.53299492 C216.865844,8.5786802 217.581666,7.80964467 218.483448,7.22588832 C219.38523,6.64213198 220.365981,6.35025381 221.425703,6.35025381 Z" id="Path"></path>
                </g>
            </g>
        </g>
    </g>
</svg>