<?xml version="1.0" encoding="UTF-8"?>
<svg width="7px" height="10px" viewBox="0 0 7 10" version="1.1" xmlns="http://www.w3.org/2000/svg"
>
  <!-- Generator: sketchtool 47 (45396) - http://www.bohemiancoding.com/sketch -->
  <title>7B8E1E4C-B520-44C3-8B46-C2F7824F96C5</title>
  <desc>Created with sketchtool.</desc>
  <defs></defs>
  <g id="Page-3" stroke="none" stroke-width="1" fill="none" fill-rule="evenodd">
    <g id="Node-Info-hover" transform="translate(-1005.000000, -983.000000)" fill="#354052">
      <g id="Group-4" transform="translate(100.000000, 524.000000)">
        <g id="Pagination" transform="translate(891.000000, 446.000000)">
          <g id="Numbers" transform="translate(14.000000, 10.000000)">
            <path
              d="M5.19488896,3.68329404 L0.460913926,7.62866675 L0.460913926,7.62866675 C0.24878415,7.80545919 0.220137585,8.12074295 0.396930032,8.33287273 C0.416290782,8.35610331 0.437719131,8.37752956 0.460951613,8.39688803 L5.19492664,12.3414737 L5.19492664,12.3414737 C5.40707377,12.5182453 5.72235471,12.4895678 5.89912634,12.2774207 C5.97399779,12.187566 6.015,12.0743072 6.015,11.9573474 L6.015,4.06738898 L6.015,4.06738898 C6.015,3.7912466 5.79114237,3.56738898 5.515,3.56738898 C5.39802332,3.56738898 5.28474926,3.60840299 5.19488896,3.68329404 Z"
              id="left"></path>
          </g>
        </g>
      </g>
    </g>
  </g>
</svg>
