<svg xmlns="http://www.w3.org/2000/svg" width="38" height="31" viewBox="0 0 38 31">
    <path fill="#464F5F" fill-rule="nonzero" d="M35.625 0H2.375A2.367 2.367 0 0 0 0 2.359V4.14c0 .743.352 1.442.95 1.888l16.627 12.376c.844.629 2.005.629 2.849 0L37.049 6.029c.599-.445.95-1.144.95-1.887V2.359A2.367 2.367 0 0 0 35.626 0zm1.438 10.68L21.375 22.356a3.98 3.98 0 0 1-4.748 0L.937 10.677a.589.589 0 0 0-.937.466v17.498A2.367 2.367 0 0 0 2.375 31h33.25A2.367 2.367 0 0 0 38 28.641V11.145a.584.584 0 0 0-.937-.466z"/>
</svg>
