<svg xmlns="http://www.w3.org/2000/svg" xmlns:xlink="http://www.w3.org/1999/xlink" width="875" height="599" viewBox="0 0 875 599">
    <defs>
        <linearGradient id="a" x1="98.942%" x2="1.968%" y1="25.591%" y2="71.895%">
            <stop offset="0%" stop-color="#5B96FD"/>
            <stop offset="100%" stop-color="#9548FE"/>
        </linearGradient>
        <linearGradient id="c" x1="98.942%" x2="1.968%" y1="27.534%" y2="70.152%">
            <stop offset="0%" stop-color="#5B96FD"/>
            <stop offset="100%" stop-color="#9548FE"/>
        </linearGradient>
        <path id="b" d="M329.168 564.333c-108.248 14.384-202.86-32.515-182.535-163.341 19.841-130.806-47.856-131.43-98.684-194.8-51.503-62.52-1.706-243.083 207.41-196.079C463.881 57.17 492.351 0 609.76 0c117.408 0 291.12 73.977 261.746 265.722-29.375 191.745-434.09 284.227-542.337 298.611z"/>
    </defs>
    <g fill="none" fill-rule="evenodd">
        <path fill="url(#a)" d="M336.119 591.968c-106.583 23.764-204.923-14.71-196.076-146.81 8.365-132.038-59.13-126.759-115.287-185.459C-32 201.906 1.871 17.69 214.288 46.29c211.83 28.704 235.208-30.73 352.17-40.962 116.96-10.233 296.46 48.322 283.908 241.898C837.815 440.8 442.701 568.204 336.12 591.968z" opacity=".1"/>
        <mask id="d" fill="#fff">
            <use xlink:href="#b"/>
        </mask>
        <use fill="url(#c)" xlink:href="#b"/>
        <path fill="#BAE0FF" fill-rule="nonzero" d="M262.827-186.061h762.593V871.663H503.99c-55.963-42.895-47.28-156.174 26.049-339.835 67.223-168.369-18.486-309.88-223.517-441.063-92.9-59.44-107.466-151.715-43.695-276.826z" mask="url(#d)" opacity=".05" transform="rotate(60 624.656 342.8)"/>
        <path fill="#BAE0FF" fill-rule="nonzero" d="M241.544-298.609h806.864V759.115H496.707c-59.212-42.895-50.025-156.173 27.561-339.835 71.126-168.368-19.56-309.88-236.493-441.062-98.294-59.44-113.704-151.716-46.231-276.827z" mask="url(#d)" opacity=".057" transform="rotate(16 624.378 230.253)"/>
    </g>
</svg>
