<?xml version="1.0" encoding="UTF-8"?>
<svg width="6px" height="10px" viewBox="0 0 6 10" version="1.1" xmlns="http://www.w3.org/2000/svg"
>
  <!-- Generator: sketchtool 47 (45396) - http://www.bohemiancoding.com/sketch -->
  <title>8FFA7AAF-3CF7-4CCF-A2C4-5CD173CD9884</title>
  <desc>Created with sketchtool.</desc>
  <defs></defs>
  <g id="Page-3" stroke="none" stroke-width="1" fill="none" fill-rule="evenodd">
    <g id="Node-Info-hover" transform="translate(-1259.000000, -983.000000)" fill="#354052">
      <g id="Group-4" transform="translate(100.000000, 524.000000)">
        <g id="Pagination" transform="translate(891.000000, 446.000000)">
          <g id="Numbers" transform="translate(14.000000, 10.000000)">
            <path
              d="M259.194889,3.68329404 L254.460914,7.62866675 L254.460914,7.62866675 C254.248784,7.80545919 254.220138,8.12074295 254.39693,8.33287273 C254.416291,8.35610331 254.437719,8.37752956 254.460952,8.39688803 L259.194927,12.3414737 L259.194927,12.3414737 C259.407074,12.5182453 259.722355,12.4895678 259.899126,12.2774207 C259.973998,12.187566 260.015,12.0743072 260.015,11.9573474 L260.015,4.06738898 L260.015,4.06738898 C260.015,3.7912466 259.791142,3.56738898 259.515,3.56738898 C259.398023,3.56738898 259.284749,3.60840299 259.194889,3.68329404 Z"
              id="right"
              transform="translate(257.007500, 8.012300) rotate(-180.000000) translate(-257.007500, -8.012300) "></path>
          </g>
        </g>
      </g>
    </g>
  </g>
</svg>
