<svg xmlns="http://www.w3.org/2000/svg" width="190" height="25" viewBox="0 0 190 25">
    <defs>
        <linearGradient id="syo37slela" x1="0%" x2="100%" y1="100%" y2="0%">
            <stop offset="0%" stop-color="#1CB296"/>
            <stop offset="100%" stop-color="#50E09F"/>
        </linearGradient>
    </defs>
    <g fill="none" fill-rule="evenodd">
        <path fill="#354052" fill-rule="nonzero" d="M37.648 19.912l.902-2.702h5.994l.902 2.702h3.222L43.384 4.9H39.71l-5.263 15.013h3.2zm5.972-5.469h-4.125l2.062-6.134 2.063 6.134zm9.345 5.47V4.254h-2.771v15.657h2.77zm5.5 0V4.254h-2.772v15.657h2.771zm5.5 0V14.12c0-1.78.923-2.66 2.362-2.66 1.29 0 2.127.773 2.127 2.21v6.241h2.771v-6.584c0-1.394-.386-2.467-1.16-3.26-.752-.794-1.718-1.18-2.9-1.18-1.46 0-2.535.493-3.2 1.501v-1.2h-2.772v10.723h2.771zm14.93.3c1.59 0 2.943-.536 4.038-1.63 1.096-1.094 1.654-2.445 1.654-4.033 0-1.587-.558-2.917-1.654-4.01-1.095-1.094-2.449-1.652-4.038-1.652-1.59 0-2.944.558-4.04 1.652-1.095 1.093-1.632 2.423-1.632 4.01 0 1.588.537 2.939 1.633 4.033 1.095 1.094 2.449 1.63 4.039 1.63zm0-2.703c-.838 0-1.526-.279-2.084-.836-.537-.558-.817-1.266-.817-2.124 0-.857.28-1.565.817-2.123.558-.558 1.246-.836 2.084-.836.837 0 1.525.278 2.083.836.559.558.838 1.266.838 2.123 0 .858-.28 1.566-.838 2.124-.558.557-1.246.836-2.083.836zm12.383 2.703c1.504 0 2.664-.515 3.48-1.566v1.265h2.772V4.9h-2.771v5.555c-.817-1.051-1.977-1.566-3.48-1.566-1.44 0-2.686.558-3.717 1.652-1.01 1.093-1.525 2.423-1.525 4.01 0 1.588.515 2.939 1.525 4.033 1.031 1.094 2.277 1.63 3.716 1.63zm.516-2.638c-.86 0-1.568-.28-2.148-.837-.559-.579-.838-1.308-.838-2.188 0-.879.28-1.608.838-2.166.58-.579 1.289-.858 2.148-.858.86 0 1.568.28 2.127.858.558.558.838 1.287.838 2.166 0 .88-.28 1.61-.838 2.188-.559.558-1.268.837-2.127.837zm13.673 2.638c2.062 0 3.63-.772 4.683-2.295l-2.234-1.287c-.537.708-1.354 1.072-2.406 1.072-1.654 0-2.664-.665-3.03-2.016h8.1c.064-.407.107-.772.107-1.137 0-1.608-.516-2.938-1.547-4.032-1.01-1.094-2.32-1.63-3.888-1.63-1.654 0-3.029.536-4.082 1.63-1.052 1.073-1.59 2.424-1.59 4.032 0 1.63.538 2.982 1.612 4.054 1.074 1.073 2.492 1.609 4.275 1.609zm2.449-6.67h-5.478c.322-1.373 1.332-2.167 2.814-2.167 1.267 0 2.342.708 2.664 2.166zm8.13 6.67c1.225 0 2.256-.3 3.072-.88.838-.6 1.246-1.458 1.246-2.552.022-2.295-2.02-3.046-3.587-3.367-1.096-.28-1.955-.6-1.955-1.18 0-.536.537-.88 1.246-.88.794 0 1.375.365 1.718 1.095l2.363-1.287c-.838-1.459-2.341-2.274-4.081-2.274-1.16 0-2.127.3-2.922.922-.773.6-1.16 1.437-1.16 2.488 0 2.231 1.998 2.896 3.588 3.303 1.095.28 1.954.601 1.954 1.18 0 .622-.494.922-1.482.922-1.095 0-1.783-.472-2.105-1.394l-2.406 1.351c.795 1.695 2.298 2.553 4.511 2.553zm19.088 0c2.75 0 5.178-1.373 6.467-3.54l-2.557-1.48c-.709 1.31-2.191 2.124-3.91 2.124-1.46 0-2.642-.45-3.544-1.372-.881-.923-1.332-2.102-1.332-3.54 0-1.458.45-2.637 1.332-3.56.902-.922 2.084-1.372 3.544-1.372 1.719 0 3.158.793 3.91 2.144l2.557-1.48c-1.29-2.166-3.738-3.539-6.467-3.539-2.255 0-4.124.751-5.607 2.253-1.482 1.48-2.212 3.345-2.212 5.555 0 2.209.73 4.053 2.212 5.555 1.483 1.501 3.352 2.252 5.607 2.252zm11.132-.3V14.12c0-1.78.923-2.66 2.363-2.66 1.289 0 2.126.773 2.126 2.21v6.241h2.772v-6.584c0-1.394-.387-2.467-1.16-3.26-.752-.794-1.719-1.18-2.9-1.18-1.461 0-2.535.493-3.201 1.501V4.9h-2.772v15.013h2.772zm14.951.3c2.063 0 3.63-.772 4.684-2.295l-2.235-1.287c-.537.708-1.353 1.072-2.406 1.072-1.654 0-2.664-.665-3.029-2.016h8.1c.064-.407.107-.772.107-1.137 0-1.608-.516-2.938-1.547-4.032-1.01-1.094-2.32-1.63-3.888-1.63-1.655 0-3.03.536-4.082 1.63-1.053 1.073-1.59 2.424-1.59 4.032 0 1.63.537 2.982 1.611 4.054 1.074 1.073 2.492 1.609 4.275 1.609zm2.45-6.67h-5.479c.323-1.373 1.332-2.167 2.815-2.167 1.267 0 2.341.708 2.663 2.166zm9.756 6.67c2.083 0 3.91-1.094 4.855-2.788l-2.406-1.373c-.43.88-1.354 1.415-2.47 1.415-.839 0-1.526-.278-2.063-.815-.537-.557-.816-1.265-.816-2.102 0-1.715 1.224-2.938 2.878-2.938 1.096 0 2.02.558 2.45 1.437l2.384-1.394c-.881-1.694-2.729-2.767-4.812-2.767-1.612 0-2.965.536-4.06 1.63-1.075 1.094-1.612 2.424-1.612 4.032 0 1.61.537 2.939 1.611 4.033 1.096 1.094 2.45 1.63 4.06 1.63zm9.21-.3v-4.87l3.91 4.87h3.223l-4.447-5.427 4.318-5.298h-3.308l-3.695 4.719V4.899h-2.771v15.013h2.77z"/>
        <path fill="url(#syo37slela)" d="M12.261 0c6.772 0 12.261 5.49 12.261 12.261 0 2.604-.811 5.019-2.196 7.004l-.033.048c-.095.133-.28.164-.412.07-.038-.027-.07-.063-.091-.105-1.452-2.785-3.63-6.963-6.532-12.534-.368-.704-1.096-1.147-1.891-1.147H9.942c-.086 0-.17.021-.247.06-.26.137-.362.459-.226.72l8.485 16.283.004.006c.103.197.026.44-.171.544l-.005.002c-1.66.838-3.535 1.31-5.52 1.31-1.953 0-3.798-.456-5.436-1.267-.208-.103-.293-.355-.19-.563l.004-.008.002-.004 5.023-9.64.018-.037c.108-.254.004-.552-.244-.681-.077-.04-.161-.06-.247-.06H7.69c-.765.028-1.459.464-1.814 1.146l-3.089 5.927c-.077.149-.26.206-.41.129-.042-.022-.078-.054-.106-.093l-.016-.022C.835 17.347 0 14.902 0 12.26 0 5.49 5.49 0 12.261 0z"/>
    </g>
</svg>
